<svg width="155" height="36" viewBox="0 0 155 36" fill="none" xmlns="http://www.w3.org/2000/svg">
<g clip-path="url(#clip0_649_6430)">
<path fill-rule="evenodd" clip-rule="evenodd" d="M20.7744 3.17304C20.1014 3.02376 19.4094 2.91911 18.7025 2.8632L18.6178 2.85601C18.3522 2.25121 17.8158 1.4684 17.4665 0.873852C17.4342 0.817937 17.3905 0.774334 17.3386 0.745094C17.2872 0.715854 17.2276 0.699951 17.1624 0.699951C17.0971 0.699951 17.0365 0.715854 16.9857 0.745094C16.9343 0.774334 16.8906 0.817424 16.8582 0.873852L15.7553 2.75034C15.7481 2.76266 15.7409 2.7765 15.7348 2.79035C15.7291 2.80421 15.7239 2.81806 15.7199 2.83191L15.6926 2.91963L15.6012 2.93143C15.0022 3.00581 14.4155 3.11508 13.8427 3.25665C13.4734 3.34797 13.1091 3.45313 12.7506 3.57162C13.0665 3.60651 13.3855 3.65319 13.7076 3.71116C14.245 3.8076 14.79 3.93482 15.3397 4.09333C15.6895 4.03946 16.0409 3.99843 16.3928 3.97124C16.7555 3.94354 17.1203 3.92918 17.4876 3.92918C17.7758 3.92918 18.066 3.93841 18.3573 3.95637C18.6429 3.9738 18.9234 3.99946 19.1987 4.0328C19.8194 3.863 20.4317 3.73219 21.0317 3.64242C21.3841 3.58958 21.734 3.55059 22.0797 3.52546C21.6523 3.38901 21.2166 3.27153 20.7744 3.17304ZM20.236 28.4466C20.9603 27.9932 21.6764 27.4864 22.3772 26.9282C23.0799 26.368 23.7683 25.7545 24.4335 25.0902C24.9776 24.5465 25.4861 23.9904 25.9567 23.4256C26.4391 22.8475 26.8866 22.256 27.2981 21.6558C27.7327 21.0217 28.1256 20.38 28.476 19.7368C28.8315 19.0832 29.1438 18.4271 29.4104 17.775C30.3264 15.5369 30.722 13.3239 30.5504 11.3536C30.3865 9.46582 29.7007 7.80168 28.4519 6.55462C27.2714 5.37579 25.7163 4.69916 23.9522 4.49038C22.2056 4.28416 20.2534 4.53552 18.254 5.2106C18.8376 5.48505 19.4186 5.78155 19.996 6.0996C20.6572 6.46382 21.3173 6.85882 21.9739 7.28305C23.4955 7.04349 25.048 6.97578 26.3266 7.20303C27.447 7.40207 28.3635 7.82784 28.8803 8.56188C29.4967 9.43704 29.5918 10.5636 29.4264 11.7655C29.2631 12.9505 28.8485 14.2063 28.4339 15.3656L28.4318 15.3702C28.2351 15.8626 27.9849 16.3972 27.6833 16.9759C27.3834 17.5525 27.0279 18.1793 26.621 18.8585L26.6169 18.8652C25.9829 19.8019 25.2314 20.7339 24.376 21.6348C23.5489 22.5053 22.6227 23.3471 21.6091 24.1356C20.8591 24.7188 20.0967 25.2457 19.3323 25.713C18.6275 26.1444 17.9196 26.5271 17.2168 26.8595C17.6936 27.1514 18.1739 27.4253 18.6562 27.6813C19.1895 27.9639 19.7171 28.2199 20.236 28.4466ZM8.27918 15.9904C8.85144 15.2281 9.49924 14.4751 10.2148 13.7456C10.9731 12.9736 11.8089 12.2262 12.7151 11.5218C13.4841 10.9231 14.266 10.3851 15.05 9.90853C15.7759 9.46683 16.5038 9.07747 17.2246 8.74194C16.7416 8.44393 16.2587 8.16692 15.7769 7.91249C15.2437 7.63035 14.7125 7.37539 14.1864 7.14917C13.4436 7.60931 12.7095 8.12383 11.9933 8.69224C11.2741 9.26266 10.5703 9.88846 9.89017 10.5672C9.43452 11.0222 9.00192 11.4885 8.59354 11.9645C8.19179 12.4323 7.81527 12.9064 7.46388 13.3845C7.57536 13.8344 7.70532 14.2945 7.85328 14.7629C7.98274 15.1707 8.12504 15.5806 8.27918 15.9904ZM5.21019 26.6255C4.67182 25.8602 4.57524 24.9948 4.7088 24.0648C4.83723 23.1727 5.17731 22.2257 5.53744 21.2521C5.31499 20.8535 5.10334 20.4549 4.90453 20.0568C4.74888 19.7449 4.5999 19.433 4.45862 19.1232C3.82315 21.0798 3.59763 22.9849 3.81442 24.6901C4.03378 26.4178 4.7088 27.9408 5.87238 29.1022C7.03955 30.2683 8.57197 30.9428 10.3109 31.1593C12.0308 31.3737 13.9532 31.1414 15.9248 30.495C15.3377 30.2154 14.7484 29.9127 14.1592 29.587C13.4873 29.2166 12.8158 28.8155 12.148 28.3857C10.6833 28.5533 9.16533 28.4861 7.89589 28.1727C6.70717 27.8788 5.73214 27.3668 5.21019 26.6255ZM16.9287 14.1544L16.0425 16.3459C16.0142 16.4156 15.9752 16.4757 15.9258 16.5255C15.8761 16.5757 15.8165 16.6152 15.7481 16.6435L13.48 17.5858C13.4302 17.6063 13.3907 17.6396 13.3634 17.6802C13.3362 17.7212 13.3213 17.771 13.3213 17.8248C13.3213 17.8787 13.3367 17.928 13.3644 17.9685C13.3917 18.009 13.4323 18.0418 13.4821 18.0618L15.6772 18.9468C15.7471 18.9749 15.8072 19.014 15.8565 19.0627C15.9068 19.1129 15.9464 19.1725 15.9752 19.2407L16.9189 21.5055C16.9394 21.5553 16.9723 21.5947 17.0134 21.6219C17.0545 21.6492 17.1043 21.6645 17.1577 21.664C17.2117 21.664 17.2616 21.6481 17.3021 21.6209C17.3422 21.5937 17.375 21.5532 17.3951 21.5034L18.2817 19.3115C18.309 19.2427 18.3486 19.1827 18.3984 19.1324C18.4472 19.0822 18.5068 19.0427 18.5762 19.014L20.8437 18.0716C20.8935 18.0511 20.9336 18.0177 20.9608 17.9772C20.988 17.9361 21.003 17.8864 21.0024 17.8331C21.0024 17.7787 20.987 17.7294 20.9593 17.6889C20.932 17.6483 20.892 17.6161 20.8417 17.5961L18.647 16.7107C18.5766 16.683 18.517 16.6439 18.4672 16.5947C18.4174 16.5455 18.3779 16.486 18.349 16.4167L17.4053 14.1524C17.3848 14.1026 17.3514 14.0626 17.3109 14.0354C17.2697 14.0083 17.2194 13.9934 17.166 13.9934C17.112 13.9939 17.0622 14.0093 17.0217 14.037C16.9815 14.0642 16.9492 14.1047 16.9287 14.1544ZM27.7311 22.6925C27.9613 24.193 28.0136 25.713 27.7789 26.9667C27.5719 28.0742 27.1388 28.9796 26.4062 29.4941C25.5304 30.1092 24.4115 30.2134 23.216 30.0574C22.0386 29.9036 20.7898 29.4983 19.6282 29.0843C19.0575 28.8812 18.4739 28.6252 17.8852 28.3199C17.299 28.0167 16.7093 27.6653 16.1237 27.2704C15.1856 26.6369 14.2517 25.8863 13.3496 25.0317C12.4778 24.2058 11.6353 23.2814 10.8462 22.2694C10.2051 21.448 9.59684 20.5642 9.0492 19.6372C8.53598 18.7672 8.07574 17.8582 7.69248 16.9271L7.6632 16.8563L7.66474 16.8543C7.50241 16.4562 7.35806 16.0622 7.23065 15.6744C7.09503 15.261 6.9779 14.8511 6.8803 14.4469C6.84074 14.2812 6.80426 14.1176 6.76933 13.9503C6.42976 12.2888 6.3039 10.5462 6.52634 9.10361C6.72053 7.84426 7.17979 6.80803 7.99247 6.2376C8.86842 5.62304 9.96775 5.49993 11.1431 5.6369C12.3016 5.7713 13.533 6.15808 14.696 6.57258C16.3065 7.14711 17.8534 8.06177 19.2676 9.16007C20.8766 10.4086 22.3145 11.8963 23.4781 13.3875C24.0668 14.1421 24.5969 14.909 25.068 15.6775C25.5011 16.3834 25.8843 17.0928 26.2172 17.7966C26.5193 17.2714 26.7987 16.7676 27.0545 16.2864C27.334 15.7596 27.5857 15.2574 27.8092 14.7798C27.3541 14.0534 26.845 13.3352 26.2845 12.6329C25.7194 11.925 25.1019 11.234 24.4341 10.5672C23.89 10.024 23.3234 9.50681 22.7367 9.02054C22.1573 8.54088 21.5557 8.08792 20.9351 7.66625C19.7279 6.84702 18.458 6.15244 17.1084 5.59791C14.8676 4.68326 12.6514 4.28826 10.6777 4.45908C8.78772 4.62273 7.12072 5.30807 5.87238 6.55462C4.62353 7.80168 3.93771 9.46582 3.77333 11.3536C3.60226 13.3239 3.99782 15.5369 4.91326 17.7746C4.99443 17.97 5.07817 18.1793 5.16961 18.3697C5.71775 19.5905 6.39534 20.7612 7.17054 21.8646C7.98118 23.0193 8.89973 24.1006 9.89017 25.0902C10.4347 25.6335 10.9921 26.1413 11.5577 26.6117C12.1362 27.0929 12.7285 27.5392 13.3295 27.9501C13.9639 28.3841 14.6061 28.7765 15.2508 29.1263C15.9053 29.4814 16.5623 29.7933 17.2158 30.0595C19.4566 30.9741 21.6728 31.3691 23.646 31.1978C25.5365 31.0341 27.2035 30.3493 28.4519 29.1022C29.6288 27.9275 30.3054 26.3824 30.517 24.6291C30.7266 22.8941 30.481 20.9545 29.8137 18.9668C29.5374 19.5505 29.2394 20.1323 28.9204 20.7094C28.5541 21.3721 28.1575 22.0338 27.7311 22.6925ZM3.51955 17.1975C3.53033 16.9759 3.54677 16.7548 3.56784 16.5352C3.38392 15.9648 3.23238 15.3985 3.11422 14.8403C3.04333 14.5054 2.98425 14.1724 2.9375 13.8421C2.85839 14.1267 2.78698 14.4151 2.7238 14.7064C2.61437 15.2143 2.53012 15.7314 2.47362 16.2557L2.45666 16.4095L2.30511 16.3803C2.26401 16.3721 2.22292 16.3721 2.18182 16.3788C2.14072 16.3864 2.10065 16.4013 2.06213 16.4239L0.18294 17.5248C0.126431 17.5576 0.0827644 17.6012 0.0539963 17.6525C0.0247143 17.7033 0.00878906 17.7633 0.00878906 17.829C0.00878906 17.8936 0.0247143 17.9536 0.0539963 18.0049C0.0832785 18.0562 0.126431 18.0998 0.18294 18.1321L2.06213 19.2335C2.10014 19.255 2.13867 19.2699 2.1772 19.2771C2.21727 19.2848 2.25734 19.2853 2.29638 19.2791L2.44484 19.2556L2.45974 19.4054C2.51368 19.9475 2.59691 20.4821 2.70735 21.0074C2.77106 21.31 2.844 21.6091 2.92517 21.9051C2.97089 21.5691 3.02946 21.229 3.10035 20.8858C3.2185 20.3133 3.37211 19.7331 3.55961 19.1494C3.54164 18.9457 3.52725 18.7421 3.518 18.5394C3.50773 18.3199 3.50208 18.1044 3.50208 17.8941C3.50208 17.6658 3.50824 17.4335 3.51955 17.1975ZM16.2433 31.8052C15.8391 31.7692 15.4383 31.7164 15.0438 31.6466C14.4952 31.7944 13.9485 31.9113 13.4076 31.9965C13.0855 32.0478 12.7665 32.0873 12.4511 32.115C12.8666 32.2622 13.29 32.3915 13.7199 32.5018C14.3513 32.6639 15.0012 32.7865 15.6665 32.866L15.7363 32.8742L16.8578 34.7835C16.8906 34.8394 16.9343 34.883 16.9857 34.9123C17.0365 34.9415 17.0971 34.9574 17.1624 34.9574C17.2276 34.9574 17.2872 34.9415 17.3386 34.9123C17.3905 34.883 17.4342 34.8394 17.4665 34.7835L18.5509 32.9373L18.6255 32.9321C19.4058 32.8742 20.1697 32.7568 20.912 32.5844C21.4237 32.4659 21.9256 32.3212 22.4157 32.1524C22.072 32.136 21.7242 32.1063 21.3733 32.0621C20.7682 31.9862 20.1512 31.8688 19.5275 31.7113C19.1977 31.7595 18.8633 31.7964 18.5253 31.821C18.1811 31.8467 17.8348 31.8595 17.4876 31.8595C17.0684 31.8595 16.6533 31.8411 16.2433 31.8052ZM31.3991 19.3263C31.3508 19.7947 31.2799 20.2558 31.1874 20.7088C31.3179 21.3059 31.4109 21.8984 31.4648 22.4822C31.4956 22.8182 31.5142 23.1507 31.5187 23.4779C31.7489 22.9013 31.9446 22.3073 32.1034 21.6984C32.3186 20.873 32.4656 20.0189 32.5375 19.1421L32.5431 19.0688L34.1413 18.1326C34.1973 18.0998 34.241 18.0562 34.2703 18.0049C34.2996 17.9536 34.3154 17.8936 34.3154 17.829C34.3154 17.7633 34.2996 17.7033 34.2703 17.6525C34.241 17.6012 34.1973 17.5576 34.1413 17.5252L32.5323 16.5819L32.5256 16.5095C32.4481 15.6616 32.3001 14.8326 32.0874 14.0293C31.9312 13.4399 31.7402 12.8638 31.5162 12.3042C31.508 12.6268 31.4874 12.9535 31.454 13.2834C31.397 13.8502 31.303 14.4279 31.1725 15.0121C31.2701 15.4754 31.3446 15.9484 31.395 16.429C31.4458 16.9133 31.472 17.4016 31.472 17.8941C31.472 18.3748 31.4474 18.8529 31.3991 19.3263Z" fill="white"/>
<path d="M54.5999 18.4318C57.6647 18.4318 59.1976 16.9113 59.1976 13.8704C59.1976 13.027 59.0697 12.1734 58.8144 11.3101C58.2051 9.24989 56.8001 8.21984 54.5999 8.21984H53.0084C50.6899 8.21984 49.5304 9.22065 49.5304 11.2218V18.4318H54.5999ZM53.0084 28.2025H42.8701L43.0468 27.6726C45.3652 27.6726 46.5247 26.6426 46.5247 24.5825V9.51511C46.5247 8.71074 46.1219 8.30807 45.3165 8.30807C44.6681 8.30807 43.8523 8.38656 42.8701 8.54351L43.0468 7.60221H54.5999C59.7083 7.60221 62.2625 9.53464 62.2625 13.3994C62.2625 15.1262 61.6681 16.524 60.4794 17.593C59.2906 18.6626 57.3308 19.1971 54.5999 19.1971H49.5304V26.2897C49.5304 27.094 49.9332 27.4962 50.7393 27.4962C51.3876 27.4962 52.2028 27.4177 53.1851 27.2607L53.0084 28.2025ZM71.2531 28.2025H61.5278L61.7041 27.6726C63.9439 27.6726 65.0643 26.6426 65.0643 24.5825V15.4006C65.0643 14.7337 64.8234 14.3315 64.3421 14.1941C63.8607 14.0571 62.9226 13.9883 61.5278 13.9883L61.7041 13.4877L68.4826 12.8993C68.2078 13.3507 68.0408 13.9001 67.9818 14.5475C67.9232 15.1948 67.8933 15.8423 67.8933 16.4896C70.7224 14.0961 72.8544 12.8993 74.2886 12.8993C74.8979 12.8993 75.3598 13.1101 75.6741 13.5318C75.988 13.954 76.1452 14.4787 76.1452 15.1066C72.5302 15.1066 69.7798 15.754 67.8933 17.0487V26.2897C67.8933 27.094 68.2766 27.4962 69.0431 27.4962C69.6713 27.4962 70.4671 27.4177 71.4298 27.2607L71.2531 28.2025ZM85.4013 18.638C85.7159 18.638 85.9956 18.5349 86.2417 18.3292C86.487 18.1229 86.6093 17.8239 86.6093 17.4315C86.6093 16.0972 86.2705 15.1066 85.5929 14.4592C84.9152 13.8113 84.0654 13.4877 83.0435 13.4877C81.7864 13.4877 80.7302 13.9488 79.875 14.8712C79.0213 15.793 78.466 17.0487 78.2105 18.638H85.4013ZM82.6899 28.6442C80.3719 28.6442 78.54 27.9476 77.1937 26.5544C75.8478 25.1616 75.1748 23.2974 75.1748 20.9628C75.1748 19.1971 75.5385 17.7259 76.2654 16.5486C76.9923 15.3713 77.955 14.4936 79.1537 13.9145C80.3517 13.3358 81.6587 13.0465 83.0731 13.0465C84.8218 13.0465 86.2612 13.4584 87.3906 14.2823C88.5199 15.1066 89.0854 16.2054 89.0854 17.5787C89.0854 18.1081 88.9966 18.6575 88.8206 19.2264H78.1513C78.1124 19.5799 78.0929 19.9527 78.0929 20.3447C78.0929 22.4443 78.5883 24.1562 79.5814 25.4802C80.5729 26.8046 81.9632 27.4669 83.7508 27.4669C84.93 27.4669 85.9029 27.192 86.6685 26.6426C87.435 26.0931 87.9996 25.4217 88.3634 24.6266C88.7264 23.8324 88.9086 23.0522 88.9086 22.2874H89.439C89.439 24.3475 88.8152 25.9219 87.5681 27.0104C86.3196 28.0994 84.694 28.6442 82.6899 28.6442ZM117.763 28.2025H109.393L109.57 27.6726C110.199 27.6726 110.69 27.4716 111.044 27.0694C111.397 26.6672 111.574 25.8383 111.574 24.5825V17.8434C111.574 15.4893 110.602 14.312 108.657 14.312C107.418 14.312 106.073 14.7337 104.619 15.5776C104.775 16.0484 104.855 16.5681 104.855 17.137V26.2897C104.855 27.094 105.237 27.4962 106.004 27.4962C106.633 27.4962 107.428 27.4177 108.391 27.2607L108.214 28.2025H99.8443L100.021 27.6726C100.65 27.6726 101.141 27.4716 101.495 27.0694C101.848 26.6672 102.025 25.8383 102.025 24.5825V17.8434C102.025 15.4498 101.062 14.253 99.1371 14.253C97.9781 14.253 96.7007 14.6455 95.3057 15.4303V26.2897C95.3057 27.094 95.6889 27.4962 96.4553 27.4962C97.0839 27.4962 97.8799 27.4177 98.8426 27.2607L98.6658 28.2025H88.9398L89.1166 27.6726C91.3567 27.6726 92.4767 26.6426 92.4767 24.5825V15.4006C92.4767 14.7337 92.2361 14.3315 91.7547 14.1941C91.2733 14.0571 90.3356 13.9883 88.9398 13.9883L89.1166 13.4877L95.8953 12.8993C95.5806 13.4097 95.4038 14.0273 95.3649 14.7532C97.3292 13.5174 99.0685 12.8993 100.581 12.8993C102.389 12.8993 103.666 13.6154 104.413 15.0476C106.653 13.6154 108.578 12.8993 110.189 12.8993C111.564 12.8993 112.61 13.3112 113.328 14.1356C114.045 14.9594 114.403 15.9597 114.403 17.137V26.2897C114.403 27.094 114.787 27.4962 115.552 27.4962C116.182 27.4962 116.977 27.4177 117.94 27.2607L117.763 28.2025ZM126.695 28.2025H116.969L117.146 27.6726C119.386 27.6726 120.506 26.6426 120.506 24.5825V15.4006C120.506 14.7337 120.265 14.3315 119.784 14.1941C119.303 14.0571 118.364 13.9883 116.969 13.9883L117.146 13.4877L123.925 12.8993C123.65 13.3507 123.483 13.9001 123.424 14.5475C123.365 15.1948 123.336 19.1089 123.336 26.2897C123.336 27.094 123.718 27.4962 124.485 27.4962C125.113 27.4962 125.909 27.4177 126.872 27.2607L126.695 28.2025ZM121.803 10.4272C121.311 10.4272 120.899 10.2754 120.565 9.97112C120.231 9.66694 120.064 9.24989 120.064 8.72054C120.064 8.2101 120.231 7.79817 120.565 7.48422C120.899 7.17028 121.311 7.01331 121.803 7.01331C122.294 7.01331 122.706 7.17028 123.041 7.48422C123.375 7.79817 123.541 8.2101 123.541 8.72054C123.541 9.24989 123.375 9.66694 123.041 9.97112C122.706 10.2754 122.294 10.4272 121.803 10.4272ZM136.836 18.638C137.15 18.638 137.429 18.5349 137.675 18.3292C137.921 18.1229 138.044 17.8239 138.044 17.4315C138.044 16.0972 137.705 15.1066 137.027 14.4592C136.349 13.8113 135.499 13.4877 134.478 13.4877C133.22 13.4877 132.165 13.9488 131.309 14.8712C130.455 15.793 129.899 17.0487 129.644 18.638H136.836ZM134.124 28.6442C131.805 28.6442 129.973 27.9476 128.628 26.5544C127.282 25.1616 126.609 23.2974 126.609 20.9628C126.609 19.1971 126.972 17.7259 127.699 16.5486C128.426 15.3713 129.389 14.4936 130.587 13.9145C131.786 13.3358 133.092 13.0465 134.507 13.0465C136.255 13.0465 137.695 13.4584 138.825 14.2823C139.954 15.1066 140.52 16.2054 140.52 17.5787C140.52 18.1081 140.431 18.6575 140.254 19.2264H129.586C129.546 19.5799 129.526 19.9527 129.526 20.3447C129.526 22.4443 130.023 24.1562 131.015 25.4802C132.007 26.8046 133.397 27.4669 135.185 27.4669C136.364 27.4669 137.336 27.192 138.102 26.6426C138.868 26.0931 139.433 25.4217 139.797 24.6266C140.161 23.8324 140.343 23.0522 140.343 22.2874H140.873C140.873 24.3475 140.249 25.9219 139.002 27.0104C137.754 28.0994 136.128 28.6442 134.124 28.6442ZM150.099 28.2025H140.374L140.551 27.6726C142.79 27.6726 143.91 26.6426 143.91 24.5825V15.4006C143.91 14.7337 143.67 14.3315 143.188 14.1941C142.707 14.0571 141.769 13.9883 140.374 13.9883L140.551 13.4877L147.329 12.8993C147.054 13.3507 146.887 13.9001 146.828 14.5475C146.77 15.1948 146.739 15.8423 146.739 16.4896C149.569 14.0961 151.701 12.8993 153.135 12.8993C153.744 12.8993 154.206 13.1101 154.52 13.5318C154.834 13.954 154.992 14.4787 154.992 15.1066C151.376 15.1066 148.626 15.754 146.739 17.0487V26.2897C146.739 27.094 147.122 27.4962 147.889 27.4962C148.518 27.4962 149.313 27.4177 150.276 27.2607L150.099 28.2025Z" fill="white"/>
</g>
<defs>
<clipPath id="clip0_649_6430">
<rect width="155" height="35" fill="white" transform="translate(0 0.699951)"/>
</clipPath>
</defs>
</svg>
