<svg width="133" height="78" viewBox="0 0 133 78" fill="none" xmlns="http://www.w3.org/2000/svg">
<g clip-path="url(#clip0_649_6575)">
<path d="M130.725 0.699951C131.136 0.853221 131.558 0.97456 131.926 1.23001C132.773 1.81846 133.08 2.58298 132.771 3.56373C132.25 5.21868 131.003 6.20034 129.535 6.95939C129.427 7.01505 129.29 7.05975 129.205 6.9375C129.135 6.83714 129.224 6.73405 129.279 6.64647C129.642 6.05984 129.917 5.44129 130.023 4.75157C130.132 4.03814 129.754 3.5692 129.035 3.53819C128.34 3.50808 127.725 3.75167 127.142 4.09197C125.544 5.02253 124.286 6.34175 123.1 7.73122C120.041 11.3139 117.536 15.2834 115.157 19.3341C112.701 23.5135 110.417 27.7859 108.396 32.1961C107.928 33.2151 107.684 34.2616 107.895 35.3819C107.963 35.7459 107.791 35.922 107.457 35.8937C106.367 35.8006 105.351 35.4758 104.445 34.8454C104.085 34.5945 104.109 34.2314 104.172 33.8583C104.483 32.0309 104.876 30.2209 105.272 28.4108C106.122 24.5243 106.984 20.6397 107.84 16.7541C107.852 16.6966 107.853 16.6355 107.872 16.4667C107.752 16.6282 107.683 16.7076 107.63 16.7979C106.847 18.1189 105.951 19.3332 104.566 20.0877C104.345 20.2081 104.334 20.4289 104.283 20.6305C103.61 23.3182 102.609 25.8664 101.053 28.1745C100.55 28.9208 99.9852 29.6142 99.2602 30.1607C98.2886 30.8933 97.318 30.9516 96.3091 30.261C94.9172 29.3086 94.4323 27.9382 94.6234 26.2942C94.637 26.1738 94.6579 26.0543 94.6725 25.933C94.678 25.8883 94.6725 25.8436 94.6725 25.7587C94.4997 25.829 94.4587 25.9777 94.385 26.0908C93.3543 27.6682 92.3109 29.2356 91.0591 30.6515C90.8981 30.833 90.7316 31.0109 90.5515 31.1733C89.8883 31.7709 89.4544 31.8183 88.6602 31.3959C87.3984 30.7254 86.9427 29.7383 87.2538 28.3251C87.5968 26.7705 88.2254 25.3199 88.9067 23.8939C89.6072 22.4278 90.3523 20.9818 91.0764 19.5266C91.2047 19.2684 91.3402 19.0112 91.3884 18.7229C91.4103 18.5924 91.4448 18.4355 91.2829 18.3625C91.1537 18.3041 91.0437 18.3817 90.9591 18.4711C90.7617 18.6809 90.5579 18.888 90.3841 19.1161C88.3482 21.7947 86.6097 24.6639 84.9868 27.6062C84.5538 28.3908 84.1526 29.1918 83.7751 30.0056C83.5021 30.594 83.3084 31.1816 83.3466 31.8457C83.3739 32.321 83.2065 32.4269 82.7234 32.3265C81.9611 32.1687 81.3061 31.801 80.7402 31.2728C80.3236 30.8841 80.2008 30.4198 80.3709 29.8632C80.6074 29.0914 80.9131 28.3479 81.2115 27.5998C81.2379 27.5341 81.2551 27.4647 81.2151 27.3653C80.8503 27.9337 80.4892 28.503 80.1207 29.0686C79.3911 30.1899 78.6343 31.291 77.7628 32.3074C77.3761 32.758 76.9558 33.1731 76.4582 33.5043C75.9943 33.8136 75.5158 33.8446 75.0482 33.5463C73.7573 32.7225 73.0996 31.8649 73.468 30.3085C73.5935 29.7784 73.7073 29.2447 73.7728 28.6736C73.7027 28.8031 73.6308 28.9309 73.5626 29.0613C72.6929 30.698 71.8587 32.3557 70.7043 33.82C70.5824 33.9751 70.4532 34.1247 70.3149 34.2661C69.5708 35.0297 69.0277 35.0863 68.1535 34.4632C66.7998 33.4979 66.3395 32.1669 66.6024 30.552C66.6825 30.0594 66.7598 29.5667 66.848 29.0166C66.6579 29.1215 66.5988 29.273 66.5169 29.3998C65.2115 31.4142 63.9115 33.4323 62.3995 35.3007C62.1239 35.6419 61.8055 35.9493 61.4989 36.265C61.1796 36.5944 60.8012 36.6537 60.3709 36.5068C59.8023 36.3125 59.2974 36.0141 58.8535 35.6118C58.3759 35.1793 58.2076 34.6529 58.3231 34.0079C58.7061 31.8722 59.4557 29.8486 60.1989 27.8242C60.6756 26.5269 61.2024 25.2478 61.6972 23.9569C61.7746 23.7562 61.9738 23.466 61.7518 23.3374C61.5153 23.2006 61.3861 23.5336 61.2624 23.7014C59.8214 25.6474 58.6415 27.7558 57.4844 29.876C56.4436 31.7828 55.4229 33.7032 54.6906 35.7568C54.4323 36.4812 54.1366 37.2102 54.2985 38.0158C54.3513 38.2776 54.1575 38.3789 53.9483 38.3925C52.9904 38.4528 52.0734 38.3059 51.2474 37.7813C50.8844 37.5514 50.7825 37.2156 50.8662 36.7932C51.1691 35.2688 51.654 33.7963 52.1453 32.3283C52.8876 30.1096 53.669 27.9045 54.425 25.6912C54.4841 25.5188 54.6761 25.2715 54.4714 25.1566C54.2531 25.0343 54.1002 25.3108 53.9874 25.4704C53.1095 26.7112 52.3363 28.0194 51.5539 29.3213C50.2003 31.5738 48.8503 33.8318 47.694 36.1929C47.019 37.5724 46.5487 39.0357 46.445 40.5894C46.4313 40.7883 46.384 40.9087 46.1575 40.8969C45.3051 40.8513 44.5082 40.6551 43.866 40.0448C43.513 39.709 43.3492 39.3094 43.4448 38.8122C43.7495 37.2275 44.2335 35.6912 44.6856 34.1466C45.3724 31.8019 46.0875 29.4655 46.7907 27.1226C46.657 27.067 46.6215 27.1792 46.5705 27.2358C45.0477 28.9108 43.4302 30.4927 41.8155 32.0765C41.4707 32.415 41.3761 32.7544 41.4216 33.2087C41.6708 35.6793 41.3743 38.0942 40.5828 40.4398C39.9642 42.2727 39.0026 43.8911 37.4279 45.078C36.8011 45.5506 36.1052 45.8626 35.3283 46.0132C34.6979 46.1354 34.1275 46.0332 33.5826 45.7094C33.1996 45.4822 32.8757 45.1866 32.5782 44.86C31.6731 43.8683 31.3974 42.7808 32.0024 41.5136C32.6319 40.1953 33.5225 39.0658 34.4613 37.9683C35.4193 36.8489 36.4109 35.755 37.4943 34.7588C38.0192 34.2771 38.2003 33.7388 38.1775 33.0719C38.1502 32.2645 37.9956 31.4781 37.8027 30.6068C37.2023 31.437 36.6474 32.207 36.0897 32.9752C35.7686 33.4177 35.4466 33.8601 35.1136 34.2926C35.009 34.4285 34.8734 34.6566 34.6851 34.5152C34.5114 34.3847 34.6578 34.1731 34.7588 34.0271C35.6831 32.6851 36.4281 31.2399 37.216 29.8185C37.4416 29.4107 37.5189 29.0349 37.4188 28.5705C37.2687 27.8744 37.1759 27.1637 37.1013 26.4548C36.9749 25.2469 37.2287 24.101 37.7117 22.9935C38.2931 21.6606 39.0026 20.4125 40.0088 19.3515C40.4145 18.9236 40.8666 18.628 41.4998 18.8378C42.2339 19.0805 42.929 19.3715 43.2701 20.1415C43.3729 20.3733 43.3247 20.6178 43.2746 20.8586C43.0017 22.1751 42.3476 23.3274 41.7172 24.4878C41.3697 25.1283 40.984 25.7487 40.601 26.3681C40.4564 26.6017 40.4054 26.8261 40.4536 27.1007C40.6656 28.2968 40.8548 29.4965 41.0704 30.6916C41.0941 30.8221 41.034 31.2746 41.3997 30.9224C43.4893 28.9126 45.6217 26.9447 47.4375 24.6694C47.5821 24.4878 47.6795 24.2871 47.7468 24.0663C48.0033 23.2234 48.2635 22.3813 48.5273 21.541C48.6247 21.2327 48.6538 20.917 48.6656 20.5977C48.6802 20.21 48.8566 20.0549 49.2569 20.1488C49.9292 20.3067 50.5587 20.5493 51.1209 20.9572C51.6667 21.3531 51.8878 21.8585 51.7395 22.5409C51.2938 24.5937 50.6324 26.5834 50.0193 28.5869C49.9219 28.9053 49.8228 29.2237 49.7263 29.5366C49.7891 29.5932 49.8118 29.543 49.8319 29.5111C51.4866 26.8197 53.1432 24.1293 54.5669 21.3038C54.9071 20.6287 55.2801 19.9609 55.3447 19.179C55.3675 18.9008 55.5203 18.7384 55.8214 18.7393C56.6301 18.742 57.4289 18.8232 58.1848 19.1261C59.0281 19.4637 59.2565 19.9481 58.9927 20.8176C58.3686 22.8685 57.5517 24.8509 56.8321 26.8681C56.7065 27.2212 56.5792 27.5751 56.5355 27.9647C56.7802 27.9757 56.8448 27.7941 56.9367 27.6746C59.1346 24.7971 61.0668 21.7454 62.8353 18.5869C62.9472 18.3871 63.04 18.1764 63.0482 17.9428C63.06 17.6281 63.2219 17.5049 63.5212 17.5597C64.3909 17.7184 65.2387 17.9474 65.9883 18.4391C66.5915 18.8351 66.7389 19.2028 66.5578 19.9198C66.0911 21.7664 65.3534 23.519 64.6738 25.2916C63.9451 27.192 63.1382 29.0622 62.496 30.9963C62.3859 31.3284 62.1412 31.7527 62.5542 31.9844C62.9026 32.1796 63.1555 31.7892 63.3747 31.5638C64.9576 29.939 66.3049 28.1189 67.6595 26.3061C67.7568 26.1756 67.8078 26.0078 67.8705 25.8536C69.0077 23.0464 70.4632 20.4271 72.4191 18.1052C73.0568 17.3489 73.7446 16.64 74.5915 16.1109C75.7387 15.3947 76.5565 15.4732 77.5508 16.3892C77.6845 16.5123 77.8119 16.6437 77.9329 16.7796C78.3386 17.234 78.3432 17.2376 78.5724 16.6446C78.7307 16.2341 78.8853 15.8208 79.01 15.3993C79.08 15.163 79.1974 15.0608 79.433 15.1092C80.0434 15.2342 80.6411 15.3966 81.1887 15.7113C81.5353 15.9102 81.67 16.1675 81.5563 16.5807C81.1305 18.1235 80.5028 19.5905 79.917 21.073C78.9681 23.4752 77.9502 25.849 77.0623 28.2749C76.8794 28.7748 76.7075 29.2766 76.592 29.7976C76.5556 29.9636 76.5346 30.1242 76.582 30.2911C76.7011 30.709 76.9067 30.7801 77.2288 30.4854C77.8801 29.8879 78.4332 29.1991 78.9718 28.503C80.3654 26.7011 81.7555 24.8956 83.1082 23.0628C83.614 22.3776 83.8442 21.5347 84.1872 20.7574C84.8603 19.2283 85.5299 17.6965 86.0684 16.1127C86.2204 15.6648 86.3595 15.215 86.3132 14.7324C86.2868 14.4587 86.4032 14.3492 86.6779 14.3519C87.322 14.3592 87.9488 14.4569 88.5392 14.715C89.2197 15.0125 89.4453 15.4577 89.2697 16.1766C88.9286 17.5706 88.3163 18.8652 87.7732 20.1853C87.5658 20.6908 87.3411 21.1898 87.121 21.698C87.2793 21.7107 87.3047 21.5739 87.3639 21.4945C88.8567 19.5011 90.3896 17.5359 91.6614 15.3865C91.8633 15.0453 92.0434 14.6968 92.0443 14.2808C92.0443 13.9852 92.2199 13.8711 92.4947 13.9204C93.2934 14.0627 94.0621 14.2899 94.6998 14.8236C95.2302 15.2679 95.464 15.8199 95.3002 16.5242C94.9609 17.9885 94.3059 19.3287 93.6673 20.6716C92.7275 22.6468 91.7469 24.6019 90.7835 26.5661C90.6225 26.8945 90.4796 27.2294 90.3996 27.5879C90.3696 27.722 90.3332 27.8671 90.4533 27.972C90.5888 28.0906 90.7389 28.0313 90.879 27.9647C91.2811 27.774 91.6222 27.4939 91.9443 27.1938C93.1697 26.0516 94.254 24.7789 95.2675 23.4514C95.6286 22.9779 95.8142 22.3722 96.0971 21.8348C96.8513 20.4016 97.7582 19.0769 98.9154 17.9365C99.0928 17.7622 99.1055 17.5943 99.0655 17.3653C98.8444 16.1063 99.0819 14.9705 100.042 14.0664C101.282 12.8959 103.157 12.9141 104.144 14.102C104.619 14.6749 104.789 15.3683 104.824 16.0936C104.856 16.7623 104.827 17.4301 104.74 18.0952C104.726 18.2102 104.672 18.3698 104.779 18.4391C104.919 18.5286 105.03 18.3762 105.134 18.3023C106.343 17.4456 107.106 16.2259 107.857 14.9851C108.556 13.8301 108.741 12.5428 108.946 11.2537C108.998 10.928 108.843 10.6278 108.772 10.3195C108.693 9.97644 108.782 9.79763 109.165 9.7958C109.944 9.79124 110.712 9.84872 111.438 10.1562C112.382 10.5549 112.799 11.2345 112.656 12.2481C112.407 13.998 111.881 15.683 111.408 17.379C110.428 20.8896 109.426 24.3957 108.436 27.9036C108.383 28.0897 108.345 28.2795 108.376 28.5002C108.534 28.1973 108.698 27.8972 108.849 27.5906C111.378 22.4816 114.104 17.4803 117.125 12.6468C119.108 9.47375 121.223 6.39467 123.93 3.77539C124.905 2.83114 125.957 1.99362 127.169 1.36777C127.753 1.06579 128.378 0.889714 129.001 0.700863H130.73L130.725 0.699951ZM69.8028 30.6688C69.8101 30.8586 69.7691 31.0593 69.962 31.1706C70.1794 31.2965 70.345 31.1487 70.4887 31.0228C70.727 30.813 70.9545 30.5885 71.1673 30.3522C71.7878 29.6634 72.3372 28.9181 72.8658 28.159C73.6809 26.9894 74.6152 25.8737 75.2383 24.6064C76.1926 22.6641 76.9222 20.6105 77.7546 18.6061C77.8455 18.3871 77.7846 18.2667 77.5881 18.17C77.0777 17.9191 76.5965 17.9374 76.1498 18.3096C75.776 18.6207 75.4394 18.971 75.1501 19.3633C73.0568 22.1906 71.5276 25.3153 70.324 28.6106C70.0793 29.2812 69.881 29.9654 69.8055 30.6697L69.8028 30.6688ZM97.4762 27.1208C97.5145 27.3516 97.4981 27.7093 97.8119 27.889C98.1494 28.0815 98.4587 27.9008 98.7325 27.6983C98.9263 27.5551 99.1201 27.4009 99.2747 27.2175C100.85 25.3445 101.746 23.133 102.417 20.813C102.471 20.6232 102.422 20.5366 102.224 20.4992C101.852 20.4298 101.478 20.3459 101.149 20.1525C100.902 20.0074 100.755 20.0622 100.579 20.2784C99.7059 21.3558 98.9591 22.5118 98.3696 23.768C97.8829 24.8053 97.5317 25.8828 97.4762 27.1208ZM37.8409 36.3115C36.7848 37.2439 35.1018 39.5977 34.6406 40.7409C34.5159 41.0501 34.4095 41.364 34.3986 41.7052C34.3895 42.0008 34.4613 42.2626 34.7352 42.3967C35.0336 42.5436 35.1809 42.2681 35.3219 42.0966C36.6829 40.4416 37.3633 38.4874 37.8409 36.3115ZM101.192 16.9685C101.183 17.9657 101.707 18.7621 102.481 18.9437C102.659 18.9856 102.82 19.0212 102.854 18.7721C102.949 18.0806 103.067 17.3854 103.004 16.6893C102.941 15.9987 102.6 15.6502 102.124 15.6639C101.648 15.6775 101.243 16.1647 101.192 16.7869C101.188 16.8471 101.192 16.9083 101.192 16.9694L101.192 16.9685Z" fill="white"/>
<path d="M-6.68498e-05 30.4416C0.754995 25.9621 3.16573 22.3721 6.12412 19.096C9.35906 15.5133 13.078 12.5427 17.4146 10.3915C18.8728 9.66802 20.3921 9.10694 22.0277 8.92357C23.1503 8.79767 24.131 9.10147 24.9497 9.8815C25.7803 10.6716 26.025 11.656 25.8148 12.7608C25.3918 14.9832 24.5622 17.0761 23.7407 19.1671C21.6957 24.371 19.3932 29.4672 17.2599 34.6346C15.6834 38.4536 14.095 42.2708 13.007 46.2686C12.6995 47.398 12.4594 48.543 12.493 49.7263C12.4967 49.8476 12.4921 49.9717 12.5158 50.0894C12.6149 50.5857 13.0034 50.7243 13.3809 50.385C13.733 50.0684 13.9986 49.6761 14.2606 49.2847C15.4359 47.5267 16.4421 45.6701 17.4237 43.7998C21.4137 36.1984 25.068 28.4318 28.7077 20.6588C30.3243 17.2056 31.9299 13.747 33.542 10.292C33.7867 9.76838 34.0614 9.26113 34.428 8.80861C34.8065 8.3415 35.2713 8.0897 35.8917 8.14992C36.484 8.20739 37.0653 8.30227 37.602 8.56959C38.1733 8.85514 38.307 9.14435 38.0969 9.74922C37.4692 11.5584 36.7196 13.321 36.0009 15.0945C32.9734 22.571 29.9322 30.0429 27.4532 37.7283C26.8801 39.5064 26.337 41.2946 25.9258 43.1192C25.8258 43.5635 25.7439 44.0142 25.7785 44.474C25.8349 45.2212 26.237 45.4466 26.8792 45.0716C27.4623 44.7313 27.9272 44.2487 28.373 43.7487C29.4956 42.487 30.4708 41.1112 31.4596 39.7455C31.5833 39.5739 31.7043 39.2391 31.949 39.3814C32.1965 39.5265 31.9654 39.7965 31.8699 39.9827C30.4981 42.6485 29.0343 45.255 27.0293 47.5121C26.6445 47.9454 26.2133 48.3258 25.7512 48.6744C24.9051 49.3112 23.9881 49.4891 23.0211 49.0137C22.0441 48.5329 21.7548 47.6261 21.7211 46.6225C21.6629 44.891 22.0132 43.2068 22.3916 41.5318C23.1749 38.0577 24.2947 34.6848 25.4737 31.3302C25.5237 31.1888 25.5729 31.0465 25.5592 30.8777C25.3573 31.3503 25.1544 31.8229 24.9524 32.2954C22.3752 38.3478 19.8026 44.4029 16.856 50.2873C16.1828 51.6321 15.4951 52.9732 14.4625 54.0935C13.8285 54.7824 13.118 55.3662 12.2519 55.7385C10.7273 56.3926 9.31721 55.9757 8.39567 54.5953C7.78071 53.6739 7.49506 52.642 7.4332 51.5463C7.31857 49.5037 7.70338 47.5203 8.20918 45.5597C9.2599 41.4862 10.8191 37.5951 12.483 33.7442C14.5026 29.0704 16.7623 24.5106 19.0193 19.9499C20.05 17.8671 21.1307 15.8079 22.0386 13.6667C22.3052 13.0372 22.5617 12.4013 22.5372 11.6952C22.5153 11.0666 22.2497 10.8121 21.6183 10.8595C20.927 10.9115 20.2938 11.1715 19.677 11.468C17.7202 12.4086 15.9927 13.6941 14.3443 15.089C11.2221 17.7302 8.43479 20.6797 6.21509 24.1356C5.14254 25.8061 4.24465 27.5623 3.89896 29.5457C3.79525 30.1414 3.72521 30.7427 3.83437 31.3567C3.98266 32.1969 4.44115 32.6184 5.28172 32.6193C6.40431 32.6211 7.32585 32.0893 8.18917 31.4597C10.1296 30.0438 11.6433 28.2374 12.8751 26.1829C12.9761 26.0141 13.047 25.6765 13.2845 25.7915C13.5574 25.9229 13.3363 26.2048 13.2481 26.3863C11.9181 29.1078 10.327 31.6486 8.03452 33.6749C6.7964 34.7687 5.42091 35.5962 3.70701 35.6838C1.71292 35.7851 0.621267 35.0114 0.0627033 33.0773C0.0463285 33.0189 0.0208565 32.9642 -0.000976562 32.9067V30.4434L-6.68498e-05 30.4416Z" fill="white"/>
<path d="M46.5776 77.6999C45.0202 77.0996 43.7584 76.1079 42.7759 74.7641C41.7916 73.4193 41.4304 71.9213 41.596 70.249C41.9708 66.4574 43.1898 62.8975 44.4743 59.354C45.6761 56.0395 47.0707 52.8008 48.387 49.532C48.4461 49.386 48.6181 49.2108 48.4907 49.0776C48.3643 48.9444 48.1823 49.1068 48.0349 49.1616C41.203 51.6768 34.5139 54.5424 27.8284 57.4181C25.9071 58.2446 24.0003 59.1104 21.9799 59.6806C21.8052 59.7299 21.6269 59.7691 21.4495 59.8084C20.7527 59.9653 20.2023 59.7609 19.7938 59.1606C19.0915 58.1306 18.734 56.9856 18.6221 55.7531C18.5875 55.3781 18.7349 55.1272 19.0679 54.9375C22.4948 52.9869 26.1036 51.4542 29.8361 50.2062C29.9517 50.1678 30.1127 50.0438 30.1964 50.2153C30.2664 50.3594 30.1109 50.4625 30.0144 50.5501C29.6997 50.8357 29.3749 51.1094 29.0583 51.3931C28.8609 51.5692 28.6717 51.7553 28.5262 52.0025C29.9726 51.4697 31.419 50.9351 32.8664 50.4032C38.4156 48.3624 43.9976 46.4191 49.6351 44.6373C50.0772 44.4978 50.372 44.3281 50.3092 43.8035C50.2901 43.642 50.3493 43.4732 50.3629 43.3063C50.4257 42.5271 50.5303 42.4323 51.289 42.5618C51.8894 42.664 52.4807 42.8319 53.0011 43.1494C53.3804 43.3811 53.7197 43.3656 54.1191 43.2424C59.3636 41.6312 64.6508 40.1734 69.9754 38.8514C77.2113 37.055 84.5026 35.5278 91.8613 34.3208C95.6275 33.7032 99.4064 33.1813 103.194 32.7179C103.781 32.6458 103.833 32.7124 103.756 33.3182C103.671 33.9887 103.491 34.652 103.763 35.3399C103.888 35.6555 103.52 35.62 103.343 35.6482C102.521 35.7814 101.695 35.8909 100.871 36.0104C96.7637 36.6071 92.6791 37.3324 88.6081 38.1389C77.7061 40.2993 66.937 42.9915 56.3343 46.337C55.6547 46.5514 54.9788 46.7758 54.2983 46.9857C54.0609 47.0587 53.9171 47.1928 53.8271 47.4281C51.9722 52.2644 50.0108 57.0614 48.4889 62.0198C47.6993 64.5926 47.0106 67.189 46.6385 69.8603C46.5185 70.7197 46.462 71.5846 46.4939 72.4513C46.5294 73.3965 47.208 73.9393 48.1468 73.8088C48.9619 73.6957 49.6824 73.3417 50.3756 72.9321C52.0431 71.9459 53.5514 70.7553 54.8751 69.333C55.0534 69.1414 55.2417 68.8175 55.5392 69.0119C55.8676 69.2253 55.6893 69.572 55.5528 69.8339C54.7905 71.2981 53.8007 72.6046 52.7391 73.8581C51.7948 74.973 50.7786 76.0148 49.5878 76.8743C49.1293 77.2045 48.6299 77.4554 48.1241 77.6981H46.5776V77.6999Z" fill="white"/>
<path d="M133 23.6904C131.141 25.7842 129.075 27.618 126.502 28.7958C125.837 29.1005 125.137 29.2893 124.388 29.21C122.561 29.0166 121.607 27.7439 121.911 25.9092C122.033 25.1757 122.274 24.4759 122.452 23.747C122.032 24.3519 121.622 24.9649 121.188 25.5598C120.32 26.7494 119.46 27.9491 118.329 28.9116C117.187 29.8842 116.528 29.7902 115.597 28.606C114.836 27.6371 114.746 26.5688 115.002 25.4156C115.402 23.6193 116.136 21.9543 117.006 20.3486C118.154 18.2311 119.49 16.244 121.213 14.5435C121.721 14.0408 122.268 13.5846 122.885 13.2188C124.138 12.4743 125.01 12.5382 126.128 13.4724C126.384 13.6859 126.617 13.9267 126.846 14.1694C127.022 14.3583 127.134 14.3437 127.248 14.1129C127.435 13.7315 127.668 13.3675 127.772 12.9533C127.874 12.5455 128.096 12.5017 128.445 12.6404C128.998 12.8602 129.52 13.1312 129.982 13.5116C130.516 13.9523 130.607 14.267 130.347 14.9093C129.85 16.1364 129.189 17.2823 128.562 18.4446C127.483 20.4489 126.334 22.4177 125.413 24.5051C125.223 24.9357 125.049 25.3737 124.967 25.8417C124.84 26.5724 125.285 27.0204 126.015 26.8936C127.756 26.5916 129.243 25.7003 130.728 24.8162C131.327 24.4604 131.892 24.048 132.471 23.6585C132.634 23.5481 132.791 23.4258 133 23.4167V23.6904ZM125.647 14.7852C125.212 14.7752 124.859 14.9796 124.531 15.2323C124.011 15.6319 123.563 16.1081 123.147 16.6117C121.708 18.3515 120.531 20.261 119.543 22.2882C119.131 23.1339 118.747 23.9951 118.603 24.9394C118.58 25.0863 118.513 25.2578 118.664 25.3609C118.827 25.4731 118.991 25.381 119.12 25.2724C119.329 25.0972 119.537 24.9175 119.722 24.7177C122.237 21.9926 124.654 19.1954 126.328 15.8381C126.763 14.9659 126.727 14.8573 125.738 14.7843C125.708 14.7825 125.677 14.7843 125.647 14.7843V14.7852Z" fill="white"/>
<path d="M86.9465 52.4569C87.1667 52.102 87.3577 51.8018 87.5433 51.4971C88.876 49.303 90.2015 47.1052 91.3459 44.8034C91.6497 44.1922 91.9672 43.5836 92.0336 42.8848C92.06 42.6102 92.2292 42.4715 92.4912 42.4797C93.3109 42.5044 94.1296 42.5637 94.8847 42.9259C95.5542 43.247 95.7489 43.6566 95.5415 44.3682C95.0312 46.1208 94.3343 47.8068 93.7148 49.521C93.5547 49.9635 93.4064 50.4106 93.2545 50.8567C93.2063 50.9972 93.1544 51.1395 93.2317 51.3439C93.5647 51.0765 93.7894 50.7536 94.0205 50.4452C95.7225 48.1699 97.3227 45.8243 98.761 43.3711C98.9748 43.0061 99.2085 42.6458 99.234 42.1997C99.2477 41.9551 99.416 41.9004 99.6206 41.9369C100.476 42.0911 101.309 42.3183 102.044 42.8036C102.595 43.1676 102.733 43.5189 102.571 44.1675C102.06 46.223 101.232 48.1699 100.488 50.1442C99.829 51.8922 99.1649 53.6393 98.5063 55.3873C98.4262 55.5998 98.3543 55.817 98.3507 56.0496C98.3434 56.4602 98.5345 56.6162 98.922 56.4848C99.3032 56.3552 99.5979 56.0843 99.8881 55.8161C100.658 55.1008 101.315 54.2843 101.982 53.476C102.134 53.2917 102.281 52.9632 102.584 53.1439C102.866 53.3117 102.736 53.6238 102.623 53.8454C101.56 55.9246 100.371 57.9217 98.5854 59.4717C97.3973 60.5027 95.5988 60.1231 94.8283 58.7355C94.6136 58.3487 94.6454 57.9409 94.7228 57.5358C95.1803 55.151 96.0619 52.8994 96.9088 50.6386C97.2236 49.7993 97.5638 48.97 97.8922 48.1361C97.9368 48.023 97.9886 47.9117 98.0177 47.794C98.0459 47.6791 98.0951 47.5294 97.9795 47.4546C97.8449 47.368 97.7557 47.5103 97.6848 47.5969C97.4346 47.9026 97.1781 48.2046 96.957 48.5303C94.8874 51.5957 93.0298 54.7797 91.6079 58.2036C91.2486 59.0694 90.8856 59.9507 91.0239 60.9333C91.0575 61.175 90.8756 61.269 90.6891 61.28C89.7457 61.3338 88.8451 61.175 88.0455 60.6377C87.7698 60.4525 87.6889 60.1715 87.7407 59.8358C87.9327 58.5977 88.3284 57.4144 88.7196 56.2348C89.4837 53.9275 90.2888 51.634 91.0766 49.3349C91.0866 49.3066 91.103 49.2793 91.1094 49.2501C91.153 49.0348 91.3814 48.72 91.1967 48.6279C90.9374 48.4992 90.771 48.8441 90.6382 49.0439C89.0243 51.4743 87.5633 53.9987 86.1141 56.5304C85.2208 58.0905 84.3966 59.6743 83.9845 61.4433C83.8844 61.8739 83.7698 62.299 83.798 62.7451C83.8189 63.069 83.677 63.1703 83.3623 63.1457C82.5854 63.0864 81.8667 62.8884 81.2927 62.3309C80.9452 61.9934 80.8023 61.592 80.907 61.0893C81.1653 59.8531 81.541 58.6497 81.8722 57.4336C81.8904 57.3661 81.9522 57.2986 81.8649 57.1946C81.4009 57.9518 80.9497 58.7026 80.4839 59.4435C79.6998 60.6915 78.8947 61.925 77.9449 63.0562C77.5628 63.5106 77.1526 63.9357 76.6668 64.2824C76.1692 64.6382 75.6688 64.6747 75.143 64.3435C74.609 64.0078 74.1642 63.5854 73.8012 63.0663C73.3509 62.4222 73.3845 61.7206 73.5228 61.0072C73.6411 60.3977 73.7885 59.7938 73.864 59.1488C73.7948 59.2783 73.7229 59.407 73.6574 59.5383C72.8705 61.1157 72.0682 62.6849 71.0711 64.1437C70.7536 64.609 70.408 65.0506 69.984 65.4265C69.5501 65.8124 69.0843 65.8689 68.5549 65.6226C67.2058 64.9949 66.2506 63.3354 66.4107 61.8547C66.4744 61.2681 66.5499 60.6824 66.6308 60.0018C66.3124 60.5282 66.0386 60.9853 65.7593 61.4396C64.6531 63.2424 63.4596 64.9822 62.0131 66.5322C61.1907 67.4135 60.3001 68.2118 59.1848 68.7136C57.9613 69.2637 57.1553 69.1177 56.2437 68.1269C55.0265 66.8032 54.528 65.2358 54.6617 63.4358C54.9183 59.9735 55.8626 56.7165 57.5082 53.6675C58.5762 51.6896 59.848 49.8622 61.6056 48.4235C62.3152 47.8424 63.0857 47.3625 64.0009 47.1682C64.4739 47.0669 64.9333 47.097 65.38 47.2922C66.2669 47.6791 66.9674 48.2867 67.5051 49.0886C67.8116 49.5466 67.8626 50.0465 67.747 50.5739C67.3459 52.4021 66.4125 53.9567 65.2462 55.3791C63.4659 57.5504 61.3418 59.323 58.9065 60.7143C58.5771 60.9023 58.4152 61.1185 58.4189 61.5026C58.4243 62.0773 58.3215 62.6457 58.4143 63.2287C58.5999 64.3946 59.3904 64.8389 60.4448 64.3052C61.5865 63.7277 62.4835 62.83 63.3695 61.9377C64.6968 60.6012 65.9149 59.1643 67.0447 57.6535C67.3113 57.2968 67.5087 56.9163 67.6652 56.4985C68.8715 53.2716 70.488 50.2764 72.715 47.6344C73.3427 46.889 74.0286 46.2002 74.8765 45.6993C75.9126 45.0871 76.6659 45.1647 77.5756 45.9548C77.9167 46.2513 78.2706 46.5341 78.6145 46.8196C78.7991 46.3562 79.0821 45.7878 79.2094 45.1629C79.284 44.7979 79.4732 44.6839 79.8217 44.7687C80.3384 44.8937 80.8469 45.0415 81.32 45.2924C81.8994 45.6008 81.995 45.7951 81.8303 46.431C81.5101 47.669 81.0307 48.8532 80.5804 50.0465C79.4114 53.1448 78.1096 56.1919 77.0407 59.3285C76.9033 59.7308 76.7687 60.1368 76.725 60.562C76.6977 60.8201 76.7014 61.1112 76.9643 61.2517C77.2535 61.4068 77.4064 61.1285 77.5619 60.9643C78.5772 59.8923 79.4423 58.6981 80.3275 57.5212C80.9206 56.732 81.4773 55.9146 82.0914 55.1428C82.66 54.4284 83.022 53.6374 83.2795 52.7643C84.0364 50.2007 84.8305 47.648 85.6256 45.0954C85.7712 44.6273 85.874 44.1566 85.9158 43.6712C85.944 43.3464 86.1151 43.2598 86.4107 43.3218C87.0866 43.465 87.7216 43.7059 88.2738 44.1283C88.7396 44.485 88.9716 44.9266 88.8396 45.5543C88.3884 47.7 87.6825 49.771 87.0448 51.8621C86.9938 52.0299 86.8856 52.1905 86.9456 52.4614L86.9465 52.4569ZM69.7803 61.2572C69.8239 61.456 69.7038 61.716 69.9404 61.8365C70.2096 61.9742 70.4025 61.7617 70.5708 61.5965C70.8419 61.332 71.1066 61.0583 71.3431 60.7636C72.6204 59.178 73.7266 57.471 74.8292 55.7622C75.0584 55.4064 75.3222 55.0707 75.4805 54.6702C76.251 52.7233 77.0243 50.7764 77.7994 48.8313C78.0914 48.0996 77.9085 47.8269 77.108 47.805C76.7796 47.7958 76.5276 47.9518 76.2929 48.1507C75.8389 48.5357 75.456 48.9864 75.1148 49.4718C73.199 52.1951 71.7743 55.1729 70.5917 58.2748C70.2242 59.2391 69.8912 60.2153 69.7793 61.2553L69.7803 61.2572ZM58.8018 59.3796C59.0647 59.2592 59.2158 59.0895 59.3722 58.9326C60.1555 58.148 60.9005 57.3287 61.5792 56.4519C62.8564 54.8025 64.0054 53.0745 64.7041 51.0857C64.8851 50.5702 65.0352 50.0447 65.0243 49.4864C65.0179 49.1379 64.8878 48.8669 64.5767 48.6999C64.2783 48.5403 64.05 48.7228 63.8316 48.8806C63.3304 49.241 62.9711 49.7336 62.6336 50.2381C61.1089 52.5153 60.0618 55.015 59.2467 57.6197C59.072 58.179 58.9028 58.741 58.8028 59.3787L58.8018 59.3796Z" fill="white"/>
<path d="M108.886 34.9476C108.564 35.0261 108.466 34.8591 108.491 34.4979C108.542 33.7571 108.769 33.071 109.059 32.3986C109.165 32.1532 109.364 32.0848 109.606 32.0665C111.146 31.9498 112.684 31.8093 114.226 31.7162C117.19 31.5383 120.154 31.385 123.123 31.333C124.237 31.3139 125.29 32.3557 125.328 33.4806C125.337 33.747 125.187 33.8373 124.979 33.8675C124.559 33.9277 124.139 33.997 123.717 34.0125C121.658 34.0882 119.597 34.1147 117.54 34.2223C115.408 34.3337 113.28 34.496 111.157 34.7269C110.42 34.8071 109.681 34.871 108.886 34.9486V34.9476Z" fill="white"/>
</g>
<defs>
<clipPath id="clip0_649_6575">
<rect width="133" height="77" fill="white" transform="translate(0 0.699951)"/>
</clipPath>
</defs>
</svg>
