<svg width="143" height="26" viewBox="0 0 143 26" fill="none" xmlns="http://www.w3.org/2000/svg">
<g clip-path="url(#clip0_649_6442)">
<path d="M130.828 0.713135C137.118 0.798689 142.973 5.69339 143 13.1761C143.026 20.2393 137.673 25.5618 130.79 25.6868C124.191 25.8069 118.607 20.0073 118.608 13.2205C118.608 6.34986 124.111 0.718071 130.828 0.713135ZM123.157 13.163C123.162 17.6299 126.568 21.0521 131.009 21.0504C135.092 21.0504 138.551 17.4226 138.55 13.1416C138.548 8.85233 135.034 5.34788 130.737 5.34788C126.571 5.34788 123.152 8.87371 123.157 13.1613V13.163Z" fill="white"/>
<path d="M46.7379 10.4449C46.7379 8.06422 46.7379 5.68351 46.7379 3.30443C46.7395 1.66574 47.6856 0.696669 49.2801 0.69996C51.4216 0.70325 53.5647 0.709831 55.7062 0.711476C61.8122 0.719703 66.7886 4.93655 67.9246 11.0652C69.2101 18.0017 64.0003 24.9662 57.1317 25.5585C54.4561 25.7888 51.7804 25.6473 49.1063 25.6802C47.6808 25.6983 46.746 24.6865 46.7492 23.2288C46.7556 20.6638 46.429 21.085 48.7749 21.0636C51.1851 21.0422 53.5953 21.0751 56.0039 21.0718C60.1212 21.0669 63.6254 17.5032 63.6222 13.3406C63.6174 8.92964 60.2209 5.36268 56.0071 5.34952C54.7215 5.34458 53.436 5.37749 52.152 5.338C51.4795 5.31825 51.2703 5.5815 51.2752 6.24948C51.2961 9.9711 51.2848 13.6911 51.2848 17.4127C51.2848 18.3549 50.8102 18.8265 49.8609 18.8276C49.1111 18.8276 48.3598 18.7964 47.6116 18.8359C46.9358 18.8721 46.7315 18.5776 46.7379 17.9161C46.7621 15.4268 46.7476 12.9359 46.7476 10.4466H46.7363L46.7379 10.4449Z" fill="white"/>
<path d="M31.8538 17.2926C32.042 16.8977 31.9744 16.595 31.9744 16.3021C31.9793 11.9224 31.968 7.54268 31.9841 3.16295C31.9905 1.31695 33.4836 0.252453 35.0105 0.973085C35.601 1.25114 35.9968 1.70852 36.1674 2.3617C36.2929 2.84377 36.317 3.33241 36.317 3.826C36.3154 10.1768 36.317 16.5275 36.317 22.8783C36.317 23.6319 36.2349 24.3591 35.704 24.9448C34.7676 25.9797 33.3485 25.9237 32.4008 24.7918C29.8072 21.6937 27.2248 18.5891 24.6376 15.4861C21.5999 11.8418 18.5526 8.20408 15.5294 4.54663C14.3227 3.08727 14.9164 1.13926 16.654 0.759198C17.5341 0.566701 18.2389 0.925371 18.7923 1.59171C21.9121 5.34459 25.019 9.10898 28.1355 12.8635C29.3454 14.3229 30.5714 15.7674 31.8538 17.2926Z" fill="white"/>
<path d="M104.482 10.8875C105.553 10.8875 106.625 10.8776 107.696 10.8891C109.201 10.9072 110.121 11.8171 110.132 13.3373C110.148 15.6358 110.124 17.9359 110.139 20.236C110.145 21.1014 109.769 21.743 109.176 22.3156C103.647 27.6644 94.4884 26.4206 90.4966 19.7819C89.6439 18.3636 89.1017 16.8368 88.8008 15.203C88.6753 14.5219 88.9022 14.3064 89.5377 14.3228C90.4484 14.3475 91.3622 14.3738 92.2697 14.3146C93.0162 14.2652 93.2704 14.6058 93.4555 15.2985C94.3854 18.7963 97.5277 21.1672 101.055 21.0586C102.501 21.0142 103.843 20.5864 105.064 19.7687C105.441 19.517 105.616 19.2142 105.606 18.7552C105.589 17.9342 105.585 17.1132 105.606 16.2922C105.621 15.7328 105.397 15.5025 104.847 15.5107C103.589 15.5288 102.329 15.537 101.071 15.5041C99.6531 15.4679 98.765 14.6864 98.6797 13.4673C98.5719 11.9421 99.4311 10.9467 100.945 10.9072C102.123 10.876 103.302 10.9006 104.482 10.9006V10.8891V10.8875Z" fill="white"/>
<path d="M100.403 5.33795C97.5341 5.30834 94.601 7.46201 93.5423 10.7065C93.2463 11.6136 92.6252 12.0671 91.6792 12.0671C90.9294 12.0671 90.1813 12.0556 89.4315 12.0671C88.8989 12.0754 88.7525 11.8615 88.8185 11.3103C89.4363 6.18856 93.9639 1.58343 98.9951 0.880896C102.945 0.331373 106.351 1.43042 109.252 4.18132C110.348 5.22114 110.42 6.62785 109.514 7.60021C108.633 8.54625 107.299 8.54131 106.219 7.54756C104.688 6.13756 102.932 5.32808 100.401 5.33631L100.403 5.33795Z" fill="white"/>
<path d="M76.3394 13.2419C76.3394 9.90364 76.3362 6.56537 76.3394 3.2271C76.341 1.78749 77.1471 0.805256 78.3619 0.734509C79.5605 0.665407 80.4969 1.57689 80.6594 2.9836C80.6868 3.22711 80.6868 3.47554 80.6868 3.72069C80.6948 10.0418 80.7029 16.363 80.7045 22.6842C80.7045 23.0642 80.6755 23.4509 80.6015 23.8227C80.3698 25.0057 79.39 25.7937 78.3216 25.6901C77.1696 25.5766 76.3217 24.647 76.3169 23.4213C76.304 20.0287 76.3121 16.6345 76.3121 13.2419H76.3346H76.3394Z" fill="white"/>
<path d="M4.3428 13.1877C4.3428 16.5555 4.35407 19.9218 4.33798 23.2897C4.32993 24.9201 2.94785 25.9978 1.54002 25.5091C0.825646 25.2607 0.37675 24.7523 0.17724 24.0136C0.0404797 23.5085 0.00669185 22.9919 0.00669185 22.4687C0.0050829 16.2528 -0.00135288 10.0386 0.000256064 3.82438C0.000256064 3.39002 0.0292171 2.9458 0.114491 2.52132C0.339744 1.3943 1.33246 0.62431 2.37184 0.727962C3.51902 0.841486 4.34924 1.72171 4.35568 2.92112C4.37337 6.3433 4.36211 9.76548 4.36211 13.1877H4.3428Z" fill="white"/>
<path d="M15.1547 7.49658C16.4467 9.06124 17.737 10.6275 19.029 12.1922C19.2527 12.4637 19.2736 12.7894 19.2736 13.1218C19.28 16.4337 19.2945 19.744 19.2865 23.056C19.2849 24.1007 18.9743 25.0073 17.9526 25.4762C16.4483 26.1688 14.9101 25.1323 14.9053 23.3867C14.894 19.8296 14.9182 16.2725 14.9246 12.7138C14.9278 10.9977 14.9246 9.28335 14.9246 7.56733C15.0002 7.5443 15.0775 7.51962 15.1531 7.49658H15.1547Z" fill="white"/>
</g>
<defs>
<clipPath id="clip0_649_6442">
<rect width="143" height="25" fill="white" transform="translate(0 0.699951)"/>
</clipPath>
</defs>
</svg>
