<svg width="89" height="52" viewBox="0 0 89 52" fill="none" xmlns="http://www.w3.org/2000/svg">
<path d="M53.5429 19.4238C49.8274 19.4238 46.6379 17.1999 45.5946 13.692C44.3731 9.57147 43.2788 5.40898 42.1166 1.27166C42.0233 0.927587 42.1166 0.810097 42.456 0.768137C43.4315 0.642255 44.39 0.675823 45.3231 0.994724C46.3665 1.34719 47.0536 2.03535 47.3335 3.10954C47.4862 3.71377 47.6813 4.318 47.8255 4.92224C47.9188 5.31667 48.0461 5.35023 48.3684 5.10686C49.8953 3.94036 51.6343 3.3613 53.5598 3.3613C58.1405 3.3613 61.8729 7.00348 61.8474 11.4261C61.8305 15.832 58.1066 19.4154 53.5429 19.4154V19.4238ZM57.3346 11.3758C57.3177 9.33649 55.5787 7.68324 53.492 7.71681C51.4052 7.75038 49.7256 9.38684 49.7172 11.3926C49.7172 13.4151 51.4391 15.0767 53.5429 15.0767C55.6381 15.0767 57.3516 13.3983 57.3346 11.3674V11.3758Z" fill="white"/>
<path d="M27.2634 11.9381C27.2634 7.48183 30.2154 4.08302 34.1768 3.47879C38.3843 2.84099 42.3372 5.15722 43.5078 9.05955C44.3306 11.7954 45.0177 14.5732 45.7642 17.3342C45.9084 17.8545 46.0526 18.3664 46.1884 18.8867C46.2477 19.0965 46.2647 19.3063 45.9678 19.3399C44.5512 19.5161 43.1685 19.4826 41.9724 18.551C41.7349 18.3664 41.5144 18.1482 41.4041 17.8713C41.209 17.3761 41.0054 17.4936 40.6491 17.737C37.6463 19.8266 34.4737 20.0364 31.2927 18.2489C28.6631 16.7719 27.3652 14.4053 27.2634 11.9297V11.9381ZM31.7762 11.401C31.7762 13.4402 33.4897 15.0851 35.5934 15.0767C37.6887 15.0767 39.3937 13.3983 39.3852 11.359C39.3767 9.35328 37.6717 7.71681 35.585 7.70842C33.4813 7.70003 31.7677 9.35328 31.7762 11.3926V11.401Z" fill="white"/>
<path d="M0.00848271 35.4276C0.00848271 33.9506 0.0254481 32.4736 0 30.9966C0 30.5853 0.135723 30.4427 0.534411 30.4511C1.85771 30.4679 3.18102 30.4427 4.50432 30.4679C5.59859 30.493 6.379 31.0469 6.81161 32.0288C7.23575 32.9855 7.18485 33.9086 6.39596 34.6891C6.18389 34.8989 6.24327 34.9912 6.46382 35.1423C7.58354 35.9395 7.96526 37.0892 7.56658 38.3984C7.19334 39.632 6.16693 40.4209 4.82666 40.4545C3.39308 40.488 1.95951 40.4545 0.517445 40.4713C0.127241 40.4713 0 40.3538 0.00848271 39.9677C0.0254481 38.4572 0.00848271 36.9382 0.00848271 35.4276ZM3.3846 39.0446C3.83418 39.0446 4.27529 39.0614 4.72487 39.0446C5.59011 39.011 6.14996 38.432 6.19238 37.5508C6.23479 36.6277 5.71735 35.9479 4.84363 35.8976C3.85963 35.8388 2.86716 35.8724 1.88316 35.8724C1.60323 35.8724 1.47599 35.9899 1.47599 36.2752C1.47599 37.0725 1.48447 37.8613 1.47599 38.6586C1.47599 38.9859 1.62868 39.0698 1.92557 39.0698C2.40909 39.0614 2.8926 39.0698 3.37612 39.0698L3.3846 39.0446ZM3.14708 34.4205C3.53729 34.4205 3.92749 34.4373 4.3177 34.4205C5.08114 34.3702 5.52224 33.8751 5.51376 33.103C5.51376 32.3309 5.04721 31.8526 4.2668 31.8358C3.65605 31.819 3.03681 31.8274 2.42605 31.8358C1.3742 31.8442 1.48447 31.6931 1.47599 32.7841C1.47599 34.4373 1.47599 34.4373 3.1386 34.4205H3.14708Z" fill="white"/>
<path d="M29.6556 35.671C30.402 35.671 31.1485 35.6794 31.895 35.671C32.2682 35.671 32.3955 35.7633 32.3785 36.1745C32.2767 38.8348 29.4859 40.6895 27.0853 40.5216C24.7101 40.3538 22.9627 38.9187 22.4452 36.72C21.9108 34.4877 22.827 32.205 24.7101 31.0973C26.6103 29.9727 29.3587 30.1993 30.9873 31.6344C31.5981 32.1715 32.0137 32.8428 32.2428 33.6233C32.3276 33.9002 32.2852 34.0513 31.9544 34.0345C31.7847 34.0261 31.6151 34.0177 31.4539 34.0345C30.9958 34.0933 30.7413 33.9506 30.5208 33.489C29.5622 31.4833 26.254 31.2315 24.6847 33.0191C23.565 34.2863 23.5056 36.3759 24.549 37.7522C25.5584 39.0866 27.4416 39.5313 29.0278 38.7928C29.2653 38.6837 29.4944 38.5495 29.6895 38.39C30.0627 38.0879 30.6056 37.7103 30.4784 37.2739C30.3681 36.9046 29.7149 37.148 29.3078 37.1228C28.6546 37.0892 28.0014 37.0976 27.3483 37.1228C26.958 37.1312 26.7969 36.9885 26.8393 36.6025C26.8478 36.5102 26.8478 36.4179 26.8393 36.3256C26.7629 35.8304 26.958 35.629 27.4755 35.6542C28.1965 35.6878 28.926 35.6626 29.6556 35.6626V35.671Z" fill="white"/>
<path d="M74.8599 40.5888C71.9588 40.5888 69.5837 38.2725 69.5921 35.4528C69.5921 32.6414 71.9928 30.3084 74.8769 30.3084C77.7695 30.3084 80.1701 32.633 80.1786 35.436C80.187 38.2809 77.8034 40.5971 74.8599 40.5888ZM71.119 35.4612C71.119 37.4753 72.8241 39.1369 74.8769 39.1369C76.9551 39.1369 78.6432 37.4921 78.6432 35.4696C78.6432 33.4135 76.9636 31.7686 74.8599 31.777C72.7901 31.777 71.119 33.4387 71.119 35.4612Z" fill="white"/>
<path d="M51.3289 35.436C51.3289 32.6078 53.7125 30.3 56.6051 30.3084C59.5147 30.3168 61.8814 32.6246 61.8814 35.4444C61.8814 38.3145 59.5232 40.5971 56.5712 40.5888C53.6616 40.5888 51.3204 38.2809 51.3289 35.436ZM56.5797 39.1369C58.6664 39.1369 60.3969 37.4669 60.3884 35.4444C60.3799 33.4303 58.6834 31.7854 56.6136 31.7854C54.5523 31.7854 52.8388 33.4387 52.8303 35.4444C52.8218 37.4417 54.5438 39.1369 56.5797 39.1453V39.1369Z" fill="white"/>
<path d="M43.1006 35.4444C43.1006 38.2809 40.7594 40.5804 37.8498 40.5888C34.9318 40.5971 32.5566 38.3229 32.5482 35.4947C32.5397 32.633 34.9063 30.3 37.8244 30.3084C40.7255 30.3084 43.0922 32.6162 43.1006 35.4444ZM37.8074 39.1369C39.8687 39.1369 41.5822 37.5005 41.6077 35.4863C41.6247 33.4471 39.9196 31.777 37.8244 31.777C35.7631 31.777 34.0581 33.4387 34.0496 35.4444C34.0496 37.4417 35.7631 39.1285 37.8074 39.1369Z" fill="white"/>
<path d="M51.507 40.4713C50.8454 40.4713 50.3449 40.4713 49.8444 40.4713C49.6069 40.4713 49.4712 40.3286 49.3439 40.1775C48.2412 38.9019 47.1469 37.6179 46.0441 36.3507C45.8321 36.1074 45.7218 35.8304 45.849 35.5367C45.9763 35.243 46.2732 35.394 46.5022 35.3856C46.9094 35.3605 47.325 35.3856 47.7322 35.3689C48.7501 35.3101 49.4627 34.5716 49.4457 33.6149C49.4287 32.675 48.7416 31.9784 47.7322 31.9281C47.1554 31.9029 46.5786 31.9449 46.0017 31.9029C45.4419 31.8609 45.2553 32.0456 45.2637 32.6162C45.2892 34.9409 45.2807 37.2655 45.2637 39.5901C45.2637 39.8754 45.3995 40.2698 45.1195 40.4125C44.7802 40.5887 44.3476 40.4964 43.9659 40.4545C43.7114 40.4209 43.7708 40.1775 43.7708 40.0013C43.7708 39.095 43.7708 38.197 43.7708 37.2906C43.7708 35.2094 43.7793 33.1198 43.7708 31.0385C43.7708 30.577 43.9235 30.4175 44.3815 30.4343C45.6115 30.4762 46.8415 30.3671 48.063 30.493C49.6323 30.6525 50.769 31.7518 50.9217 33.2121C51.0914 34.8318 50.3194 36.0738 48.7586 36.5857C48.3005 36.7368 48.4108 36.8794 48.6399 37.1312C49.4457 38.0459 50.2516 38.9691 51.0489 39.9006C51.1762 40.0517 51.2949 40.2111 51.524 40.488L51.507 40.4713Z" fill="white"/>
<path d="M8.71174 35.4444C8.71174 33.9842 8.72871 32.5323 8.70326 31.0721C8.70326 30.6273 8.80505 30.4427 9.28857 30.4511C11.0021 30.4762 12.7156 30.4846 14.4291 30.4511C15.0907 30.4343 14.9974 30.8287 15.0229 31.2315C15.0483 31.6931 14.955 31.9449 14.3952 31.9281C13.1821 31.8945 11.9691 31.9281 10.7646 31.9113C10.3659 31.9113 10.1877 32.0204 10.2047 32.4484C10.2301 33.0358 10.2301 33.6317 10.2047 34.2191C10.1877 34.5968 10.3235 34.7394 10.7137 34.731C11.9267 34.7143 13.1397 34.7562 14.3443 34.7143C14.9889 34.6891 14.9041 35.0667 14.9126 35.4612C14.9126 35.864 14.9635 36.2248 14.3358 36.1997C13.1482 36.1577 11.9521 36.1997 10.7561 36.1829C10.3489 36.1829 10.1793 36.3088 10.1962 36.72C10.2217 37.3242 10.2217 37.9368 10.1962 38.5495C10.1793 38.9523 10.3574 39.053 10.7306 39.0446C11.9776 39.0278 13.2245 39.0698 14.4715 39.0278C15.1247 39.0026 15.0229 39.4055 15.0229 39.7831C15.0229 40.1524 15.0907 40.5048 14.4885 40.4964C12.741 40.4629 10.9851 40.4713 9.23767 40.4964C8.80505 40.4964 8.70326 40.337 8.70326 39.9426C8.72023 38.4488 8.70326 36.955 8.70326 35.4612L8.71174 35.4444Z" fill="white"/>
<path d="M84.4284 37.8026C84.6829 37.2067 84.9034 36.6612 85.1325 36.1158C85.845 34.4122 86.5491 32.7085 87.2616 30.9966C87.4567 30.535 88.4916 30.2329 88.9073 30.5014C89.0854 30.6189 88.9582 30.7364 88.9242 30.8371C88.7546 31.2819 88.5595 31.7267 88.3729 32.1715C87.2956 34.7646 86.2098 37.3578 85.1494 39.951C84.9967 40.3202 84.8186 40.5048 84.386 40.4964C83.9703 40.4964 83.7583 40.379 83.5971 39.9845C82.3756 36.9885 81.1286 34.0093 79.8817 31.0301C79.695 30.5937 79.7544 30.4091 80.2549 30.4511C80.4246 30.4679 80.5942 30.4679 80.7554 30.4511C81.1541 30.4007 81.3492 30.5853 81.4934 30.9462C82.3247 33.0023 83.173 35.05 84.0212 37.0976C84.1145 37.3158 84.1485 37.5592 84.4199 37.7942L84.4284 37.8026Z" fill="white"/>
<path d="M16.5582 35.4696C16.5582 34.0093 16.5752 32.5575 16.5498 31.0973C16.5498 30.6273 16.66 30.4343 17.169 30.4511C18.0427 30.4762 18.0427 30.4511 18.0427 31.3406C18.0427 33.682 18.0597 36.0234 18.0342 38.3648C18.0342 38.9019 18.2039 39.053 18.7298 39.0446C19.9428 39.011 21.1474 39.053 22.3604 39.0278C22.8355 39.0194 22.9966 39.1873 22.9457 39.632C22.9288 39.7915 22.9288 39.9677 22.9457 40.1272C22.9627 40.3873 22.8355 40.4797 22.581 40.4797C20.6978 40.4797 18.8231 40.4797 16.94 40.4797C16.5243 40.4797 16.5752 40.2111 16.5752 39.951C16.5752 38.4572 16.5752 36.9634 16.5752 35.4696H16.5582Z" fill="white"/>
<path d="M69.9654 30.535C69.889 30.8203 69.6855 30.9882 69.5243 31.1896C68.5233 32.4484 67.5308 33.724 66.5044 34.9576C66.1991 35.3269 66.233 35.5451 66.5384 35.8808C67.709 37.1899 68.8541 38.5327 69.9993 39.8586C70.135 40.0181 70.3132 40.1691 70.398 40.4629C69.8127 40.4629 69.2783 40.4629 68.7524 40.4629C68.5318 40.4629 68.43 40.295 68.3113 40.1608C67.1576 38.8096 66.004 37.4585 64.8503 36.1074C64.4855 35.6794 64.5025 35.2346 64.8333 34.7982C65.8767 33.4554 66.9286 32.1127 67.9719 30.77C68.1331 30.5602 68.3028 30.4343 68.5742 30.4511C69.0323 30.4846 69.4988 30.3755 69.9569 30.5266L69.9654 30.535Z" fill="white"/>
<path d="M0.0339308 47.8899C0.0339308 46.8409 0.0424135 45.7835 0.0339308 44.7345C0.0339308 44.3484 0.169654 44.2141 0.551376 44.2309C1.40813 44.2561 2.26488 44.2309 3.12164 44.2393C4.69942 44.2645 5.58162 45.8087 4.7588 47.143C4.53825 47.5039 4.60611 47.6465 4.88604 47.8983C5.58162 48.5361 5.74279 49.3585 5.4459 50.2313C5.15749 51.0957 4.5128 51.5573 3.59667 51.5908C2.57026 51.6244 1.54385 51.5992 0.517445 51.6076C0.118758 51.6076 -0.00848271 51.3978 0.0254481 51.0453C0.0254481 51.0285 0.0254481 51.0118 0.0254481 50.9866C0.0254481 49.9544 0.0254481 48.9221 0.0254481 47.8815L0.0339308 47.8899ZM2.32426 48.0074C1.91709 48.0074 1.50992 48.0158 1.10275 48.0074C0.822823 48.0074 0.695582 48.1081 0.704065 48.3934C0.704065 49.1319 0.704065 49.862 0.704065 50.6006C0.704065 50.8355 0.788892 50.9866 1.05186 50.9866C1.92557 50.9866 2.79929 51.0202 3.66453 50.9614C4.45342 50.9027 4.96238 50.2229 4.91997 49.4089C4.87756 48.6116 4.34315 48.0577 3.54577 48.0158C3.1386 47.999 2.73143 48.0158 2.32426 48.0158V48.0074ZM2.16309 47.3444C2.51936 47.3444 2.86716 47.3612 3.22343 47.3444C3.94446 47.3108 4.37708 46.8493 4.38556 46.1276C4.38556 45.4058 3.96143 44.9275 3.24888 44.8939C2.7484 44.8687 2.24792 44.8771 1.74744 44.8939C0.568341 44.9023 0.712548 44.7596 0.704065 45.9177C0.704065 47.3528 0.704065 47.3528 2.17157 47.3528L2.16309 47.3444Z" fill="white"/>
<path d="M71.9418 51.6999C69.8127 51.6999 68.0483 50.0215 68.0313 47.957C68.0059 45.8758 69.7872 44.1302 71.9249 44.1302C74.071 44.1302 75.8439 45.8506 75.8354 47.9403C75.8354 50.0047 74.0795 51.6999 71.9418 51.6999ZM71.9588 44.7848C70.1775 44.7764 68.7099 46.1779 68.693 47.8983C68.676 49.6103 70.135 51.0537 71.8994 51.0705C73.6638 51.0873 75.1398 49.669 75.1568 47.9486C75.1738 46.2199 73.7317 44.7932 71.9588 44.7848Z" fill="white"/>
<path d="M79.975 51.6999C77.8458 51.6999 76.0899 49.9963 76.0899 47.9319C76.0899 45.8506 77.8628 44.1218 80.0089 44.1302C82.155 44.1302 83.911 45.8758 83.894 47.9654C83.877 50.0299 82.1126 51.7083 79.975 51.6999ZM79.975 44.7848C78.2106 44.7848 76.7431 46.2199 76.7516 47.9403C76.76 49.6522 78.253 51.0873 80.0089 51.0705C81.7818 51.0621 83.2323 49.6271 83.2239 47.9067C83.2154 46.1779 81.7648 44.7848 79.975 44.7848Z" fill="white"/>
<path d="M22.6064 45.8338C22.6064 47.4871 22.6234 49.1487 22.5895 50.802C22.5895 51.0705 22.8524 51.574 22.2926 51.5824C21.6903 51.5992 21.9533 51.0705 21.9448 50.7852C21.9193 48.7962 21.9278 46.7989 21.9448 44.81C21.9448 44.617 21.8175 44.34 22.1314 44.2477C22.4198 44.1638 22.5725 44.3652 22.7167 44.5666C23.9721 46.329 25.2361 48.0829 26.5 49.8453C26.5594 49.9292 26.6357 50.0131 26.729 50.1222C26.9072 49.9208 26.8393 49.711 26.8393 49.5264C26.8393 47.9402 26.8393 46.3541 26.8478 44.768C26.8478 44.5582 26.7375 44.2561 27.1447 44.2393C27.5773 44.2225 27.5009 44.533 27.5009 44.7764C27.5009 46.8828 27.5009 48.9809 27.5009 51.0873C27.5009 51.2803 27.5434 51.5153 27.2719 51.5908C27.0089 51.6664 26.8647 51.4985 26.729 51.3055C25.533 49.6355 24.3369 47.9654 23.1408 46.2954C23.0136 46.1192 22.8779 45.9513 22.7506 45.7751L22.6149 45.8254L22.6064 45.8338Z" fill="white"/>
<path d="M64.3244 35.4863C64.3244 36.9634 64.3159 38.432 64.3244 39.909C64.3244 40.3202 64.2311 40.5468 63.773 40.4797C63.6288 40.4629 63.4761 40.4629 63.3234 40.4797C62.9587 40.5216 62.8314 40.3622 62.8399 40.0013C62.8569 39.0026 62.8399 38.0124 62.8399 37.0137C62.8399 35.0416 62.8654 33.0694 62.8229 31.0973C62.806 30.4427 63.1538 30.4679 63.6118 30.4511C64.1208 30.4343 64.3329 30.5602 64.3244 31.1224C64.282 32.5743 64.3074 34.0345 64.3074 35.4863H64.3244Z" fill="white"/>
<path d="M15.0144 51.6747C13.7081 51.6747 12.6392 51.0118 12.3848 50.0299C12.3339 49.8285 12.1472 49.5515 12.5459 49.4592C12.8598 49.3837 12.9616 49.5431 13.0125 49.8369C13.0803 50.2145 13.3263 50.4998 13.6656 50.6929C14.5648 51.188 15.4809 51.188 16.3801 50.6929C16.9315 50.3824 17.1775 49.8369 17.0757 49.2998C16.9569 48.6871 16.5074 48.4606 15.9645 48.3766C15.3792 48.2759 14.7854 48.234 14.1916 48.1417C13.0803 47.9738 12.5035 47.4451 12.4017 46.5472C12.2914 45.5317 12.7919 44.7596 13.8353 44.382C14.7345 44.0547 15.6252 44.0799 16.4904 44.5163C17.0333 44.7932 17.3896 45.2212 17.5338 45.817C17.5847 46.0185 17.5677 46.1863 17.3132 46.2366C17.1096 46.2702 16.9824 46.2534 16.8891 46.0101C16.3631 44.6757 14.2679 44.3652 13.3348 45.473C12.7495 46.1695 13.0379 47.1598 13.9116 47.4199C14.5394 47.613 15.201 47.5962 15.8457 47.6969C16.4819 47.7976 17.0927 47.957 17.4829 48.5277C18.0088 49.3082 17.8222 50.3824 17.0418 51.0118C16.4565 51.4817 15.7694 51.6915 15.0229 51.6915L15.0144 51.6747Z" fill="white"/>
<path d="M51.3967 51.6747C50.6418 51.6747 50.0395 51.5069 49.4966 51.1376C49.1658 50.9195 48.8943 50.6341 48.7586 50.2565C48.6738 49.9963 48.4363 49.6439 48.7925 49.476C49.2421 49.2662 49.2591 49.6942 49.3609 49.9795C49.4712 50.3068 49.7172 50.5418 50.0225 50.7013C50.8963 51.1544 51.7785 51.1544 52.6352 50.6929C53.2205 50.374 53.458 49.8704 53.3647 49.2662C53.2629 48.6368 52.7964 48.4354 52.2535 48.3431C51.6512 48.2424 51.032 48.2004 50.4297 48.0997C49.3439 47.9235 48.7925 47.3948 48.6823 46.4548C48.5805 45.5821 49.064 44.8016 49.9886 44.4156C50.9302 44.0127 51.8802 44.0295 52.7964 44.4911C53.3308 44.7596 53.7125 45.1876 53.8228 45.7919C53.8567 45.9933 53.8228 46.1611 53.5768 46.2115C53.3478 46.2618 53.246 46.1695 53.1866 45.9429C52.9915 45.1876 52.4062 44.8939 51.7021 44.8016C50.8963 44.7009 50.1243 44.8184 49.5814 45.5065C49.0301 46.2031 49.3694 47.143 50.2346 47.3948C50.8963 47.5878 51.6003 47.571 52.2789 47.6801C53.3393 47.8563 53.9161 48.3599 54.0349 49.1907C54.1621 50.1222 53.7295 50.8775 52.7964 51.3307C52.7116 51.3726 52.6267 51.4062 52.5419 51.4398C52.1347 51.5908 51.7191 51.6747 51.3967 51.6664V51.6747Z" fill="white"/>
<path d="M35.8734 51.6664C35.1608 51.6747 34.5077 51.4901 33.9393 51.0621C33.5406 50.76 33.2777 50.3656 33.2013 49.862C33.1759 49.6774 33.1335 49.4844 33.4134 49.4508C33.617 49.4257 33.7442 49.4508 33.8375 49.6858C34.3719 51.0202 35.9921 51.4733 37.2645 50.6593C37.799 50.3152 38.028 49.8285 37.9177 49.2494C37.8074 48.6536 37.3578 48.4522 36.8404 48.3599C36.2381 48.2592 35.6189 48.2088 35.0166 48.1165C33.8969 47.9402 33.3286 47.3948 33.2353 46.4464C33.1504 45.5569 33.6679 44.768 34.6179 44.3988C35.568 44.0295 36.5181 44.0547 37.4172 44.5498C37.9262 44.8268 38.2825 45.2464 38.3758 45.8422C38.4097 46.052 38.3503 46.2031 38.1128 46.2366C37.9092 46.2702 37.8244 46.1947 37.7481 46.0017C37.1967 44.7009 35.2711 44.3568 34.2617 45.3723C33.5406 46.1024 33.846 47.2017 34.8639 47.4283C35.568 47.5878 36.306 47.613 37.0185 47.7472C37.9686 47.9319 38.4691 48.4186 38.5878 49.1739C38.7236 50.0215 38.3673 50.7432 37.5699 51.2216C37.1288 51.4817 36.6538 51.6244 36.1448 51.6664C36.0515 51.6664 35.9582 51.6664 35.8649 51.6664H35.8734Z" fill="white"/>
<path d="M41.8198 51.6664C41.226 51.6915 40.6746 51.5489 40.1656 51.2551C39.75 51.0202 39.4022 50.7097 39.2495 50.2481C39.1647 49.9963 38.8932 49.6522 39.2749 49.476C39.733 49.2662 39.75 49.6942 39.8518 49.9795C39.9536 50.2733 40.1571 50.4831 40.4116 50.6509C41.192 51.1712 42.439 51.1628 43.2194 50.6509C43.7453 50.3068 43.9659 49.7949 43.8471 49.2242C43.7284 48.662 43.2957 48.4522 42.7953 48.3682C42.193 48.2592 41.5738 48.2172 40.9715 48.1249C39.8433 47.9486 39.2749 47.4199 39.1731 46.4716C39.0714 45.5569 39.6058 44.7512 40.5813 44.382C41.5398 44.0211 42.4814 44.0547 43.3806 44.5666C43.8811 44.852 44.2288 45.2799 44.3137 45.8758C44.3391 46.0688 44.2797 46.1947 44.0677 46.2366C43.8811 46.2702 43.7708 46.2366 43.686 46.0268C43.1176 44.7512 41.4465 44.3736 40.3353 45.2464C39.9027 45.5905 39.7415 46.0436 39.8518 46.5723C39.962 47.0926 40.3438 47.3528 40.8273 47.4367C41.5992 47.571 42.3796 47.6465 43.1431 47.7976C43.8302 47.9319 44.3306 48.3431 44.4833 49.048C44.6445 49.7697 44.4748 50.4075 43.915 50.9111C43.3975 51.381 42.7783 51.5992 42.0912 51.6664C41.9979 51.6747 41.9046 51.6664 41.8113 51.6664H41.8198Z" fill="white"/>
<path d="M62.2207 47.9486C62.2207 46.8745 62.2207 45.8087 62.2207 44.7345C62.2207 44.5079 62.1698 44.2309 62.56 44.2393C62.9671 44.2393 62.8738 44.5331 62.8738 44.7512C62.8823 45.5233 62.8908 46.3038 62.8738 47.0759C62.8738 47.4199 62.9671 47.571 63.3489 47.5626C64.3583 47.5458 65.3593 47.5458 66.3687 47.5626C66.7674 47.5626 66.8862 47.4115 66.8777 47.0423C66.8607 46.245 66.8777 45.4562 66.8777 44.6589C66.8777 44.4659 66.8522 44.2393 67.1746 44.2309C67.4969 44.2309 67.5393 44.4072 67.5393 44.6505C67.5393 46.8073 67.5393 48.9641 67.5393 51.1293C67.5393 51.3726 67.5139 51.5908 67.2 51.5908C66.8607 51.5908 66.8777 51.3391 66.8777 51.1209C66.8692 50.3236 66.8607 49.5348 66.8777 48.7375C66.8862 48.3347 66.7335 48.1752 66.3263 48.1836C65.3423 48.2004 64.3498 48.2004 63.3658 48.1836C63.0096 48.1836 62.8654 48.3011 62.8738 48.662C62.8908 49.4928 62.8738 50.3236 62.8738 51.1544C62.8738 51.3642 62.8823 51.5824 62.5769 51.5824C62.2716 51.5824 62.2122 51.3978 62.2122 51.146C62.2122 50.0718 62.2122 49.0061 62.2122 47.9319L62.2207 47.9486Z" fill="white"/>
<path d="M28.2814 47.8731C28.2814 46.8745 28.2983 45.8842 28.2814 44.8855C28.2644 44.4072 28.3916 44.1974 28.926 44.2225C29.9694 44.2645 31.0128 44.2225 32.0562 44.2477C32.2852 44.2477 32.6839 44.0631 32.6839 44.5331C32.6839 45.0114 32.2767 44.8687 32.0137 44.8687C31.174 44.8855 30.3342 44.8939 29.5029 44.8687C29.0957 44.8603 28.9345 45.003 28.9515 45.4142C28.9769 45.9681 28.9685 46.522 28.9515 47.0759C28.9345 47.4619 29.0957 47.5962 29.4774 47.5878C30.3511 47.571 31.2248 47.5878 32.1071 47.5878C32.3531 47.5878 32.6245 47.5626 32.633 47.9151C32.6499 48.3011 32.3446 48.2256 32.1155 48.2256C31.2418 48.2256 30.3681 48.2424 29.4859 48.2256C29.1127 48.2256 28.9345 48.3179 28.943 48.7207C28.96 49.3082 28.96 49.904 28.943 50.4915C28.926 50.8859 29.1127 50.995 29.4859 50.9866C30.419 50.9698 31.3521 50.9866 32.2767 50.9866C32.4803 50.9866 32.7178 50.953 32.7263 51.2551C32.7263 51.5573 32.5142 51.6076 32.2682 51.6076C31.0976 51.6076 29.9185 51.6076 28.7479 51.6076C28.3492 51.6076 28.2898 51.3894 28.2898 51.0705C28.2898 50.0047 28.2898 48.9305 28.2898 47.8647L28.2814 47.8731Z" fill="white"/>
<path d="M54.4675 47.9235C54.4675 46.2702 55.6126 44.7932 57.2244 44.3736C58.8954 43.9372 60.6514 44.6673 61.4657 46.1695C61.559 46.3374 61.8814 46.5723 61.5505 46.7654C61.2791 46.9248 61.0585 46.7654 60.8804 46.4716C60.1424 45.2296 58.8276 44.6589 57.5128 44.9694C56.1555 45.2883 55.18 46.4297 55.1206 47.764C55.0613 49.1655 55.9011 50.3907 57.2328 50.8271C58.5477 51.2635 59.9812 50.7684 60.7616 49.6019C60.838 49.4928 60.8974 49.3837 60.9567 49.2662C61.1094 48.9977 61.3724 48.9809 61.5845 49.0984C61.8135 49.2326 61.6014 49.4257 61.5251 49.5767C60.7786 51.1041 58.9972 51.9181 57.3007 51.5153C55.6296 51.1125 54.4505 49.6271 54.459 47.9235H54.4675Z" fill="white"/>
<path d="M11.6383 47.1094C11.6383 47.7892 11.6383 48.4773 11.6383 49.1571C11.6383 50.4915 11.0445 51.2467 9.73815 51.574C8.85595 51.7922 7.99919 51.7083 7.20182 51.2384C6.54865 50.8607 6.14996 50.3068 6.14996 49.5264C6.14996 47.9235 6.14996 46.3206 6.14996 44.7093C6.14996 44.4995 6.09058 44.2477 6.44686 44.2309C6.8201 44.2141 6.81161 44.4575 6.81161 44.7093C6.81161 46.2199 6.81161 47.7304 6.81161 49.2494C6.81161 50.1809 7.19334 50.6761 8.10099 50.9278C8.72871 51.1041 9.35643 51.0789 9.9587 50.8271C10.6204 50.5502 10.9851 50.0802 10.9681 49.3333C10.9512 47.806 10.9681 46.2702 10.9681 44.7429C10.9681 44.5163 10.9003 44.2477 11.2905 44.2393C11.6807 44.2393 11.6298 44.4995 11.6298 44.7261C11.6298 45.5233 11.6298 46.3122 11.6298 47.1094H11.6383Z" fill="white"/>
<path d="M19.3406 47.9151C19.3406 47.143 19.3151 46.3625 19.3491 45.5905C19.3745 45.045 19.2133 44.7848 18.628 44.8603C18.4499 44.8855 18.2548 44.8603 18.0682 44.852C17.8561 44.8352 17.7967 44.6925 17.8052 44.5079C17.8052 44.3232 17.907 44.2393 18.0851 44.2393C19.1285 44.2393 20.1719 44.2393 21.2153 44.2393C21.3934 44.2393 21.4867 44.3232 21.4867 44.5079C21.4867 44.6925 21.4528 44.8436 21.2237 44.852C21.0032 44.8603 20.7742 44.8855 20.5536 44.8603C20.104 44.8184 19.9768 45.0282 19.9853 45.4478C20.0022 47.1094 20.0022 48.7627 19.9853 50.4243C19.9853 50.8607 20.1295 51.0285 20.5706 50.9866C20.7911 50.9614 21.0202 50.9866 21.2407 50.9866C21.4358 50.9866 21.4867 51.1125 21.4867 51.2803C21.4867 51.4482 21.4358 51.5824 21.2492 51.5824C20.1888 51.5824 19.1285 51.5908 18.0682 51.5824C17.8561 51.5824 17.7967 51.4314 17.8052 51.23C17.8052 51.0369 17.924 50.9782 18.0936 50.9782C18.1275 50.9782 18.17 50.9782 18.2039 50.9782C18.956 50.9278 19.3321 50.5306 19.3321 49.7865C19.3321 49.1571 19.3321 48.5361 19.3321 47.9067L19.3406 47.9151Z" fill="white"/>
<path d="M84.4284 47.8647C84.4284 46.8325 84.4284 45.8003 84.4284 44.768C84.4284 44.5582 84.3351 44.2561 84.7338 44.2393C85.1664 44.2225 85.0816 44.5414 85.0816 44.7848C85.0816 46.6143 85.107 48.4354 85.0816 50.2649C85.0731 50.8187 85.2427 51.0202 85.8111 50.995C86.6848 50.953 87.5585 50.9782 88.4407 50.995C88.6443 50.995 88.9158 50.9446 88.9242 51.2971C88.9242 51.6328 88.6782 51.6244 88.4577 51.6244C87.2871 51.6244 86.108 51.6244 84.9374 51.6328C84.5302 51.6328 84.4199 51.4482 84.4284 51.0873C84.4284 50.0131 84.4284 48.9473 84.4284 47.8731V47.8647Z" fill="white"/>
</svg>
