<svg width="167" height="23" viewBox="0 0 167 23" fill="none" xmlns="http://www.w3.org/2000/svg">
<path fill-rule="evenodd" clip-rule="evenodd" d="M0 2.12393C0 1.04982 0.857637 0.179077 1.91559 0.179077H19.7943C20.8524 0.179077 21.71 1.04982 21.71 2.12393V20.2758C21.71 21.35 20.8524 22.2207 19.7943 22.2207H1.91559C0.857637 22.2207 0 21.35 0 20.2758V2.12393ZM4.15043 2.51291C3.09248 2.51291 2.23485 3.38364 2.23485 4.45775V18.0716C2.23485 19.1458 3.09248 20.0166 4.15043 20.0166H17.5597C18.6175 20.0166 19.4751 19.1458 19.4751 18.0716V4.45775C19.4751 3.38364 18.6175 2.51291 17.5597 2.51291H4.15043ZM4.08659 3.29083C3.55762 3.29083 3.12878 3.72621 3.12878 4.26327V18.3311C3.12878 18.8681 3.55762 19.3035 4.08659 19.3035H17.7511C18.2802 19.3035 18.7088 18.8681 18.7088 18.3311V4.26327C18.7088 3.72621 18.2802 3.29083 17.7511 3.29083H4.08659ZM7.48867 9.84626L8.92924 12.3669H10.4514L8.86786 9.62844C9.28337 9.43476 9.61709 9.14792 9.86912 8.76753C10.1212 8.38033 10.2471 7.96193 10.2471 7.51246C10.2471 6.84863 10.0155 6.2816 9.5524 5.81137C9.08931 5.34116 8.52736 5.10603 7.86669 5.10603H5.00606V12.3669H6.41594V9.84626H7.48867ZM6.41594 8.59121V6.44409H7.86669C8.13231 6.44409 8.36043 6.54782 8.55115 6.75528C8.74195 6.96274 8.83722 7.2151 8.83722 7.51246C8.83722 7.80984 8.74195 8.06564 8.55115 8.28003C8.36043 8.48749 8.13231 8.59121 7.86669 8.59121H6.41594Z" fill="white"/>
<path d="M37.0054 17.9812L34.2867 13.2253H31.7883V17.9812H29.6758V4.92573H34.8194C35.9706 4.92573 36.9442 5.33604 37.7402 6.15667C38.5485 6.96487 38.9526 7.95335 38.9526 9.12212C38.9526 9.95517 38.7138 10.7199 38.2363 11.4162C37.7709 12.1 37.1585 12.5973 36.3993 12.9082L39.32 17.9812H37.0054ZM31.7883 6.94V11.3042H34.8194C35.3828 11.3042 35.8603 11.0929 36.2522 10.6701C36.6441 10.2474 36.8401 9.7314 36.8401 9.12212C36.8401 8.51287 36.6441 7.99688 36.2522 7.57413C35.8603 7.15137 35.3828 6.94 34.8194 6.94H31.7883ZM41.8903 14.1764C42.0372 14.8851 42.374 15.4322 42.9006 15.8177C43.4273 16.1908 44.0702 16.3773 44.8295 16.3773C45.8827 16.3773 46.6725 15.9917 47.1992 15.2209L48.8341 16.1908C47.9279 17.546 46.5869 18.2237 44.8111 18.2237C43.317 18.2237 42.1107 17.7636 41.1922 16.8435C40.2737 15.9109 39.8144 14.736 39.8144 13.3185C39.8144 11.9259 40.2676 10.7633 41.1738 9.83088C42.08 8.88585 43.2436 8.4134 44.6641 8.4134C46.0113 8.4134 47.1135 8.89213 47.9707 9.84947C48.8402 10.8068 49.275 11.9695 49.275 13.3371C49.275 13.5485 49.2506 13.8283 49.2015 14.1764H41.8903ZM41.8719 12.5352H47.2727C47.138 11.7767 46.8257 11.2048 46.3358 10.8193C45.8582 10.4339 45.2948 10.2411 44.6458 10.2411C43.911 10.2411 43.2987 10.4463 42.8088 10.8567C42.3188 11.2669 42.0066 11.8265 41.8719 12.5352ZM52.4438 11.2297C52.4438 11.5405 52.6092 11.7891 52.9398 11.9756C53.2828 12.1498 53.693 12.3052 54.1707 12.442C54.6605 12.5663 55.1503 12.7156 55.6402 12.8896C56.1301 13.0636 56.5403 13.362 56.871 13.7848C57.2139 14.1951 57.3854 14.7173 57.3854 15.3515C57.3854 16.2466 57.0424 16.9492 56.3566 17.4589C55.6831 17.9688 54.8319 18.2237 53.8032 18.2237C52.8969 18.2237 52.1192 18.031 51.4702 17.6455C50.8211 17.26 50.3496 16.7254 50.0557 16.0415L51.7641 15.0343C52.0825 15.9296 52.7622 16.3773 53.8032 16.3773C54.8442 16.3773 55.3647 16.0291 55.3647 15.3328C55.3647 15.0343 55.1932 14.7919 54.8503 14.6054C54.5196 14.4189 54.1094 14.2636 53.6195 14.1392C53.1419 14.0024 52.6581 13.847 52.1683 13.6728C51.6784 13.4988 51.2621 13.2128 50.9191 12.8149C50.5885 12.4047 50.4231 11.8886 50.4231 11.2669C50.4231 10.409 50.7415 9.71894 51.3784 9.19673C52.0274 8.67451 52.8296 8.4134 53.7848 8.4134C54.5441 8.4134 55.2177 8.58747 55.8055 8.93562C56.4057 9.27133 56.8649 9.74376 57.1833 10.3531L55.5116 11.3042C55.1932 10.5955 54.6176 10.2411 53.7848 10.2411C53.4051 10.2411 53.0868 10.3283 52.8296 10.5023C52.5724 10.664 52.4438 10.9064 52.4438 11.2297ZM65.2124 8.65585H67.1964V17.9812H65.2124V16.7875C64.6124 17.7449 63.6633 18.2237 62.3651 18.2237C61.3118 18.2237 60.4608 17.8817 59.8116 17.1979C59.1626 16.514 58.838 15.5752 58.838 14.3816V8.65585H60.822V14.1764C60.822 14.8727 61.0057 15.4074 61.3731 15.7804C61.7405 16.1534 62.2426 16.3399 62.8794 16.3399C63.5774 16.3399 64.1408 16.1223 64.5695 15.6872C64.9981 15.2395 65.2124 14.5619 65.2124 13.6542V8.65585ZM69.5163 17.9812V4.36621H71.5003V17.9812H69.5163ZM78.9291 10.5955H76.6513V15.0717C76.6513 15.4572 76.7369 15.7369 76.9084 15.9109C77.0799 16.0726 77.331 16.1658 77.6616 16.1908C78.0044 16.2032 78.4269 16.1969 78.9291 16.1721V17.9812C77.4105 18.1677 76.3206 18.0371 75.6592 17.5895C74.998 17.1294 74.6673 16.2901 74.6673 15.0717V10.5955H72.9772V8.65585H74.6673V6.64159L76.6513 6.04477V8.65585H78.9291V10.5955ZM93.7871 16.9927C92.8812 17.8133 91.7113 18.2237 90.2784 18.2237C88.8456 18.2237 87.6766 17.8133 86.7697 16.9927C85.8638 16.1596 85.4104 15.0468 85.4104 13.6542V4.92573H87.523V13.5237C87.523 14.3194 87.75 14.9536 88.2027 15.426C88.6685 15.8985 89.3599 16.1348 90.2784 16.1348C91.1969 16.1348 91.8833 15.8985 92.3359 15.426C92.8018 14.9536 93.0339 14.3194 93.0339 13.5237V4.92573H95.1465V13.6542C95.1465 15.0468 94.6939 16.1596 93.7871 16.9927ZM102.279 8.4134C103.332 8.4134 104.184 8.7553 104.833 9.43921C105.482 10.1231 105.806 11.0618 105.806 12.2555V17.9812H103.822V12.4605C103.822 11.7643 103.639 11.2297 103.271 10.8567C102.903 10.4836 102.401 10.2971 101.764 10.2971C101.066 10.2971 100.504 10.5209 100.075 10.9685C99.646 11.4037 99.432 12.0751 99.432 12.9828V17.9812H97.4481V8.65585H99.432V9.84947C100.032 8.89213 100.981 8.4134 102.279 8.4134ZM109.817 6.88405C109.571 7.13272 109.277 7.25706 108.935 7.25706C108.592 7.25706 108.292 7.13272 108.034 6.88405C107.79 6.62294 107.668 6.31832 107.668 5.97016C107.668 5.62202 107.79 5.3236 108.034 5.07494C108.279 4.81383 108.58 4.68328 108.935 4.68328C109.29 4.68328 109.589 4.81383 109.835 5.07494C110.08 5.3236 110.203 5.62202 110.203 5.97016C110.203 6.31832 110.074 6.62294 109.817 6.88405ZM107.943 17.9812V8.65585H109.927V17.9812H107.943ZM118.457 8.65585H120.625L117.043 17.9812H114.746L111.164 8.65585H113.332L115.904 15.7431L118.457 8.65585ZM123.084 14.1764C123.23 14.8851 123.568 15.4322 124.094 15.8177C124.621 16.1908 125.264 16.3773 126.023 16.3773C127.077 16.3773 127.867 15.9917 128.393 15.2209L130.028 16.1908C129.121 17.546 127.781 18.2237 126.005 18.2237C124.511 18.2237 123.304 17.7636 122.386 16.8435C121.467 15.9109 121.009 14.736 121.009 13.3185C121.009 11.9259 121.462 10.7633 122.368 9.83088C123.275 8.88585 124.438 8.4134 125.857 8.4134C127.206 8.4134 128.308 8.89213 129.165 9.84947C130.034 10.8068 130.469 11.9695 130.469 13.3371C130.469 13.5485 130.444 13.8283 130.395 14.1764H123.084ZM123.065 12.5352H128.466C128.332 11.7767 128.02 11.2048 127.529 10.8193C127.052 10.4339 126.489 10.2411 125.839 10.2411C125.105 10.2411 124.493 10.4463 124.002 10.8567C123.514 11.2669 123.201 11.8265 123.065 12.5352ZM134.199 10.2225C134.701 9.06617 135.644 8.488 137.027 8.488V10.6701C136.269 10.6204 135.608 10.8068 135.043 11.2297C134.48 11.6399 134.199 12.3239 134.199 13.2813V17.9812H132.215V8.65585H134.199V10.2225ZM139.952 11.2297C139.952 11.5405 140.118 11.7891 140.449 11.9756C140.791 12.1498 141.202 12.3052 141.679 12.442C142.17 12.5663 142.659 12.7156 143.149 12.8896C143.639 13.0636 144.049 13.362 144.38 13.7848C144.723 14.1951 144.894 14.7173 144.894 15.3515C144.894 16.2466 144.551 16.9492 143.865 17.4589C143.192 17.9688 142.34 18.2237 141.312 18.2237C140.406 18.2237 139.628 18.031 138.979 17.6455C138.33 17.26 137.858 16.7254 137.565 16.0415L139.273 15.0343C139.591 15.9296 140.271 16.3773 141.312 16.3773C142.353 16.3773 142.873 16.0291 142.873 15.3328C142.873 15.0343 142.702 14.7919 142.359 14.6054C142.028 14.4189 141.619 14.2636 141.128 14.1392C140.65 14.0024 140.167 13.847 139.677 13.6728C139.187 13.4988 138.771 13.2128 138.427 12.8149C138.097 12.4047 137.932 11.8886 137.932 11.2669C137.932 10.409 138.25 9.71894 138.887 9.19673C139.536 8.67451 140.338 8.4134 141.293 8.4134C142.052 8.4134 142.726 8.58747 143.315 8.93562C143.914 9.27133 144.374 9.74376 144.692 10.3531L143.02 11.3042C142.702 10.5955 142.126 10.2411 141.293 10.2411C140.913 10.2411 140.596 10.3283 140.338 10.5023C140.081 10.664 139.952 10.9064 139.952 11.2297ZM148.404 6.88405C148.159 7.13272 147.865 7.25706 147.522 7.25706C147.18 7.25706 146.88 7.13272 146.623 6.88405C146.377 6.62294 146.255 6.31832 146.255 5.97016C146.255 5.62202 146.377 5.3236 146.623 5.07494C146.868 4.81383 147.167 4.68328 147.522 4.68328C147.877 4.68328 148.178 4.81383 148.422 5.07494C148.667 5.3236 148.79 5.62202 148.79 5.97016C148.79 6.31832 148.661 6.62294 148.404 6.88405ZM146.531 17.9812V8.65585H148.515V17.9812H146.531ZM155.943 10.5955H153.665V15.0717C153.665 15.4572 153.751 15.7369 153.922 15.9109C154.094 16.0726 154.344 16.1658 154.675 16.1908C155.018 16.2032 155.441 16.1969 155.943 16.1721V17.9812C154.425 18.1677 153.335 18.0371 152.673 17.5895C152.012 17.1294 151.681 16.2901 151.681 15.0717V10.5955H149.991V8.65585H151.681V6.64159L153.665 6.04477V8.65585H155.943V10.5955ZM164.113 8.65585H166.225L162.698 18.2795C161.816 20.6917 160.323 21.8356 158.216 21.7113V19.8276C158.84 19.8649 159.343 19.7282 159.722 19.4173C160.102 19.1189 160.414 18.6464 160.659 17.9998L160.751 17.8133L156.856 8.65585H159.024L161.761 15.426L164.113 8.65585Z" fill="white"/>
</svg>
