<svg width="85" height="62" viewBox="0 0 85 62" fill="none" xmlns="http://www.w3.org/2000/svg">
<g clip-path="url(#clip0_649_6361)">
<path d="M42.507 61.6962C28.7378 61.6962 14.9686 61.6962 1.19935 61.6962C0.967647 61.6962 0.735939 61.6906 0.506163 61.6906C0.195288 61.6906 0.0408166 61.5348 0.0388857 61.2421C0.0369548 60.362 0.0388857 59.48 0.0408166 58.5999C0.0408166 58.2959 0.206874 58.1608 0.515817 58.174C0.670289 58.1815 0.824761 58.174 0.979232 58.174C28.6528 58.174 56.3245 58.174 83.9981 58.174C84.6521 58.174 84.9797 58.4911 84.981 59.1254C84.981 59.7821 84.9713 60.437 84.9925 61.0938C85.0061 61.5179 84.8516 61.7318 84.392 61.6981C84.2009 61.6831 84.0059 61.6981 83.8128 61.6981C70.0435 61.6981 56.2743 61.6981 42.5051 61.6981L42.507 61.6962Z" fill="white"/>
<path d="M7.95361 42.0002C10.3267 42.0002 12.6998 42.0115 15.0709 41.9908C15.627 41.9852 15.7988 42.1729 15.7969 42.7096C15.7795 47.0781 15.7873 51.4447 15.7853 55.8133C15.7853 56.4644 15.6366 56.5845 15.013 56.5207C14.733 56.4926 14.5882 56.3744 14.5882 56.0966C14.5882 55.8902 14.5843 55.6838 14.5843 55.4774C14.5843 52.2535 14.5843 49.0278 14.5785 45.8039C14.5785 45.5806 14.677 45.2973 14.341 45.1809C13.951 45.0477 13.7173 45.2297 13.7173 45.7026C13.7115 47.6335 13.7154 49.5645 13.7154 51.4954C13.7154 52.9197 13.7251 54.3458 13.7077 55.7701C13.7038 56.046 13.8853 56.5057 13.3408 56.4832C12.8407 56.4626 12.9836 56.0216 12.9836 55.7345C12.9739 52.4918 12.9778 49.2492 12.9759 46.0047C12.9759 45.8358 12.9739 45.6669 12.9662 45.4981C12.9566 45.2672 12.8195 45.1659 12.5897 45.1659C12.3696 45.1659 12.2074 45.2372 12.1861 45.4718C12.1707 45.6576 12.1688 45.8452 12.1688 46.0329C12.1688 49.2755 12.1688 52.52 12.163 55.7626C12.163 56.0816 12.2556 56.4701 11.7169 56.517C11.1183 56.5695 10.9813 56.4626 10.9813 55.8377C10.9793 52.5575 10.9813 49.2774 10.9813 45.9953C10.9813 45.8452 10.9755 45.6951 10.9793 45.545C10.987 45.2485 10.8191 45.1565 10.541 45.1565C10.2533 45.1565 10.1143 45.2785 10.1162 45.5619C10.1201 46.1436 10.1143 46.7234 10.1143 47.3051C10.1143 50.0974 10.1143 52.8915 10.1143 55.6838C10.1143 55.8527 10.1143 56.0216 10.0988 56.1886C10.0834 56.3875 9.96174 56.4907 9.75707 56.4945C9.52729 56.5001 9.3902 56.3969 9.37861 56.1661C9.37089 55.9972 9.36896 55.8283 9.36896 55.6594C9.36896 52.3793 9.36896 49.0991 9.36509 45.8171C9.36509 45.6163 9.43461 45.3817 9.24924 45.2335C9.09284 45.1077 8.87851 45.1303 8.69507 45.1922C8.48654 45.2616 8.50585 45.4549 8.50585 45.6219C8.50198 46.6334 8.50391 47.6467 8.50391 48.6581C8.50391 51.0582 8.50391 53.4564 8.50391 55.8564C8.50391 56.4551 8.34751 56.5733 7.73928 56.5132C7.4593 56.487 7.31448 56.3669 7.31062 56.091C7.31062 55.9221 7.30483 55.7532 7.30483 55.5843C7.30483 52.3793 7.30483 49.1723 7.30483 45.9672C7.30483 45.7983 7.3029 45.6294 7.29131 45.4624C7.27779 45.2579 7.15036 45.1678 6.94761 45.1603C6.73521 45.1547 6.55178 45.1978 6.52281 45.438C6.49964 45.6238 6.49964 45.8114 6.49964 45.9991C6.49964 49.1479 6.49964 52.2986 6.49964 55.4474C6.49964 55.6162 6.5035 55.7851 6.49578 55.954C6.48226 56.2224 6.47647 56.5095 6.08064 56.4926C5.72149 56.4776 5.71763 56.2055 5.7157 55.9615C5.70798 54.8187 5.70991 53.674 5.70991 52.5312C5.70991 50.3376 5.70991 48.1439 5.70991 45.9522C5.70991 45.7833 5.70991 45.6144 5.68867 45.4474C5.6597 45.2091 5.48399 45.1547 5.26966 45.1603C5.06885 45.1659 4.93369 45.2466 4.92017 45.4549C4.90858 45.6425 4.90472 45.8302 4.90472 46.016C4.90472 49.2774 4.90472 52.5388 4.90472 55.802C4.90472 56.1379 4.96265 56.4963 4.422 56.517C3.92576 56.5376 3.69019 56.4138 3.69405 55.8639C3.71722 53.1467 3.70564 50.4277 3.7037 47.7086C3.7037 47.033 3.70177 46.3594 3.7037 45.6838C3.7037 45.4024 3.69212 45.1584 3.29435 45.149C2.87342 45.1378 2.8348 45.378 2.8348 45.6932C2.83866 48.9921 2.83673 52.2911 2.8348 55.5919C2.8348 55.7795 2.83287 55.9672 2.82515 56.1548C2.81549 56.3837 2.68805 56.4945 2.45441 56.4926C2.21691 56.4907 2.10685 56.3612 2.0972 56.1398C2.09141 55.9709 2.08754 55.802 2.08754 55.6331C2.08754 52.3717 2.08754 49.1104 2.08175 45.8471C2.08175 45.62 2.18409 45.3404 1.89445 45.1903C1.52372 44.9989 1.22057 45.2222 1.22057 45.6988C1.21671 48.174 1.21864 50.6472 1.21864 53.1224C1.21864 54.0587 1.20126 54.997 1.22443 55.9334C1.23602 56.3856 1.03907 56.5189 0.604615 56.5189C0.179818 56.5189 0.0214844 56.3575 0.0214844 55.9521C0.029208 51.4898 0.029208 47.0293 0.0214844 42.5669C0.0214844 42.0659 0.295672 41.9852 0.720469 41.9871C3.13216 41.9946 5.54192 41.9908 7.95361 41.9908V42.0002Z" fill="white"/>
<path d="M77.1415 42.0002C79.4952 42.0002 81.8471 42.0002 84.2008 42.0002C84.9693 42.0002 84.9944 42.0246 84.9964 42.7452C84.9964 47.0931 84.9944 51.4429 85.0021 55.7908C85.0021 56.2393 84.9597 56.562 84.363 56.5301C83.944 56.5076 83.778 56.3631 83.7876 55.954C83.8069 55.1865 83.7915 54.4172 83.7915 53.6497C83.7915 51.0263 83.7915 48.4011 83.7915 45.7777C83.7915 45.4756 83.8378 45.1565 83.3532 45.1603C82.8608 45.1641 82.9284 45.4962 82.9284 45.7889C82.9264 49.0691 82.9284 52.3492 82.9284 55.6294C82.9284 55.7983 82.9245 55.9672 82.9226 56.1361C82.9187 56.3556 82.8222 56.4945 82.5808 56.502C82.3105 56.5114 82.2004 56.3631 82.1927 56.121C82.1869 55.9522 82.185 55.7833 82.185 55.6144C82.185 52.353 82.185 49.0916 82.1792 45.8302C82.1792 45.6032 82.2757 45.3236 81.9648 45.1903C81.5729 45.0233 81.3141 45.2335 81.3141 45.7345C81.3103 49.1085 81.3064 52.4825 81.3199 55.8565C81.3199 56.32 81.2118 56.5695 80.6769 56.5264C80.3448 56.5001 80.1749 56.3838 80.1923 56.046C80.2019 55.8771 80.1923 55.7082 80.1923 55.5393C80.1923 52.353 80.1923 49.1667 80.1923 45.9803C80.1923 45.8302 80.1884 45.6801 80.1884 45.53C80.1884 45.2691 80.0455 45.1659 79.7887 45.1622C79.5203 45.1584 79.3311 45.2335 79.3311 45.5337C79.3292 46.1717 79.3253 46.8079 79.3253 47.4459C79.3253 50.1819 79.3253 52.9197 79.3253 55.6557C79.3253 55.8433 79.3253 56.031 79.3041 56.2168C79.2828 56.4194 79.1457 56.5057 78.9449 56.502C78.7441 56.4982 78.6109 56.4138 78.5974 56.2055C78.5858 56.0178 78.5838 55.8302 78.5838 55.6444C78.5838 52.3643 78.5838 49.0841 78.58 45.8039C78.58 45.5938 78.6688 45.3386 78.4004 45.1997C78.0528 45.0214 77.7265 45.2279 77.7227 45.6501C77.713 46.7741 77.7188 47.9 77.7188 49.0241C77.7188 51.274 77.7149 53.5221 77.7227 55.772C77.7227 56.2017 77.7207 56.5395 77.1048 56.5358C76.4676 56.532 76.5139 56.1548 76.5139 55.7476C76.5159 52.4487 76.5178 49.1498 76.5101 45.8509C76.5101 45.6125 76.6317 45.301 76.261 45.1828C75.8478 45.0496 75.6489 45.2372 75.6469 45.7739C75.645 48.9978 75.6469 52.2216 75.6469 55.4455C75.6469 55.6144 75.6527 55.7833 75.645 55.9522C75.6354 56.1867 75.6991 56.4832 75.3206 56.4982C74.9248 56.5151 74.9151 56.2205 74.9151 55.9522C74.9113 54.4153 74.9113 52.8784 74.9113 51.3416C74.9113 49.4857 74.9113 47.6298 74.9093 45.7739C74.9093 45.5 74.9615 45.1734 74.5135 45.1716C74.0675 45.1697 74.11 45.4906 74.11 45.7683C74.108 49.1047 74.11 52.4412 74.1042 55.7776C74.1042 56.1023 74.1833 56.4813 73.6465 56.5245C73.0634 56.5695 72.9167 56.4663 72.9167 55.8959C72.9128 52.6532 72.9167 49.4106 72.9147 46.168C72.9147 45.9991 72.907 45.8302 72.9147 45.6613C72.9302 45.3536 72.8452 45.1584 72.4706 45.1622C72.0825 45.1678 72.042 45.3967 72.0478 45.6857C72.0536 45.9297 72.0478 46.1736 72.0478 46.4176C72.0478 49.4913 72.0478 52.565 72.0478 55.6388C72.0478 55.8077 72.0458 55.9766 72.04 56.1454C72.0323 56.3631 71.93 56.5001 71.6905 56.5057C71.4202 56.5114 71.3102 56.365 71.3082 56.121C71.3082 55.9522 71.3024 55.7833 71.3024 55.6144C71.3024 52.4281 71.3024 49.2417 71.3024 46.0554C71.3024 45.9053 71.2947 45.7552 71.3024 45.605C71.3159 45.2992 71.1769 45.1622 70.8564 45.1641C70.5166 45.1659 70.4335 45.3461 70.4374 45.6313C70.4451 46.1943 70.4374 46.7553 70.4374 47.3183C70.4374 50.1669 70.4374 53.0154 70.4374 55.8658C70.4374 56.4663 70.2733 56.5921 69.6766 56.5226C69.3966 56.4907 69.2595 56.3575 69.2499 56.091C69.2441 55.9409 69.2402 55.7908 69.2402 55.6407C69.2402 51.3866 69.2402 47.1306 69.2402 42.8766C69.2402 42.0171 69.2538 42.004 70.1516 42.004C72.4861 42.004 74.8186 42.004 77.1531 42.004L77.1415 42.0002Z" fill="white"/>
<path d="M62.1618 5.32366C60.451 8.11216 58.7769 10.8275 57.1221 13.5541C56.9078 13.9069 56.6587 14.0382 56.2416 14.0401C55.8284 14.042 55.6218 13.8581 55.4287 13.5409C53.9496 11.1259 52.4571 8.7164 50.9683 6.30695C50.8216 6.06864 50.6671 5.83407 50.4933 5.5601C50.2906 5.78903 50.364 6.01985 50.364 6.22626C50.3582 9.14988 50.3601 12.0754 50.3601 14.999C50.3601 15.8265 50.3563 15.8265 49.5414 15.8284C48.603 15.8309 48.1338 15.3749 48.1338 14.4604C48.1338 10.2064 48.1338 5.95042 48.1338 1.69635C48.1338 0.917593 48.1415 0.970135 48.9255 0.900704C49.7191 0.831273 50.1651 1.109 50.5667 1.7883C52.3354 4.77759 54.1678 7.73123 55.981 10.6943C56.0775 10.8519 56.1354 11.0395 56.371 11.1634C57.014 10.0994 57.657 9.03729 58.2961 7.9733C59.5435 5.9035 60.8159 3.84684 62.0189 1.75264C62.3857 1.11275 62.7951 0.835026 63.5597 0.895074C64.4711 0.966382 64.4788 0.911963 64.4788 1.81082C64.4846 6.19624 64.4904 10.5835 64.4943 14.969C64.4943 15.8247 64.4943 15.834 63.6466 15.8247C62.0459 15.8078 62.2641 16.033 62.2564 14.4961C62.2448 11.6663 62.2525 8.83463 62.2467 6.00483C62.2467 5.80592 62.2988 5.59951 62.156 5.32366H62.1618Z" fill="white"/>
<path d="M14.0182 5.41191C13.6282 6.04805 13.2382 6.68419 12.8481 7.32033C11.5853 9.38075 10.3264 11.4449 9.05777 13.5035C8.58083 14.2785 7.79689 14.2672 7.31417 13.4847C5.80421 11.0433 4.29811 8.59824 2.79008 6.15689C2.65298 5.93358 2.5101 5.71591 2.33438 5.44006C2.20308 5.68588 2.25136 5.8923 2.25136 6.08558C2.24749 9.08426 2.25136 12.0829 2.24749 15.0835C2.24749 15.821 2.23784 15.8341 1.46355 15.8266C-0.200883 15.8078 0.00958465 16.0574 0.00572286 14.4455C-0.00200073 10.2064 0.00379196 5.97111 0.00379196 1.73393C0.00379196 0.915771 0.0134465 0.973943 0.824423 0.895129C1.65857 0.814439 2.09109 1.13532 2.49851 1.82401C4.24983 4.77952 6.06488 7.69939 7.85868 10.6305C8.22555 11.231 8.25065 11.231 8.60787 10.6361C10.3901 7.67687 12.1935 4.72886 13.9371 1.74707C14.3117 1.10718 14.7153 0.833204 15.4761 0.893253C16.3604 0.96456 16.3662 0.910141 16.3662 1.77334C16.3681 6.19629 16.3701 10.6211 16.372 15.0441C16.372 15.821 16.3681 15.8322 15.5707 15.8228C13.9526 15.8041 14.1399 16.0649 14.1341 14.4154C14.1225 11.6232 14.1264 8.82905 14.1225 6.03679C14.1225 5.83788 14.1225 5.63897 14.1225 5.44006L14.0163 5.41003L14.0182 5.41191Z" fill="white"/>
<path d="M84.8942 8.4012C84.8904 12.7735 81.3858 16.0799 76.7265 16.0217C72.0364 15.9636 68.5975 12.8335 68.5685 8.35992C68.5415 3.98387 72.1252 0.694336 76.798 0.705595C81.4515 0.716854 84.8981 3.99326 84.8942 8.4012ZM76.7497 2.76038C73.3552 2.76414 70.8856 5.11917 70.8856 8.35053C70.8856 11.6251 73.3494 13.9782 76.7729 13.9745C80.1288 13.9726 82.6351 11.5631 82.6216 8.35241C82.6081 5.11917 80.1269 2.75663 76.7478 2.75851L76.7497 2.76038Z" fill="white"/>
<path d="M34.5342 11.2611C34.5342 12.0473 34.5245 12.8355 34.538 13.6217C34.5438 13.9539 34.4241 14.1865 34.1422 14.378C32.2789 15.639 30.207 16.1344 27.9614 15.9805C26.0344 15.8473 24.2927 15.2205 22.8967 13.9069C20.6298 11.7696 19.9829 9.14434 20.8016 6.22448C21.6261 3.28773 23.7269 1.56884 26.7372 0.936448C29.3652 0.384752 31.8367 0.776944 33.9974 2.44329C34.7369 3.01188 34.7292 3.03627 34.0785 3.66866C33.3061 4.42114 33.2926 4.43803 32.4198 3.8094C29.5988 1.78276 23.893 2.46581 22.943 7.14397C22.1301 11.1428 25.0226 13.8544 28.4383 13.9745C29.5737 14.0139 30.6627 13.8694 31.7015 13.3928C32.1167 13.2033 32.3098 12.9649 32.2982 12.4921C32.2654 11.2761 32.3021 10.0563 32.2808 8.83847C32.2731 8.37685 32.443 8.20984 32.9199 8.2211C34.8103 8.26613 34.5013 7.96964 34.5322 9.74295C34.54 10.2477 34.5322 10.7544 34.5322 11.2611H34.5342Z" fill="white"/>
<path d="M20.8901 46.442C20.8901 49.5908 20.8901 52.7396 20.8901 55.8865C20.8901 56.4607 20.7452 56.5658 20.1621 56.5189C19.8551 56.4945 19.7045 56.3575 19.7006 56.061C19.6968 55.8734 19.6948 55.6857 19.6948 55.4981C19.6948 51.3378 19.6948 47.1776 19.6948 43.0174C19.6948 42.8297 19.6948 42.6421 19.6832 42.4563C19.6697 42.2161 19.5114 42.1485 19.2893 42.1485C19.0634 42.1485 18.9147 42.233 18.9012 42.4657C18.8896 42.6533 18.8896 42.841 18.8896 43.0267C18.8896 47.2245 18.8935 51.4223 18.88 55.6201C18.88 55.9297 19.0847 56.4589 18.5247 56.4701C17.93 56.4814 18.1771 55.9372 18.1752 55.6426C18.1578 51.3697 18.1656 47.0969 18.1598 42.8241C18.1598 42.612 18.2582 42.3493 18.0207 42.2011C17.8547 42.0979 17.6423 42.1147 17.4627 42.1898C17.2619 42.2724 17.2986 42.4694 17.2967 42.6327C17.2928 43.6816 17.2928 44.7325 17.2928 45.7815C17.2928 49.1367 17.2928 52.49 17.2928 55.8452C17.2928 56.457 17.1499 56.5677 16.5417 56.5189C16.2347 56.4945 16.0802 56.3669 16.0918 56.0629C16.0956 55.9316 16.0898 55.8002 16.0898 55.6688C16.0898 49.5026 16.0898 43.3382 16.0898 37.172C16.0898 36.3426 16.0918 36.3426 16.9568 36.3407C17.9783 36.3407 19.0016 36.3407 20.0231 36.3407C20.6036 36.3407 20.8946 36.6334 20.8958 37.2189C20.8958 40.2926 20.8958 43.3664 20.8958 46.4382L20.8901 46.442Z" fill="white"/>
<path d="M68.9232 46.4401C68.9232 49.5889 68.9174 52.7358 68.929 55.8846C68.929 56.3256 68.8112 56.5433 68.313 56.5283C67.8882 56.5152 67.726 56.3444 67.7299 55.9484C67.7376 55.0871 67.7299 54.2239 67.7299 53.3626C67.7299 49.8948 67.7299 46.4289 67.7299 42.9611C67.7299 42.7734 67.7299 42.5858 67.7048 42.4C67.6778 42.1842 67.5059 42.1504 67.3186 42.1504C67.1275 42.1504 66.9653 42.1992 66.944 42.4131C66.9247 42.5989 66.9228 42.7865 66.9228 42.9742C66.9228 47.2095 66.9266 51.4448 66.9131 55.6801C66.9131 55.9766 67.0869 56.4645 66.554 56.4776C65.9805 56.4908 66.2006 55.986 66.1987 55.7026C66.1832 51.411 66.189 47.1194 66.1852 42.8278C66.1852 42.6139 66.2817 42.3531 66.0481 42.2029C65.884 42.0979 65.6716 42.1166 65.4901 42.1898C65.2873 42.2724 65.3259 42.4694 65.324 42.6308C65.3201 43.7736 65.3201 44.9164 65.3201 46.0611C65.3201 49.3225 65.3201 52.582 65.3201 55.8434C65.3201 56.4589 65.1811 56.5658 64.5729 56.5189C64.2659 56.4945 64.1114 56.3688 64.1191 56.0648C64.123 55.9334 64.1172 55.8021 64.1172 55.6707C64.1172 49.5045 64.1172 43.3401 64.1172 37.1739C64.1172 36.3426 64.1191 36.3407 64.9822 36.3407C66.0037 36.3407 67.0271 36.3407 68.0485 36.3407C68.6291 36.3407 68.92 36.6328 68.9213 37.217C68.9213 40.2908 68.9213 43.3645 68.9213 46.4364L68.9232 46.4401Z" fill="white"/>
<path d="M57.5444 46.183C57.5444 48.6374 57.5444 51.0919 57.5444 53.5464C57.5444 53.918 57.556 54.2689 57.0018 54.2745C56.5481 54.2801 56.3395 54.1563 56.3453 53.6703C56.3666 51.76 56.355 49.8478 56.3511 47.9375C56.3511 47.6466 56.4284 47.3183 55.9263 47.3145C55.4378 47.3126 55.4842 47.6241 55.4842 47.9244C55.4842 49.3486 55.4842 50.7729 55.4842 52.1953C55.4842 52.3454 55.4822 52.4956 55.4764 52.6457C55.4687 52.8896 55.3567 53.0341 55.0845 53.0229C54.8392 53.0116 54.7524 52.8615 54.7504 52.6494C54.7446 52.1803 54.7427 51.7131 54.7427 51.2439C54.7427 50.1011 54.7388 48.9583 54.7427 47.8155C54.7427 47.5134 54.6867 47.3126 54.3025 47.3126C53.9124 47.3126 53.8719 47.5247 53.8719 47.8212C53.8757 49.3393 53.8661 50.8555 53.8777 52.3736C53.8815 52.7827 53.8255 53.0473 53.2965 53.0529C52.7442 53.0604 52.6689 52.7921 52.6689 52.353C52.6766 47.8193 52.6805 43.2856 52.6651 38.7519C52.6631 38.2134 52.8485 38.0257 53.4007 38.0407C54.538 38.0708 55.6753 38.0708 56.8126 38.0407C57.3687 38.0257 57.556 38.2284 57.5522 38.7595C57.5328 41.2327 57.5444 43.706 57.5444 46.1792V46.183Z" fill="white"/>
<path d="M32.3372 45.5806C32.3372 47.8475 32.3314 50.1143 32.341 52.3811C32.341 52.794 32.2735 53.0642 31.7483 53.0529C31.3138 53.0436 31.1207 52.9178 31.1246 52.4675C31.142 50.9325 31.1323 49.3956 31.1284 47.8587C31.1284 47.6223 31.1786 47.3558 30.7944 47.3202C30.3831 47.2808 30.2537 47.4497 30.2576 47.8362C30.2711 49.298 30.2634 50.758 30.2615 52.2198C30.2615 52.3886 30.2595 52.5575 30.248 52.7245C30.2344 52.9291 30.1089 53.0192 29.9043 53.0248C29.6976 53.0285 29.5721 52.9328 29.549 52.7358C29.5297 52.5688 29.5277 52.3999 29.5277 52.231C29.5277 50.8067 29.5297 49.3843 29.5239 47.9601C29.5239 47.6786 29.6166 47.3127 29.1145 47.3258C28.6163 47.3389 28.7264 47.7105 28.7245 47.9863C28.7168 49.8591 28.7148 51.7319 28.7225 53.6065C28.7225 54.0212 28.6337 54.2914 28.1162 54.2783C27.7127 54.267 27.5254 54.1526 27.5254 53.7247C27.535 48.6863 27.535 43.6478 27.5254 38.6075C27.5254 38.1853 27.703 38.0483 28.1105 38.052C29.2864 38.0633 30.4623 38.0727 31.6382 38.0464C32.1595 38.0352 32.3488 38.2059 32.343 38.7257C32.3217 41.0113 32.3333 43.2969 32.3333 45.5806H32.3372Z" fill="white"/>
<path d="M44.942 45.5431C44.942 47.8306 44.9382 50.1162 44.9459 52.4037C44.9459 52.7883 44.888 53.0529 44.3879 53.0529C43.9283 53.0529 43.7275 52.9216 43.7333 52.4431C43.7545 50.925 43.7429 49.4069 43.7372 47.8888C43.7372 47.6617 43.8182 47.3765 43.4359 47.3258C42.9957 47.2657 42.8644 47.459 42.8702 47.8681C42.8856 49.3299 42.876 50.7917 42.876 52.2535C42.876 52.4037 42.876 52.5538 42.8644 52.7039C42.8528 52.8991 42.7485 53.0154 42.54 53.0267C42.3102 53.0379 42.1596 52.9385 42.1519 52.7095C42.1364 52.2798 42.1364 51.8482 42.1364 51.4166C42.1345 50.2363 42.1345 49.0559 42.1364 47.8737C42.1364 47.5716 42.1287 47.3164 41.6943 47.3164C41.2482 47.3164 41.2656 47.5866 41.2656 47.8812C41.2656 49.3993 41.256 50.9175 41.2714 52.4356C41.2753 52.8503 41.1652 53.0548 40.6902 53.0548C40.2326 53.0548 40.0762 52.8653 40.0781 52.4487C40.082 47.8568 40.0839 43.265 40.0762 38.6732C40.0762 38.2134 40.2635 38.0427 40.7327 38.0502C41.9279 38.0689 43.1251 38.0708 44.3203 38.0502C44.8049 38.0427 44.9555 38.2359 44.9536 38.6863C44.9401 40.9719 44.9478 43.2594 44.9478 45.5469L44.942 45.5431Z" fill="white"/>
<path d="M33.7942 45.5281C33.7942 43.2801 33.7942 41.0301 33.7942 38.782C33.7942 38.0877 33.8271 38.0577 34.5473 38.0558C35.6846 38.0521 36.8238 38.0671 37.9611 38.0502C38.4245 38.0427 38.608 38.1928 38.606 38.6676C38.5925 43.2594 38.5944 47.8513 38.6041 52.4412C38.6041 52.8597 38.4863 53.0567 38.0171 53.0548C37.5595 53.053 37.4031 52.8653 37.405 52.4468C37.4127 50.9287 37.4089 49.4106 37.4031 47.8925C37.4031 47.6805 37.4668 47.4103 37.1463 47.3427C36.735 47.2564 36.594 47.4516 36.5979 47.8362C36.6075 49.2605 36.6018 50.6848 36.5998 52.1091C36.5998 52.278 36.5998 52.4468 36.5921 52.6157C36.5824 52.839 36.5226 53.0286 36.2349 53.0304C35.9549 53.0304 35.8719 52.8672 35.8719 52.6289C35.8719 52.4788 35.868 52.3286 35.868 52.1785C35.868 50.7355 35.868 49.2924 35.868 47.8494C35.868 47.5698 35.868 47.3296 35.4606 47.3202C35.0397 47.3108 34.9972 47.5379 34.9972 47.8569C35.003 49.3938 34.9895 50.9306 35.0049 52.4675C35.0088 52.9103 34.8273 53.0623 34.387 53.0567C33.9815 53.0511 33.7614 52.9291 33.7942 52.505C33.8058 52.3568 33.7942 52.2048 33.7942 52.0547C33.7942 49.8816 33.7942 47.7068 33.7942 45.5338V45.5281Z" fill="white"/>
<path d="M46.4053 45.53C46.4053 43.2631 46.4188 40.9944 46.3956 38.7276C46.3898 38.2078 46.5771 38.0352 47.0985 38.0464C48.2551 38.0708 49.4117 38.0671 50.5702 38.0483C51.0298 38.0408 51.2209 38.1853 51.2209 38.6619C51.2074 43.2538 51.2094 47.8456 51.219 52.4374C51.219 52.854 51.1012 53.0492 50.632 53.0548C50.1339 53.0623 50.0026 52.8503 50.0083 52.4112C50.0238 50.9118 50.0161 49.4125 50.0122 47.9131C50.0122 47.6373 50.0643 47.3183 49.6067 47.3258C49.1549 47.3314 49.207 47.6504 49.207 47.9263C49.2032 49.3318 49.207 50.7373 49.2032 52.1428C49.2032 52.3305 49.1974 52.5181 49.1781 52.7039C49.1568 52.9235 49.0275 53.0417 48.7919 53.0248C48.5756 53.0098 48.4945 52.8784 48.4907 52.6851C48.4868 52.3474 48.4829 52.0115 48.4829 51.6737C48.4829 50.3995 48.4829 49.1254 48.4829 47.8512C48.4829 47.5735 48.4868 47.3295 48.0794 47.3202C47.6642 47.3108 47.6082 47.5303 47.6102 47.8531C47.616 49.39 47.6024 50.9268 47.616 52.4637C47.6198 52.9009 47.446 53.0567 47 53.0567C46.5405 53.0567 46.3976 52.8747 46.4014 52.4487C46.4169 50.7617 46.4072 49.0747 46.4072 47.3877C46.4072 46.7685 46.4072 46.1511 46.4072 45.5318L46.4053 45.53Z" fill="white"/>
<path d="M21.1934 49.2792C21.1934 47.1231 21.1934 44.967 21.1934 42.8127C21.1934 42.0415 21.23 42.004 21.9947 42.0021C23.132 41.9983 24.2712 42.0133 25.4085 41.9965C25.8758 41.9889 26.065 42.1597 26.0631 42.6213C26.0534 47.0462 26.0553 51.4691 26.0631 55.8939C26.0631 56.3406 25.9047 56.5357 25.4201 56.532C24.9238 56.5282 24.8659 56.2749 24.8678 55.8846C24.8756 52.5293 24.8736 49.1741 24.8678 45.8189C24.8678 45.6087 24.9586 45.3535 24.7018 45.2072C24.3677 45.0176 24.0144 45.2259 24.0086 45.6369C23.997 46.6108 24.0028 47.5866 24.0028 48.5605C24.0028 50.9418 24.0028 53.3212 24.0028 55.7025C24.0028 55.8714 24.0009 56.0403 23.9854 56.2073C23.9661 56.41 23.8367 56.5019 23.634 56.5019C23.4351 56.5019 23.2961 56.4175 23.2787 56.213C23.2633 56.0272 23.2613 55.8395 23.2613 55.6519C23.2613 52.3717 23.2613 49.0916 23.2555 45.8095C23.2555 45.5862 23.3579 45.3029 23.0238 45.1847C22.6357 45.0495 22.3982 45.2334 22.3963 45.7026C22.3905 47.4834 22.3944 49.2642 22.3944 51.045C22.3944 52.657 22.3828 54.2689 22.4002 55.8808C22.404 56.3218 22.2843 56.5301 21.7861 56.532C21.2648 56.532 21.1876 56.2749 21.1895 55.8583C21.1991 53.6646 21.1934 51.471 21.1934 49.2792Z" fill="white"/>
<path d="M59.0156 49.2267C59.0156 47.0519 59.0311 44.877 59.004 42.704C58.9982 42.1616 59.1798 41.9777 59.732 41.9909C60.8693 42.0209 62.0085 42.0134 63.1458 41.9928C63.6324 41.9834 63.8294 42.1354 63.8274 42.6364C63.812 47.0594 63.8158 51.4842 63.8236 55.9072C63.8236 56.3219 63.7038 56.5245 63.2366 56.5283C62.75 56.5339 62.6052 56.3406 62.6071 55.8903C62.6187 52.6289 62.6129 49.3675 62.6129 46.1061C62.6129 45.9372 62.6052 45.7683 62.6129 45.5994C62.6245 45.2954 62.4855 45.1566 62.1649 45.1585C61.8251 45.1585 61.744 45.3367 61.744 45.6257C61.7498 46.6559 61.744 47.688 61.744 48.7182C61.744 51.0432 61.744 53.3663 61.744 55.6913C61.744 55.8415 61.7401 55.9916 61.7382 56.1417C61.7343 56.3613 61.6378 56.4983 61.3926 56.4983C61.1493 56.4983 61.0489 56.3538 61.0315 56.1436C61.016 55.9578 61.0141 55.7683 61.0141 55.5825C61.0141 52.3962 61.0141 49.2099 61.0141 46.0235C61.0141 45.8359 61.0141 45.6482 60.9948 45.4624C60.9716 45.2204 60.7978 45.166 60.5816 45.1716C60.3827 45.1772 60.2417 45.2542 60.2263 45.4606C60.2109 45.6463 60.2089 45.834 60.2089 46.0216C60.2089 49.283 60.2089 52.5444 60.2089 55.8058C60.2089 56.1811 60.2089 56.5226 59.6586 56.5302C59.1971 56.5358 59.0021 56.3988 59.0079 55.9203C59.0272 53.6891 59.0156 51.4598 59.0156 49.2286V49.2267Z" fill="white"/>
<path d="M42.2825 8.36745C42.2825 10.6136 42.2671 12.8598 42.2941 15.106C42.3018 15.6765 42.1049 15.8473 41.5276 15.8379C39.9346 15.8154 39.9346 15.8379 39.9346 14.2935C39.9346 10.0995 39.9346 5.90734 39.9346 1.71332C39.9346 0.912042 39.9384 0.912042 40.7745 0.910166C41.7811 0.907664 42.2845 1.38993 42.2845 2.35696C42.2845 4.35921 42.2845 6.36333 42.2845 8.36557L42.2825 8.36745Z" fill="white"/>
<path d="M42.4935 55.697C47.5833 55.697 52.6712 55.697 57.7611 55.697C57.9541 55.697 58.1472 55.7008 58.3384 55.7045C58.572 55.7102 58.6879 55.8359 58.6956 56.0592C58.7053 56.2919 58.628 56.4701 58.3616 56.5002C58.1897 56.5189 58.0159 56.5208 57.8422 56.5208C47.6065 56.5208 37.3708 56.5208 27.1351 56.5208C26.9613 56.5208 26.7875 56.5171 26.6157 56.4945C26.3743 56.4626 26.3164 56.2863 26.3164 56.0836C26.3164 55.8697 26.4033 55.7177 26.6466 55.7064C26.8397 55.697 27.0328 55.697 27.2239 55.697C32.3138 55.697 37.4017 55.697 42.4915 55.697H42.4935Z" fill="white"/>
<path d="M42.547 54.5673C47.2313 54.5673 51.9176 54.5673 56.602 54.5673C56.7951 54.5673 56.9881 54.5711 57.1793 54.5748C57.4226 54.5786 57.5191 54.7212 57.5249 54.937C57.5288 55.1603 57.4767 55.3592 57.2025 55.3855C56.992 55.4061 56.7796 55.4042 56.5672 55.4042C47.1966 55.4042 37.8279 55.4042 28.4572 55.4042C28.2448 55.4042 28.0324 55.4042 27.8219 55.3798C27.569 55.3536 27.54 55.1659 27.54 54.9633C27.54 54.7531 27.6018 54.5898 27.8548 54.5786C28.0479 54.5692 28.241 54.5654 28.4321 54.5654C33.1358 54.5654 37.8414 54.5654 42.545 54.5654L42.547 54.5673Z" fill="white"/>
<path d="M42.5552 53.4376C46.7395 53.4376 50.9237 53.4376 55.1099 53.4376C55.2837 53.4376 55.4575 53.4433 55.6312 53.4414C55.89 53.4376 56.0251 53.554 56.0329 53.8092C56.0406 54.0757 55.9286 54.2427 55.639 54.2577C55.4652 54.2671 55.2914 54.2689 55.1196 54.2689C46.7317 54.2689 38.342 54.2727 29.9542 54.2596C29.6143 54.2596 29.0312 54.496 29.0544 53.8223C29.0756 53.1881 29.6298 53.4508 29.9465 53.4508C34.15 53.432 38.3536 53.4395 42.5571 53.4395L42.5552 53.4376Z" fill="white"/>
<path d="M57.8555 46.7348C57.8555 44.1302 57.8555 41.5255 57.8555 38.9209C57.8555 38.752 57.8593 38.5832 57.8632 38.4143C57.8671 38.1741 58.0177 38.0878 58.2378 38.0821C58.4444 38.0784 58.6356 38.1197 58.6761 38.3542C58.7051 38.5194 58.7089 38.6901 58.7089 38.8571C58.7089 44.1226 58.7089 49.3863 58.7089 54.6518C58.7089 54.7269 58.7089 54.8019 58.7089 54.877C58.707 55.1603 58.6664 55.4024 58.2803 55.4062C57.8922 55.408 57.8555 55.1735 57.8555 54.8845C57.8574 53.6103 57.8555 52.3362 57.8555 51.062C57.8555 49.619 57.8555 48.1759 57.8555 46.7348Z" fill="white"/>
<path d="M26.372 46.716C26.372 44.1114 26.372 41.5068 26.372 38.9003C26.372 38.7314 26.374 38.5625 26.3817 38.3936C26.3914 38.1572 26.54 38.0709 26.7621 38.0652C26.9726 38.0615 27.1541 38.114 27.1927 38.3467C27.2197 38.5119 27.2255 38.6826 27.2255 38.8496C27.2255 44.1151 27.2255 49.3825 27.2255 54.648C27.2255 54.7419 27.2236 54.8357 27.2216 54.9295C27.2197 55.2091 27.1251 55.3987 26.7891 55.3968C26.4493 55.3949 26.3701 55.2054 26.3701 54.9239C26.372 53.5747 26.3701 52.2255 26.3701 50.8762C26.3701 49.4895 26.3701 48.1027 26.3701 46.716H26.372Z" fill="white"/>
<path d="M33.4992 45.5751C33.4992 47.8044 33.4992 50.0318 33.4992 52.2611C33.4992 52.43 33.4992 52.5989 33.4761 52.7659C33.4413 53.0061 33.2463 53.038 33.0416 53.0361C32.8543 53.0323 32.6921 52.9835 32.6593 52.7734C32.6381 52.6439 32.6361 52.5125 32.6361 52.3812C32.6361 47.8306 32.6342 43.2801 32.64 38.7295C32.64 38.5006 32.5531 38.2229 32.8659 38.0934C33.2482 37.9339 33.4992 38.1515 33.4992 38.6657C33.5031 40.6511 33.5012 42.6364 33.5012 44.6199C33.5012 44.9389 33.5012 45.256 33.5012 45.5751H33.4992Z" fill="white"/>
<path d="M45.2451 45.5507C45.2451 43.3232 45.2451 41.0939 45.2451 38.8665C45.2451 38.6976 45.2451 38.5287 45.2606 38.3617C45.2818 38.1178 45.4652 38.0671 45.6738 38.0652C45.8842 38.0634 46.06 38.1234 46.0889 38.3617C46.1044 38.4912 46.1082 38.6226 46.1082 38.7539C46.1082 43.2857 46.1082 47.8156 46.1082 52.3474C46.1082 52.4037 46.1063 52.46 46.1082 52.5163C46.114 52.8072 46.0542 53.038 45.6757 53.038C45.2934 53.038 45.247 52.8072 45.247 52.5163C45.249 51.1127 45.247 49.7072 45.247 48.3035C45.247 47.3859 45.247 46.4683 45.247 45.5507H45.2451Z" fill="white"/>
<path d="M52.3713 45.5488C52.3713 47.7575 52.3713 49.9661 52.3713 52.1767C52.3713 52.3455 52.3675 52.5144 52.3636 52.6814C52.3578 52.9479 52.1917 53.0323 51.9465 53.0361C51.6974 53.038 51.5391 52.9423 51.5217 52.6852C51.514 52.5726 51.5101 52.46 51.5101 52.3493C51.5101 47.8194 51.5101 43.2876 51.5101 38.7577C51.5101 38.7014 51.5121 38.6451 51.5101 38.5888C51.5043 38.2979 51.5642 38.0652 51.9427 38.0634C52.3211 38.0634 52.3713 38.2923 52.3713 38.585C52.3675 40.0637 52.3713 41.5424 52.3713 43.0211C52.3713 43.8637 52.3713 44.7062 52.3713 45.5488Z" fill="white"/>
<path d="M39.7626 45.5319C39.7626 47.7612 39.7626 49.9923 39.7626 52.2216C39.7626 52.3905 39.7607 52.5594 39.7491 52.7264C39.7337 52.9704 39.5599 53.0267 39.3475 53.0323C39.1312 53.0379 38.9594 52.9723 38.9324 52.7377C38.9111 52.5519 38.9092 52.3643 38.9092 52.1766C38.9092 47.7724 38.9092 43.3682 38.9092 38.9659C38.9092 38.7614 38.913 38.5531 38.942 38.3504C38.9748 38.1196 39.1583 38.0633 39.3707 38.0671C39.5927 38.0708 39.7433 38.1553 39.7549 38.3917C39.7626 38.5606 39.7646 38.7295 39.7646 38.8984C39.7646 41.1089 39.7646 43.3213 39.7646 45.5319H39.7626Z" fill="white"/>
<path d="M14.1068 24.5974C14.1068 23.571 14.101 22.5464 14.1125 21.5199C14.1145 21.3004 14.0102 20.9701 14.4002 20.9589C14.827 20.9476 14.7382 21.2985 14.7401 21.5387C14.7497 22.8129 14.7478 24.087 14.742 25.3612C14.742 25.5582 14.7922 25.8003 14.5258 25.8885C14.2535 25.9785 14.101 25.7909 13.9523 25.6108C13.151 24.6256 12.3496 23.6423 11.5445 22.659C11.4267 22.5145 11.3436 22.3362 11.0501 22.2067C11.0501 22.8185 11.0501 23.3833 11.0501 23.9482C11.0501 24.4736 11.0482 24.9971 11.0443 25.5226C11.0443 25.7308 10.9806 25.9035 10.7258 25.9016C10.4709 25.9016 10.411 25.7252 10.411 25.5188C10.411 24.1321 10.4091 22.7453 10.411 21.3586C10.411 21.1934 10.4033 21.0077 10.6331 20.9551C10.8764 20.9007 11.0366 21.0245 11.1757 21.1953C11.7742 21.929 12.3728 22.6646 12.9733 23.3983C13.3074 23.8074 13.6453 24.2146 13.9812 24.6237L14.1048 24.5974H14.1068Z" fill="white"/>
<path d="M46.6335 23.4227C46.6335 22.7678 46.647 22.1129 46.6296 21.4599C46.62 21.0827 46.759 20.91 47.1645 20.9232C47.7611 20.9438 48.3578 20.9176 48.9525 20.9419C49.7519 20.9757 50.3775 21.4186 50.5899 22.0641C50.8409 22.8278 50.6131 23.539 49.8986 24.0251C49.6225 24.2127 49.6553 24.3403 49.8253 24.5524C50.0377 24.817 50.2423 25.0909 50.4258 25.3762C50.5204 25.5263 50.8081 25.7008 50.5339 25.8809C50.3254 26.0179 50.0879 25.9035 49.9353 25.697C49.7113 25.3931 49.4873 25.0891 49.2634 24.7851C48.9988 24.4266 47.794 24.1827 47.429 24.421C47.1915 24.5768 47.3247 24.8338 47.2707 25.0403C47.1934 25.3386 47.512 25.8903 46.9289 25.8734C46.4269 25.8584 46.6624 25.3424 46.6431 25.0496C46.6045 24.5092 46.6316 23.965 46.6335 23.4227ZM47.2803 22.5858C47.2803 22.8466 47.2803 23.1075 47.2803 23.3683C47.2803 23.5447 47.3112 23.7361 47.5313 23.7455C48.1589 23.7717 48.798 23.8749 49.4024 23.6197C49.7866 23.4584 49.9817 23.1581 49.999 22.7415C50.0357 21.9252 49.5375 21.473 48.4949 21.4617C47.0544 21.4449 47.3016 21.3323 47.2803 22.5877V22.5858Z" fill="white"/>
<path d="M37.1582 23.3927C37.1582 22.736 37.164 22.0811 37.1562 21.4243C37.1524 21.0696 37.3049 20.9176 37.6756 20.9232C38.5426 20.9364 39.4115 20.9232 40.2785 20.9289C40.4639 20.9289 40.7091 20.9026 40.7168 21.1709C40.7265 21.4843 40.4561 21.443 40.2534 21.4449C39.6355 21.4524 39.0196 21.4599 38.4017 21.4449C38.0483 21.4374 37.8803 21.5481 37.8591 21.9216C37.7915 23.0681 37.7876 23.0756 38.9771 23.0756C39.286 23.0756 39.595 23.07 39.902 23.0794C40.1279 23.0869 40.4137 23.0531 40.404 23.3871C40.3943 23.6761 40.1337 23.663 39.9251 23.6667C39.4424 23.6761 38.9597 23.6892 38.4789 23.6667C38.0387 23.648 37.861 23.8037 37.8552 24.2484C37.8417 25.3256 37.8224 25.3237 38.9404 25.3256C39.4424 25.3256 39.9425 25.3256 40.4446 25.3312C40.6531 25.3312 40.8481 25.3781 40.8462 25.6296C40.8462 25.8791 40.6454 25.9242 40.4388 25.9242C39.4945 25.926 38.5484 25.9242 37.6042 25.9242C37.2431 25.9242 37.1504 25.7178 37.1524 25.4119C37.1582 24.7382 37.1524 24.0627 37.1543 23.3871L37.1582 23.3927Z" fill="white"/>
<path d="M0.013446 22.6796C0.013446 22.2312 0.00958418 21.7827 0.013446 21.3323C0.0173078 21.1015 0.0984054 20.9289 0.384178 20.942C0.64678 20.9532 0.698914 21.1353 0.702776 21.3285C0.716292 22.188 0.702776 23.0493 0.729809 23.9088C0.762634 24.9484 1.23763 25.3706 2.28611 25.3349C3.07392 25.3086 3.54506 24.8958 3.58174 24.1171C3.62229 23.2576 3.59719 22.3963 3.6165 21.5368C3.62229 21.2948 3.54506 20.9551 3.95827 20.9495C4.37341 20.9439 4.31355 21.2816 4.30776 21.5275C4.29038 22.4601 4.39272 23.3983 4.22666 24.3272C4.04516 25.3349 3.33266 25.9204 2.25715 25.9448C1.06578 25.9711 0.34556 25.4494 0.100336 24.4117C-0.0348265 23.8375 0.0269622 23.2576 0.013446 22.6796Z" fill="white"/>
<path d="M58.006 25.9504C57.3302 25.9429 56.8088 25.8322 56.3358 25.5526C56.1292 25.4306 55.938 25.2786 56.1118 25.0121C56.2817 24.7513 56.4536 24.9652 56.5984 25.0459C57.1815 25.3705 57.8071 25.4118 58.4462 25.3105C58.8092 25.2523 59.095 25.074 59.1433 24.6687C59.1916 24.254 58.9444 24.0363 58.5891 23.92C58.0987 23.7586 57.5889 23.6423 57.1004 23.4752C56.3783 23.2257 56.0963 22.8391 56.1234 22.1936C56.1485 21.5912 56.5269 21.1653 57.2047 20.9663C57.8805 20.7674 58.5389 20.8462 59.1819 21.0939C59.3924 21.1746 59.6531 21.2628 59.5198 21.5706C59.3904 21.8708 59.1684 21.7113 58.9869 21.6325C58.5312 21.4336 58.0523 21.3942 57.5715 21.473C57.1757 21.5387 56.8262 21.717 56.7741 22.1673C56.72 22.6402 57.0599 22.8316 57.4422 22.9555C57.8438 23.0849 58.2589 23.175 58.6625 23.2989C59.4889 23.5522 59.879 23.9988 59.8384 24.6256C59.7959 25.2654 59.3634 25.7008 58.5602 25.8828C58.3381 25.9335 58.1045 25.9429 58.0002 25.9541L58.006 25.9504Z" fill="white"/>
<path d="M29.3961 25.0384C29.9734 23.7849 30.4831 22.6796 30.991 21.5743C31.0373 21.4711 31.0875 21.3698 31.13 21.2666C31.2381 21.002 31.4389 20.8369 31.7112 20.9776C31.9892 21.1202 31.7633 21.3454 31.69 21.5105C31.1068 22.8147 30.5121 24.1151 29.9155 25.4137C29.8073 25.6501 29.7262 25.9222 29.3748 25.9166C29.0215 25.9129 28.9519 25.6257 28.8457 25.3968C28.2394 24.0814 27.6409 22.7641 27.0481 21.443C26.9805 21.291 26.7874 21.0864 27.0577 20.9682C27.2875 20.8669 27.5134 20.9363 27.6312 21.1897C27.8455 21.6494 28.0579 22.111 28.2703 22.5726C28.6218 23.3401 28.9693 24.1076 29.3941 25.0384H29.3961Z" fill="white"/>
<path d="M82.6061 25.9035C82.4091 25.8941 82.2662 25.8003 82.2952 25.6295C82.5713 23.9501 81.2988 22.8823 80.6269 21.5763C80.5304 21.3886 80.1577 21.1691 80.4493 20.9776C80.7543 20.7769 81.0073 21.0452 81.1791 21.3267C81.5325 21.9065 81.9071 22.4714 82.2527 23.055C82.4806 23.4378 82.6428 23.5841 82.9208 23.0737C83.2336 22.4958 83.6159 21.9534 83.9693 21.3961C84.0407 21.2854 84.1102 21.1709 84.1952 21.0715C84.3381 20.9063 84.5447 20.8688 84.7127 20.9852C84.8845 21.1053 84.7281 21.261 84.6567 21.3773C84.3226 21.9234 84.004 22.4826 83.6294 23.0024C83.1158 23.7155 82.7856 24.4567 82.9092 25.3518C82.9401 25.5789 82.9594 25.8641 82.608 25.9016L82.6061 25.9035Z" fill="white"/>
<path d="M73.2714 23.663C73.2714 23.1207 73.2521 22.5783 73.2772 22.0379C73.2965 21.6119 73.1517 21.4036 72.6864 21.4487C72.4392 21.4712 72.1862 21.4543 71.9372 21.4468C71.7614 21.4412 71.5703 21.428 71.5684 21.1916C71.5684 20.9551 71.7576 20.9364 71.9333 20.9345C72.7597 20.9289 73.5862 20.9289 74.4145 20.927C74.7215 20.927 75.0305 20.927 75.3375 20.9345C75.519 20.9401 75.6986 20.9702 75.687 21.2066C75.6773 21.4036 75.5209 21.4355 75.3606 21.4449C75.2641 21.4506 75.1675 21.4505 75.0729 21.4524C73.9414 21.4656 73.9839 21.2779 73.9839 22.5052C73.9839 23.4584 73.9878 24.4117 73.9801 25.365C73.9801 25.6014 74.0148 25.8979 73.646 25.9073C73.2367 25.9185 73.2772 25.6014 73.2733 25.3462C73.2656 24.7851 73.2714 24.224 73.2695 23.6648L73.2714 23.663Z" fill="white"/>
<path d="M20.8536 23.4152C20.8536 22.7585 20.8479 22.1035 20.8556 21.4468C20.8575 21.2009 20.8594 20.927 21.234 20.9457C21.57 20.9626 21.5565 21.2216 21.5584 21.443C21.5642 22.7735 21.5623 24.1039 21.5584 25.4344C21.5584 25.6671 21.5372 25.9073 21.2089 25.9091C20.8787 25.911 20.8575 25.6708 20.8556 25.4381C20.8498 24.7626 20.8556 24.0889 20.8556 23.4134L20.8536 23.4152Z" fill="white"/>
<path d="M66.1443 23.3833C66.1443 24.0738 66.1443 24.7644 66.1443 25.4531C66.1443 25.6614 66.1443 25.8903 65.8431 25.8997C65.5477 25.9091 65.5091 25.697 65.5091 25.4793C65.5071 24.117 65.5052 22.7565 65.5091 21.3942C65.5091 21.1877 65.5149 20.9588 65.8161 20.9513C66.1675 20.9419 66.1405 21.2046 66.1424 21.4242C66.1482 22.0772 66.1443 22.7302 66.1443 23.3833Z" fill="white"/>
</g>
<defs>
<clipPath id="clip0_649_6361">
<rect width="85" height="61" fill="white" transform="translate(0 0.699951)"/>
</clipPath>
</defs>
</svg>
