<svg width="101" height="56" viewBox="0 0 101 56" fill="none" xmlns="http://www.w3.org/2000/svg">
<g clip-path="url(#clip0_649_6411)">
<path d="M0.658447 33.6869H7.07V34.3111H0.766626C0.179732 34.3111 0 34.018 0 33.5377V22.0889H0.658447V33.6869Z" fill="white"/>
<path d="M17.1935 23.374C17.4325 22.5046 17.9598 22.0889 18.695 22.0889C19.4136 22.0889 19.9409 22.5046 20.18 23.374L23.2296 34.3111H22.6547L21.6337 30.6175L15.7528 30.6361L14.7302 34.3111H14.1396L17.1935 23.374ZM15.9154 30.0203H21.458L19.6691 23.5555C19.5048 22.9795 19.2058 22.6869 18.695 22.6869C18.184 22.6869 17.8645 22.9759 17.7043 23.5555L15.9154 30.0203Z" fill="white"/>
<path d="M30.2998 34.3111V22.0889H33.2937C35.688 22.0889 37.161 23.1177 37.161 25.155C37.161 26.8802 36.3781 27.872 35.0693 28.1657C36.5587 28.404 37.3698 29.322 37.3698 31.0111C37.3715 33.7254 35.3837 34.3111 33.1541 34.3111H30.2998ZM30.8562 27.8685H33.2332C35.6411 27.8685 36.6192 27.0772 36.6192 25.1884C36.6192 23.4992 35.3539 22.6903 33.3091 22.6903H30.8502L30.8562 27.8685ZM30.8562 33.7087H33.1719C35.0378 33.7087 36.8287 33.3421 36.8287 30.9733C36.8287 29.1935 35.7297 28.4769 33.2324 28.4769H30.8502L30.8562 33.7087Z" fill="white"/>
<path d="M51.5105 33.5327H45.5672C44.9386 29.74 45.0015 25.8572 45.7524 22.0889H45.0369C44.3049 25.8729 44.2461 29.7654 44.8634 33.5716H44.8803C44.883 33.7647 44.9567 33.9491 45.086 34.0867C45.2153 34.2244 45.3904 34.3048 45.5748 34.3111H51.5105V33.5327Z" fill="white"/>
<path d="M59.5901 22.0889V34.3111H58.5801V22.0889H59.5901Z" fill="white"/>
<path d="M67.6699 34.3111V22.8601C67.6699 22.3827 67.8187 22.0889 68.3577 22.0889H74.7399V22.7127H68.2591V28.2551H74.3803V28.8976H68.2591V34.3111H67.6699Z" fill="white"/>
<path d="M82.5033 34.3111C81.9714 34.3111 81.8096 34.0181 81.8096 33.5405V22.8603C81.8096 22.3836 81.9714 22.0889 82.5033 22.0889H88.7195V22.7129H82.4085V27.8854H88.4434V28.5085L82.4085 28.527V33.6659H88.8796V34.3084L82.5033 34.3111Z" fill="white"/>
<path d="M72.546 0.699951C60.8782 0.699951 50.8506 7.48749 46.46 17.1991H47.2903C51.6322 7.90349 61.3071 1.43336 72.546 1.43336C87.8418 1.43336 100.242 13.4171 100.242 28.1995C100.242 42.9819 87.8418 54.9657 72.546 54.9657C61.3071 54.9657 51.6322 48.4956 47.2929 39.199H46.4625C50.8506 48.9115 60.8782 55.7 72.546 55.7C88.2612 55.7 101 43.3867 101 28.1969C101 13.0071 88.2612 0.699951 72.546 0.699951Z" fill="white"/>
<path d="M95.9499 16.9963C96.5492 16.9963 97.1351 16.8171 97.6333 16.4813C98.1316 16.1456 98.52 15.6683 98.7492 15.1101C98.9786 14.5517 99.0386 13.9373 98.9217 13.3446C98.8048 12.7519 98.5162 12.2074 98.0924 11.7801C97.6687 11.3527 97.1288 11.0618 96.5411 10.9438C95.9533 10.826 95.344 10.8865 94.7903 11.1178C94.2368 11.349 93.7635 11.7406 93.4306 12.2431C93.0977 12.7456 92.9199 13.3364 92.9199 13.9407C92.9199 14.342 92.9983 14.7393 93.1506 15.1101C93.3028 15.4807 93.526 15.8175 93.8074 16.1013C94.0888 16.385 94.4228 16.6101 94.7903 16.7636C95.158 16.9172 95.552 16.9963 95.9499 16.9963Z" fill="white"/>
<path d="M82.8198 4.77402C83.2194 4.77402 83.6099 4.65453 83.9421 4.43065C84.2744 4.20678 84.5333 3.88859 84.6861 3.51631C84.839 3.14404 84.8789 2.73441 84.8009 2.33924C84.7229 1.94406 84.5304 1.5811 84.2478 1.29625C83.9652 1.01141 83.6052 0.817472 83.2133 0.738978C82.8214 0.660485 82.4152 0.70096 82.0461 0.855282C81.6771 1.00961 81.3617 1.27084 81.1398 1.60596C80.918 1.94107 80.7996 2.335 80.7998 2.73793C80.7998 3.0054 80.852 3.27023 80.9536 3.51733C81.0551 3.76442 81.2039 3.98892 81.3915 4.178C81.5791 4.36708 81.8018 4.51704 82.0469 4.6193C82.292 4.72157 82.5546 4.77415 82.8198 4.77402Z" fill="white"/>
<path d="M63.6294 3.75554C63.8292 3.75568 64.0245 3.69608 64.1907 3.58425C64.3569 3.47242 64.4865 3.3134 64.5631 3.12731C64.6396 2.94121 64.6597 2.73639 64.6208 2.53878C64.5819 2.34116 64.4858 2.1596 64.3446 2.01708C64.2033 1.87457 64.0234 1.77749 63.8275 1.73813C63.6315 1.69877 63.4284 1.7189 63.2438 1.79596C63.0592 1.87303 62.9014 2.00358 62.7904 2.17108C62.6794 2.3386 62.6201 2.53555 62.6201 2.73702C62.6201 3.00702 62.7265 3.26597 62.9156 3.45696C63.1049 3.64796 63.3617 3.75535 63.6294 3.75554Z" fill="white"/>
</g>
<defs>
<clipPath id="clip0_649_6411">
<rect width="101" height="55" fill="white" transform="translate(0 0.699951)"/>
</clipPath>
</defs>
</svg>
