<svg width="75" height="64" viewBox="0 0 75 64" fill="none" xmlns="http://www.w3.org/2000/svg">
<g clip-path="url(#clip0_649_6424)">
<path fill-rule="evenodd" clip-rule="evenodd" d="M26.6104 45.6729C26.9782 44.8678 27.8396 44.1367 28.6834 43.9136C28.8245 43.8762 29.3352 43.8562 29.8182 43.8692C30.6148 43.8906 30.7459 43.9177 31.231 44.1626C31.8993 44.5 32.6082 45.2554 32.8027 45.8376C33.4798 47.8643 32.3375 49.8294 30.271 50.1923C28.7898 50.4524 27.1807 49.67 26.6067 48.4103C26.4151 47.9898 26.3891 47.8271 26.3884 47.0464C26.3878 46.2586 26.4125 46.1058 26.6104 45.6729ZM49.1539 49.1905C47.6139 47.4776 48.3547 44.6852 50.54 43.9659C50.8072 43.878 51.1855 43.8478 51.7924 43.8659C52.5632 43.8891 52.7239 43.9218 53.2086 44.1543C54.6051 44.8244 55.2646 46.2639 54.8822 47.8076C54.7065 48.5171 54.3989 49.0207 53.8731 49.4602C52.5216 50.5898 50.2975 50.4628 49.1539 49.1905ZM59.8561 43.9347L60.0413 43.892C60.4213 43.8045 62.4514 43.9161 62.8779 44.0479C63.902 44.3645 64.3615 45.3287 64.045 46.4975C63.9566 46.824 63.4718 47.3969 63.1078 47.6045C62.9546 47.6921 63.0007 47.7705 63.7906 48.7671C64.2567 49.355 64.6588 49.892 64.6846 49.9607C64.7233 50.064 64.6253 50.0856 64.1167 50.0856H63.5022L61.8211 47.8906H60.844V50.0856H59.8561V43.9347ZM70.5168 45.6113C70.8662 44.8452 71.1853 44.131 71.2258 44.0242C71.2924 43.8484 71.3439 43.8324 71.7695 43.8554L72.2397 43.8807L73.6171 46.9198C74.3747 48.5914 74.997 49.9891 75 50.0261C75.003 50.0631 74.7571 50.082 74.4538 50.0684L73.9024 50.0433L73.2387 48.4816H70.2596L69.5502 50.0856H69.0276C68.5189 50.0856 68.507 50.0806 68.5785 49.8956C68.648 49.7158 69.0491 48.8292 70.5168 45.6113ZM0 50.0856V43.9229H3.86965V44.8515H0.987997V46.4555H3.62265V47.4685H0.987997V49.1569H3.95198V50.0856H0ZM9.05662 50.0856V43.9229H10.0446V49.0725H13.1733V50.0856H9.05662ZM17.8663 44.8252V43.9229H21.8182V50.0856H17.7839V49.1836L19.2368 49.1297C20.036 49.1001 20.7075 49.0576 20.729 49.0356C20.7505 49.0135 20.7872 48.6519 20.8106 48.232L20.8531 47.4685H18.105L18.1544 46.4977L20.8532 46.4512L20.8093 45.7308C20.7852 45.3345 20.7476 44.992 20.7259 44.9696C20.7041 44.9474 20.0518 44.9056 19.2763 44.8771L17.8663 44.8252ZM37.7908 50.0856V43.9229H38.6838L42.4426 48.3143L42.4948 47.4904C42.5233 47.0373 42.5512 46.0493 42.5565 45.2947L42.5662 43.9229H43.4718V50.0856H43.0782C42.7069 50.0856 42.6584 50.058 42.2266 49.6001C41.8162 49.1649 39.7751 46.8069 39.1517 46.0477L38.907 45.7498L38.8511 45.9549C38.8204 46.0677 38.7916 47.0432 38.7871 48.1228L38.7788 50.0856H37.7908ZM27.4887 47.4953C27.2256 46.2902 27.9835 45.0886 29.1496 44.8617C29.9728 44.7015 30.8939 45.016 31.4091 45.6331C31.7691 46.0643 31.8884 46.4966 31.8484 47.2235C31.8108 47.9063 31.5073 48.4706 30.9691 48.8588C30.6383 49.0973 30.5575 49.1164 29.7771 49.139C28.9718 49.1625 28.9236 49.1536 28.5066 48.9045C27.9676 48.5826 27.6213 48.1031 27.4887 47.4953ZM49.706 45.9298C49.9566 45.4579 50.2848 45.1651 50.7658 44.9843C50.9428 44.9178 51.3529 44.8607 51.6773 44.8574C52.1887 44.8523 52.3361 44.8882 52.786 45.127C53.3911 45.4482 53.7122 45.8969 53.8422 46.6032C54.1366 48.2021 52.7912 49.5034 51.1959 49.1628C50.3462 48.9814 49.7534 48.4182 49.5103 47.5613C49.3478 46.9888 49.4073 46.4926 49.706 45.9298ZM60.844 46.901V44.8263L61.5877 44.8804C62.6143 44.9551 62.9484 45.1478 63.0385 45.7173C63.0984 46.0953 62.8963 46.4951 62.5537 46.6768C62.3945 46.7612 62.0043 46.8332 61.5672 46.8588L60.844 46.901ZM70.8064 47.3487C70.8064 47.2828 71.011 46.7822 71.2612 46.2364C71.5366 45.6354 71.7455 45.2748 71.7909 45.3221C71.8321 45.3651 72.0691 45.8657 72.3177 46.4344L72.7696 47.4685H71.788C70.995 47.4685 70.8064 47.4455 70.8064 47.3487ZM18.567 63.5053C18.6446 63.2547 19.5859 61.1588 20.0023 60.3096C20.1899 59.9271 20.3906 59.625 20.4571 59.625C20.5227 59.625 20.6685 59.7864 20.7813 59.9838C21.1054 60.551 22.3945 63.4034 22.3945 63.5534C22.3945 63.6457 22.3354 63.6802 22.2093 63.6619C22.0705 63.6417 21.9521 63.4816 21.7368 63.0229L21.4495 62.4108H19.521L19.2082 63.0229C18.973 63.4829 18.8475 63.6418 18.7025 63.6629C18.537 63.6869 18.5177 63.6645 18.567 63.5053ZM59.9839 60.8253C60.1985 60.2984 60.6631 59.8886 61.2552 59.7038C62.0345 59.4608 63.4375 59.8698 63.0805 60.236C63.0142 60.3038 62.894 60.2965 62.6373 60.2092C62.4434 60.1433 62.092 60.0942 61.8563 60.1001C60.8357 60.126 60.097 61.1022 60.3526 62.0872C60.5736 62.9384 61.158 63.3091 62.1632 63.2353C62.9036 63.181 63.067 63.0455 63.067 62.4861V62.0809L62.5113 62.056C62.0063 62.0332 61.9531 62.0136 61.9292 61.841C61.9035 61.6554 61.9208 61.6511 62.6908 61.6511H63.4787V63.2644L63.0218 63.4789C62.5014 63.7231 61.7195 63.77 61.0924 63.5945C60.6219 63.4628 60.0736 62.9157 59.9483 62.4528C59.8177 61.9705 59.8348 61.1914 59.9839 60.8253ZM11.5266 63.6771V59.7094H11.7157C11.9157 59.7094 12.2581 60.0404 12.8075 60.7647C12.9836 60.9968 13.2277 61.3081 13.3498 61.4564L13.5718 61.7261L14.0486 61.0765C14.7685 60.0956 15.141 59.7094 15.3671 59.7094H15.564L15.5197 63.6349H15.1081L15.0641 62.1406C15.0399 61.3188 15.0028 60.6291 14.9818 60.6081C14.9607 60.5871 14.6303 60.9886 14.2476 61.5002L13.5518 62.4306L13.342 62.1854C13.2266 62.0505 12.8875 61.6296 12.5884 61.25L12.0448 60.5597L11.9915 61.3294C11.9623 61.7527 11.9383 62.4542 11.9383 62.8882C11.9383 63.6734 11.9373 63.6771 11.7325 63.6771H11.5266ZM25.4409 63.6889V59.7094L26.2436 59.7112C26.8462 59.7126 27.1301 59.7522 27.382 59.8694C28.1459 60.2252 28.1935 61.3863 27.4621 61.8287C27.3013 61.9259 27.1699 62.023 27.1699 62.0444C27.1699 62.0658 27.4496 62.4325 27.7916 62.8591C28.4088 63.6292 28.4117 63.6351 28.1854 63.6634C27.9494 63.6929 27.7885 63.5467 26.8723 62.4709C26.5719 62.1181 26.4955 62.0731 26.1962 62.0731H25.8587L25.8351 62.854C25.8127 63.5911 25.801 63.6364 25.6261 63.6619L25.4409 63.6889ZM31.4512 63.6771V59.7094H31.8628V63.6771H31.4512ZM32.2835 61.2559C32.437 61.0903 32.8728 60.6746 33.2519 60.3321C33.6962 59.9306 34.0106 59.7094 34.137 59.7094C34.2446 59.7094 34.3343 59.738 34.336 59.7727C34.3378 59.8075 33.9404 60.2222 33.4529 60.6941L32.5665 61.5521L33.39 62.4247C33.8428 62.9046 34.2831 63.3828 34.3682 63.4872L34.523 63.6771H34.2538C34.0294 63.6771 33.8751 63.5681 33.3272 63.0229C32.9657 62.6631 32.5201 62.186 32.3371 61.9628L32.0043 61.557L32.2835 61.2559ZM37.5438 63.6771V59.7094H39.9315V60.1315H37.9555V61.4765L38.8405 61.5004C39.562 61.52 39.7256 61.5478 39.7256 61.6511C39.7256 61.7543 39.562 61.7821 38.8405 61.8017L37.9555 61.8257V63.255H38.8454C39.4684 63.255 39.7816 63.2896 39.8894 63.3706C40.0386 63.4824 40.038 63.4892 39.8694 63.5816C39.7653 63.6387 39.2627 63.6771 38.6196 63.6771H37.5438ZM43.4084 60.1137C42.7341 60.0908 42.688 60.0776 42.6633 59.8993L42.637 59.7094H46.1065V59.9204C46.1065 60.1299 46.1009 60.1315 45.3655 60.1315H44.6245V63.6884L44.1716 63.6349L44.1271 60.138L43.4084 60.1137ZM49.1527 63.6771V59.7094H49.5644V63.6771H49.1527ZM53.1871 63.6771V61.6933C53.1871 59.8084 53.1948 59.7094 53.3418 59.7094C53.5113 59.7094 54.1251 60.3538 55.3277 61.7945L56.1099 62.7314L56.162 62.2124C56.1907 61.9269 56.2185 61.2469 56.2237 60.7013L56.2334 59.7094H56.6451V61.6461C56.6451 62.9589 56.616 63.6011 56.5548 63.6399C56.436 63.7152 55.8575 63.1288 54.6825 61.7417L53.7223 60.608L53.6701 61.1508C53.6415 61.4491 53.6137 62.1396 53.6083 62.6852L53.5987 63.6771H53.1871ZM25.8526 61.6738V60.113L26.4789 60.1456C27.0425 60.1746 27.1251 60.2015 27.3022 60.4127C27.5179 60.6698 27.5458 60.8629 27.411 61.1662C27.2764 61.4692 27.0214 61.588 26.4103 61.6328L25.8526 61.6738ZM19.7593 61.9254C19.759 61.8907 19.915 61.5084 20.1058 61.0761L20.4528 60.2899L20.8021 60.9917L20.8113 61.0101C21.0734 61.5367 21.1945 61.78 21.1222 61.8923C21.0601 61.9888 20.8555 61.9887 20.4753 61.9887H20.4598C20.0748 61.9887 19.7596 61.9603 19.7593 61.9254Z" fill="white"/>
<path d="M24.4189 29.8225H50.5818V16.375H46.563V25.5325H41.6261L40.9662 25.1871C39.4298 24.3831 38.7919 23.3299 38.5285 21.1622C38.4169 20.2435 38.4307 18.7289 38.5546 18.3137L38.6531 17.9838L39.2486 17.9425C39.8759 17.899 39.9982 17.8216 40.0006 17.466C40.0014 17.3399 39.9329 17.2521 39.7915 17.1979C39.5166 17.0928 35.4841 17.0928 35.2093 17.1979C35.0624 17.2541 34.9989 17.3394 34.9989 17.4808C34.9989 17.8163 35.2019 17.9425 35.741 17.9425C36.1652 17.9425 36.2418 17.9678 36.3578 18.1458C36.5502 18.4412 36.5867 19.1346 36.4861 20.5825C36.388 21.9944 36.1858 22.9358 35.8453 23.5652C35.5378 24.1336 34.8211 24.7755 34.0345 25.1871L33.3746 25.5325H28.4377V16.375H24.4189V29.8225Z" fill="white"/>
<path d="M34.5889 10.6814C34.4856 10.7477 34.4986 10.7829 34.6709 10.9019C35.5285 11.494 36.1472 12.9155 36.1472 14.2939C36.1472 14.5646 36.196 14.7254 36.3181 14.8561C36.5174 15.0695 36.6346 15.5133 36.6373 16.0656L36.6393 16.4575H38.3616V16.0238C38.3616 15.4917 38.4717 15.084 38.677 14.8562C38.7936 14.7269 38.8455 14.5019 38.8849 13.9566C38.9745 12.7167 39.4682 11.5768 40.1412 11.056C40.4005 10.8553 40.4623 10.7661 40.3914 10.6947C40.237 10.5394 39.7834 10.5862 39.2496 10.8122L38.7483 11.0244L38.2782 10.8122C37.683 10.5435 37.3051 10.5443 36.7359 10.8152L36.2837 11.0304L35.7627 10.8152C35.2239 10.5926 34.8022 10.5445 34.5889 10.6814Z" fill="white"/>
<path d="M24.4603 0.968078C24.4341 1.11559 24.4232 4.28047 24.436 8.00123L24.4594 14.7663H28.3961L28.4371 10.7511C28.4596 8.54284 28.4965 6.71902 28.5191 6.69806C28.5417 6.67719 30.2899 7.30262 32.404 8.08795C34.5182 8.87325 36.5332 9.61567 36.8819 9.73779L37.5157 9.95981L40.3372 8.92122C41.8891 8.34997 43.897 7.60878 44.7991 7.27416C45.7012 6.93962 46.4578 6.68164 46.4804 6.70095C46.503 6.72025 46.5399 8.54284 46.5624 10.7511L46.6034 14.7663H50.5402V7.78121C50.5402 3.93941 50.5136 0.769418 50.481 0.736748C50.4485 0.704077 48.0311 1.60985 45.109 2.74959C38.5729 5.29902 37.8528 5.56748 37.5508 5.56748C37.2807 5.56748 36.8503 5.408 30.2005 2.84356C25.9826 1.21698 24.6154 0.699951 24.5323 0.699951C24.5188 0.699951 24.4864 0.820567 24.4603 0.968078Z" fill="white"/>
</g>
<defs>
<clipPath id="clip0_649_6424">
<rect width="75" height="63" fill="white" transform="translate(0 0.699951)"/>
</clipPath>
</defs>
</svg>
