<svg width="125" height="46" viewBox="0 0 125 46" fill="none" xmlns="http://www.w3.org/2000/svg">
<path d="M96.8351 39.1914C95.8483 39.9335 95.0698 40.5898 94.224 41.1418C89.3574 44.2945 83.7369 42.3747 81.8736 36.8974C80.6539 33.3155 80.5926 29.6537 81.6468 26.0472C83.6327 19.2758 89.2777 17.5952 96.4734 21.8028C97.1109 18.9385 96.6451 16.1354 96.786 13.3815C96.8289 12.5657 96.8167 11.75 96.786 10.9342C96.7492 9.83017 97.1906 9.13708 98.3551 9.16161C99.5932 9.18615 99.7648 10.051 99.7587 11.0753C99.7464 20.8767 99.7464 30.6719 99.7587 40.4733C99.7587 41.5099 99.5626 42.436 98.3306 42.3195C96.3876 42.1293 97.5951 40.32 96.8289 39.1914H96.8351ZM96.7921 31.3711C96.7921 29.8071 96.8105 28.8932 96.7921 27.9793C96.7309 25.3787 93.8624 22.3303 90.9571 21.8948C88.0028 21.4532 86.0415 22.8885 85.0056 25.5443C83.5836 29.1876 83.5836 32.9229 85.0301 36.5478C86.4644 40.1359 89.6761 41.0928 92.9981 39.2036C96.3692 37.29 97.5215 34.4379 96.7983 31.3711H96.7921Z" fill="white"/>
<path d="M59.9493 26.3846C59.9493 22.2996 60.0106 18.2147 59.9248 14.1359C59.8819 12.1977 60.5438 11.3329 62.5726 11.382C66.4463 11.474 70.3261 11.4126 74.2059 11.4004C75.1805 11.4004 76.155 11.4494 76.2163 12.6945C76.2776 13.9642 75.2601 14.142 74.3162 14.1543C71.46 14.1972 68.5976 14.2892 65.7476 14.1543C63.7004 14.0562 62.9158 14.5959 62.9097 16.8285C62.8852 24.8021 62.7994 24.8021 70.7674 24.8144C71.3803 24.8144 71.9932 24.8144 72.6062 24.8144C73.5869 24.8144 74.5491 24.8941 74.4756 26.2128C74.4143 27.3414 73.5072 27.3475 72.6675 27.3475C70.1177 27.3475 67.5618 27.3966 65.0182 27.3353C63.7004 27.3046 62.8975 27.5438 62.9465 29.1447C63.0384 32.0029 63.0384 34.8611 62.9465 37.7193C62.8975 39.3141 63.6881 39.5594 65.012 39.5349C68.0705 39.4797 71.1352 39.5042 74.1936 39.5349C75.1805 39.541 76.4308 39.3263 76.3879 40.9026C76.3511 42.252 75.2417 42.1109 74.3469 42.1109C70.369 42.1293 66.385 42.0619 62.4071 42.1416C60.5132 42.1784 59.9003 41.3442 59.9248 39.5594C59.9861 35.1678 59.9432 30.7823 59.9432 26.3907L59.9493 26.3846Z" fill="white"/>
<path d="M121.842 39.633C121.591 39.6821 121.34 39.6575 121.223 39.7679C118.367 42.3808 115.131 43.6505 111.459 41.8165C107.8 39.9887 107.524 36.4497 107.555 32.8677C107.586 29.4023 107.512 25.943 107.592 22.4775C107.616 21.4041 106.905 19.6745 108.812 19.5825C110.981 19.4782 110.313 21.4471 110.356 22.5511C110.509 26.4152 110.399 30.2916 110.509 34.1558C110.571 36.3332 110.987 38.4431 113.206 39.6085C116.424 41.2952 121.824 38.0015 121.947 34.1496C122.069 30.2855 121.947 26.4091 121.996 22.5388C122.014 21.3367 121.438 19.5395 123.552 19.5763C125.508 19.607 124.852 21.3183 124.864 22.3916C124.919 27.9916 124.925 33.5976 124.858 39.1975C124.846 40.2709 125.587 41.8717 123.798 42.2581C121.536 42.7488 122.768 40.2954 121.848 39.633H121.842Z" fill="white"/>
<path d="M13.8697 9.29042C15.5675 6.41379 17.4246 3.87451 20.0725 2.03445C23.2168 -0.149085 26.6614 0.366132 28.9476 3.43903C32.1532 7.73864 32.9807 12.9276 34.1268 17.9816C34.3475 18.9446 33.8265 19.6131 32.9439 19.8094C31.9448 20.0302 31.4851 19.239 31.2093 18.4539C30.5044 16.436 29.9405 14.3751 29.1683 12.3879C28.6595 11.0691 27.9914 9.78723 27.2376 8.58506C24.5591 4.32839 21.8193 4.07692 18.5892 7.97784C17.2837 9.55416 16.1436 10.6275 13.8697 9.29042Z" fill="white"/>
<path d="M6.72912 27.4457C3.70128 24.7285 1.32927 21.858 0.287295 18.1104C-0.589185 14.9701 0.544723 12.5719 3.6216 11.5844C8.94178 9.87311 14.2865 10.8851 19.6005 11.8236C20.3605 11.9585 20.9244 12.4799 20.8264 13.3263C20.7099 14.3199 19.9989 14.6082 19.0673 14.5714C16.634 14.4917 14.1945 14.3751 11.7551 14.4181C10.3454 14.4426 8.905 14.6082 7.54431 14.9701C4.01387 15.9085 3.35804 17.583 5.14165 20.8215C5.58296 21.6188 6.06104 22.4346 6.69848 23.0725C8.08369 24.4525 8.24305 25.7896 6.72912 27.4518V27.4457Z" fill="white"/>
<path d="M21.7396 43.0371C18.6995 44.4662 15.7023 45.2881 12.4845 45.1961C7.9182 45.0673 5.32553 42.2397 5.75458 37.6825C6.21427 32.837 8.20627 28.4761 10.3515 24.1888C10.7928 23.3055 11.4486 22.594 12.5151 23.1522C13.5326 23.6858 13.4161 24.569 13.0361 25.5259C11.7612 28.746 10.5415 31.9906 10.3147 35.4867C9.98375 40.6082 11.4364 42.0435 16.4869 41.3811C18.4421 41.1234 20.0847 41.3074 21.7396 43.031V43.0371Z" fill="white"/>
<path d="M40.1457 31.5306C41.1632 34.4931 41.4513 37.2041 41.0835 39.9642C40.538 44.0246 37.9944 46.0732 33.8878 45.6438C28.5615 45.0796 24.13 42.3256 19.6986 39.6023C18.9079 39.1178 18.4973 38.394 19.0979 37.5537C19.7783 36.603 20.6915 36.8974 21.5557 37.3513C24.4487 38.8663 27.4214 40.1605 30.627 40.8781C35.843 42.0435 37.7615 40.6941 37.7737 35.4561C37.7737 33.6099 38.8218 32.7389 40.1457 31.5306Z" fill="white"/>
<path d="M36.7685 10.7195C38.5705 10.6582 40.0844 10.8667 41.5371 11.3881C44.9817 12.6332 46.6121 15.3074 45.7295 18.8342C44.4056 24.1458 40.918 28.2062 37.4979 32.2789C36.9953 32.88 36.2843 33.1192 35.5978 32.5856C34.6539 31.8557 34.8868 30.9602 35.4998 30.169C37.504 27.5683 39.165 24.7837 40.3541 21.7108C42.2481 16.8224 41.0038 13.7127 35.7449 13.9151C34.0533 13.9826 33.7591 12.6516 33.8755 11.7132C34.1452 9.54803 36.0269 11.2899 36.7624 10.7195H36.7685Z" fill="white"/>
<path d="M27.9547 25.6301C27.7218 27.875 25.503 29.7641 23.3148 29.574C20.8386 29.3593 19.0918 27.2126 19.3554 24.7162C19.6005 22.4346 21.7458 20.7233 24.0687 20.9687C26.3366 21.2079 28.1815 23.4282 27.9608 25.6301H27.9547Z" fill="white"/>
</svg>
