<svg width="69" height="70" viewBox="0 0 69 70" fill="none" xmlns="http://www.w3.org/2000/svg">
<path fill-rule="evenodd" clip-rule="evenodd" d="M43.0991 18.7435C43.0402 18.0989 43.1588 16.3317 42.2636 17.3574C42.1399 17.4993 42.0162 17.7164 41.9482 17.8474C40.9525 19.7706 42.0968 22.9746 41.9051 24.3957C41.8795 24.5858 41.8253 24.7799 41.7548 24.9643C41.8863 24.8226 42.0335 24.7013 42.305 24.7464C42.3174 24.8754 42.3308 25.0129 42.3459 25.1658C42.0917 25.2145 41.875 25.3159 41.6981 25.1023C41.6334 25.2502 41.5594 25.3895 41.4831 25.5116C41.3629 25.704 41.2712 25.8171 41.1064 25.9695C40.4748 26.5529 39.8231 28.1965 38.4959 28.2076C38.2729 28.2095 38.5186 27.9206 38.6566 27.7753C38.7728 27.6529 38.892 27.5253 38.9949 27.4172C39.1014 27.3056 39.2458 27.1566 39.4026 26.9854C39.0482 26.7899 39.1247 26.5948 39.1959 26.4007C39.326 26.4071 39.2825 26.3184 39.4074 26.9805C39.9919 26.3421 40.7448 25.3973 40.3499 24.9097C39.7223 24.1344 37.4469 26.824 37.0437 27.2211C35.8397 28.4073 34.6876 29.7099 34.2572 31.178C34.1024 31.7059 34.8238 34.0822 35.0143 34.7331L34.3677 34.9685L32.9647 35.4792C32.6923 34.858 31.7173 32.5741 31.2597 32.2692C29.9862 31.421 28.2663 31.1639 26.5815 31.0292C26.0177 30.984 22.5458 30.3863 22.5631 31.3837C22.577 32.1815 24.4874 32.3525 25.213 32.4338C25.361 32.4503 25.5345 32.4718 25.7023 32.4908C25.9015 32.5134 26.2752 32.5769 26.1033 32.7187C25.0796 33.5634 23.5238 32.7232 22.665 32.6822C22.4408 32.6715 22.298 32.6439 22.0821 32.5736C21.7376 32.4616 21.3365 32.2587 21.0416 31.9901C19.9812 31.0245 18.7984 27.8345 16.7995 27.0015C16.6631 26.9445 16.4288 26.8577 16.243 26.8288C14.8978 26.6185 16.1244 27.8962 16.494 28.4278C16.6207 28.6103 16.7437 28.7911 16.8639 28.9711C16.8719 28.8424 16.8898 28.877 17.0342 28.8753C17.0474 29.1289 17.0702 29.2038 17.03 29.2218C17.4226 29.819 17.7871 30.4078 18.1548 31.0052L18.1745 30.9824C18.3289 31.0379 18.3377 31.326 18.578 31.2661C18.5932 31.2623 18.6496 31.4517 18.66 31.4498C18.6603 31.4493 18.6605 31.4488 18.6608 31.4488C18.6669 31.4474 18.7071 31.4792 18.9533 31.6521C18.9206 31.5008 18.9063 31.434 18.8873 31.3458C18.7929 31.3919 18.7263 31.4244 18.6598 31.4566C18.6603 31.4547 18.66 31.4526 18.66 31.4512C18.6318 31.5196 18.5876 31.5864 18.5535 31.6534C18.7273 31.9357 18.9041 32.2215 19.0869 32.5122C19.5343 33.2237 20.1431 33.9767 20.8625 34.3344C21.0857 34.4454 21.364 34.5835 21.5942 34.647C22.4509 34.8836 25.346 35.1506 26.5251 35.338C27.8072 35.5417 28.8156 35.545 29.3294 36.8029L16.3728 41.5188C16.4215 41.5246 16.4935 41.5693 16.6228 41.6495C16.5013 41.6624 16.3796 41.6754 16.234 41.6907C16.2663 41.6164 16.2876 41.567 16.3126 41.5406L14.5608 42.1782C12.668 36.7717 13.1055 31.1003 15.3562 26.2737C17.6413 21.373 21.7951 17.3445 27.2756 15.3497C27.8608 15.1366 28.4493 14.9515 29.0399 14.7927L29.0233 14.7431C29.0479 14.7504 29.0844 14.7591 29.1275 14.7694C31.5807 14.1214 34.0655 13.9356 36.4806 14.1647C36.5232 13.7656 36.3981 13.6414 35.9474 13.5971C36.1932 13.3116 36.4351 13.1909 36.6425 13.1514C36.2257 13.1107 35.807 13.0818 35.3867 13.0648C35.2411 13.2248 35.2763 13.1994 35.1773 13.0971L35.2234 13.0589C34.8118 13.0453 34.3988 13.0435 33.9848 13.0531C34.0274 13.1218 33.9573 13.2097 33.8902 13.202C33.7842 13.1892 33.7686 13.1197 33.7759 13.0592C31.4955 13.1347 29.1881 13.5661 26.9274 14.3889C21.1787 16.4813 16.8228 20.7045 14.4274 25.8414C12.0322 30.9776 11.5968 37.0287 13.689 42.7766C15.7815 48.5254 20.0047 52.8814 25.1415 55.2768C25.8586 55.6112 26.5937 55.9073 27.3433 56.1637C27.4911 56.1247 27.6238 56.1788 27.702 56.283C28.7895 56.6344 29.906 56.9028 31.0416 57.0832L31.0898 56.8453C31.1701 56.9101 31.2347 56.9357 31.2469 56.9768C31.2615 57.0272 31.2726 57.0773 31.2678 57.118C33.2697 57.4148 35.3286 57.4393 37.3907 57.166L37.6296 56.9486C37.6383 57.0213 37.6412 57.0825 37.6353 57.1321C37.8823 57.0966 38.129 57.0569 38.376 57.0126C38.3469 56.9541 38.3068 56.8731 38.249 56.7619C38.4821 56.7776 38.5145 56.8806 38.5256 56.9856C38.6789 56.9571 38.8325 56.9268 38.9857 56.895L38.8101 56.799C38.8934 56.5901 38.9788 56.3763 39.0677 56.155C39.378 56.3444 39.378 56.3444 39.1788 56.6796C39.2166 56.7299 39.2919 56.7685 39.3404 56.8181C39.4093 56.8026 39.4784 56.7868 39.5473 56.7706C39.5353 56.7403 39.52 56.7104 39.5 56.6817C39.5805 56.7094 39.6334 56.7282 39.6704 56.7412C40.1796 56.6184 40.6876 56.4766 41.1941 56.3157C41.3276 56.2077 41.4396 56.0908 41.4603 55.8876C41.4798 55.6973 41.6012 55.6757 41.8654 55.727C41.772 55.9139 41.6962 56.06 41.6309 56.1717C41.7795 56.1211 41.9279 56.069 42.0763 56.0149C44.6642 55.0728 46.9697 53.6989 48.941 52.0045C48.9386 52.0016 48.9373 51.9993 48.9373 51.9969C48.938 51.9092 48.9666 51.8151 49.0106 51.7385C49.0198 51.7225 49.1049 51.7505 49.2054 51.7736C50.1794 50.9089 51.069 49.965 51.8671 48.9554C51.6509 49.0439 51.6975 49.0295 51.6415 48.9048C51.9289 48.7668 51.9289 48.737 51.9696 48.8249C52.1931 48.5376 52.4094 48.2453 52.6181 47.9483C52.5475 48.0019 52.4466 48.0249 52.3394 47.9897C52.3952 47.8196 52.4464 47.6641 52.5026 47.4934C52.6887 47.5816 52.7388 47.7114 52.7089 47.8184C53.423 46.7865 54.0475 45.697 54.5762 44.5629C56.9714 39.4265 57.4068 33.3757 55.3145 27.6276C54.1759 24.4987 52.4059 21.783 50.201 19.5709L50.1999 19.894C50.5372 19.9841 50.5844 20.2791 50.64 20.6336C50.3419 20.4642 50.468 20.4338 50.1596 20.8706C50.1401 20.8983 50.1194 20.9231 50.0982 20.9449C51.8571 22.8671 53.2863 25.1472 54.2617 27.7282L40.9793 32.5628C41.2258 32.5188 41.4481 32.4962 41.6466 32.4153C41.8663 32.3254 42.0585 32.1837 42.363 32.3149C42.2375 32.4633 42.1377 32.5809 42.0192 32.7206C41.8369 32.4764 41.9336 32.4948 41.5796 32.6858C41.6005 32.8354 41.6193 32.973 41.6451 33.1595C41.4135 33.1287 41.2413 33.1059 41.0129 33.0755L40.8798 32.5987L38.6503 33.4103C38.2354 32.1161 39.0056 31.4655 39.8569 30.4854C40.6396 29.5838 42.6858 27.5184 43.1901 26.7867C43.3256 26.59 43.45 26.3055 43.5497 26.0768C43.871 25.3401 43.8533 24.3722 43.7386 23.5395C43.5107 21.8839 43.2513 20.4138 43.0991 18.7435ZM42.3005 51.9358C42.6347 51.7862 42.6813 52.2543 42.9972 52.2346C42.8526 52.5271 42.6963 52.8193 43.037 53.0954C42.7277 53.2525 42.8178 53.2432 42.1624 52.6471C42.2989 52.1715 42.2567 52.3396 42.3005 51.9358ZM31.2566 52.8136C31.4323 52.8611 31.5551 52.895 31.7618 52.951C31.7482 52.7752 31.7368 52.6288 31.7256 52.4827C31.922 52.4679 31.831 52.3817 32.2131 53.0615C31.841 53.1137 32.0124 53.6745 31.5471 53.6041C31.3165 53.4296 31.2488 53.168 31.2566 52.8136ZM45.1661 51.8367C45.2734 51.7885 45.3784 51.7413 45.4777 51.6969C45.7536 51.9803 45.4083 52.1357 45.4137 52.3679C45.1292 52.311 44.8744 52.2602 44.5926 52.2037C44.7759 51.594 44.6204 51.7398 45.279 51.5063C45.4422 51.7048 45.2063 51.7319 45.1661 51.8367ZM25.4438 44.1051C25.6658 44.345 25.5766 44.6983 26.037 44.6285C25.8925 44.775 25.8495 44.8576 25.7895 44.8731C25.4783 44.9523 25.1627 45.0144 24.8297 45.0422C25.0253 44.8783 25.1274 44.691 25.1899 44.4624C25.2231 44.3411 25.3417 44.2431 25.4438 44.1051ZM36.5147 41.7993C36.742 41.701 36.9197 41.6243 37.1369 41.5307C37.1496 41.8786 37.162 42.1975 37.1742 42.5332C37.0351 42.5774 36.9116 42.6163 36.7264 42.6745C36.7653 41.907 36.8221 42.0962 36.5147 41.7993ZM27.7985 47.6225C27.7039 47.5244 27.615 47.4317 27.4958 47.308C27.5856 47.2443 27.6738 47.1822 27.7834 47.104C27.8255 47.3033 27.775 47.5168 28.0797 47.4689C28.2706 47.4388 28.4776 47.5112 28.661 47.5355C28.5004 47.762 28.3068 47.9656 27.9431 47.8382C27.8521 47.8061 27.7246 47.8793 27.6138 47.904C27.5673 47.7859 27.5327 47.849 27.7985 47.6225ZM50.7303 47.137C50.7463 47.0422 50.7573 46.9778 50.7738 46.8807C50.7128 46.8822 50.6383 46.9063 50.6068 46.8799C50.3532 46.6652 50.5757 46.5304 50.6059 46.532C50.8845 46.5485 51.1623 46.5871 51.5332 46.6289C51.2256 46.8237 50.9977 46.9679 50.7303 47.137ZM30.5335 55.3202C30.7113 55.0559 30.8623 54.8308 31.0345 54.5751C31.1782 54.7734 31.3495 54.915 31.2326 55.1507C31.1227 55.3715 30.9653 55.4087 30.5335 55.3202ZM34.355 50.8975C34.5519 50.5327 34.7057 50.2482 34.8822 49.9217C34.959 50.0435 35.0668 50.1433 35.0807 50.255C35.1331 50.6695 34.8238 50.6934 34.355 50.8975ZM17.4743 41.7636C17.5957 41.669 17.3699 41.2923 17.7778 41.3682C17.8142 41.6589 17.7961 41.9016 17.4954 42.0552C17.3247 42.1422 17.1786 42.2342 17.0298 42.0447C17.0808 41.7862 17.342 41.8984 17.4743 41.7636ZM43.5876 54.4691C42.9671 54.9653 42.515 54.689 42.5303 54.4956C42.5446 54.3195 42.6522 54.3681 43.5876 54.4691ZM31.9448 54.6139C31.5306 53.9589 31.5529 54.1613 31.7806 53.706C32.0436 53.7542 31.8074 54.0466 32.0412 54.1341C32.1396 54.171 32.1662 54.4559 31.9448 54.6139ZM36.9355 54.776C36.7671 54.907 36.6282 55.015 36.4351 55.1648C36.3621 55.0114 36.299 54.8787 36.2346 54.7426C36.7178 54.5648 36.7178 54.5648 36.9355 54.776ZM36.2362 41.6234C36.2685 41.1075 36.3362 41.2741 35.8938 40.8757C36.3477 40.5807 36.5378 41.2539 36.3456 41.6371C36.3092 41.6323 36.2727 41.6281 36.2362 41.6234ZM51.5286 48.3632C51.6218 48.1148 51.6218 48.1148 51.9238 47.9659C51.9598 48.2317 51.9598 48.2317 52.2199 48.3771C51.9679 48.6822 51.7645 48.3573 51.5286 48.3632ZM6.16976 47.8502C6.35041 47.8443 6.47766 47.8401 6.6035 47.836C6.63055 48.2056 6.63055 48.2056 6.25068 48.3168C6.22833 48.1872 6.20623 48.0607 6.16976 47.8502ZM9.24046 52.7313C9.56153 52.8214 9.73465 52.9136 9.79204 53.1949C9.6662 53.2393 9.54741 53.2817 9.37595 53.3426C9.33196 53.1448 9.29574 52.9802 9.24046 52.7313ZM45.958 32.6237C46.09 32.3228 45.9037 32.4189 46.5806 32.2116C46.5837 32.2575 46.6164 32.3492 46.5877 32.3768C46.4301 32.5273 46.2751 32.7025 45.958 32.6237ZM68.0268 36.2554C67.8408 36.0806 67.7274 35.9743 67.6034 35.8576C67.6961 35.7003 67.8333 35.618 68.0673 35.6762C68.0551 35.8503 68.0441 36.0079 68.0268 36.2554ZM44.2107 52.3035C44.0498 52.227 43.8889 52.1513 43.7113 52.0673C43.8618 51.9325 43.9778 51.8281 44.1243 51.6969C44.316 52.2823 44.3113 52.1798 44.2107 52.3035ZM23.0792 40.5398C22.7195 40.8251 22.7195 40.8251 22.5059 40.4311C22.7589 40.167 22.821 40.5543 23.0792 40.5398ZM20.6525 57.6376C20.4918 57.4692 20.4027 57.3761 20.2795 57.2469C20.6292 57.1984 20.486 57.1679 20.8522 57.3109C20.7964 57.4019 20.7409 57.4927 20.6525 57.6376ZM45.8141 51.7173C46.0067 51.4273 46.066 51.4407 46.3626 51.8024C46.1479 52.0367 46.0126 51.7615 45.8141 51.7173ZM61.6616 49.9894C61.7179 49.6714 61.7179 49.6714 62.0139 49.6758C61.9205 50.016 61.9205 50.016 61.6616 49.9894ZM32.0641 50.6287C32.273 50.549 32.419 50.4937 32.5773 50.4331C32.4822 50.8458 32.4293 50.8717 32.0641 50.6287ZM31.9876 49.8603C32.0881 50.0196 32.1739 50.0437 32.0735 50.3101C32.0676 50.3255 31.9311 50.3244 31.9175 50.2985C31.8013 50.076 31.9293 49.9635 31.9876 49.8603ZM8.39087 52.0644C8.46144 51.8638 8.51484 51.6373 8.82484 51.6387C8.72887 51.8803 8.72887 51.8803 8.39087 52.0644ZM50.5285 54.3312C50.6068 53.8902 50.6068 53.8902 50.9817 54.0444C50.8347 54.1376 50.7135 54.2143 50.5285 54.3312ZM44.1528 49.977C44.2916 49.9692 44.4299 49.9612 44.6218 49.9504C44.4002 50.2702 44.4002 50.2702 44.1528 49.977ZM51.6006 47.7883C51.2675 47.9706 51.2543 47.9621 51.2275 47.5458C51.3608 47.6324 51.474 47.706 51.6006 47.7883ZM37.6398 56.6499C37.2973 56.7915 37.1952 56.6631 37.1447 56.4533C37.2587 56.3069 37.1554 56.284 37.6398 56.6499ZM48.0336 52.4123C48.2055 52.0217 48.4798 52.3173 48.3624 52.4545C48.2411 52.596 48.1318 52.5342 48.0336 52.4123ZM35.4363 62.5939C35.2265 62.4989 35.2265 62.4989 35.1717 62.1943C35.4146 62.3411 35.4146 62.3411 35.4363 62.5939ZM40.886 48.5172C41.2672 48.7054 41.2515 48.577 41.0901 48.9664C40.9565 48.9469 41.0007 49.0182 40.886 48.5172ZM59.8109 53.229C59.5498 53.0872 59.5498 53.0872 59.8433 52.7752C59.8323 52.9296 59.8231 53.0557 59.8109 53.229ZM44.3819 53.2021C44.1808 52.9406 44.2678 52.799 44.3786 52.6607C44.5675 52.7024 44.547 52.5984 44.3819 53.2021ZM47.9698 50.6073C48.1705 50.8503 48.1705 50.8503 47.9449 51.0211C47.9538 50.8722 47.9604 50.7654 47.9698 50.6073ZM39.8675 36.1985C39.6219 36.1308 39.6847 36.1728 39.6793 35.9779C39.9644 36.0254 39.9295 35.9703 39.8675 36.1985ZM36.3377 50.8463C36.3445 50.2924 36.2948 50.3656 36.487 50.597C36.602 50.7355 36.5388 50.7962 36.3377 50.8463ZM39.959 66.0793C39.7477 65.9612 39.7517 65.8545 39.8272 65.743C39.8409 65.7225 39.9434 65.7345 39.9437 65.7376C39.9531 65.8352 39.955 65.9334 39.959 66.0793ZM68.5615 39.9204C68.6232 40.0867 68.6403 40.0012 68.5436 40.2549C68.4281 40.2443 68.4552 40.3088 68.4376 39.9353C68.479 39.9301 68.5201 39.9254 68.5615 39.9204ZM30.6563 56.0739C30.8735 56.2637 30.8735 56.2637 30.7761 56.5457C30.7308 56.3682 30.6935 56.2211 30.6563 56.0739ZM31.8888 52.3315C31.5322 52.2568 31.7268 52.0974 31.7219 51.9835C31.8446 51.9577 31.8057 51.8946 31.8888 52.3315ZM32.4639 44.8418C32.3512 44.8258 32.2637 44.8133 32.151 44.7974C32.3362 44.591 32.3362 44.591 32.4639 44.8418ZM21.5112 41.4199C21.4261 41.3846 21.3405 41.3491 21.2424 41.3087C21.4033 41.2219 21.4033 41.2219 21.5112 41.4199ZM17.8539 42.0378C17.7947 42.112 17.7357 42.1863 17.6681 42.2702C17.5828 42.0898 17.5828 42.0898 17.8539 42.0378ZM45.7612 47.9268C46.1335 47.8058 46.0641 47.7871 46.1116 47.9386C45.7358 48.0539 45.8058 48.0691 45.7612 47.9268ZM45.2888 49.0074C45.3674 49.2394 45.3065 49.3322 45.0593 49.3743C45.178 49.0952 45.12 49.1949 45.2888 49.0074ZM42.8516 53.6336C42.8549 53.5482 42.8563 53.4624 42.8653 53.3777C42.866 53.3711 42.9438 53.364 42.945 53.3682C42.9673 53.4497 42.9834 53.5325 43.0007 53.6153C42.9511 53.6214 42.9011 53.6275 42.8516 53.6336ZM40.9579 42.7188C41.3274 42.4852 41.2578 42.5009 41.3093 42.5842C40.9506 42.8109 41.0214 42.7955 40.9579 42.7188ZM37.1543 65.501C37.4182 65.6023 37.4182 65.6023 37.2916 65.8112C37.2505 65.7181 37.218 65.6449 37.1543 65.501ZM54.3591 58.4462C54.4991 58.358 54.5756 58.3061 54.6572 58.2644C54.714 58.235 54.8559 58.6231 54.3591 58.4462ZM5.80895 22.9727C5.95172 22.8586 6.02299 22.8017 6.13189 22.7142C6.15707 22.9348 6.09544 23.004 5.80895 22.9727ZM21.7159 40.7059C22.0833 40.8291 22.0323 40.7844 22.0066 40.8883C21.6275 40.8333 21.6841 40.8783 21.7159 40.7059ZM42.5197 55.1058C42.5835 55.0225 42.6335 54.9576 42.6888 54.8853C42.7893 55.1239 42.7893 55.1239 42.5197 55.1058ZM39.8889 56.4594C40.05 56.4272 40.1487 56.4074 40.332 56.3707C40.1928 56.6116 40.1029 56.6729 39.8889 56.4594ZM52.651 44.4113C52.6423 44.512 52.6392 44.5518 52.6362 44.591C52.5901 44.576 52.5369 44.5701 52.5017 44.5422C52.4883 44.5313 52.5033 44.4553 52.527 44.4351C52.5541 44.412 52.6061 44.4186 52.651 44.4113ZM42.0074 50.8619C42.1072 50.895 42.1697 50.9079 42.2222 50.9389C42.2351 50.9465 42.2217 51.0413 42.2081 51.0446C41.9587 51.1045 42.0177 51.0336 42.0074 50.8619ZM44.4268 64.5787C44.5073 64.4627 44.4457 64.4517 44.6943 64.5959C44.6188 64.712 44.6759 64.71 44.4268 64.5787ZM3.89315 47.9861C3.67463 48.2044 3.73038 48.1891 3.641 48.115C3.83128 47.8513 3.77531 47.8718 3.89315 47.9861ZM46.1613 64.061C46.1422 63.9639 46.1231 63.867 46.0933 63.7148C46.3579 63.8258 46.269 63.9413 46.1613 64.061ZM46.8831 32.3586C46.9363 32.3654 46.9773 32.3709 47.0182 32.3765C46.9994 32.4238 46.988 32.4774 46.957 32.5144C46.9466 32.5268 46.8629 32.5061 46.8533 32.4833C46.8408 32.4545 46.8695 32.4078 46.8831 32.3586ZM10.3389 16.1946C10.2827 16.2614 10.2561 16.3071 10.2163 16.3322C10.2022 16.3412 10.1296 16.2986 10.1308 16.2828C10.1408 16.1247 10.2584 16.184 10.3389 16.1946ZM8.79661 13.85C8.86365 13.9801 8.92928 14.0236 8.76228 14.1174C8.7117 13.8281 8.69407 13.8801 8.79661 13.85ZM8.70724 13.2666C8.858 13.1093 8.81426 13.1149 8.9027 13.217C8.72582 13.3426 8.76792 13.336 8.70724 13.2666ZM8.86177 52.9331C8.95068 52.9707 8.9989 52.9912 9.04735 53.0119C9.02148 53.058 9.00478 53.1152 8.96668 53.146C8.94598 53.1626 8.86036 53.1431 8.85378 53.1234C8.83896 53.0789 8.85542 53.0243 8.86177 52.9331ZM31.719 51.5124C31.5673 51.6183 31.623 51.6161 31.5061 51.5253C31.6272 51.4132 31.5765 51.4313 31.719 51.5124ZM36.7542 52.7445C36.7805 52.959 36.797 52.9211 36.6956 52.931C36.6777 52.7162 36.6613 52.7538 36.7542 52.7445ZM55.5877 40.3791C55.6953 40.4488 55.7984 40.4492 55.685 40.6244C55.6754 40.639 55.5792 40.6242 55.577 40.6132C55.5679 40.5635 55.5787 40.5104 55.5877 40.3791ZM10.8538 55.4892C10.715 55.6253 10.7863 55.6296 10.5927 55.5343C10.6788 55.4183 10.6066 55.4193 10.8538 55.4892ZM39.1956 69.0772C39.0649 69.2545 39.107 69.2467 39.0106 69.1388C39.1771 69.0098 39.1371 69.0197 39.1956 69.0772ZM44.258 48.9768C44.1448 48.97 44.1721 49.0063 44.1436 48.858C44.2353 48.862 44.2118 48.8223 44.258 48.9768ZM45.1529 46.8853C45.3392 47.0424 45.2931 46.9855 45.2924 47.1196C45.1261 47.1142 45.0558 47.1542 45.1529 46.8853ZM45.9731 49.3504C46.2043 49.3936 46.1589 49.3593 46.1443 49.5046C45.9136 49.4381 45.9468 49.4753 45.9731 49.3504ZM44.1559 50.8834C43.9957 51.1064 44.0401 51.0845 43.9585 51.0258C44.1192 50.8032 44.0749 50.8249 44.1559 50.8834ZM47.0918 49.7994C47.2687 49.8455 47.2298 49.8116 47.2201 49.9527C47.0362 49.9292 47.0626 49.968 47.0918 49.7994ZM20.3173 32.7326C20.5657 32.7258 20.5229 32.7079 20.53 32.8008C20.298 32.8344 20.3423 32.8537 20.3173 32.7326ZM22.005 58.8045C22.2641 58.461 22.1981 58.4956 22.3055 58.5864C22.0169 58.8569 22.0722 58.8261 22.005 58.8045C22.1879 58.864 21.8547 59.1625 22.0459 59.397C22.0525 59.4052 21.9358 59.5139 21.8765 59.5762C21.8051 59.5478 21.8838 59.5588 21.5524 59.5339L21.7425 59.9808L21.7065 60.0464L21.1732 59.754C21.2269 59.7425 21.2913 59.7287 21.3692 59.7129C21.2833 59.6538 21.2135 59.6318 21.153 59.6298L21.3597 59.2528C21.9022 59.2161 21.7507 59.5261 21.8765 59.5762C21.8886 59.6082 21.901 59.6401 21.9113 59.6724L22.9183 57.8361C22.6215 57.9737 22.6142 57.9622 22.3715 57.567C22.303 57.6496 22.2412 57.7244 22.1776 57.8018C22.5495 58.0536 22.5044 57.9961 22.4857 58.1144C21.6533 58.1419 21.9059 58.164 21.5574 57.9283C21.5705 57.7785 21.5816 57.6496 21.5924 57.5242L20.8388 57.1109L21.4927 55.9182L20.8917 55.5887L20.2432 56.7713H20.2458L20.235 56.7866L19.201 58.6723L19.547 58.8618C19.5649 58.8068 19.6531 58.8113 19.8774 58.8224C19.8065 58.8769 19.7516 58.9188 19.7096 58.951L19.8022 59.0018L20.0064 58.6292C19.8702 58.6196 19.751 58.5495 19.6439 58.3879C19.7432 58.2524 19.8551 58.0996 19.9955 57.9078C20.1108 58.0516 20.1847 58.1517 20.2383 58.2068L20.5551 57.6289L21.8589 58.3437L21.7483 58.5453C21.8424 58.8099 21.6748 58.8732 21.5233 58.9558L21.3704 59.2344C21.4374 59.1898 21.6023 59.0761 22.005 58.8045ZM22.9331 57.8088L23.3972 56.9625L22.7962 56.633L22.4282 57.3045C22.5577 57.3885 22.7012 57.5487 22.9331 57.8088ZM68.0977 39.3023C68.1433 39.5261 68.164 39.4842 68.0261 39.5054C68.0193 39.2692 67.9965 39.3072 68.0977 39.3023ZM29.6183 55.1274C29.3949 55.1015 29.2208 55.0187 29.1905 54.725C29.4226 54.7734 29.6221 54.8268 29.6957 55.078C29.6698 55.0944 29.644 55.1107 29.6183 55.1274ZM36.9925 14.2188C37.2823 14.2534 37.5709 14.294 37.858 14.3407C37.9093 14.2908 37.9768 14.2604 38.089 14.2835C38.1234 14.2906 38.2285 14.1555 38.2224 14.0936C38.2172 14.0379 38.1046 13.9516 38.0396 13.9523C37.9368 13.953 37.8331 14.0163 37.3831 14.2494C37.2439 14.0247 37.3305 13.9109 37.4586 13.8084C37.5417 13.8225 37.6242 13.8364 37.7416 13.8564C37.728 13.7178 37.7181 13.6197 37.7021 13.457C37.5884 13.6239 37.5231 13.7195 37.4582 13.8152C37.4175 13.751 37.3768 13.6867 37.3363 13.6228C37.0007 13.8182 36.9817 13.8294 36.9925 14.2188ZM38.2437 14.407C38.5802 14.4679 38.9146 14.5368 39.247 14.6137C39.274 14.5813 39.3142 14.5531 39.3651 14.5344L39.5139 14.6773C40.4592 14.9091 41.3862 15.2055 42.288 15.5635C42.3614 14.1776 42.2139 15.6484 43.0226 15.3633C42.9012 15.6654 42.7243 15.651 42.5517 15.6703C42.8466 15.7919 43.1388 15.9204 43.4279 16.0551C45.1365 16.8518 46.7387 17.8759 48.186 19.1039C48.4342 19.2996 48.508 19.3525 48.5324 19.4043C48.8691 19.7026 49.1964 20.0124 49.5145 20.3329C49.6462 19.9925 49.7236 19.9455 49.5283 19.7789C49.3182 19.5997 49.6353 19.5525 49.7254 19.4586C49.6878 19.3744 49.6589 19.3095 49.6067 19.1928L49.7809 19.1609C49.5973 18.9861 49.411 18.8146 49.2218 18.6467C49.1854 18.6485 49.1436 18.6473 49.0958 18.6431L49.139 18.5735C47.5467 17.1738 45.7666 16.0147 43.8604 15.1258C43.7548 15.0764 43.6487 15.0282 43.5424 14.9804L43.262 15.1578L43.2498 14.8519C42.8471 14.6789 42.4395 14.5178 42.0272 14.3687L42.0114 14.371L42.0177 14.3653C41.4876 14.1737 40.9499 14.0022 40.4056 13.8512C40.3678 13.8641 40.3077 13.8601 40.2819 13.8396C40.2746 13.834 40.2699 13.8248 40.2668 13.8133C39.9317 13.7227 39.5939 13.6397 39.2543 13.5649C39.2538 13.6026 39.2122 13.6717 39.1527 13.8072L38.9852 13.5073C38.8805 13.4857 38.7756 13.4648 38.6705 13.4443C38.5749 13.7891 38.5069 14.1497 38.2437 14.407ZM37.8105 13.2963L37.7141 13.282L37.7668 13.3426C37.7816 13.3265 37.7961 13.3111 37.8105 13.2963ZM37.2239 13.2152L37.1715 13.2086C37.2512 13.2417 37.2759 13.2636 37.2239 13.2152ZM36.1078 36.5214C35.9851 36.4174 35.8646 36.3151 35.7548 36.2222C35.867 35.8958 36.0679 36.1028 36.2369 36.0872C36.1702 35.7875 36.4061 35.7375 36.618 35.5977C36.6568 36.0502 36.317 36.2338 36.1078 36.5214ZM16.8868 28.4051C16.4305 28.1375 16.3138 27.9816 16.381 27.8042C16.44 27.6483 16.589 27.6306 16.9577 27.7534C16.8181 27.9298 16.6375 28.1012 16.8868 28.4051ZM61.4011 15.9062C61.3489 15.6284 61.2967 15.3509 61.2416 15.0597C61.3497 15.0472 61.424 15.026 61.4313 15.0399C61.5251 15.2203 61.6411 15.3984 61.6865 15.5922C61.7234 15.7526 61.6733 15.9323 61.4011 15.9062ZM40.0528 34.1182C39.4916 34.0357 39.2907 33.756 39.4368 33.3022C39.6371 33.5678 39.8183 33.8077 40.0528 34.1182ZM40.2861 36.6485C40.399 36.8086 40.4959 36.9462 40.5931 37.084C40.2365 36.993 40.0505 37.3823 39.7411 37.3392C39.7468 37.3053 39.8246 37.3235 39.0324 37.2442C39.0609 37.3216 39.0779 37.4015 39.0979 37.4775C38.9976 37.4538 38.8953 37.4333 38.7914 37.4166C37.91 37.2739 36.9793 37.3806 35.9992 37.7375C35.0075 38.0985 34.1911 38.6273 33.5502 39.3242C32.9092 40.0211 32.499 40.8136 32.3195 41.7017C32.1788 42.3977 32.1963 43.1045 32.3721 43.8217C32.3414 43.8224 32.3085 43.8229 32.2752 43.8203L32.4451 44.0889C32.4778 44.1982 32.514 44.3078 32.554 44.4178C32.8899 45.3402 33.4118 46.0839 34.1203 46.6489C34.8287 47.2139 35.6522 47.5574 36.5912 47.6792C37.5302 47.801 38.4955 47.6816 39.4871 47.3205C40.4672 46.9637 41.2479 46.4446 41.8292 45.7629C41.884 45.6985 41.9366 45.6332 41.987 45.5674C42.0257 45.6185 42.1041 45.662 42.2227 45.7111C42.1533 45.5295 42.1269 45.4425 42.1048 45.4053C42.5136 44.815 42.745 44.1634 42.7996 43.4508L40.2911 43.0709C40.2292 43.4625 40.1116 43.8039 39.9388 44.0947C39.8012 43.8384 39.508 43.8122 39.3135 43.6644C39.2712 43.6321 39.1201 43.6763 39.0777 43.7309C38.9189 43.9337 39.2757 44.123 39.4364 44.3145C39.5107 44.4029 39.5704 44.4685 39.6215 44.5111C39.3685 44.7719 39.0497 44.9726 38.6639 45.1128C37.9604 45.3689 37.2942 45.35 36.665 45.0568C36.0358 44.7634 35.5765 44.2187 35.2869 43.4233C34.9974 42.6275 34.9993 41.915 35.2926 41.2861C35.5859 40.6569 36.0843 40.2143 36.7878 39.9583C37.4347 39.7229 38.0521 39.7417 38.6404 40.0148C38.3649 40.1272 38.4098 40.0465 38.3917 40.2883C38.4894 40.317 38.4412 40.3553 38.6413 40.0153C38.8812 40.1267 39.1164 40.2805 39.3465 40.4765L41.0304 38.5903C40.6197 38.1608 40.148 37.8433 39.6156 37.6379C39.6992 37.5636 39.7783 37.4872 39.7413 37.3404C39.7605 37.3117 39.8588 37.1751 40.2861 36.6485ZM46.3537 4.02776C46.1372 3.77609 46.1184 3.59779 46.3702 3.43527C46.5496 3.54675 46.735 3.66178 46.9225 3.77797C46.7998 4.10491 46.4484 3.64225 46.3537 4.02776ZM35.1712 34.4369C35.5459 34.2446 35.6355 34.7316 35.7964 35.1706C35.484 35.3241 35.4958 35.1612 35.1712 34.4369ZM65.4386 20.4259C65.7987 20.7789 65.6837 20.796 65.0923 21.0656C64.9959 20.9638 64.9554 21.0764 65.4386 20.4259ZM39.477 13.6701C39.6179 13.7836 39.7296 13.8732 39.8322 13.9558C39.7588 14.4048 39.7588 14.4048 39.4577 14.3693C39.4636 14.1605 39.4693 13.9518 39.477 13.6701ZM39.8809 34.6413C40.2497 34.7041 40.4721 34.2653 40.8516 34.6427C40.6079 34.6461 40.4115 34.6001 40.2923 34.8354C40.2339 34.9507 40.0537 34.8677 39.8809 34.6413ZM47.7504 18.2576C47.9543 18.1727 48.0773 17.8388 48.4586 18.0478C48.1987 18.2121 48.0414 18.4399 47.7504 18.2576ZM54.8535 12.2465C54.8136 12.0335 54.7818 11.8641 54.7442 11.6628C55.1591 11.7926 55.1815 11.9081 54.8535 12.2465ZM11.3562 60.1785C11.3741 60.0202 11.3886 59.8916 11.4058 59.7402C11.5171 59.7548 11.6168 59.7674 11.7258 59.7818C11.7753 60.0866 11.6284 60.167 11.3562 60.1785ZM37.0033 34.774C37.0086 34.6461 36.9945 34.5124 37.028 34.3923C37.043 34.3381 37.1696 34.2648 37.215 34.2818C37.2735 34.3035 37.3537 34.4325 37.3347 34.4706C37.2728 34.595 37.17 34.699 37.0833 34.811C37.0566 34.7987 37.0296 34.7864 37.0033 34.774ZM32.2767 4.32107C32.0641 4.17219 31.7307 4.51018 31.5854 4.1242C31.7964 4.29755 32.1167 3.9532 32.2767 4.32107ZM40.8727 4.58663C41.1264 4.69718 41.3682 4.69412 41.3209 5.03871C41.0682 5.01095 40.9718 4.86018 40.8727 4.58663ZM17.6119 27.5881C17.4287 27.7837 17.4287 27.7837 17.1294 27.5958C17.3449 27.4208 17.3449 27.4208 17.6119 27.5881ZM46.0792 17.4896C46.2194 17.337 46.3269 17.2196 46.4666 17.0674C46.4866 17.1689 46.5392 17.266 46.5101 17.3172C46.4308 17.4582 46.3137 17.5704 46.0792 17.4896ZM43.9943 32.3802C43.8983 32.3833 43.8026 32.3863 43.7153 32.389C43.6327 32.2365 43.656 32.1243 43.807 32.0997C43.995 32.0686 44.0265 32.1928 43.9943 32.3802ZM16.4544 45.772C16.0238 45.7944 16.1672 45.3666 16.3136 45.3965C16.5313 45.4411 16.4777 45.598 16.4544 45.772ZM30.4251 14.0325C30.1988 13.9906 30.0948 13.9142 30.1685 13.6886C30.3576 13.7067 30.4627 13.7775 30.4251 14.0325ZM17.2616 29.0095C17.2669 28.8968 17.272 28.7838 17.2786 28.6359C17.3624 28.6623 17.4355 28.6623 17.4654 28.6985C17.6181 28.8817 17.4618 28.9513 17.2616 29.0095ZM36.0433 31.3065C35.8086 31.1646 35.9815 30.9693 35.93 30.7742C36.43 31.0031 35.9606 31.2971 36.0433 31.3065ZM8.19401 18.4787C8.29373 18.2948 8.41628 18.3054 8.64961 18.502C8.14908 18.622 8.23893 18.6405 8.19401 18.4787ZM45.7492 11.7943C45.9164 11.9848 46.0023 12.1245 45.8259 12.3381C45.7139 12.173 45.5989 12.0452 45.7492 11.7943ZM32.5112 50.9983C32.7118 51.0616 32.8506 51.1055 33.0305 51.1624C32.7429 51.3424 32.7429 51.3424 32.5112 50.9983ZM42.5738 35.1716C42.388 35.1052 42.3003 35.0953 42.2507 35.0467C42.2283 35.025 42.2718 34.8784 42.3047 34.8707C42.3767 34.8535 42.4795 34.8665 42.5346 34.9109C42.5745 34.9432 42.5582 35.0457 42.5738 35.1716ZM7.94139 14.0031C8.18719 14.0868 8.15613 14.0177 8.03877 14.33C7.85812 14.2517 7.87341 14.3442 7.94139 14.0031ZM49.6935 38.6658C49.7443 38.8136 49.8261 38.9742 49.4841 39.0149C49.6041 38.5672 49.5517 38.6296 49.6935 38.6658ZM51.9491 9.89349C52.1989 9.95887 52.091 9.88338 52.3465 10.1376C52.0984 10.252 52.028 10.1358 51.9491 9.89349ZM20.5147 49.2727C20.5168 48.9369 20.6974 48.9837 20.8834 49.0394C20.775 49.1079 20.6666 49.1765 20.5147 49.2727ZM40.5658 14.3442C40.7822 14.171 40.8593 14.2463 40.936 14.3962C40.7765 14.4778 40.8784 14.5015 40.5658 14.3442ZM19.6893 32.416C19.5823 32.6401 19.6483 32.6009 19.4452 32.5818C19.5092 32.3354 19.4583 32.3953 19.6893 32.416ZM41.9792 27.024C41.8146 27.2491 41.9222 27.2284 41.6034 27.1842C41.6586 26.9922 41.5544 27.028 41.9792 27.024ZM19.4284 41.6603C19.4529 41.8102 19.4689 41.908 19.4891 42.0304C19.4291 42.0256 19.3831 42.0369 19.3579 42.0183C19.2085 41.9094 19.2341 41.8033 19.4284 41.6603ZM35.048 37.7387C35.0101 37.8687 35.0388 38.0112 34.8067 37.8955C34.7911 37.8878 34.8017 37.7619 34.8279 37.7499C34.8819 37.725 34.9539 37.7402 35.048 37.7387ZM40.7417 36.36C40.7822 36.6327 40.6773 36.6821 40.5578 36.7201C40.4307 36.6071 40.4108 36.6848 40.7417 36.36ZM26.6327 47.8711C26.5071 47.9504 26.4018 48.0174 26.2684 48.1019C26.2821 47.8046 26.4442 47.8387 26.6327 47.8711ZM28.4063 14.2945C28.2012 14.5547 28.1097 14.4717 27.964 14.2757C28.128 14.2828 28.2273 14.287 28.4063 14.2945ZM42.4256 35.7847C42.4468 35.6749 42.4677 35.5648 42.4937 35.4305C42.6357 35.6262 42.6357 35.6262 42.4256 35.7847ZM40.1265 14.4235C40.0011 14.6264 40.0011 14.6264 39.8197 14.4601C39.9434 14.4453 40.035 14.4345 40.1265 14.4235ZM61.6173 31.9244C61.5237 31.984 61.4294 32.0434 61.2567 32.1526C61.3336 31.8684 61.4887 31.9214 61.6173 31.9244ZM22.3204 10.8892C22.2792 10.9459 22.2473 11.0166 22.1925 11.0538C22.1654 11.0721 22.0767 11.0434 22.0522 11.0098C22.0294 10.9785 22.0379 10.8979 22.0647 10.8656C22.0892 10.8364 22.1569 10.8437 22.2056 10.8348C22.2439 10.8529 22.2824 10.8708 22.3204 10.8892ZM40.5135 13.917C40.8544 14.0144 40.7956 13.9758 40.8052 14.0845C40.5013 14.1956 40.5693 14.2419 40.5135 13.917ZM45.955 33.7304C46.1878 33.7927 46.1594 33.7252 46.0961 33.9655C45.9134 33.8985 45.9531 33.9582 45.955 33.7304ZM41.227 36.3036C41.4171 36.0066 41.3563 36.0373 41.497 36.1279C41.3018 36.421 41.362 36.3902 41.227 36.3036ZM41.5976 26.0229C41.5133 26.0309 41.4168 26.0681 41.3477 26.0394C41.2647 26.0051 41.3399 25.887 41.461 25.8792C41.6259 25.8691 41.5906 25.8404 41.5976 26.0229ZM33.7976 7.64909C33.7545 7.82479 33.7251 7.94475 33.6741 8.15385C33.5353 7.90359 33.5563 7.78222 33.7976 7.64909ZM33.7786 7.48514C33.7148 7.25158 33.6946 7.30474 33.8886 7.2697C33.8778 7.5169 33.9058 7.47362 33.7786 7.48514ZM20.8696 47.7165C20.7539 48.032 20.8134 47.9649 20.6198 47.9379C20.6678 47.7091 20.6196 47.7782 20.8696 47.7165ZM38.4724 31.7038C38.4719 31.3091 38.4397 31.3682 38.5705 31.375C38.5383 31.769 38.5665 31.7099 38.4724 31.7038ZM19.9054 30.8427C19.8843 30.9586 19.8681 31.0478 19.8511 31.1409C19.7994 31.1237 19.7632 31.1235 19.7513 31.1061C19.6545 30.964 19.6667 30.8685 19.9054 30.8427ZM16.7076 23.0884C16.721 23.0512 16.7235 22.9962 16.75 22.9799C16.8249 22.9334 16.9093 22.9029 17.0187 22.9134C16.7146 23.1808 16.779 23.1566 16.7076 23.0884ZM19.5616 31.4507C19.4186 31.6259 19.4757 31.592 19.336 31.5647C19.4393 31.3416 19.3901 31.378 19.5616 31.4507ZM51.5999 15.8418C51.7259 16.1393 51.7318 16.0782 51.6013 16.1349C51.4613 15.8291 51.4547 15.8897 51.5999 15.8418ZM43.3872 21.3425C43.3148 21.3286 43.2759 21.321 43.2371 21.3135C43.2496 21.262 43.2578 21.2083 43.2781 21.1599C43.2825 21.1494 43.3526 21.151 43.3547 21.1576C43.3696 21.2091 43.375 21.2634 43.3872 21.3425ZM59.9809 13.7724C59.6693 13.6663 59.7142 13.7069 59.7272 13.6075C59.9795 13.6103 59.8998 13.5948 60.0204 13.7131C60.007 13.7327 59.9941 13.7526 59.9809 13.7724ZM15.8166 44.2391C15.5736 44.1755 15.6044 44.2396 15.6269 44.0226C15.8387 44.051 15.7779 44.0117 15.8166 44.2391ZM41.1964 34.766C41.4396 34.5865 41.3834 34.5936 41.4589 34.6844C41.2124 34.8977 41.2684 34.8872 41.1964 34.766ZM35.9262 8.06119C35.8992 8.12328 35.8778 8.17197 35.8566 8.22113C35.7515 8.16727 35.6753 8.19478 35.8011 8.0085C35.8051 8.00261 35.8682 8.03625 35.9262 8.06119ZM40.1005 4.48313C40.129 4.53958 40.1584 4.59533 40.1828 4.6532C40.184 4.65602 40.1269 4.69012 40.1243 4.6873C39.9839 4.5163 40.007 4.54523 40.1005 4.48313ZM34.5439 19.5651C34.4263 19.7477 34.4599 19.7214 34.3774 19.6713C34.4992 19.4918 34.4621 19.5103 34.5439 19.5651ZM19.0526 47.1055C19.1137 47.1304 19.1659 47.1422 19.2024 47.1727C19.2132 47.1817 19.1839 47.273 19.1685 47.2744C19.1191 47.2781 19.0677 47.2584 19.0171 47.2473C19.0265 47.2097 19.0359 47.172 19.0526 47.1055ZM36.035 31.3049C36.1112 31.391 36.2167 31.4724 36.0636 31.6116C35.9016 31.4678 36.0752 31.3095 36.035 31.3049ZM36.4562 36.6195C36.3192 36.8136 36.3821 36.7891 36.2099 36.7091C36.3445 36.5358 36.284 36.5731 36.4562 36.6195ZM34.6326 38.0555C34.6138 38.1128 34.6112 38.1714 34.5853 38.1848C34.5578 38.1989 34.4936 38.1822 34.4736 38.1571C34.4583 38.1378 34.4753 38.0679 34.4997 38.0494C34.5232 38.0319 34.5749 38.0512 34.6326 38.0555ZM26.6473 44.8912C26.7038 44.9058 26.7423 44.9159 26.7807 44.9258C26.7703 44.9623 26.7694 45.0189 26.7474 45.0293C26.7177 45.0424 26.6622 45.0302 26.6359 45.0079C26.6205 44.9949 26.6409 44.9401 26.6473 44.8912ZM12.1978 13.8307C12.2533 13.8342 12.2932 13.8371 12.3331 13.8396C12.3212 13.8851 12.3173 13.9351 12.2932 13.9723C12.2857 13.9836 12.2096 13.9704 12.1895 13.9472C12.1731 13.928 12.1929 13.8778 12.1978 13.8307ZM42.2431 36.345C42.3118 36.5621 42.3274 36.5193 42.1971 36.5511C42.1697 36.325 42.1511 36.3648 42.2431 36.345ZM18.6106 42.8667C18.8554 42.7298 18.8054 42.7362 18.851 42.8171C18.6177 42.9643 18.6678 42.9667 18.6106 42.8667ZM35.4511 32.4398C35.5426 32.4807 35.6077 32.5371 35.5146 32.6305C35.4897 32.6559 35.4252 32.642 35.3789 32.6461C35.4448 32.484 35.462 32.4472 35.461 32.4402H35.4628C35.4958 32.1161 35.4958 32.1161 35.7729 32.1705C35.7129 32.4255 35.3761 32.4348 35.4511 32.4398ZM35.8011 30.1135C35.7905 30.273 35.839 30.249 35.6494 30.2466C35.6764 30.1017 35.6376 30.1372 35.8011 30.1135ZM29.4463 47.252C29.2252 47.1904 29.2671 47.2377 29.2987 47.0556C29.5028 47.1198 29.4525 47.0758 29.4463 47.252ZM46.2273 37.9333C45.9974 37.8586 46.0517 37.8946 46.0439 37.7882C46.2894 37.8753 46.2599 37.8379 46.2273 37.9333ZM9.56647 17.728C9.39405 17.6532 9.41075 17.7131 9.47073 17.5184C9.5947 17.5607 9.57893 17.4989 9.56647 17.728ZM45.1451 10.4879C45.184 10.4389 45.2213 10.3891 45.2639 10.3439C45.267 10.3409 45.3305 10.3848 45.3284 10.3886C45.2298 10.5975 45.2437 10.5615 45.1451 10.4879ZM43.1033 10.9623C43.2388 11.1456 43.2301 11.1042 43.1626 11.1561C43.0233 10.9797 43.0261 11.0214 43.1033 10.9623ZM32.2649 48.8898C32.4738 48.727 32.423 48.735 32.4987 48.814C32.3068 49.0074 32.358 48.9971 32.2649 48.8898ZM47.1141 41.267C47.0981 41.3291 47.0964 41.379 47.0718 41.4105C47.0619 41.423 46.978 41.4061 46.9695 41.3851C46.9551 41.3505 46.9615 41.2911 46.9846 41.2633C46.9998 41.2447 47.0598 41.2638 47.1141 41.267ZM29.492 52.6106C29.5576 52.5916 29.6233 52.5723 29.6889 52.5528C29.6922 52.5801 29.7046 52.6283 29.6976 52.6315C29.4852 52.7209 29.516 52.6904 29.492 52.6106ZM30.4883 52.3865C30.6203 52.4403 30.6735 52.4521 30.7106 52.4834C30.7222 52.4932 30.6921 52.5869 30.676 52.588C30.4747 52.6071 30.51 52.4973 30.4883 52.3865ZM64.1983 17.7677C64.0753 17.9867 64.1423 17.9552 63.9655 17.9455C64.0412 17.7526 63.9925 17.8093 64.1983 17.7677ZM27.925 41.2548C27.8495 41.3929 27.8817 41.3632 27.7904 41.3379C27.8352 41.196 27.805 41.2214 27.925 41.2548ZM13.2721 48.2792C13.756 48.3613 14.1595 48.6262 14.4824 49.0735C14.8053 49.5211 14.9293 49.9873 14.8547 50.4725C14.78 50.9578 14.5245 51.3577 14.0884 51.6724C13.6523 51.9871 13.193 52.1028 12.7103 52.0198C12.2277 51.9368 11.825 51.6714 11.502 51.2238C11.1791 50.7762 11.0544 50.3105 11.1275 49.8262C11.1464 49.7018 11.1772 49.583 11.22 49.4698C11.4178 49.375 11.5434 49.3655 12.0519 49.4301C11.9136 49.59 11.8259 49.7724 11.7887 49.9767C11.7323 50.286 11.805 50.5805 12.0066 50.8597C12.2082 51.1391 12.4646 51.3007 12.7759 51.3448C13.0873 51.3887 13.387 51.3071 13.6749 51.0991C13.9628 50.8914 14.1352 50.6316 14.1919 50.3199C14.2486 50.008 14.1773 49.714 13.9779 49.4374C13.7784 49.1608 13.5215 49.0003 13.2078 48.9559C12.9321 48.9169 12.6665 48.9749 12.4109 49.1305L11.7758 48.943L11.7302 48.7555C11.781 48.7115 11.8346 48.6689 11.8916 48.628C12.3276 48.3133 12.788 48.1973 13.2721 48.2792ZM15.7274 50.8446L16.4041 51.6117C16.5483 51.7751 16.6525 51.921 16.7167 52.0496C16.7809 52.1781 16.814 52.3235 16.8164 52.4855C16.8164 52.8042 16.6833 53.081 16.4171 53.3158C16.1691 53.5343 15.9089 53.6352 15.6361 53.618C15.3435 53.5997 15.069 53.4454 14.8133 53.1556L14.5203 52.8235L13.5437 53.6848L13.0902 53.1709L15.7274 50.8446ZM15.738 51.7493L14.9629 52.4328L15.1479 52.6424C15.2802 52.7927 15.4068 52.8802 15.5273 52.9053C15.6848 52.9352 15.8295 52.8919 15.9612 52.7757C16.0903 52.6619 16.1475 52.5248 16.1327 52.3644C16.1183 52.2364 16.0391 52.0909 15.8948 51.9273L15.738 51.7493ZM18.7562 53.8958L18.3577 54.3317L17.4861 53.535L15.5119 55.6949L15.006 55.2325L17.3785 52.6365L18.7562 53.8958ZM18.286 57.9622L18.4824 57.1855L17.3503 56.331L16.6574 56.7327L16.064 56.2849L19.3906 54.3897L19.8199 54.7139L18.875 58.407L18.286 57.9622ZM17.8599 56.0154L18.6593 56.6189L19.022 55.3071L17.8599 56.0154ZM23.7674 57.1702L24.4004 57.4334L23.6115 59.3309C23.5713 59.0047 23.5529 58.6584 23.2786 58.3463L23.7674 57.1702ZM23.6399 59.5217L26.1821 58.1744L26.63 58.3606L26.1964 59.4031C26.1292 59.3511 26.0588 59.2972 25.9859 59.238C25.9483 59.5056 25.9212 59.6966 25.8914 59.9104C25.9231 59.9128 25.9535 59.9156 25.9821 59.9182L25.2796 61.6079L24.6466 61.3447L25.5494 59.1735L23.4983 60.2663C23.4191 60.1931 23.3168 60.1344 23.139 60.1967C23.1923 60.2705 23.2236 60.3397 23.2386 60.4047L22.8646 60.6039L22.4168 60.4176L22.6913 59.7575L22.8965 59.7295C22.9392 59.528 22.9976 59.3006 23.3558 59.3187C23.3156 59.5512 23.2796 59.7623 23.237 60.0085C23.4414 59.916 23.7215 59.8594 23.6599 59.6152C23.6521 59.5844 23.646 59.5532 23.6399 59.5217ZM22.8485 59.3805L22.9277 59.1898C22.9121 59.2393 22.8953 59.3006 22.8741 59.3768L22.8485 59.3805ZM22.9891 59.042L23.2194 58.4883L23.2304 58.8891C23.0964 58.9451 23.0343 58.971 22.9891 59.042ZM27.7672 62.3134L28.1247 60.9572C27.8874 60.92 27.682 60.8786 27.5087 60.833C27.0973 60.7245 26.8141 60.5716 26.6588 60.3745C26.538 60.2226 26.4785 60.0391 26.4806 59.8241C26.5178 59.7686 26.5293 59.7049 26.4928 59.6625C26.5015 59.6002 26.5144 59.5358 26.5321 59.4687L26.8078 58.4235L27.4706 58.5982L27.226 59.5261C27.1667 59.7505 27.1818 59.9215 27.2705 60.0396C27.3492 60.1403 27.5009 60.2202 27.7251 60.2795C27.9189 60.3305 28.1021 60.3663 28.275 60.3862L28.6636 58.9129L29.3264 59.0876L28.9322 60.5829C28.8059 60.7356 28.5818 60.8334 28.6817 61.0898C28.6887 61.1077 28.7335 61.1105 28.7746 61.1258L28.7939 61.1079L28.4301 62.4882L27.7672 62.3134ZM31.8126 59.5529L31.6988 60.1325L30.4571 59.8885L30.3056 60.6594L31.4955 60.8932L31.3817 61.4725L30.1917 61.2387L30.0069 62.1802L31.2486 62.4242L31.1348 63.0035L29.2206 62.6273L29.8985 59.1766L31.8126 59.5529ZM34.4188 62.2839L34.3586 63.0832C34.0888 63.2003 33.7945 63.247 33.4755 63.2229C32.9638 63.1844 32.5484 62.9891 32.2296 62.6372C31.8817 62.2479 31.728 61.7869 31.7682 61.2542C31.811 60.6864 32.0331 60.243 32.434 59.9243C32.7868 59.6406 33.2278 59.5188 33.7571 59.5588C34.0655 59.5821 34.3475 59.6757 34.6032 59.8395L34.543 60.6387C34.335 60.3585 34.0626 60.2058 33.7263 60.1805C33.3829 60.1546 33.0943 60.2536 32.8605 60.4773C32.6269 60.7013 32.4973 60.9814 32.4719 61.3179C32.4442 61.6861 32.5413 61.9866 32.7634 62.2202C32.9854 62.4538 33.2543 62.5825 33.5697 62.6063C33.8992 62.6312 34.1821 62.5234 34.4188 62.2839ZM35.4199 59.6197L35.5259 61.1027L36.7083 59.5275L37.3387 59.4823C37.3812 59.5461 37.4194 59.5884 37.4566 59.6101L36.2035 61.1917L36.2924 61.2848L36.2756 61.2831C36.3458 61.5035 36.399 61.6698 36.4846 61.9379L36.7076 61.7192L36.872 61.8914C36.8593 61.8867 36.8466 61.8822 36.8337 61.8777C36.9379 62.1292 36.9796 62.4004 37.0704 62.4181C37.4072 62.4829 37.3878 62.7285 37.4361 62.9696L37.508 62.9959L37.254 63.014C37.1491 62.9212 37.0324 62.8471 36.8539 62.8771L35.6532 61.5668C35.6915 61.5301 35.7522 61.5028 35.8348 61.4852C36.0182 61.4462 36.148 61.3987 36.157 61.1637C35.8239 61.1022 35.5901 61.285 35.3347 61.4487C35.5516 62.1958 35.4817 61.9932 35.5998 62.1797L35.603 62.1784L35.671 63.1272L34.9872 63.1761L34.7363 59.6684L35.4199 59.6197ZM37.4549 59.4741L37.5706 59.4659L37.5528 59.4882L37.4549 59.4741ZM37.9668 59.8149C38.0998 59.6333 38.2598 59.484 38.4465 59.3673L38.4658 59.4141L38.531 59.3177C38.7319 59.2069 38.9611 59.1307 39.2192 59.0888C39.764 59.0006 40.2365 59.0987 40.6369 59.3829C41.0372 59.667 41.2801 60.0746 41.3662 60.6054C41.452 61.1364 41.3497 61.5988 41.0592 61.993C40.7687 62.3872 40.3511 62.6283 39.8063 62.7166C39.2616 62.8048 38.7892 62.7076 38.3891 62.4251C37.989 62.1426 37.7461 61.736 37.6602 61.2051C37.5743 60.6742 37.6765 60.2108 37.9668 59.8149ZM38.8198 61.9015C39.0713 62.0904 39.367 62.1575 39.707 62.1024C40.0472 62.0474 40.3066 61.8904 40.4854 61.632C40.6644 61.3734 40.7253 61.0688 40.6686 60.7184C40.6119 60.3679 40.4569 60.0974 40.2035 59.9072C39.9502 59.7166 39.6553 59.6486 39.3187 59.7032C38.9821 59.7577 38.7236 59.9154 38.5432 60.176C38.3628 60.4366 38.3009 60.7422 38.3576 61.0926C38.4143 61.4431 38.5683 61.7126 38.8198 61.9015ZM42.9365 58.115L43.1162 58.6775L41.9912 59.0369L42.6902 61.2246C42.6588 61.2704 42.622 61.3238 42.575 61.3848C42.6399 61.3829 42.6947 61.3836 42.7413 61.3848L42.8817 61.8241L42.2288 62.0328L41.1583 58.6829L42.9365 58.115ZM43.319 58.4949C43.4926 58.0358 43.8301 57.691 44.3315 57.4602C44.8328 57.2295 45.3145 57.1975 45.7763 57.3642C46.238 57.531 46.5811 57.8587 46.806 58.3472C47.0309 58.8358 47.056 59.3087 46.8815 59.7662C46.707 60.2238 46.3692 60.5679 45.8678 60.7986C45.3665 61.0293 44.8853 61.062 44.4243 60.8969C43.9633 60.7318 43.6203 60.4049 43.3957 59.9163C43.1707 59.4278 43.1452 58.954 43.319 58.4949ZM44.699 60.2771C44.9917 60.3919 45.2946 60.3776 45.6076 60.2333C45.9204 60.0894 46.1286 59.8688 46.2319 59.5717C46.3351 59.2746 46.3125 58.9649 46.1641 58.6424C46.0157 58.32 45.7939 58.1007 45.4989 57.985C45.2037 57.8693 44.9015 57.8827 44.5917 58.0252C44.2819 58.1678 44.0749 58.3886 43.9709 58.688C43.867 58.9875 43.8891 59.2984 44.0376 59.6209C44.1859 59.9433 44.4064 60.1623 44.699 60.2771ZM47.9974 56.5142L47.438 56.3246C47.5389 55.9265 47.7617 55.6117 48.106 55.3805C48.4007 55.1824 48.6806 55.0949 48.9459 55.118C49.2113 55.141 49.4214 55.2676 49.5761 55.4981C49.7624 55.7752 49.7809 56.0614 49.6318 56.3564C49.8362 56.2825 50.0312 56.2828 50.2168 56.3573C50.4024 56.4316 50.5567 56.5608 50.6804 56.7447C50.8645 57.0189 50.9057 57.3133 50.8034 57.6275C50.7011 57.9418 50.4793 58.2136 50.138 58.443C49.9947 58.5392 49.8529 58.613 49.712 58.6648C49.6596 58.592 49.5965 58.5902 49.5116 58.6539C49.4916 58.6687 49.4825 58.6984 49.4754 58.7306C49.2018 58.7829 48.933 58.749 48.6689 58.6295L48.6936 58.5177L48.981 58.506C48.8841 58.4215 48.8119 58.3366 48.7437 58.292L48.8027 58.0252C48.9648 58.128 49.1393 58.1685 49.3258 58.1468C49.5123 58.1252 49.6817 58.0636 49.8334 57.9615C50.0173 57.838 50.1281 57.702 50.1663 57.5539C50.2043 57.4056 50.1829 57.2716 50.1028 57.1519C49.9028 56.8543 49.5897 56.8484 49.1638 57.1347L48.901 57.3111L48.5718 56.8209L48.8343 56.6446C48.9831 56.5445 49.0791 56.4323 49.1226 56.3079C49.1661 56.1835 49.1485 56.0629 49.0701 55.9462C48.9977 55.8382 48.9067 55.7785 48.7975 55.7672C48.6884 55.7559 48.5652 55.7963 48.428 55.8883C48.1771 56.057 48.0336 56.2655 47.9974 56.5142ZM51.0995 53.2128L51.4641 53.6774L51.2826 53.8199C51.382 53.5705 51.3731 53.6498 51.0678 53.5294C51.1304 53.8796 51.1059 53.873 51.1974 53.8864L50.4685 54.4582L50.9532 55.0764L51.9073 54.3279L52.2154 54.7207C52.1142 54.6951 52.0096 54.677 51.9 54.6714C51.7935 54.8073 51.6643 54.9717 51.5344 55.1373C51.6208 55.1497 51.7057 55.1608 51.7894 55.1709L51.3176 55.5411L51.9099 56.2962L52.1269 56.1257C52.0402 56.2517 51.935 56.4674 51.7326 56.8835C51.7981 56.9293 51.8642 56.976 51.9357 57.026L51.7348 57.1836L49.5643 54.4165L51.0995 53.2128ZM52.3982 55.9133L52.9058 55.515L53.2704 55.9796L53.1735 56.0556L52.9328 55.908C52.7675 56.0125 52.6373 56.0948 52.4678 56.2024C52.48 55.9796 52.4909 56.0563 52.4442 55.8932L52.3982 55.9133ZM52.5645 56.5335L52.29 56.7487C52.2671 56.574 52.2523 56.4659 52.5645 56.5335ZM53.6372 55.6516L53.3715 55.2995C53.4552 55.252 53.5331 55.1888 53.6177 55.1258C53.4731 55.1326 53.3367 55.1126 53.2037 55.0776L51.4823 52.7964L51.8167 52.4307L54.0964 53.2501L53.1043 51.022L53.4387 50.6562L56.433 52.593L55.9635 53.1067L54.1505 51.8781L55.1135 54.0367L54.957 54.208L52.7491 53.4115L54.1067 55.138L53.6372 55.6516ZM54.0842 49.8076L55.4399 47.8348L58.3382 49.8269L57.9501 50.3919L55.5385 48.7343L54.9592 49.5774L56.2453 50.4613C56.3554 50.537 56.437 50.5951 56.4899 50.6357C56.543 50.6764 56.6141 50.7404 56.7037 50.8275C56.7931 50.9145 56.8603 51.0076 56.9053 51.1067C56.9502 51.2057 56.9787 51.3148 56.9907 51.4341C57.0147 51.6723 56.946 51.9088 56.7846 52.1435C56.7288 52.2246 56.6654 52.2982 56.5944 52.3646L56.1077 52.0301C56.1648 51.984 56.2105 51.9365 56.2444 51.8873C56.3161 51.7831 56.3411 51.6724 56.3192 51.555C56.3046 51.4767 56.2644 51.3991 56.1982 51.3214C56.1322 51.2438 56.071 51.1838 56.015 51.1412C55.959 51.0984 55.8689 51.0343 55.7443 50.9488L54.0842 49.8076ZM56.5713 45.7165L57.089 46.0004L56.4805 47.1099L57.1695 47.4877L57.7525 46.4243L58.2702 46.7082L57.6872 47.7716L58.5285 48.2329L59.1367 47.1233L59.6547 47.4072L58.7166 49.1179L55.633 47.4272L56.5713 45.7165ZM56.7828 45.2026L57.6497 42.994L60.3737 44.0633L60.5086 43.7196L61.7944 44.2244L61.5632 44.8133L60.827 44.5245L60.2327 46.0388C60.2089 46.054 60.2018 46.0903 60.1635 46.1837L60.1752 46.1853L60.0372 46.5367L60.7733 46.8259L60.5422 47.4148L59.2562 46.91C59.3033 46.7999 59.3028 46.6828 59.2555 46.5586C59.208 46.4342 59.1293 46.3204 59.019 46.2164C58.8503 46.0595 58.5793 45.9078 58.2062 45.7615L56.7828 45.2026ZM57.5752 44.7999L58.4487 45.1428C58.8578 45.3035 59.1474 45.4604 59.3174 45.614C59.4449 45.7321 59.5406 45.8678 59.6049 46.0214L60.1231 44.7011L57.9487 43.8478L57.5752 44.7999ZM58.3024 40.7054L58.8729 40.8584L58.5449 42.0806L59.3037 42.2844L59.618 41.1129L60.1884 41.2661L59.8742 42.4373L60.8009 42.6859L61.1288 41.4637L61.6992 41.6168L61.1934 43.501L57.7968 42.5896L58.3024 40.7054ZM58.445 39.9677L58.899 37.6175L62.3519 38.2843L62.222 38.9573L59.3489 38.4024L59.1551 39.4068L60.6875 39.7027C60.8186 39.728 60.9167 39.7487 60.9815 39.7648C61.0465 39.7808 61.1373 39.8108 61.2542 39.8551C61.3711 39.899 61.4698 39.9576 61.5505 40.0305C61.6312 40.1035 61.7011 40.1921 61.7596 40.2966C61.8767 40.5055 61.9085 40.7496 61.8544 41.029C61.8358 41.1257 61.8071 41.2186 61.7683 41.3077L61.1885 41.1958C61.2226 41.1309 61.2452 41.069 61.2565 41.0102C61.2805 40.886 61.2591 40.7746 61.1923 40.6755C61.1476 40.6096 61.0796 40.5543 60.9879 40.5099C60.8961 40.4654 60.8162 40.4346 60.748 40.4179C60.6795 40.4013 60.5714 40.3784 60.4229 40.3497L58.445 39.9677ZM58.8837 37.4229L58.8943 36.7376L61.2351 36.7733L58.9239 34.8081L58.9312 34.3232L62.4476 34.3768L62.4372 35.0621L60.0861 35.0262L62.4078 36.9916L62.4003 37.4766L58.8837 37.4229ZM58.6884 31.8503L62.1757 31.395L62.2646 32.0747L60.9157 32.2509L60.9321 32.3763L62.397 33.0889L62.5036 33.9044L60.9569 33.0537C60.9542 33.1957 60.9185 33.3299 60.8498 33.4559C60.6958 33.7419 60.4323 33.9092 60.0593 33.9578C59.7213 34.002 59.4359 33.9223 59.2038 33.7186C58.9996 33.5396 58.8717 33.2534 58.8204 32.8594L58.6884 31.8503ZM59.3315 32.4576L59.3588 32.6668C59.3661 32.7225 59.3767 32.7761 59.3903 32.8274C59.4042 32.8787 59.4315 32.9459 59.4724 33.0294C59.5133 33.1127 59.5766 33.1753 59.6617 33.2174C59.7469 33.2595 59.849 33.2727 59.9673 33.2571C60.3194 33.2113 60.4662 32.965 60.4078 32.519L60.382 32.3203L59.3315 32.4576ZM31.4596 44.8538C31.4685 44.8785 31.5076 45.013 31.5763 45.257L31.6484 45.2285C31.632 45.2772 31.6174 45.3191 31.604 45.3551L31.6724 45.5992L28.8541 46.625C28.8922 46.6694 28.9355 46.7221 28.9863 46.7842C28.7876 46.8705 28.604 46.95 28.37 47.0519L28.3213 46.8188L26.9296 47.3254C26.9785 47.3313 27.018 47.3442 27.0237 47.384C26.8931 47.6841 26.5829 47.7516 26.3032 47.5536L24.632 48.1618C24.9686 48.6922 25.4344 49.0387 26.029 49.201C26.6031 49.3577 27.2281 49.3193 27.9039 49.086C27.9267 49.0443 27.9603 49.0017 28.0001 48.9519C28.0224 48.9788 28.0431 49.0041 28.0624 49.0281C28.4171 48.8917 28.7264 48.7261 28.9905 48.5315C28.8779 48.3754 28.7815 48.2415 28.6853 48.108C28.98 47.7756 29.0672 48.2488 29.325 48.2461C29.4704 48.1024 29.6028 47.9417 29.7227 47.7644C29.6828 47.741 29.6324 47.717 29.5717 47.6897C29.5137 47.6636 29.4877 47.566 29.4248 47.4666C29.5901 47.4724 29.7609 47.4423 29.9185 47.4393C29.9408 47.3974 29.9627 47.3546 29.9839 47.311L31.9862 48.3453C31.906 48.553 31.8112 48.7517 31.702 48.9418C31.756 48.9929 31.8112 49.0554 31.867 49.1323C31.5536 49.2878 31.5536 49.2878 31.3432 49.8732C31.2117 49.872 31.1428 49.8233 31.0999 49.7528C30.5109 50.3801 29.7091 50.8785 28.6941 51.2481C27.6447 51.63 26.642 51.7632 25.6858 51.6477C25.0912 51.5757 24.5455 51.4164 24.0488 51.17C24.0588 51.2885 23.9753 51.3791 23.7985 51.4819C23.8365 51.18 23.8377 51.1885 23.8455 51.0627C23.6188 50.9357 23.4028 50.7894 23.1975 50.6238C22.5965 50.1387 22.1296 49.5237 21.797 48.7786C21.797 48.8129 21.7888 48.8432 21.7732 48.8658C21.6458 49.0488 21.4651 48.84 21.0197 48.4996C21.385 48.3841 21.6051 48.4633 21.7135 48.5817C21.6882 48.5186 21.6634 48.4547 21.6399 48.3898C21.3083 47.4788 21.2255 46.5783 21.3916 45.6888C21.5574 44.7992 21.9436 44.0122 22.55 43.3279C23.1563 42.6438 23.9264 42.1315 24.8607 41.7916C25.7717 41.4599 26.6676 41.3559 27.5483 41.4794C28.4289 41.6029 29.213 41.9541 29.9004 42.5332C30.5467 43.0777 31.0449 43.7944 31.3954 44.683C31.4029 44.6882 31.4054 44.6939 31.4043 44.7056C31.4236 44.7548 31.4421 44.8044 31.4606 44.8547L31.4596 44.8538ZM25.6199 43.8254C25.0087 44.0479 24.5584 44.4076 24.2694 44.9046C23.9801 45.4016 23.8984 45.9668 24.0245 46.6L28.6083 44.9316C28.302 44.377 27.8773 43.9995 27.3342 43.7988C26.9748 43.6662 26.6031 43.625 26.219 43.6756L26.295 43.7956C26.1537 43.8363 26.0151 43.8095 25.9071 43.736C25.8121 43.7603 25.7164 43.7901 25.6199 43.8254ZM49.5198 43.6674C48.5397 44.0242 47.586 44.1395 46.6585 44.0134C45.731 43.8873 44.916 43.5409 44.2135 42.9738C43.5109 42.4066 42.9915 41.662 42.6559 40.7395C42.3201 39.8169 42.2391 38.9125 42.4129 38.0268C42.567 37.2409 42.9006 36.5311 43.413 35.8973C43.1973 35.8887 42.9873 35.8668 42.8878 36.2419C42.8113 36.0315 42.7345 35.9301 42.7572 35.8625C42.8471 35.5982 42.9167 35.3369 42.8232 35.0532C43.1339 35.0647 43.4006 35.0744 43.7259 35.0861C43.438 35.5171 43.4563 35.3726 43.516 35.7736C43.5493 35.7351 43.5831 35.6967 43.6175 35.6589C44.2468 34.9661 45.0516 34.4414 46.0319 34.0846C47.0121 33.7278 47.963 33.6134 48.8845 33.7417C49.8062 33.8698 50.6183 34.2175 51.3209 34.7844C52.0234 35.3515 52.5428 36.0962 52.8784 37.0187C53.2144 37.9411 53.2953 38.8455 53.1214 39.7316C52.9476 40.6176 52.5489 41.4058 51.9254 42.0964C51.3018 42.787 50.4999 43.3106 49.5198 43.6674ZM48.714 41.4533C49.4061 41.2015 49.8889 40.7613 50.1629 40.1327C50.1775 40.0994 50.1909 40.066 50.2039 40.0324C50.187 40.0499 50.1462 40.0658 50.0801 40.1047C49.9253 39.8325 49.9165 39.8984 50.0843 39.7991C50.1658 39.928 50.2097 39.9786 50.2128 40.0087C50.3005 39.7725 50.3502 39.5258 50.3614 39.2685C50.3083 39.1918 50.3076 39.1346 50.3626 39.0622C50.3516 38.7296 50.2791 38.3799 50.1458 38.0131C49.8605 37.2289 49.4107 36.6841 48.7966 36.3789C48.1827 36.0733 47.5298 36.0465 46.8378 36.2984C46.4781 36.4292 46.1744 36.6113 45.9261 36.8443L46.0505 36.96C45.9378 37.0005 45.8341 37.0306 45.7365 37.0452C45.5939 37.2157 45.4751 37.4079 45.3801 37.6222C45.1005 38.2528 45.1033 38.9604 45.3886 39.7445C45.674 40.5287 46.1267 41.0725 46.7462 41.3757C46.9791 41.4898 47.2169 41.5646 47.4599 41.6001C47.4592 41.5728 47.5065 41.5529 47.601 41.483C47.6311 41.5439 47.6547 41.5881 47.6718 41.6211C48.0096 41.6389 48.357 41.5832 48.714 41.4533ZM29.2975 27.0716C28.9703 26.2941 27.9859 25.5758 27.178 25.3203C26.9301 25.2421 26.78 25.1884 26.5144 25.1199C25.9521 24.9755 25.0153 24.816 24.6205 24.376C25.0989 24.73 26.8499 24.8836 27.6601 25.0551C27.8296 25.0908 27.9319 25.1456 28.1067 25.2049C30.1066 25.884 30.6067 27.2957 30.9251 27.6024C30.6899 26.4701 30.1951 25.3288 29.3925 24.6677C28.5994 24.0143 27.9123 23.8489 26.8443 23.6456C25.0321 23.3008 23.7832 23.2495 22.2162 22.3044C21.9967 22.1721 21.8351 22.0389 21.6352 21.9359C21.5644 22.7074 22.1111 24.1251 22.5017 24.849C23.8467 27.3425 26.8185 28.6929 29.2975 27.0716ZM34.3917 20.5232C33.0106 21.6412 32.2398 22.7032 32.0798 23.7092C34.0847 23.7637 35.4335 23.2521 36.1257 22.1746C36.9323 20.3066 37.5993 19.2667 38.1271 19.0547C37.8767 18.7922 37.2159 18.6958 36.1455 18.7654C34.271 18.9091 32.8781 19.4949 31.9662 20.5221C30.5192 22.3864 30.275 24.4748 31.2337 26.7874C31.1171 23.5509 32.1697 21.4625 34.3917 20.5232ZM28.3414 20.363C29.007 21.3384 29.8267 22.8577 30.3287 24.8666C30.7561 22.1511 29.9813 20.026 28.004 18.4914C27.925 18.6244 27.9603 18.609 27.7768 18.5523C27.8326 18.4145 27.814 18.394 27.8928 18.4067C27.3138 17.9733 26.6359 17.5885 25.8594 17.2519C26.3887 18.32 26.7172 19.4801 26.8446 20.7316C27.1777 22.853 28.1866 24.0852 29.8712 24.4287C29.7665 24.0883 29.1881 22.1318 28.3414 20.363ZM6.35112 36.7381L6.34641 33.9541L9.86335 33.948L9.86444 34.6334L6.93821 34.6383L6.94055 36.0514L9.8668 36.0465L9.86799 36.7319L6.35112 36.7381ZM23.7568 5.67966C27.1789 4.43421 30.6768 3.82054 34.1227 3.77867L34.0737 3.79749C34.1429 3.9492 34.2052 4.08681 34.2788 4.24887C34.1655 4.37165 34.0664 4.55935 33.9164 4.61979C33.7585 4.6833 33.5515 4.62568 33.3629 4.62074L33.3923 4.82066C30.2988 4.9338 27.1704 5.52489 24.1052 6.64073C21.3518 7.64298 18.8315 9.00203 16.577 10.6466C16.5289 10.601 16.5264 10.6351 16.4622 10.6897C16.4631 10.7029 16.4646 10.7153 16.4665 10.7275C16.4083 10.7704 16.3504 10.8134 16.2926 10.8567C16.2674 10.7156 16.2469 10.5987 16.2164 10.4848C16.1656 10.2948 15.9571 10.191 15.9005 10.2221C15.7109 10.3272 15.7598 10.5384 15.7676 10.9672C16.0654 10.9018 16.0541 10.8858 16.1675 10.9505C12.1618 13.9772 9.02666 17.9175 6.95726 22.3553C3.6697 29.4053 3.07155 37.7088 5.94161 45.5945C6.00394 45.7659 6.06768 45.9362 6.13284 46.1058C5.80919 46.1599 5.85082 46.102 5.31712 45.6714C5.3611 46.0929 5.75673 46.1978 5.74803 46.5083C5.99642 46.4495 6.14695 46.4161 6.24386 46.3912C6.39181 46.7649 6.54634 47.1342 6.70722 47.499L6.69029 47.5039C6.69947 47.5102 6.70841 47.5162 6.71734 47.5218C7.13343 48.4624 7.5928 49.3724 8.09193 50.2505L8.04676 50.1915C7.67112 50.5868 7.73511 50.8778 8.23046 51.093C8.34477 50.9308 8.36147 50.7875 8.32384 50.6511C8.98667 51.7766 9.71559 52.8477 10.5038 53.8615C9.55306 54.0709 9.67419 54.0266 9.61445 54.1308C9.92634 54.2794 10.3887 54.1727 10.5708 54.6086L10.6308 54.024C13.6041 57.7952 17.4016 60.7586 21.6563 62.7427C25.0279 64.3148 28.6862 65.2716 32.4484 65.5282L32.4317 65.5314C32.6933 65.6767 32.8608 65.7703 33.0512 65.8762L33.0884 65.565C33.5965 65.5887 34.1059 65.5998 34.6168 65.5979C34.5039 65.9213 34.2101 66.2435 34.5754 66.5067C34.6345 66.391 34.6986 66.307 34.7203 66.2135C34.8139 65.8051 34.5213 65.8214 35.1225 65.9213C35.1121 65.8192 35.1272 65.7444 35.0969 65.7113C35.0585 65.6694 35.0378 65.6303 35.0301 65.5938C35.4138 65.5872 35.7978 65.5732 36.1824 65.5518C36.3854 65.9834 36.4887 66.3119 36.5561 66.5552C33.8575 66.7334 31.178 66.5578 28.5782 66.0564C28.5316 66.0354 28.4771 66.0187 28.4138 66.0043C28.3578 65.9916 28.3129 65.99 28.2764 65.9968C27.6049 65.8604 26.9388 65.7023 26.2792 65.5229L26.284 65.5153C26.4625 65.2211 25.8377 64.9806 25.6472 65.3439C24.1318 64.8976 22.653 64.3385 21.2241 63.6722C15.344 60.9303 10.3081 56.3768 7.02359 50.4358C7.18424 50.2936 7.38981 49.8972 7.53306 49.6693C7.22963 49.5425 7.20235 49.6575 6.90575 50.2207C6.16976 48.8644 5.52435 47.4374 4.98053 45.9435C3.71274 42.4605 3.10001 38.8989 3.07837 35.3935C3.29077 35.4039 3.50669 35.3728 3.73061 35.2678C3.73226 34.937 3.71768 34.9532 3.54362 34.798C3.40344 34.6729 3.24843 34.5845 3.08519 34.5136C3.18187 30.1213 4.20409 25.8353 6.02817 21.9235C9.42558 14.6375 15.6037 8.64733 23.7568 5.67966ZM36.683 65.5193C37.2608 65.4774 37.8395 65.4189 38.4185 65.3431C38.312 65.4812 38.3503 65.5282 38.5281 65.7472L38.5366 65.3276C40.1526 65.1096 41.7694 64.7587 43.3735 64.2675C43.4325 64.4331 43.5153 64.4555 43.7337 64.3385C43.7042 64.287 43.6814 64.2327 43.6609 64.1779C43.78 64.1402 43.8988 64.1017 44.0176 64.0626C44.2882 64.1721 44.2937 64.1655 44.4964 63.9184L44.4273 63.9241C44.5835 63.8702 44.7397 63.8152 44.8956 63.7586C45.3764 63.5835 45.8498 63.3977 46.3162 63.2013L46.329 63.2025C46.4988 63.9361 46.4593 63.8592 46.6615 64.1645C46.1961 64.3597 45.7235 64.5449 45.244 64.7196C42.8923 65.5755 40.5049 66.1329 38.1229 66.4115C38.1906 66.2605 38.3894 66.146 38.3734 65.9801C38.3104 65.9086 38.4346 65.8548 37.4697 66.0196C37.3942 66.0325 37.4768 66.2273 37.4803 66.4799C37.3115 66.4962 37.1425 66.511 36.9736 66.5244C36.9581 66.446 36.9781 66.3315 37.0096 66.1473C37.0393 65.9756 37.0788 66.0744 36.6286 65.5389L36.683 65.5193ZM47.4302 62.7057C48.574 62.1694 49.6711 61.5687 50.7186 60.9091L50.8784 61.4991C51.2242 61.3048 51.0859 60.9915 51.0929 60.7817C52.2547 60.7634 52.0426 60.7419 52.2248 61.0749C52.9239 60.2423 52.9001 60.4366 52.81 60.3176C52.6928 60.3385 52.5725 60.3482 52.4598 60.3828C52.3027 60.4322 52.1519 60.5387 52.0039 60.3635C51.8845 60.2219 51.9969 60.1259 52.0526 60.0184C55.8042 57.3681 58.8432 53.9368 61.0215 50.0393C61.4235 49.9607 61.3431 50.0075 61.3927 49.6524C61.3654 49.6387 61.3383 49.6246 61.3108 49.6107L61.2066 49.703C61.5023 49.1582 61.7812 48.6045 62.0433 48.043C62.5819 46.888 63.0479 45.6992 63.4386 44.484C63.6049 44.5092 63.6903 44.5223 63.8053 44.5398C63.7429 44.3119 63.6585 44.2839 63.4435 44.469C65.4334 38.2721 65.4569 31.3921 63.0592 24.8038C61.1758 19.6294 58.0325 15.2778 54.1016 11.968C54.1067 11.882 54.1352 11.7975 54.2055 11.7142C54.401 11.6536 54.6 11.5917 54.8051 11.5284C54.7982 11.2991 54.7578 11.1444 54.5024 11.1547C54.0924 11.1712 54.2034 11.0867 54.1171 10.6567C54.3716 10.8597 54.6231 11.067 54.8715 11.2781C54.89 11.3314 54.9343 11.3765 55.0257 11.4103C58.9648 14.8031 62.1155 19.2222 64.0205 24.4558C66.9877 32.6079 66.37 41.1903 62.9729 48.4758C59.9824 54.8891 54.8371 60.2978 48.0872 63.5254C48.0411 63.4739 47.9905 63.4175 47.9353 63.3551C47.9526 63.3137 47.9793 63.2497 48.0268 63.1366C47.7602 63.0705 47.5293 63.0129 47.2938 62.9541C47.3928 62.8134 47.4394 62.7356 47.4302 62.7057ZM47.3498 63.8665C47.2386 63.9164 47.1266 63.9655 47.0146 64.014C47.0099 63.8183 47.0474 63.6233 47.168 63.4207C47.2997 63.453 47.4329 63.4861 47.6278 63.5341C47.4829 63.6524 47.4044 63.7164 47.327 63.7794C47.3333 63.8095 47.3409 63.839 47.3498 63.8665ZM53.9579 11.8484L53.912 11.8102C53.9338 11.8072 53.9564 11.8036 53.9802 11.7992L53.9579 11.8484ZM53.5549 11.5191C53.372 11.372 53.1876 11.2272 53.0015 11.0848C53.0899 11.0567 53.2169 11.0159 53.3995 10.9574C53.4715 10.6857 53.5058 10.4556 53.5947 10.2498C53.7487 10.3674 53.9019 10.4865 54.0538 10.6069L53.6427 10.9517C53.672 11.0994 53.7038 11.2594 53.7424 11.4527C53.6723 11.4678 53.6102 11.4902 53.5549 11.5191ZM52.409 10.6424C51.8574 10.2409 51.2929 9.85844 50.7169 9.49551C50.7427 9.4894 50.7688 9.4821 50.7952 9.4734C50.9612 9.05119 50.9612 9.05119 50.8065 8.89477C50.6792 9.00603 50.6809 9.27394 50.4003 9.24195C50.4276 8.9056 50.8453 8.68826 50.6268 8.31121C50.5649 8.69767 50.3001 8.8595 49.9703 8.97098C50.1514 8.73507 50.2657 8.49115 50.1942 8.16232C50.0865 8.20396 50.0081 8.23406 49.9242 8.26652C49.943 8.41095 49.9586 8.52925 49.9861 8.74094C49.8765 8.776 49.7699 8.82163 49.6657 8.86279C48.909 8.42765 48.1345 8.0252 47.344 7.65638C44.4548 6.30909 41.355 5.41387 38.1599 5.02365C38.3323 4.98249 38.2975 4.99872 38.3143 4.91075C37.9047 4.80444 38.0655 4.82302 38.0968 5.01613C36.8228 4.86323 35.5337 4.79056 34.2369 4.80162L34.2405 4.78938C34.2552 4.73505 34.6465 4.58263 34.5917 4.11244C34.8289 4.18042 34.9529 3.97908 35.2159 3.89651L35.0573 3.78126C35.9081 3.79655 36.7551 3.84641 37.596 3.93015C37.5323 3.94755 37.5102 4.0407 37.462 4.24416C37.6162 4.16466 37.7318 4.10515 37.886 4.02588C37.799 3.98519 37.7348 3.95509 37.6856 3.93956C41.1997 4.29991 44.6105 5.2511 47.7765 6.7273C48.671 7.14432 49.5457 7.60346 50.3979 8.10281C50.4287 8.12351 50.4635 8.14727 50.5028 8.17503L50.5101 8.16891C51.1477 8.54619 51.7728 8.94629 52.3836 9.36849L52.3081 9.41601C52.4332 9.46047 52.5336 9.49927 52.6101 9.5268C52.6719 9.5703 52.7335 9.61429 52.7952 9.65851C52.8077 9.6952 52.8255 9.74083 52.8446 9.80105C52.8613 9.77658 52.8801 9.75424 52.8998 9.73378C53.0071 9.81116 53.1141 9.88925 53.2205 9.96805C53.144 10.0421 53.0669 10.1035 52.9822 10.1165C52.7261 10.1555 52.638 10.3554 52.5214 10.4952C52.476 10.5495 52.4392 10.5984 52.409 10.6424ZM34.5474 3.77655L34.6304 3.77679C34.6735 3.85935 34.6599 3.93532 34.6293 4.01929C34.5929 3.91228 34.5664 3.83395 34.5474 3.77655ZM22.7047 2.78937C27.5418 1.02881 32.5166 0.418196 37.33 0.817116C37.2888 0.854044 37.2463 0.892619 37.1999 0.930018C37.4486 1.30001 37.5947 1.39292 37.8221 1.29083C37.9943 1.21368 38.0796 1.04198 38.0786 0.887209C41.9084 1.28895 45.625 2.32977 49.0767 3.93909C50.2491 4.48572 51.3907 5.09845 52.4958 5.77351C52.3022 6.10845 52.3151 6.12022 52.5885 6.37001L52.8352 5.98356C54.8987 7.27675 56.8313 8.79081 58.5927 10.5074C58.5856 10.5243 58.5779 10.5415 58.5695 10.5582L58.6642 10.5777L58.7724 10.6842L58.5262 10.9936C58.6703 11.055 58.8028 11.1117 58.935 11.1681C58.4925 11.85 57.8207 11.6117 58.9201 11.7936C58.9643 11.5416 59.3835 11.6063 59.3503 11.2812C59.3499 11.2773 59.3499 11.2732 59.3501 11.269C61.3941 13.3892 63.1857 15.7947 64.6576 18.4536L64.0663 18.3894C64.2787 18.6427 63.7314 18.7152 63.9582 18.9833C63.7747 19.1373 63.6507 19.3243 63.6002 19.5659C63.5397 19.453 63.4785 19.3403 63.4169 19.2283C63.376 18.9351 63.3054 18.5526 63.4699 18.1909C63.6141 17.8729 63.3814 17.6839 62.9815 17.7609C62.9898 17.9973 63.002 18.2358 62.9893 18.4754C62.1797 17.0929 61.2784 15.7853 60.2961 14.5577C60.3528 14.5288 60.4027 14.4813 60.4443 14.4077C60.5488 14.2238 60.5052 14.0464 60.351 13.9283L60.0637 14.2711C57.6196 11.2859 54.6925 8.78658 51.4443 6.8482C51.5678 6.7574 51.6708 6.67578 51.7843 6.65649C52.1001 6.60311 52.0378 6.38177 52.0119 5.96615C51.8702 6.06918 51.7709 6.16279 51.6535 6.22065C51.1986 6.44457 51.1946 6.18325 51.2694 6.74447C50.356 6.20701 49.418 5.71377 48.4586 5.26615C44.4905 3.41574 40.1572 2.34976 35.711 2.18464C35.6216 2.11901 35.5256 2.07692 35.3933 2.17429C31.3549 2.06351 27.2286 2.69669 23.2024 4.16207C14.6339 7.28075 8.13967 13.579 4.56703 21.2406C2.78906 25.0534 1.73531 29.2033 1.50903 33.4667C1.41212 33.3942 1.37661 33.5377 1.33192 33.6126C1.4086 33.6231 1.45917 33.6377 1.5008 33.6375C1.29734 37.888 1.91689 42.2481 3.46318 46.4967C3.89032 47.67 4.37698 48.8044 4.91868 49.8977C4.81965 49.9243 4.68464 49.9514 4.50235 50.2766L4.52046 50.3053C4.72956 50.3598 4.66323 50.449 5.04098 50.1423C5.30913 50.6722 5.58997 51.1923 5.88351 51.7025L5.86211 51.7011C5.87693 51.7084 5.89104 51.7227 5.90492 51.7398C6.55128 52.8602 7.25763 53.9318 8.01853 54.9522C7.98819 54.9783 7.95973 55.0086 7.93197 55.0392C7.91669 55.0566 7.92398 55.0944 7.9181 55.1478C8.04206 55.2318 8.14414 55.2441 8.21964 55.2198C11.4992 59.5268 15.7545 62.8998 20.5417 65.1321C24.8324 67.1329 29.5505 68.2169 34.3767 68.2358L34.5392 68.415C34.5681 68.379 34.6434 68.3169 34.6328 68.2948C34.6236 68.2751 34.6161 68.2553 34.6102 68.2358C36.408 68.2301 38.22 68.0766 40.0298 67.7673C40.2648 67.8472 40.2921 67.8373 40.3673 67.7425C40.3779 67.7291 40.3878 67.7155 40.3966 67.7023C42.2059 67.3721 44.0117 66.8863 45.7979 66.2362C54.3664 63.1175 60.8607 56.8193 64.4333 49.1578C66.5419 44.6358 67.6321 39.6394 67.5308 34.5419C67.5362 34.5202 67.5423 34.4887 67.5536 34.445L67.5289 34.4405C67.4482 30.9337 66.8032 27.3801 65.5374 23.9016C65.007 22.4439 64.3844 21.0466 63.6787 19.7131C64.0537 19.9966 64.4871 20.0175 64.982 19.9975C64.8839 19.6931 64.8063 19.4523 64.725 19.2001C64.5996 19.1991 64.4683 19.1981 64.3401 19.1969C64.2152 18.8187 64.5831 18.7777 64.7477 18.6166C65.5764 20.1325 66.3016 21.7301 66.9105 23.4036C68.6953 28.3073 69.2984 33.3526 68.8658 38.2279L68.6434 38.6071C68.716 38.5757 68.7812 38.5445 68.8392 38.5129C68.8212 38.6994 68.8017 38.8855 68.7807 39.0715C68.7177 39.0961 68.7148 39.1466 68.573 39.523C68.6373 39.4823 68.6923 39.4484 68.7393 39.4197C68.2926 43.0225 67.2798 46.517 65.7604 49.7754C62.0303 57.7745 55.2473 64.351 46.2954 67.6091C37.3446 70.8668 27.9219 70.189 19.9236 66.4592C11.9245 62.7293 5.34793 55.9462 2.08977 46.9942C1.75106 46.0635 1.45541 45.1279 1.20091 44.1891C1.38343 44.102 1.34156 44.1181 1.28347 44.0195C1.23783 44.0141 1.19408 44.0112 1.15433 44.0174C-0.98116 35.982 -0.0784145 27.7386 3.23996 20.6224C6.96996 12.6233 13.7528 6.04753 22.7047 2.78937ZM6.70817 30.6613L7.29267 30.7455L7.11226 31.9981L7.88987 32.11L8.06276 30.9097L8.64726 30.9939L8.47437 32.1942L9.42417 32.3311L9.60457 31.0786L10.189 31.1628L10.0122 32.3897C9.991 32.2678 9.91905 32.1479 9.84401 31.9913C9.81179 32.1961 9.79274 32.3174 9.77675 32.4195C9.63468 32.4525 9.52107 32.4793 9.35666 32.5176C9.64385 32.7401 9.73158 32.8081 9.78734 33.076L6.42991 32.5921L6.70817 30.6613ZM9.97602 32.6415L9.95719 32.7711C9.95266 32.7248 9.95571 32.6834 9.97198 32.6498L9.97602 32.6415ZM6.8881 29.7184L7.10356 28.7185C7.14943 28.5054 7.20493 28.3348 7.27032 28.2069C7.33572 28.079 7.43286 27.966 7.56175 27.8679C7.81813 27.6786 8.11991 27.6215 8.46709 27.6962C8.79003 27.7659 9.02571 27.9154 9.17413 28.1453C9.33314 28.3915 9.37195 28.7039 9.29056 29.0819L9.19742 29.5149L10.4707 29.7892L10.3262 30.4593L6.8881 29.7184ZM7.60973 29.1727L8.61997 29.3902L8.67877 29.1171C8.72088 28.9212 8.7164 28.7674 8.6649 28.6557C8.59527 28.5113 8.47461 28.4205 8.30291 28.3835C8.1345 28.3473 7.99031 28.3826 7.87012 28.4898C7.7758 28.5773 7.7057 28.7277 7.65984 28.9408L7.60973 29.1727ZM7.72758 26.3584L8.05123 25.5509C8.19377 25.1952 8.369 24.957 8.57669 24.8356C8.81449 24.6961 9.08004 24.6852 9.37383 24.8029C9.66408 24.9193 9.82873 25.1272 9.86779 25.4269C9.96045 25.2709 10.086 25.1566 10.2441 25.0835C10.457 24.9871 10.6922 24.9906 10.95 25.0938C11.224 25.2037 11.407 25.385 11.4988 25.6376C11.5952 25.9072 11.5726 26.2184 11.4314 26.5707L10.9919 27.6668L7.72758 26.3584ZM8.50142 25.9303L9.33831 26.2659L9.41099 26.0848C9.42417 26.0521 9.43546 26.0218 9.44486 25.9933C9.45427 25.9648 9.4618 25.9206 9.46697 25.8602C9.47214 25.7997 9.46862 25.7454 9.45592 25.6967C9.44321 25.648 9.41428 25.5977 9.36889 25.5455C9.3235 25.4932 9.26187 25.4513 9.18355 25.4199C9.04336 25.3636 8.92128 25.3676 8.81779 25.4323C8.7143 25.4968 8.63385 25.601 8.57623 25.7445L8.50142 25.9303ZM9.82755 26.4621L10.7279 26.8232L10.8378 26.5491C10.9137 26.3598 10.9424 26.2028 10.9244 26.0782C10.8996 25.9131 10.8009 25.7957 10.628 25.7263C10.4518 25.6558 10.2959 25.6858 10.16 25.8169C10.0809 25.8913 10.0014 26.0279 9.92161 26.2269L9.82755 26.4621ZM13.1913 22.8024L12.3923 22.7453L11.7497 24.0095L12.2669 24.6213L11.9301 25.2842L9.48061 22.3416L9.7243 21.8622L13.5258 22.1443L13.1913 22.8024ZM11.3494 23.5638L11.8033 22.6707L10.4483 22.5439L11.3494 23.5638ZM12.1702 17.9876L15.0709 19.9761L14.6833 20.5416L13.5614 19.7724L13.4898 19.8768L14.1049 21.3853L13.6399 22.0636L13.0561 20.3976C12.9592 20.5016 12.8432 20.5778 12.7079 20.6255C12.4025 20.7356 12.0943 20.6843 11.7843 20.4717C11.503 20.2788 11.344 20.0292 11.307 19.7226C11.2746 19.453 11.3705 19.1545 11.5952 18.8268L12.1702 17.9876ZM12.2437 18.8689L12.1244 19.043C12.0926 19.0893 12.0647 19.1364 12.0407 19.1839C12.0166 19.2314 11.9922 19.2999 11.9671 19.3893C11.9421 19.4786 11.9473 19.5673 11.9825 19.6555C12.0181 19.7438 12.0849 19.8215 12.1834 19.8893C12.4763 20.0899 12.7498 20.0048 13.0043 19.6338L13.1177 19.4685L12.2437 18.8689ZM14.541 15.9274C14.5527 15.4368 14.7566 14.9992 15.1532 14.6156C15.5498 14.2317 15.9934 14.0419 16.4843 14.0461C16.9752 14.0504 17.4075 14.2458 17.7817 14.632C18.1557 15.0185 18.3364 15.4565 18.3234 15.946C18.3105 16.4354 18.1059 16.8723 17.7092 17.2559C17.3127 17.6397 16.8696 17.83 16.3801 17.8272C15.8904 17.8242 15.4586 17.6296 15.0846 17.2432C14.7106 16.8567 14.5292 16.4181 14.541 15.9274ZM16.4339 17.1514C16.7482 17.1628 17.0293 17.0486 17.2767 16.8092C17.5241 16.5696 17.6474 16.2925 17.6463 15.9782C17.6451 15.6637 17.5211 15.3789 17.2742 15.1239C17.0271 14.8689 16.7454 14.7355 16.4285 14.7243C16.1117 14.713 15.8309 14.8259 15.5858 15.063C15.3407 15.3001 15.2188 15.5771 15.2198 15.8942C15.2207 16.2112 15.3449 16.4973 15.5916 16.7523C15.8387 17.0072 16.1197 17.1401 16.4339 17.1514ZM18.1665 12.2439L18.9387 13.3638L20.1628 12.5197L19.3906 11.3998L19.9549 11.0107L21.9514 13.906L21.387 14.295L20.4979 13.0058L19.2739 13.85L20.163 15.1392L19.5988 15.5282L17.6023 12.633L18.1665 12.2439ZM21.5632 10.1461L23.7446 9.16033L25.1926 12.3651L24.5678 12.6474L23.3628 9.98076L22.4307 10.402L23.0733 11.8243C23.1283 11.9462 23.1678 12.0381 23.1923 12.1005C23.2165 12.1628 23.2445 12.2543 23.2758 12.3752C23.2946 12.4477 23.3054 12.5178 23.3085 12.5857C23.2516 12.4789 23.1963 12.371 23.1269 12.2729C23.083 12.2108 22.9666 12.1995 22.8831 12.1652C22.8833 12.2595 22.849 12.4157 22.8894 12.438C23.0837 12.5467 23.1838 12.7158 23.2622 12.9049C23.2474 12.9508 23.229 12.9966 23.2072 13.0425C23.1042 13.2586 22.923 13.4254 22.6635 13.5428C22.5739 13.5832 22.4815 13.6136 22.3863 13.6334L22.143 13.0952C22.2157 13.0855 22.2794 13.0684 22.3338 13.0437C22.4491 12.9915 22.5278 12.9096 22.5699 12.7981C22.5979 12.7238 22.6038 12.6363 22.5873 12.5356C22.5709 12.4352 22.5497 12.3522 22.5239 12.2865C22.4982 12.2209 22.4542 12.1193 22.3919 11.9817L21.5632 10.1461ZM28.2854 11.3711L27.7806 10.7492L26.4187 11.1451L26.3748 11.5226C26.1572 11.5157 26.2132 11.4911 26.1633 11.6687C26.3329 11.6952 26.3289 11.7117 26.3627 11.6256L26.3261 11.9405L25.6122 12.148L26.0838 8.34861L26.6003 8.19854L28.9945 11.1651L28.2854 11.3711ZM26.4703 10.5478L27.4322 10.2682L26.5982 9.19279L26.4703 10.5478ZM28.9642 7.53501L29.6433 7.44234L29.9601 9.76177L31.5553 7.18126L32.0358 7.11563L32.5116 10.6001L31.8326 10.6927L31.5144 8.36273L29.9206 10.9538L29.44 11.0195L28.9642 7.53501ZM29.4334 6.52901L29.878 6.27687C29.9822 6.46832 30.1527 6.54807 30.3896 6.51561C30.6264 6.48338 30.7692 6.36084 30.8184 6.14844L31.3142 6.27239C31.2693 6.46316 31.1731 6.62169 31.0254 6.74822C30.8776 6.87477 30.6872 6.95404 30.4537 6.98579C30.2204 7.01778 30.0156 6.99238 29.8394 6.91006C29.6632 6.82773 29.5278 6.70071 29.4334 6.52901ZM34.0749 7.0446L34.066 8.40483L35.5527 8.41448L35.5616 7.05424L36.2471 7.0587L36.224 10.5753L35.5386 10.5709L35.5487 9.00509L34.062 8.99545L34.0516 10.5612L33.3662 10.5568L33.3892 7.04012L34.0749 7.0446ZM37.0386 9.75118L37.1204 9.16645L38.391 9.34403C38.4 9.36355 38.4242 9.37931 38.4717 9.40259L38.3964 9.941L37.0386 9.75118ZM38.9732 10.8748L39.9385 7.49315L40.5975 7.68131L39.7943 10.4952L40.8793 10.8049L41.6826 7.99109L42.3417 8.17926L41.5384 10.9931L42.6235 11.3029L42.9627 10.1148C43.0129 10.0706 43.0531 9.99462 43.0869 9.89537L43.0182 9.92101L43.4269 8.48904L44.086 8.67721L43.2776 11.5094C43.2002 11.4626 43.1042 11.4444 43.0026 11.4783C42.8083 11.5426 42.6171 11.6173 42.4141 11.6915C42.5291 12.0233 42.7879 11.7169 42.9817 11.8396L42.8617 11.9852L41.6222 11.6314L41.8313 11.3109C41.6704 11.2491 41.5459 11.2008 41.421 11.1529C41.3444 11.2773 41.3234 11.2004 41.5594 11.6134L38.9732 10.8748ZM46.2273 9.57477L45.516 10.8804L47.3618 10.1924L48.1211 10.6062L46.0385 11.3212L46.5085 13.7324L45.8498 13.3737C45.827 13.2441 45.7649 13.1707 45.6823 13.1271L45.3689 11.3165L45.2615 11.348L44.5833 12.5935C44.5797 12.5321 44.5931 12.4608 44.6327 12.3736L44.3697 12.5672L43.9434 12.335L45.6255 9.24666L46.2273 9.57477ZM48.8316 11.4259C49.315 11.3396 49.784 11.4522 50.2392 11.7644C50.6943 12.0765 50.9688 12.4733 51.0624 12.9552C51.156 13.4372 51.0508 13.8998 50.7467 14.3435C50.444 14.7852 50.0526 15.0491 49.5732 15.1352C49.3992 14.8567 49.4416 14.8936 49.3444 14.9289C49.3552 15.1093 49.3082 15.0788 49.5064 15.146C49.0457 15.2111 48.5971 15.0945 48.1613 14.7956C47.7061 14.4834 47.4312 14.0873 47.3367 13.6068C47.2418 13.1263 47.3467 12.6643 47.6506 12.2209C47.9548 11.7773 48.3485 11.5122 48.8316 11.4259ZM48.0096 13.5247C48.0611 13.835 48.229 14.0875 48.5129 14.2823C48.7971 14.4771 49.0932 14.5427 49.401 14.4788C49.709 14.415 49.9635 14.2367 50.1641 13.9438C50.3648 13.6511 50.4393 13.3482 50.3873 13.0357C50.3353 12.7231 50.1688 12.4703 49.8875 12.2774C49.6062 12.0845 49.3106 12.0203 49.0001 12.0845C48.6896 12.1487 48.4342 12.3272 48.2333 12.6201C48.0326 12.913 47.9581 13.2145 48.0096 13.5247ZM52.9429 13.9487L54.6426 15.4826L52.2864 18.0935L51.7777 17.6343L53.7382 15.4619L52.9789 14.7765L51.9333 15.9352C51.844 16.0342 51.7755 16.1076 51.728 16.1549C51.6808 16.2021 51.6081 16.2642 51.5098 16.3414C51.4117 16.4185 51.3106 16.4729 51.2064 16.5044C51.1022 16.5358 50.9902 16.5497 50.8706 16.5458C50.6312 16.538 50.4062 16.4389 50.1947 16.2482C50.1215 16.1824 50.0568 16.1097 50.0007 16.0304L50.3963 15.592C50.4344 15.6548 50.4756 15.7061 50.52 15.7463C50.6139 15.831 50.7204 15.8705 50.8397 15.8644C50.9191 15.8603 51.0014 15.8305 51.0871 15.7752C51.1727 15.72 51.2402 15.6672 51.2899 15.6174C51.3395 15.5675 51.415 15.4866 51.5164 15.3744L52.4922 14.2929C52.7035 14.2461 52.8296 14.1042 52.9429 13.9487ZM54.354 20.6034L54.7354 19.8989L53.8485 18.7922L53.078 19.011L52.6129 18.431L56.3036 17.4127L56.6399 17.8324L54.8155 21.1794L54.354 20.6034ZM54.4198 18.6114L55.0462 19.3932L55.7206 18.2111L54.4198 18.6114ZM23.0206 28.7684C23.329 28.6025 23.552 28.9751 23.6355 29.3283C23.702 29.6107 23.6517 30.0578 23.5632 30.2584C23.2109 31.0577 23.0077 28.8335 23.0206 28.7684ZM22.3067 30.802C22.12 30.5578 22.0553 30.2307 21.933 29.894C21.7203 29.3093 20.972 28.0707 20.9484 27.6772C21.873 27.2776 22.5507 29.0774 22.5904 29.9587C22.6097 30.3833 22.6474 30.6872 22.3067 30.802ZM18.3634 27.0351C19.7989 26.2393 21.8231 30.2158 21.6641 31.0805C21.4364 32.3186 19.6145 28.7316 19.1965 28.1684C18.9752 27.8701 18.3745 27.351 18.3634 27.0351ZM38.3167 23.201C37.974 23.2723 38.0425 23.7009 38.2057 24.0253C38.336 24.2842 38.6623 24.5945 38.8588 24.6912C39.6426 25.077 38.3687 23.2427 38.3167 23.201ZM40.1709 24.3002C40.157 23.9931 39.9961 23.7009 39.8736 23.3643C39.6605 22.7799 39.4377 21.3498 39.2027 21.0332C38.2374 21.3213 38.8756 23.1357 39.4114 23.8366C39.6694 24.1741 39.8363 24.4312 40.1709 24.3002ZM40.7702 18.8798C39.159 19.1928 40.1643 23.5402 40.8422 24.1005C41.8126 24.9026 40.9024 20.9838 40.8605 20.2837C40.8384 19.9128 40.9647 19.1289 40.7702 18.8798Z" fill="white"/>
</svg>
