<svg width="157" height="18" viewBox="0 0 157 18" fill="none" xmlns="http://www.w3.org/2000/svg">
<g clip-path="url(#clip0_649_6465)">
<path d="M35.9431 9.15988C35.9431 6.75352 35.965 4.34717 35.9291 1.94238C35.9181 1.2167 36.1665 0.963815 36.8758 1.01094C37.6272 1.05963 38.3849 1.04863 39.1379 1.01408C39.7269 0.987376 39.9144 1.25283 39.9097 1.80573C39.894 3.37488 39.9237 4.94404 39.8972 6.5132C39.8862 7.11793 40.1003 7.29542 40.7049 7.35511C41.9437 7.47606 42.7748 7.12893 43.4232 5.96344C44.2574 4.46183 45.3322 3.09844 46.2696 1.65336C46.5758 1.18215 46.9304 0.988946 47.4866 1.01251C48.3958 1.0502 49.3066 1.01879 50.2174 1.02507C50.4189 1.02507 50.683 0.946537 50.797 1.14288C50.9407 1.39262 50.6876 1.57169 50.5595 1.75546C49.0941 3.85239 47.6538 5.96659 46.1368 8.02581C45.6431 8.69494 45.5713 9.14103 46.104 9.84943C47.6084 11.8505 49.0129 13.9286 50.4611 15.9737C50.5923 16.159 50.6736 16.4716 50.9267 16.4528C51.2344 16.4292 51.2422 16.0727 51.3407 15.8465C53.3419 11.2207 55.351 6.59959 57.3131 1.95652C57.6162 1.23869 57.9927 0.946537 58.7629 1.0078C59.5909 1.07219 60.4267 1.04078 61.2594 1.01565C61.7124 1.00151 61.9733 1.16958 62.1546 1.59211C64.2902 6.58702 66.4336 11.5772 68.5863 16.5643C68.8254 17.1172 68.6926 17.3182 68.0911 17.2994C67.2069 17.2727 66.3227 17.2774 65.4384 17.2994C65.0104 17.3104 64.762 17.1392 64.612 16.7449C64.3792 16.1355 64.1011 15.5417 63.884 14.9276C63.7184 14.4595 63.4325 14.2977 62.9451 14.3024C60.8641 14.3229 58.7832 14.3276 56.7023 14.2993C56.1602 14.2915 55.8993 14.5192 55.7259 14.9904C55.5088 15.5779 55.2275 16.1418 55.0198 16.7324C54.8323 17.2633 54.4933 17.4313 53.9527 17.4266C51.9234 17.4062 49.8956 17.4031 47.8662 17.4282C47.3038 17.436 46.9523 17.2146 46.643 16.7669C45.3807 14.9433 44.0965 13.1338 42.817 11.3212C42.4452 10.795 40.6439 10.4337 40.1206 10.7714C39.8503 10.9458 39.9144 11.2332 39.9128 11.4846C39.9065 13.1055 39.8878 14.7281 39.9175 16.3491C39.93 17.0371 39.7363 17.3654 38.9895 17.3073C38.2662 17.2507 37.5304 17.2554 36.8055 17.3073C36.0868 17.3575 35.9275 17.0324 35.9337 16.3805C35.9603 13.9742 35.9447 11.5678 35.9447 9.16302L35.9431 9.15988ZM59.8112 4.98174C58.9973 6.96714 58.2302 8.84102 57.4616 10.7133C57.3116 11.0793 57.4131 11.2411 57.824 11.238C59.1472 11.227 60.4689 11.2301 61.7921 11.2348C62.1827 11.2364 62.3186 11.0872 62.1639 10.7086C61.3937 8.83788 60.6267 6.96714 59.8127 4.98331L59.8112 4.98174Z" fill="white"/>
<path d="M2.84339 1.02197C4.22442 0.560177 5.14302 1.42722 5.9179 2.73407C6.51468 3.7409 7.27706 4.64721 7.93789 5.61792C8.23784 6.05773 8.44719 6.0326 8.7362 5.61635C9.67511 4.2671 10.6437 2.93826 11.5732 1.58272C11.8545 1.17276 12.1778 0.99841 12.6731 1.01255C13.6604 1.04239 14.6493 1.01569 15.6367 1.02511C15.8616 1.02668 16.1678 0.921444 16.2866 1.14763C16.4303 1.42094 16.135 1.61885 15.9897 1.81519C14.4603 3.89641 12.9418 5.98705 11.3717 8.03685C10.9171 8.63215 10.8905 9.05939 11.3514 9.67041C12.9715 11.8129 14.5509 13.9883 16.1132 16.1748C16.5631 16.8047 16.6974 16.5722 16.9286 16.0319C18.9424 11.3275 20.9843 6.63733 22.9855 1.92671C23.2714 1.25287 23.6229 0.945005 24.3743 1.00469C25.2008 1.07223 26.0381 1.04082 26.8693 1.01255C27.3489 0.996839 27.6316 1.15862 27.8269 1.61571C29.9484 6.58549 32.0809 11.5506 34.2228 16.5125C34.4649 17.0748 34.4024 17.3261 33.726 17.2994C32.8699 17.2649 32.0091 17.2727 31.1529 17.2994C30.6999 17.312 30.4015 17.1628 30.264 16.7214C30.2328 16.6225 30.1859 16.5282 30.1469 16.4308C29.5615 15.0161 28.494 14.3088 26.9442 14.3088C25.4367 14.3088 23.9275 14.3339 22.42 14.2962C21.856 14.2821 21.5576 14.4894 21.3748 15.0046C21.1655 15.5936 20.8905 16.1607 20.664 16.745C20.5125 17.1377 20.2641 17.301 19.836 17.2979C17.5223 17.2837 15.207 17.279 12.8934 17.301C12.3934 17.3057 12.1466 17.034 11.8998 16.679C10.8874 15.2214 9.86727 13.77 8.85181 12.3155C8.51436 11.8328 8.16963 11.8385 7.8176 12.3328C6.79276 13.781 5.75699 15.2229 4.75246 16.6853C4.4572 17.1141 4.12912 17.323 3.5964 17.3026C2.63561 17.2665 1.67326 17.2963 0.710918 17.29C0.482829 17.29 0.175065 17.3795 0.0485231 17.1785C-0.118638 16.9146 0.162567 16.6994 0.307857 16.4999C1.96697 14.2224 3.61046 11.9323 5.31175 9.68768C5.77261 9.07981 5.7773 8.65886 5.318 8.05727C3.737 5.98548 2.20287 3.87441 0.656239 1.77435C0.523447 1.59372 0.271925 1.40994 0.389094 1.16648C0.509387 0.918303 0.807777 1.03297 1.02805 1.02668C1.54828 1.01098 2.06851 1.02197 2.84339 1.02197ZM25.4695 4.98335C24.6571 6.97032 23.9025 8.82535 23.137 10.6757C22.9652 11.0919 23.0824 11.2411 23.5229 11.238C24.793 11.2254 26.0647 11.2207 27.3348 11.2396C27.8488 11.2474 27.9925 11.0809 27.7879 10.594C27.027 8.77195 26.2772 6.94519 25.4663 4.98335H25.4695Z" fill="white"/>
<path d="M74.2427 8.09177C74.2427 10.5468 74.2427 13.0003 74.2427 15.4553C74.2427 15.7428 74.2161 16.0334 74.2474 16.3177C74.3271 17.0622 74.0334 17.3638 73.2741 17.3041C72.5758 17.2491 71.8681 17.2554 71.1698 17.3041C70.4871 17.3496 70.2621 17.0936 70.2683 16.4072C70.2949 13.1904 70.2793 9.97507 70.2793 6.75822C70.2793 5.16236 70.3027 3.56807 70.2683 1.97378C70.2543 1.29208 70.4308 1.00464 71.1823 1.00464C73.9178 1.00778 73.9131 0.984219 75.4738 3.2445C76.7204 5.04769 77.9905 6.83518 79.2232 8.64781C79.57 9.15672 79.7809 9.11431 80.109 8.63524C81.6978 6.30742 83.3194 4.00159 84.9019 1.67063C85.2331 1.18213 85.6081 0.971653 86.1939 1.01249C86.8673 1.05804 87.5468 1.04548 88.2217 1.0172C88.7576 0.995214 88.9654 1.20098 88.9529 1.74602C88.9279 2.94763 88.9466 4.15238 88.9466 5.35399C88.9466 9.01536 88.9279 12.6767 88.9622 16.3365C88.97 17.0968 88.7341 17.3685 87.9858 17.3057C87.3406 17.2507 86.6829 17.2491 86.0377 17.3057C85.2581 17.3748 85.0738 17.0386 85.0832 16.3098C85.1191 13.7213 85.0988 11.1327 85.0925 8.54414C85.0925 8.3478 85.1675 8.13261 84.9676 7.88443C84.074 9.16458 83.1991 10.418 82.3242 11.673C82.0555 12.0579 81.7478 12.4238 81.5322 12.8369C81.1041 13.6584 80.4777 13.9066 79.5637 13.8752C78.7842 13.8485 78.2827 13.6443 77.8421 12.9689C76.7501 11.2898 75.5753 9.66721 74.4333 8.02108C74.3692 8.04622 74.3052 8.06978 74.2427 8.09491V8.09177Z" fill="white"/>
<path d="M130.048 0.704681C133.018 0.640282 135.434 1.29999 137.288 3.31209C139.556 5.77185 140.05 8.70598 139.116 11.849C138.178 14.9936 135.946 16.8078 132.784 17.4329C130.116 17.9591 127.504 17.7675 125.095 16.3648C122.136 14.6402 120.7 11.1814 121.331 7.43525C121.894 4.10688 124.498 1.53874 127.957 0.875891C128.755 0.72353 129.553 0.692116 130.048 0.706252V0.704681ZM130.369 14.2161C133.493 14.213 135.516 12.2417 135.521 9.19447C135.526 6.08443 133.514 4.1006 130.353 4.10217C127.197 4.10217 125.149 6.10171 125.152 9.17405C125.156 12.248 127.194 14.2192 130.369 14.2177V14.2161Z" fill="white"/>
<path d="M156.986 9.15674C156.986 11.5631 156.964 13.9695 157 16.3742C157.011 17.1046 156.755 17.3497 156.05 17.3025C155.325 17.2538 154.592 17.268 153.866 17.2978C153.324 17.3198 153.132 17.1031 153.14 16.5643C153.16 14.9166 153.127 13.2689 153.155 11.6212C153.165 11.0463 152.982 10.8359 152.396 10.8453C150.445 10.872 148.493 10.8798 146.544 10.8421C145.861 10.828 145.708 11.1107 145.719 11.7249C145.747 13.2673 145.705 14.8114 145.738 16.3538C145.753 17.0528 145.538 17.3591 144.8 17.3041C144.05 17.2491 143.291 17.268 142.538 17.2994C141.968 17.323 141.749 17.1031 141.757 16.5266C141.779 14.9574 141.763 13.3883 141.763 11.8191C141.763 8.60227 141.763 5.38542 141.763 2.16857C141.763 1.40519 142.155 1.02246 142.938 1.02037C143.563 1.02037 144.191 1.06435 144.81 1.00937C145.561 0.9434 145.749 1.28582 145.735 1.97066C145.703 3.51311 145.745 5.05714 145.716 6.5996C145.703 7.22003 145.872 7.49334 146.547 7.48077C148.497 7.44465 150.449 7.45093 152.399 7.47763C152.99 7.48549 153.161 7.26087 153.152 6.69227C153.126 5.07128 153.163 3.44871 153.133 1.82772C153.122 1.21671 153.326 0.977956 153.941 1.01251C154.667 1.05178 155.4 1.0612 156.125 1.01094C156.847 0.960678 157.001 1.2921 156.994 1.93924C156.969 4.3456 156.983 6.75196 156.983 9.15674H156.986Z" fill="white"/>
<path d="M106.413 17.2932C104.092 17.2398 104.681 17.6733 103.759 15.5151C103.187 14.1737 103.47 14.3151 101.973 14.3104C100.128 14.3041 98.2815 14.3261 96.4381 14.2978C95.896 14.29 95.496 14.4203 95.3867 14.9779C95.0024 16.9429 93.8479 17.5555 91.9029 17.334C90.2328 17.144 90.325 17.3984 90.9718 15.8937C92.9808 11.2192 95.0071 6.55254 96.9989 1.8702C97.2598 1.25761 97.5754 0.962317 98.2675 1.00787C99.147 1.06599 100.034 1.04085 100.917 1.01572C101.376 1.00316 101.626 1.18693 101.803 1.60317C103.926 6.56982 106.054 11.5333 108.199 16.4905C108.471 17.1204 108.335 17.3466 107.658 17.2995C107.244 17.2712 106.827 17.2948 106.411 17.2948L106.413 17.2932ZM99.4532 4.98338C98.6409 6.96879 97.8878 8.82382 97.1223 10.6741C96.9521 11.0872 97.0599 11.2427 97.5051 11.238C98.8018 11.2255 100.098 11.2223 101.395 11.238C101.936 11.2443 101.931 10.9836 101.772 10.5972C101.017 8.77198 100.262 6.94679 99.4517 4.98338H99.4532Z" fill="white"/>
<path d="M113.776 1.02039C115.857 1.02039 117.938 1.04867 120.017 1.00626C120.753 0.990549 120.995 1.26228 120.939 1.96126C120.9 2.45447 120.906 2.95553 120.937 3.45031C120.975 4.05347 120.748 4.29379 120.13 4.27651C118.908 4.24196 117.685 4.2985 116.463 4.25452C115.804 4.23096 115.622 4.47286 115.626 5.11214C115.649 8.82535 115.638 12.5385 115.637 16.2518C115.637 17.2869 115.632 17.2869 114.602 17.2916C113.977 17.2931 113.351 17.2539 112.731 17.301C112.023 17.3544 111.773 17.0999 111.782 16.3711C111.817 13.8093 111.795 11.2458 111.795 8.68398C111.795 7.4808 111.772 6.27762 111.804 5.07601C111.821 4.47443 111.64 4.23253 111.006 4.25452C109.811 4.29693 108.613 4.24824 107.418 4.27337C106.871 4.28437 106.635 4.12887 106.619 3.52728C106.552 1.01882 106.535 1.01882 109.014 1.01882C110.601 1.01882 112.187 1.01882 113.774 1.01882L113.776 1.02039Z" fill="white"/>
</g>
<defs>
<clipPath id="clip0_649_6465">
<rect width="157" height="17" fill="white" transform="translate(0 0.699951)"/>
</clipPath>
</defs>
</svg>
