<svg width="95" height="42" viewBox="0 0 95 42" fill="none" xmlns="http://www.w3.org/2000/svg">
<g clip-path="url(#clip0_649_6452)">
<path d="M3.872 26.1294V39.5833C3.872 39.9973 3.71192 40.3422 3.39175 40.6182C3.0916 40.8942 2.74142 41.0322 2.34121 41.0322H0.690356C0.410212 41.0322 0.220114 40.9829 0.120062 40.8844C0.0400207 40.7858 0 40.5985 0 40.3225V2.00104C0 1.72506 0.0400207 1.53779 0.120062 1.43923C0.220114 1.34066 0.410212 1.29138 0.690356 1.29138H5.64291C6.50338 1.29138 7.27374 1.40966 7.95412 1.64621C8.63446 1.88276 9.21477 2.21787 9.69502 2.65156C10.1753 3.08523 10.5455 3.59777 10.8056 4.18915C11.0657 4.76081 11.1958 5.38176 11.1958 6.05202V21.3984C11.1958 22.0686 11.0657 22.6994 10.8056 23.2908C10.5455 23.8624 10.1653 24.3651 9.66498 24.7988C9.16474 25.2127 8.56443 25.538 7.86405 25.7746C7.16372 26.0111 6.38332 26.1294 5.52285 26.1294H3.872ZM5.73298 22.8472C6.27326 22.8472 6.67343 22.6895 6.9336 22.3741C7.19372 22.0587 7.32378 21.7137 7.32378 21.3392V6.08156C7.32378 5.68729 7.18372 5.34236 6.90356 5.04665C6.62345 4.73125 6.18319 4.57355 5.58288 4.57355H3.872V22.8472H5.73298Z" fill="white"/>
<path d="M17.9589 40.1747C17.9589 40.7463 17.6687 41.0322 17.0885 41.0322H14.9273C14.367 41.0322 14.0869 40.7463 14.0869 40.1747V2.76983C14.0869 2.31644 14.237 1.96161 14.5371 1.70535C14.8573 1.42937 15.2175 1.29138 15.6177 1.29138H17.2686C17.5687 1.29138 17.7588 1.34066 17.8388 1.43923C17.9189 1.53779 17.9589 1.71521 17.9589 1.97147V40.1747Z" fill="white"/>
<path d="M32.5454 40.3225C32.5454 40.5788 32.4954 40.7661 32.3954 40.8844C32.2953 40.9829 32.1052 41.0322 31.825 41.0322H30.2342C29.834 41.0322 29.4938 40.9139 29.2137 40.6774C28.9336 40.4408 28.7535 40.1254 28.6734 39.7311L24.8014 16.4603L25.3417 39.5242C25.3617 39.9776 25.2116 40.3422 24.8915 40.6182C24.5913 40.8942 24.2211 41.0322 23.7809 41.0322H22.1901C21.9099 41.0322 21.7198 40.9829 21.6198 40.8844C21.5197 40.7661 21.4697 40.5788 21.4697 40.3225V1.97147C21.4697 1.71521 21.5097 1.53779 21.5898 1.43923C21.6698 1.34066 21.8599 1.29138 22.1601 1.29138H23.8409C24.2211 1.29138 24.5413 1.40966 24.8014 1.64621C25.0615 1.86305 25.2316 2.16859 25.3117 2.56285L29.2137 25.8337L28.6734 2.76983C28.6534 2.31644 28.7935 1.96161 29.0937 1.70535C29.4138 1.42937 29.774 1.29138 30.1742 1.29138H31.8551C32.1552 1.29138 32.3453 1.34066 32.4254 1.43923C32.5054 1.53779 32.5454 1.71521 32.5454 1.97147V40.3225Z" fill="white"/>
<path d="M41.7054 0.699951C42.5658 0.699951 43.3362 0.828083 44.0166 1.08435C44.697 1.3209 45.277 1.65602 45.7575 2.0897C46.2379 2.52338 46.6079 3.02605 46.8681 3.59772C47.1282 4.16939 47.2585 4.78048 47.2585 5.43099V18.0274C47.2585 18.4217 47.0382 18.6188 46.598 18.6188H44.857C44.5569 18.6188 44.2367 18.5301 43.8965 18.3527C43.5764 18.1753 43.4163 17.8894 43.4163 17.4952V5.57886C43.4163 5.18459 43.2662 4.83962 42.9661 4.54393C42.6659 4.22852 42.2256 4.07082 41.6454 4.07082C41.0651 4.07082 40.6348 4.22852 40.3547 4.54393C40.0746 4.83962 39.9345 5.18459 39.9345 5.57886V36.7446C39.9345 37.1389 40.0746 37.4839 40.3547 37.7796C40.6348 38.0752 41.0751 38.2231 41.6754 38.2231C42.3157 38.2231 42.7559 38.0654 42.9961 37.75C43.2562 37.4149 43.3863 37.0797 43.3863 36.7446V24.8579C43.3863 24.6608 43.4363 24.4932 43.5363 24.3552C43.6364 24.1975 43.7565 24.0792 43.8965 24.0004C44.0366 23.9018 44.1867 23.8328 44.3468 23.7934C44.5269 23.7539 44.687 23.7342 44.827 23.7342H46.5677C47.0282 23.7342 47.2585 23.9215 47.2585 24.2961V36.8629C47.2585 37.5331 47.1282 38.164 46.8681 38.7554C46.6079 39.327 46.228 39.8297 45.7276 40.2633C45.2472 40.6773 44.6569 41.0026 43.9565 41.2392C43.2562 41.4757 42.4758 41.594 41.6153 41.594C40.7549 41.594 39.9845 41.4757 39.3042 41.2392C38.6238 41.0026 38.0435 40.6773 37.5633 40.2633C37.083 39.8297 36.7128 39.327 36.4527 38.7554C36.1926 38.164 36.0625 37.5331 36.0625 36.8629V5.43099C36.0625 4.76077 36.1926 4.13982 36.4527 3.56815C36.7128 2.99648 37.083 2.50366 37.5633 2.0897C38.0635 1.65602 38.6638 1.3209 39.3642 1.08435C40.0645 0.828083 40.8449 0.699951 41.7054 0.699951Z" fill="white"/>
<path d="M61.8374 40.3225C61.8374 40.5788 61.7871 40.7661 61.6872 40.8844C61.5872 40.9829 61.3972 41.0322 61.1167 41.0322H59.5261C59.086 41.0322 58.7155 40.8942 58.4156 40.6182C58.1152 40.3422 57.9654 39.9776 57.9654 39.5242V22.4037H54.6336V39.5242C54.6336 39.9776 54.4835 40.3422 54.1835 40.6182C53.8831 40.8942 53.5131 41.0322 53.0729 41.0322H51.4819C51.2019 41.0322 51.0119 40.9829 50.9115 40.8844C50.8115 40.7661 50.7617 40.5788 50.7617 40.3225V1.97147C50.7617 1.71521 50.8015 1.53779 50.8816 1.43923C50.9617 1.34066 51.1517 1.29138 51.4521 1.29138H53.1326C53.533 1.29138 53.8831 1.42937 54.1835 1.70535C54.4835 1.96161 54.6336 2.31644 54.6336 2.76983V19.2102H57.9654V2.76983C57.9654 2.31644 58.1152 1.96161 58.4156 1.70535C58.7155 1.42937 59.0656 1.29138 59.466 1.29138H61.147C61.447 1.29138 61.637 1.34066 61.717 1.43923C61.7971 1.53779 61.8374 1.71521 61.8374 1.97147V40.3225Z" fill="white"/>
<path d="M93.6874 1.45203H65.0698C64.5248 1.45203 64.083 1.88726 64.083 2.42416V40.1429C64.083 40.6798 64.5248 41.1151 65.0698 41.1151H93.6874C94.2324 41.1151 94.6742 40.6798 94.6742 40.1429V2.42416C94.6742 1.88726 94.2324 1.45203 93.6874 1.45203Z" fill="white"/>
<path d="M74.9043 3.89099C75.3015 3.89099 75.5001 4.11215 75.5001 4.55447V5.03932C75.5001 6.16211 74.9907 6.72355 73.972 6.72355H71.0966V19.789H74.4121C74.8093 19.789 75.0079 20.0102 75.0079 20.4525V20.9374C75.0079 22.0602 74.4985 22.6216 73.4798 22.6216H71.0966V36.9375C71.0966 37.2947 70.9582 37.5924 70.6822 37.8306C70.423 38.0688 70.1208 38.1878 69.7752 38.1878H68.3507C68.1091 38.1878 67.9449 38.1368 67.8585 38.0348C67.7893 37.9327 67.7549 37.7626 67.7549 37.5244V4.50343C67.7549 4.26526 67.7893 4.10365 67.8585 4.01858C67.9449 3.93352 68.1091 3.89099 68.3507 3.89099H74.9043ZM92.06 3.89099C92.4571 3.89099 92.6557 4.11215 92.6557 4.55447V5.03932C92.6557 5.60073 92.5173 6.02606 92.2409 6.31524C91.9821 6.58745 91.6107 6.72355 91.1271 6.72355H89.599V37.4733C89.599 37.9497 89.357 38.1878 88.8738 38.1878H86.9566C86.6979 38.1878 86.5165 38.1368 86.4129 38.0348C86.3093 37.9157 86.2573 37.7285 86.2573 37.4733V6.72355H84.5993C83.5805 6.72355 83.0711 6.16211 83.0711 5.03932V4.55447C83.0711 4.11215 83.2697 3.89099 83.6669 3.89099H92.06Z" fill="#0A0A0B"/>
<path d="M80.9253 37.3066C80.9253 37.7999 80.6751 38.0466 80.1743 38.0466H78.3091C77.8256 38.0466 77.584 37.7999 77.584 37.3066V10.3079C77.584 9.9166 77.7134 9.61039 77.9726 9.38922C78.2485 9.15106 78.5593 9.03198 78.9049 9.03198H80.3295C80.5887 9.03198 80.7529 9.0745 80.8217 9.15957C80.8909 9.24465 80.9253 9.39773 80.9253 9.61891V37.3066Z" fill="#0A0A0B"/>
<path d="M80.6867 5.25143L79.3472 6.55839L78.0077 5.25143M78.0077 5.25143C77.9195 5.16675 77.8498 5.06494 77.8032 4.95245C77.7566 4.83995 77.7344 4.71919 77.7376 4.59779C77.7408 4.47638 77.7697 4.35695 77.8222 4.24702C77.8747 4.13708 77.9493 4.03903 78.0421 3.95903C78.1348 3.87903 78.2434 3.81882 78.361 3.78219C78.4786 3.74555 78.6026 3.73329 78.7251 3.74618C78.8477 3.75905 78.9663 3.79681 79.0735 3.85704C79.1802 3.91727 79.2734 3.9987 79.3472 4.09617C79.4209 3.9994 79.5146 3.9187 79.6213 3.8591C79.7281 3.7995 79.8466 3.7623 79.9687 3.74982C80.0909 3.73734 80.2148 3.74985 80.3316 3.78657C80.4487 3.82329 80.5568 3.88343 80.6496 3.96322C80.7419 4.04301 80.8165 4.14073 80.869 4.25028C80.9215 4.35983 80.95 4.47884 80.9536 4.59986C80.9572 4.72088 80.935 4.84131 80.8893 4.95361C80.8432 5.06591 80.7744 5.16765 80.6867 5.2525" fill="#0A0A0B"/>
</g>
<defs>
<clipPath id="clip0_649_6452">
<rect width="95" height="41" fill="white" transform="translate(0 0.699951)"/>
</clipPath>
</defs>
</svg>
