<svg width="73" height="74" viewBox="0 0 73 74" fill="none" xmlns="http://www.w3.org/2000/svg">
<g clip-path="url(#clip0_649_6502)">
<path d="M33.3826 73.7C33.3826 73.5349 33.2647 73.5506 33.1546 73.5427C30.0726 73.3068 27.0929 72.6228 24.1918 71.5929C20.7796 70.3743 17.619 68.676 14.7179 66.514C13.0354 65.2639 11.4708 63.888 10.032 62.3706C7.76775 59.9805 5.84938 57.3388 4.30054 54.4298C2.61018 51.2614 1.39941 47.9121 0.707543 44.3899C0.455955 43.1005 0.235815 41.7954 0.165055 40.4824C0.165055 40.3645 0.227953 40.1915 0.0078125 40.1758V39.932C0.149331 39.7434 0.125745 39.5547 0.0078125 39.366V35.1519C0.125745 34.9868 0.149331 34.8295 0.0078125 34.6644V34.2556C0.172918 34.2556 0.157193 34.1376 0.165055 34.0276C0.40092 30.9456 1.0692 27.9659 2.09914 25.0569C3.07405 22.2894 4.37916 19.6713 5.99877 17.2183C7.46899 14.9855 9.15935 12.9256 11.0856 11.0701C13.625 8.63285 16.4318 6.56511 19.561 4.93765C22.6744 3.31804 25.945 2.13086 29.3886 1.47044C30.9925 1.16382 32.6121 0.912229 34.2553 0.857194C34.3811 0.857194 34.5777 0.943678 34.6012 0.699951H35.1673C35.2224 0.810021 35.3246 0.786435 35.411 0.786435C36.0557 0.786435 36.7004 0.786435 37.3451 0.786435C37.4395 0.786435 37.5417 0.810021 37.5967 0.699951H38.2414C38.2414 0.896505 38.3908 0.857194 38.5009 0.857194C40.0104 0.920091 41.4885 1.15596 42.9744 1.39968C44.8535 1.71417 46.6775 2.21734 48.4701 2.82273C51.2375 3.75833 53.8399 5.05558 56.285 6.65946C57.999 7.7916 59.6264 9.03382 61.1438 10.4176C63.4946 12.5718 65.523 14.9855 67.2291 17.6665C68.7544 20.0644 70.0202 22.6039 70.9243 25.3085C71.7263 27.7143 72.3631 30.1594 72.654 32.691C72.7484 33.493 72.8584 34.2949 72.8506 35.1047C72.8506 35.2305 72.7641 35.4192 72.9999 35.4506V35.8595C72.9292 35.8909 72.9135 35.9538 72.9135 36.0246C72.9135 36.8344 72.9135 37.6363 72.9135 38.4461C72.9135 38.5169 72.9292 38.5798 72.9999 38.6112V39.02C72.7798 39.0358 72.8506 39.2087 72.8506 39.3267C72.6776 43.0612 71.8992 46.662 70.5627 50.145C69.0296 54.1232 66.9225 57.7634 64.1157 60.9947C62.3782 62.9996 60.4677 64.8 58.337 66.3803C57.4486 67.0407 56.5445 67.6697 55.6089 68.2515C53.8949 69.3207 52.1024 70.2485 50.2312 71.0032C47.4952 72.1039 44.6726 72.8902 41.7401 73.3068C41.0796 73.4012 40.4035 73.3933 39.7431 73.527C39.6409 73.5506 39.5151 73.527 39.5308 73.7H38.9647L38.9254 73.6449L38.8861 73.7H38.721C38.6974 73.6213 38.666 73.6213 38.6424 73.7H38.32C38.2965 73.6292 38.265 73.6371 38.2414 73.7H34.5934C34.2946 73.5899 33.9959 73.5506 33.705 73.7H33.3826ZM36.496 1.90286C17.0608 1.80065 1.06134 17.5878 1.08493 37.2668C1.10065 47.1259 4.6622 55.6721 11.7067 62.5121C19.7182 70.2956 29.4987 73.5899 40.6236 72.3791C48.7216 71.4986 55.7032 68.0549 61.4505 62.2684C68.3063 55.3733 71.797 46.9923 71.8285 37.2904C71.8914 17.6743 55.8683 1.76134 36.4882 1.90286H36.496Z" fill="white"/>
<path d="M72.9996 38.6191C72.9288 38.5876 72.9131 38.5247 72.9131 38.454C72.9131 37.6442 72.9131 36.8422 72.9131 36.0324C72.9131 35.9617 72.9288 35.8988 72.9996 35.8673V38.6191Z" fill="white"/>
<path d="M37.5964 0.699951C37.5414 0.810021 37.4392 0.786435 37.3448 0.786435C36.7001 0.786435 36.0554 0.786435 35.4107 0.786435C35.3164 0.786435 35.2142 0.810021 35.167 0.699951H37.5964Z" fill="white"/>
<path d="M33.7051 73.6999C34.0038 73.5505 34.3026 73.5898 34.5935 73.6999H33.7051Z" fill="white"/>
<path d="M38.2412 73.6999C38.2648 73.637 38.2962 73.6292 38.3198 73.6999H38.2412Z" fill="white"/>
<path d="M38.6504 73.7C38.674 73.6213 38.7054 73.6213 38.729 73.7H38.6504Z" fill="white"/>
<path d="M38.8857 73.6999L38.9251 73.6449L38.9644 73.6999H38.8857Z" fill="white"/>
<path d="M36.4022 10.1031C51.5368 10.1738 63.6996 22.2579 63.5816 37.4712C63.4715 52.252 51.5368 64.517 36.0327 64.3597C21.417 64.2103 9.11269 52.2363 9.32497 36.8029C9.52939 22.0771 21.4877 10.1502 36.3943 10.0952L36.4022 10.1031ZM43.0536 50.8368C43.1872 51.3164 43.2029 51.8196 43.2501 52.3149C43.3523 53.4549 43.4152 54.5949 43.5096 55.735C43.6354 57.1973 43.7847 58.6518 43.887 60.1063C43.9105 60.4286 44.0049 60.5073 44.3115 60.5151C45.4987 60.5309 46.6859 60.4444 47.8652 60.5544C48.0303 60.5702 48.219 60.523 48.3684 60.4444C50.4833 59.3201 52.441 57.9757 54.1942 56.3403C56.0418 54.6185 57.6143 52.6766 58.8958 50.4988C59.9021 48.7927 60.7277 47.0001 61.3095 45.1053C62.2293 42.0941 62.646 39.0122 62.4731 35.8595C62.3944 34.4679 62.2215 33.0998 61.9306 31.7476C61.3802 29.2159 60.4761 26.818 59.2103 24.5537C57.1976 20.9607 54.4851 18.0124 51.1044 15.6852C49.0524 14.27 46.8195 13.2086 44.4452 12.4303C42.4482 11.7777 40.404 11.3846 38.3206 11.2588C36.4494 11.1487 34.5782 11.1802 32.7148 11.4711C29.7587 11.9271 26.944 12.7998 24.3102 14.2071C21.5192 15.6931 19.0662 17.6036 16.9748 19.9779C15.0408 22.1793 13.484 24.6009 12.3755 27.3212C11.3062 29.9393 10.6379 32.6517 10.4728 35.4664C10.3156 38.1552 10.4964 40.8205 11.1647 43.4464C11.778 45.868 12.6742 48.1637 13.9322 50.3258C14.8599 51.9297 15.9606 53.4078 17.195 54.7915C18.1856 55.8922 19.247 56.9536 20.4106 57.842C21.6214 58.7619 22.9108 59.5953 24.2866 60.2871C24.436 60.3658 24.5382 60.5073 24.7426 60.4994C26.0792 60.4837 27.4158 60.4837 28.7523 60.4994C29.0118 60.4994 29.0747 60.3815 29.0747 60.1535C29.0747 59.8626 29.0275 59.556 29.1376 59.2729C29.1376 59.4223 29.1533 59.5717 29.1533 59.7132C29.1533 59.9569 29.2791 60.0041 29.4599 59.8783C30.1754 59.3987 30.8672 58.8877 31.5906 58.4238C31.9994 58.1644 32.3375 57.7712 32.762 57.5747C33.3753 57.2917 33.8627 56.8435 34.4288 56.4976C35.1757 56.0337 35.9226 55.562 36.6459 55.0509C37.385 54.532 38.124 54.0289 38.8788 53.5414C39.3033 53.2662 39.6571 52.9046 40.1131 52.6687C40.5377 52.4486 40.9387 52.197 41.316 51.8982C41.8428 51.4737 42.4403 51.1513 43.0378 50.8447L43.0536 50.8368Z" fill="white"/>
<path d="M10.4647 22.4073C11.0387 22.5017 11.5419 22.8083 12.0686 23.0363C12.2337 23.1071 12.1551 23.2722 12.1079 23.3901C11.9821 23.6889 11.8328 23.9798 11.7227 24.2785C11.6205 24.5694 11.4554 24.5537 11.2274 24.4594C10.622 24.1999 10.622 24.2078 10.3625 24.8368C10.0009 25.6937 9.63922 26.5507 9.25398 27.3998C9.10459 27.7379 9.11246 27.9659 9.51343 28.076C9.90653 28.1782 10.0323 28.3904 9.79646 28.7678C9.70212 28.9251 9.64708 29.1138 9.56846 29.2867C9.41122 29.6379 9.15963 29.7375 8.8137 29.5855C8.53066 29.4597 8.23976 29.3418 7.96458 29.2081C7.50858 28.988 7.35134 28.7285 7.46927 28.2725C7.53217 28.0209 7.44568 27.903 7.2963 27.7536C6.50222 26.9124 5.70815 26.0632 4.91407 25.2141C4.69393 24.9861 4.6389 24.711 4.71752 24.4279C5.08704 23.1228 5.46442 22.9734 6.47078 22.997C7.41423 23.0206 8.35769 22.997 9.30115 22.997C9.53701 22.997 9.70212 22.9577 9.83577 22.7454C9.96943 22.541 10.1581 22.368 10.449 22.4152L10.4647 22.4073ZM6.78526 24.4436C6.65161 24.5065 6.45505 24.3729 6.38429 24.5223C6.3214 24.6638 6.49436 24.7817 6.58871 24.8839C7.05258 25.3714 7.53217 25.8352 8.00389 26.3227C8.17686 26.5035 8.25548 26.4406 8.3341 26.2441C8.5228 25.7723 8.71935 25.3006 8.93163 24.8368C9.0417 24.6009 8.9788 24.5301 8.72721 24.5223C8.08252 24.5223 7.43782 24.5616 6.79312 24.4436H6.78526Z" fill="white"/>
<path d="M67.4253 23.1385C67.7555 23.1228 67.9364 23.3272 68.0386 23.5867C68.5182 24.8289 68.982 26.079 69.4616 27.3212C69.556 27.5571 69.4852 27.6593 69.2651 27.7458C68.3766 28.0996 68.3766 28.1074 68.0386 27.2347C67.8027 26.6215 67.5747 26.0004 67.3388 25.3793C67.2445 25.1355 67.1502 24.939 66.8199 25.0805C66.5055 25.2142 66.5684 25.4028 66.6627 25.6387C66.8671 26.1655 67.0637 26.6922 67.2602 27.219C67.6612 28.2961 67.3074 28.9329 66.1045 29.2789C65.7979 29.3654 65.4912 29.4833 65.161 29.4204C64.6028 29.3182 64.3748 28.8858 64.2019 28.4219C63.8402 27.4784 63.4943 26.5271 63.1483 25.5837C62.9518 25.0412 63.0776 24.7346 63.6043 24.5301C64.7758 24.0741 65.9472 23.6417 67.1187 23.2014C67.2131 23.1621 67.331 23.17 67.4332 23.1543L67.4253 23.1385ZM65.963 27.1875C65.8843 26.7394 65.6957 26.3227 65.5463 25.8903C65.4991 25.7566 65.4362 25.5679 65.2475 25.678C65.0588 25.7881 64.6736 25.7488 64.7443 26.0868C64.8387 26.5664 65.0195 27.0382 65.2947 27.4627C65.3969 27.62 65.5541 27.6357 65.7192 27.5571C65.8843 27.4863 65.9866 27.3762 65.9708 27.1875H65.963Z" fill="white"/>
<path d="M11.5496 21.3616C11.2115 21.3774 10.9049 21.2358 10.6061 21.0707C10.0165 20.7405 9.46611 20.3553 8.98652 19.8757C8.2632 19.1445 8.13741 18.4841 8.63272 17.5799C9.04155 16.833 9.53687 16.1412 10.1501 15.5436C10.7948 14.9147 11.4552 14.8046 12.2493 15.2056C12.949 15.5594 13.5859 16.0154 14.1362 16.5815C14.5922 17.0532 14.7966 17.6271 14.5529 18.2482C14.1126 19.3725 13.4286 20.3317 12.4694 21.0707C12.21 21.2673 11.9034 21.3774 11.5496 21.3616ZM11.0464 16.8173C10.6612 16.8488 10.4017 17.2261 10.1816 17.635C9.96929 18.0124 10.04 18.3583 10.3231 18.6728C10.6061 18.9873 10.9442 19.2231 11.3216 19.4118C11.6596 19.5769 11.982 19.6241 12.2886 19.3411C12.6739 18.9794 13.0198 18.5942 12.8626 18.0124C12.7289 17.517 11.7304 16.8252 11.0543 16.8252L11.0464 16.8173Z" fill="white"/>
<path d="M46.4264 6.03052C46.3871 6.52584 46.2692 7.12336 45.9704 7.65799C45.6481 8.23193 45.2235 8.42062 44.5788 8.2791C43.9184 8.13758 43.2658 7.98034 42.6133 7.81523C42.401 7.7602 42.2988 7.7602 42.2516 8.01178C42.1966 8.32627 42.0786 8.63289 42.0079 8.94738C41.9607 9.19897 41.8349 9.24614 41.6069 9.18324C41.2846 9.0889 40.9622 8.97883 40.632 8.93166C40.3254 8.88448 40.2939 8.71938 40.3568 8.48351C40.6871 7.13909 41.0015 5.7868 41.3396 4.44237C41.4654 3.94706 41.8271 3.76623 42.3853 3.88416C43.1479 4.04926 43.9027 4.24582 44.6574 4.43451C44.9326 4.50527 45.1999 4.57603 45.4751 4.65465C46.1512 4.8512 46.4186 5.21286 46.4186 6.03839L46.4264 6.03052ZM44.052 6.78529C44.4216 6.83246 44.5552 6.5966 44.626 6.28998C44.6889 5.99121 44.5631 5.79466 44.28 5.69245C44.1149 5.63742 43.942 5.59811 43.7769 5.55093C43.2003 5.38321 42.836 5.585 42.684 6.15632C42.684 6.15632 42.6683 6.21135 42.6604 6.23494C42.5818 6.43936 42.6998 6.54943 42.8727 6.58874C43.2658 6.66736 43.6589 6.72239 44.052 6.78529Z" fill="white"/>
<path d="M37.7304 8.6958C37.3137 8.83732 37.243 8.48352 37.125 8.23193C36.8263 7.57937 36.9914 7.658 36.2052 7.68158C36.0558 7.68158 35.9143 7.72089 35.7649 7.72875C34.9315 7.79165 34.9158 7.78379 34.7035 8.57787C34.6327 8.82946 34.5305 8.90022 34.2868 8.90022C33.9094 8.90022 33.532 8.93166 33.1547 8.97884C32.8638 9.01028 32.8009 8.91594 32.8952 8.64863C33.3591 7.34351 33.8151 6.03053 34.2711 4.71755C34.3183 4.59176 34.3576 4.46597 34.4047 4.34017C34.7114 3.52251 35.6863 3.13726 36.4803 3.53037C36.9049 3.74265 36.9992 4.20652 37.1879 4.57604C37.526 5.22859 37.8326 5.89688 38.155 6.5573C38.4302 7.12337 38.7132 7.69731 38.9962 8.25552C39.122 8.49925 39.0984 8.62504 38.784 8.6329C38.4302 8.6329 38.0842 8.67221 37.7226 8.6958H37.7304ZM35.7806 5.00059L35.6784 5.02418C35.5605 5.44873 35.4347 5.87329 35.3246 6.29785C35.301 6.37647 35.2303 6.51799 35.3639 6.52585C35.6705 6.54157 35.9772 6.52585 36.2838 6.4944C36.386 6.48654 36.3781 6.37647 36.3467 6.29785C36.1737 5.85757 36.0243 5.40942 35.7806 5.00059Z" fill="white"/>
<path d="M65.2012 18.8929C65.1461 19.3175 64.8474 19.6084 64.6351 19.9543C63.9196 21.1258 63.1806 22.2736 62.4573 23.4451C62.3472 23.6259 62.2843 23.6652 62.1507 23.4766C61.8991 23.1149 61.6318 22.7611 61.3644 22.4073C61.2858 22.3051 61.2544 22.2265 61.3487 22.1243C61.3644 22.1085 61.3802 22.085 61.3959 22.0614C61.8991 21.2594 61.8598 21.283 61.3487 20.4732C60.9792 19.8757 60.5782 19.5927 59.9021 19.9229C59.7527 19.9936 59.619 19.9779 59.5168 19.8285C59.2731 19.4747 59.0294 19.1209 58.7778 18.7671C58.6677 18.6099 58.6677 18.5077 58.8957 18.4684C60.3188 18.2011 61.7182 17.7922 63.1492 17.5721C63.2514 17.5564 63.3536 17.517 63.4558 17.4777C63.9354 17.3126 64.3363 17.4306 64.6587 17.8079C64.9339 18.1303 65.1461 18.4841 65.1933 18.9165L65.2012 18.8929ZM63.3378 18.9244C62.929 19.0344 62.5045 19.1524 62.0799 19.2703C62.0485 19.2782 62.0249 19.3253 62.017 19.3568C62.0013 19.4118 62.5516 20.1902 62.6067 20.2059C62.701 20.2295 62.7639 20.1666 62.8111 20.1037C63.0391 19.7892 63.275 19.4826 63.4951 19.1602C63.5816 19.0266 63.5501 18.9322 63.3457 18.9244H63.3378Z" fill="white"/>
<path d="M58.1716 11.2352C59.0049 11.2352 59.7833 12.2416 59.5396 12.9728C59.06 14.4115 58.5804 15.8582 58.0929 17.2969C57.9278 17.7923 57.92 17.7923 57.5347 17.4463C57.3382 17.2655 57.1495 17.0532 56.9215 16.9274C56.5362 16.7151 56.5913 16.4636 56.7249 16.1333C57.1023 15.2213 57.4482 14.3093 57.8099 13.3895C57.8492 13.2794 57.9593 13.1457 57.8728 13.0514C57.747 12.9256 57.6291 13.0828 57.519 13.1379C56.6149 13.6253 55.7107 14.1049 54.8223 14.6002C54.5864 14.7339 54.4135 14.7339 54.2169 14.5295C53.9653 14.27 53.6901 14.0263 53.3992 13.8062C53.1712 13.6332 53.1948 13.5388 53.4386 13.4209C54.4764 12.9335 55.5063 12.4381 56.5362 11.9428C56.9765 11.7305 57.4089 11.5183 57.8492 11.306C57.9593 11.251 58.0694 11.2116 58.1637 11.2274L58.1716 11.2352Z" fill="white"/>
<path d="M23.1223 11.8957C22.4855 11.8957 22.0609 11.6677 21.7307 11.251C21.1254 10.4883 20.7165 9.6235 20.6064 8.6486C20.5278 7.97245 20.8502 7.44569 21.4084 7.07617C22.1946 6.56513 23.083 6.27423 23.9164 5.85753C24.0815 5.77891 24.168 5.83395 24.2309 5.98333C24.2309 5.99905 24.2388 6.00692 24.2466 6.02264C24.5716 6.64637 24.417 7.10762 23.7828 7.40638C23.4997 7.54003 23.2245 7.67369 22.9494 7.82307C22.8472 7.87811 22.745 7.95673 22.6585 8.04321C22.344 8.34983 22.3597 8.84515 22.7135 9.50557C23.0673 10.1817 23.311 10.339 23.8142 10.2289C24.396 10.0952 24.9228 9.81219 25.4495 9.55274C25.7326 9.41909 25.9134 9.38764 25.9999 9.7493C26.0156 9.83578 26.0706 9.92226 26.1178 10.0087C26.4009 10.6141 26.4087 10.622 25.7797 10.8972C25.025 11.2195 24.3174 11.6519 23.5076 11.8406C23.3503 11.8799 23.1931 11.8957 23.1223 11.9035V11.8957Z" fill="white"/>
<path d="M29.3018 9.74148C29.0974 9.77292 29.1052 9.59209 29.0738 9.45844C28.8301 8.41277 28.5706 7.36711 28.3583 6.31358C28.2876 5.96765 28.1696 5.86544 27.8316 5.97551C27.4463 6.09344 27.0454 6.1642 26.6522 6.26641C26.4714 6.31358 26.3692 6.26641 26.3299 6.07772C26.2827 5.82613 26.2434 5.56668 26.1648 5.33081C26.0704 5.0635 26.1648 4.97702 26.4164 4.92198C27.7294 4.63108 29.0423 4.32446 30.3553 4.0257C30.6462 3.9628 30.9371 3.8999 31.2202 3.82128C31.4324 3.75838 31.5268 3.837 31.5582 4.03356C31.5582 4.04928 31.5582 4.05715 31.5661 4.07287C31.7391 4.70708 31.5058 5.10543 30.8664 5.26792C29.9622 5.49592 29.9543 5.50378 30.143 6.40793C30.3239 7.2649 30.5283 8.11401 30.7406 8.96312C30.8192 9.28547 30.7641 9.43485 30.4182 9.48989C30.0487 9.54492 29.687 9.65499 29.2939 9.74934L29.3018 9.74148Z" fill="white"/>
<path d="M54.2409 8.08256C53.8321 8.38918 53.3918 8.49925 53.0065 8.69581C52.5977 8.90808 52.181 9.09678 51.7565 9.26974C51.3791 9.42699 51.3005 9.67858 51.4105 10.0481C51.67 10.9129 51.9216 11.7778 52.1653 12.6426C52.1889 12.7212 52.2832 12.8234 52.1889 12.9021C52.1024 12.9807 52.008 12.9021 51.9294 12.8627C51.4813 12.6505 51.0331 12.4303 50.5771 12.218C50.412 12.1394 50.357 11.99 50.3177 11.8328C50.1447 11.0859 49.9717 10.339 49.8066 9.59209C49.7123 9.16754 49.9089 8.66436 50.2862 8.44422C50.9388 8.06684 51.5992 7.70518 52.2596 7.33566C52.4169 7.24917 52.5584 7.24917 52.7156 7.32779C53.1952 7.57152 53.6827 7.79952 54.233 8.0747L54.2409 8.08256Z" fill="white"/>
<path d="M21.0553 12.7369C20.6543 13.2008 20.1354 13.5467 19.6716 13.9477C19.5694 14.0342 19.4357 14.0027 19.3178 13.9791C18.563 13.8376 17.8082 13.6961 17.0613 13.531C16.4953 13.4052 16.165 12.9964 16.1179 12.4146C16.0707 11.8092 16.0314 11.2038 15.9606 10.6063C15.9213 10.2682 15.9999 10.0087 16.283 9.80432C16.5739 9.59204 16.8412 9.34046 17.1242 9.11245C17.2186 9.03383 17.3051 8.84514 17.4466 8.93162C17.5645 9.00238 17.4938 9.18321 17.5016 9.30901C17.5016 10.0245 17.5016 10.7399 17.5016 11.4554C17.5016 12.045 17.6274 12.1944 18.2092 12.273C19.074 12.391 19.9467 12.501 20.8116 12.619C20.8902 12.6268 20.9767 12.6426 21.0474 12.7448L21.0553 12.7369Z" fill="white"/>
<path d="M17.9728 15.3471C17.9414 15.3943 17.9256 15.4257 17.8942 15.4493C17.5483 15.7481 17.1945 16.039 16.8485 16.3377C16.6598 16.495 16.5576 16.3456 16.4554 16.2277C15.7793 15.4257 15.1031 14.6316 14.4191 13.8297C14.0968 13.4523 13.7823 13.0671 13.4442 12.6976C13.2791 12.5089 13.2634 12.3752 13.4757 12.2022C13.7508 11.99 14.0103 11.7462 14.2697 11.5182C14.4742 11.3374 14.6235 11.3767 14.7965 11.589C15.7871 12.7762 16.7935 13.9555 17.792 15.1348C17.8549 15.2056 17.9099 15.2763 17.9728 15.3471Z" fill="white"/>
<path d="M48.3915 11.2038C47.9827 10.9915 47.5424 10.7871 47.1178 10.5434C46.9763 10.4648 47.0943 10.2997 47.1493 10.1739C47.5188 9.37979 47.8883 8.58571 48.2657 7.79164C48.5488 7.19411 48.8397 6.60445 49.1148 5.99907C49.217 5.7632 49.3271 5.69245 49.5708 5.83396C49.846 5.99907 50.1448 6.14059 50.4435 6.26638C50.7187 6.38431 50.7659 6.52583 50.6322 6.79315C50.1605 7.76019 49.7045 8.74296 49.2406 9.71786C49.0362 10.1424 48.8397 10.5748 48.6352 10.9994C48.5881 11.0937 48.5566 11.2038 48.3915 11.2038Z" fill="white"/>
<path d="M67.0405 49.7125C66.9933 50.0899 66.781 50.5695 66.5373 50.8604C66.5687 50.2943 66.097 50.2943 65.7747 50.145C65.6017 50.0663 65.6096 50.2157 65.6646 50.3179C65.8061 50.5774 65.9241 50.8604 66.1049 51.0884C66.4194 51.4815 66.2464 51.796 66.0105 52.1734C65.8218 51.6152 65.5231 51.1749 65.2951 50.6953C65.185 50.4673 65.0514 50.4201 64.8155 50.5145C64.4381 50.6639 64.0529 50.7661 63.7227 51.0491C63.7934 50.7818 63.7541 50.4752 64.1865 50.428C64.5246 50.3887 64.8548 50.2393 65.1929 50.1292C65.2636 50.1056 65.3658 50.0742 65.3423 49.972C65.3344 49.9248 65.2479 49.8776 65.1929 49.8619C64.8862 49.7597 64.5796 49.4531 64.2258 49.8305C64.3516 49.4374 64.4538 49.0678 64.729 48.6747C64.729 49.3509 65.2951 49.2015 65.6489 49.5238C65.5781 49.0128 65.3973 48.6669 65.1693 48.3603C64.902 47.9986 65.0199 47.7391 65.2794 47.4482C65.2243 47.92 65.4995 48.2816 65.6332 48.6905C65.6961 48.8792 65.8218 48.9421 66.0105 48.887C66.5452 48.7298 67.1191 48.6905 67.6066 48.3524C67.5672 48.9421 67.4179 49.115 66.8754 49.2172C66.6002 49.2723 66.325 49.3352 66.0498 49.3981C65.987 49.4138 65.9083 49.4374 65.9162 49.516C65.9162 49.5553 65.9712 49.6182 66.0105 49.6261C66.3407 49.744 66.6474 50.0821 67.0405 49.6968V49.7125Z" fill="white"/>
<path d="M6.57317 42.7152C6.94269 43.352 6.90338 43.6194 6.38447 44.0282C6.02282 44.3191 5.6533 44.6021 5.2366 44.9402C5.8184 45.066 6.30585 45.2075 6.80903 45.2783C7.17855 45.3254 7.35938 45.4748 7.3751 45.8443C7.3751 45.9859 7.49304 46.1195 7.42228 46.2768C6.90338 45.9387 5.15012 46.3397 4.92998 46.8821C4.70984 46.489 4.67839 46.0959 4.60763 45.6557C4.96143 45.9387 5.63757 45.8837 6.58889 45.5141C5.92061 45.3648 5.32309 45.2311 4.7177 45.0896C4.60763 45.066 4.43466 45.0817 4.40321 44.9559C4.3639 44.7987 4.53687 44.7436 4.63908 44.665C5.10295 44.2876 5.57467 43.9103 6.02282 43.4936C5.44888 43.7294 4.70984 43.5093 4.26956 44.1697C4.18307 43.8945 4.04942 43.6194 4.08087 43.2577C4.49756 43.6823 6.36089 43.2656 6.57317 42.7152Z" fill="white"/>
<path d="M54.4214 63.3613C54.6022 63.8094 55.0032 64.0925 55.2626 64.4856C55.3806 64.6664 55.5378 64.4541 55.7344 64.5406C55.5221 64.7922 55.2862 64.9573 54.9875 65.0988C55.1919 64.8315 55.0504 64.6428 54.901 64.4541C54.5944 64.061 54.2799 63.6758 53.989 63.2748C53.8396 63.0704 53.6666 63.0389 53.415 63.149C53.5723 62.8424 53.8317 62.7166 54.044 62.5436C54.1384 62.465 54.2406 62.5357 54.3428 62.5829C54.8538 62.8424 55.3727 63.094 55.9388 63.3691C55.9388 62.8502 55.7894 62.41 55.6793 61.9697C55.4985 61.2935 55.5535 61.1599 56.324 60.8375C56.1275 61.0891 56.1904 61.2621 56.3555 61.4508C56.67 61.8046 56.9451 62.182 57.236 62.5593C57.3854 62.7559 57.5191 62.9682 57.8571 62.7559V62.8817L56.9451 63.6365C57.0631 62.8267 56.3633 62.5593 56.0331 62.0483C56.0174 62.5908 56.2061 63.0782 56.2926 63.5893C56.324 63.7544 56.4813 63.9588 56.3476 64.0846C56.1746 64.2497 56.0095 64.006 55.8523 63.9431C55.3806 63.7544 54.9639 63.4478 54.4686 63.3141C54.4371 63.2748 54.3821 63.2198 54.3506 63.2748C54.3113 63.3377 54.3899 63.3455 54.4293 63.3613H54.4214ZM55.9545 61.8989L55.9388 61.9225H55.9624V61.8989H55.9545Z" fill="white"/>
<path d="M25.9453 69.1477L24.766 68.6367C25.5286 68.3458 25.4657 67.6146 25.7488 67.0879C25.2377 67.3788 24.8368 67.7876 24.4043 68.165C24.31 68.2436 24.2314 68.4166 24.0741 68.3458C23.9169 68.275 23.9955 68.1099 23.9877 67.9842C23.9877 67.4024 23.9876 66.8127 23.8933 66.223C23.6968 66.8048 23.0914 67.253 23.3744 67.9999C23.0835 67.9527 22.8319 67.7955 22.541 67.6225C23.0756 67.6068 23.1307 67.1743 23.2565 66.8441C23.4294 66.3881 23.7832 65.995 23.7046 65.4604C23.6968 65.3975 23.7596 65.3739 23.8147 65.3661C24.1056 65.3032 24.4672 65.6098 24.483 65.9243C24.5066 66.4746 24.5301 67.0171 24.5616 67.6225C25.0805 67.2923 25.4736 66.8913 25.8981 66.5297C26.0947 66.3646 26.7787 66.4432 26.9045 66.6554C26.9674 66.7577 26.9045 66.8127 26.8023 66.797C26.5822 66.7577 26.5193 66.907 26.4485 67.0564C26.2362 67.536 26.0554 68.0313 25.8195 68.4952C25.6937 68.7389 25.8903 68.8804 25.9453 69.1399V69.1477Z" fill="white"/>
<path d="M66.1439 46.7485C66.6235 46.8664 67.1031 46.9844 67.5827 47.0945C67.7321 47.1259 67.7399 47.1102 68.0151 46.8114C68.0387 47.1731 67.8972 47.4482 67.8264 47.802C67.5827 47.2124 65.7115 46.7407 65.3656 47.118C65.2319 46.5913 65.452 46.2218 65.9474 46.1195C66.3719 46.0331 66.7886 45.9387 67.2132 45.8444C67.2839 45.8286 67.394 45.8444 67.4097 45.7422C67.4254 45.6478 67.339 45.6006 67.2761 45.5535C67.0088 45.3333 66.7336 45.1053 66.4584 44.8931C65.853 44.4213 65.8373 44.3506 66.1596 43.6194C66.482 44.1304 68.1095 44.5235 68.7148 44.1933C68.589 44.61 68.5655 44.9953 68.3689 45.4041C68.2117 44.9795 67.3547 44.6572 66.6628 44.7201C67.0402 45.1132 67.4569 45.4041 67.85 45.7186C67.9208 45.7815 67.9994 45.8286 68.0623 45.8994C68.1252 45.9702 68.2824 46.0016 68.2352 46.1353C68.1959 46.2453 68.0623 46.2532 67.9601 46.2768C67.3547 46.4026 66.7493 46.5205 66.1439 46.6384V46.7407V46.7485Z" fill="white"/>
<path d="M69.2344 39.2952V40.7183C69.0142 40.1915 68.6526 40.2937 68.3224 40.2937C67.9607 40.2937 67.5912 40.2937 67.2295 40.2937C67.0015 40.2937 66.7185 40.2151 66.6792 40.6318C66.577 40.1915 66.6084 39.7984 66.6399 39.3738C66.8364 39.7827 67.1824 39.6883 67.4969 39.6883C67.5755 39.6883 67.662 39.6883 67.717 39.6176C67.7878 39.5232 67.7484 38.6033 67.6698 38.5562C67.4575 38.4147 66.8522 38.5798 66.6477 38.8864V37.6442C66.7893 37.9193 67.033 37.9193 67.2924 37.9508C67.7799 37.998 68.2595 37.9665 68.7469 37.9822C68.8649 37.9822 68.9985 38.0058 69.0614 37.8564C69.0929 37.7778 69.0929 37.6363 69.2344 37.6992C69.3287 37.7385 69.2816 37.8407 69.2816 37.9193C69.2816 38.226 69.2816 38.5326 69.2423 38.8707C68.9907 38.4461 68.5976 38.5483 68.2438 38.5483C68.1809 38.5483 68.1022 38.5719 68.0629 38.6112C67.9764 38.6977 68.0236 39.6097 68.1101 39.6726C68.3224 39.822 69.0064 39.6569 69.2423 39.3109L69.2344 39.2952Z" fill="white"/>
<path d="M18.2877 62.0247C17.6037 61.9461 17.4779 62.5357 17.2106 62.8738C16.9512 63.1961 16.4244 63.4399 16.6996 64.116C16.275 63.8566 15.9684 63.5971 15.6696 63.2669C16.2357 63.4084 16.3379 62.9052 16.6052 62.6615C16.6445 62.6301 16.6838 62.5672 16.6367 62.52C16.3929 62.2841 16.1492 62.0561 15.8505 61.891C15.7561 61.836 15.7011 61.9461 15.6696 62.009C15.5124 62.2841 15.0721 62.4414 15.3316 62.8816C15.3709 62.9524 15.2529 63.0074 15.1664 62.9445C14.8834 62.7087 14.6004 62.4728 14.3252 62.1898C14.734 62.2999 14.8913 62.0247 15.0721 61.7967C15.3316 61.4743 15.5989 61.1441 15.8583 60.8218C15.9684 60.6803 16.1571 60.5466 15.9291 60.35C15.8819 60.3107 15.8898 60.2478 15.9448 60.2164C15.9684 60.2007 16.0313 60.2007 16.0549 60.2164C16.33 60.4837 16.6838 60.6567 16.9826 61.0734C16.4323 60.8375 16.3143 61.2621 16.0785 61.4743C16.0706 61.4822 16.0549 61.4979 16.0549 61.5058C16.0391 61.9225 16.4558 61.9539 16.6524 62.1819C16.7625 62.3156 16.9197 62.3234 17.014 62.1505C17.1398 61.9225 17.4936 61.781 17.2814 61.4272C17.2656 61.4036 17.2814 61.3485 17.2971 61.3249C17.3364 61.2778 17.3914 61.2935 17.4386 61.3249C17.7216 61.5608 17.9968 61.7967 18.2799 62.0325L18.2877 62.0247Z" fill="white"/>
<path d="M11.0225 54.6578C10.8809 54.6107 10.7552 54.6028 10.6136 54.6893C10.2205 54.9173 9.8117 55.1296 9.41073 55.3497C9.15128 55.4912 8.88396 55.617 8.94686 56.0101C8.6481 55.6878 8.49872 55.3104 8.27858 54.9487C9.1041 55.1846 9.53652 54.4849 10.1576 54.2018C9.59156 54.1704 9.02548 54.1389 8.45941 54.1075C8.32575 54.1075 8.19209 54.0918 8.05844 54.076C7.84616 54.0524 7.63388 53.9817 7.59457 53.7537C7.56312 53.5493 7.80685 53.5493 7.93264 53.4785C8.41223 53.2033 8.89182 52.936 9.37928 52.6766C9.59156 52.5665 9.74094 52.4486 9.64659 52.1577L9.76452 52.1262L10.3542 53.164L10.307 53.2584C10.024 52.9282 9.77238 53.1168 9.52866 53.2584C9.2299 53.4313 8.89969 53.5571 8.57734 53.848C9.2299 53.9581 9.82742 53.9188 10.4249 53.9424C10.8652 53.9581 11.0775 54.2018 11.0303 54.6578H11.0225Z" fill="white"/>
<path d="M12.9565 59.6896C13.4518 59.5716 13.955 59.4694 14.4424 59.3436C15.0793 59.1785 15.2365 59.2414 15.6139 59.894C14.9849 59.6817 14.7648 60.2242 14.4582 60.5308C14.1673 60.8296 13.5855 61.0104 13.727 61.6944C13.4675 61.4271 13.2002 61.1598 12.9408 60.8925C12.9015 60.8532 12.8857 60.7981 12.9408 60.7509C12.9879 60.7116 13.043 60.7274 13.0823 60.7667C13.2002 60.9003 13.2946 60.8296 13.3889 60.7352C13.7427 60.3736 14.0965 60.004 14.466 59.6188C14.1358 59.5952 13.8449 59.7603 13.5462 59.8075C13.1373 59.8704 12.7206 59.949 12.3197 60.0355C12.1152 60.0748 11.9423 59.9962 11.8715 59.8468C11.8008 59.7131 11.9973 59.6345 12.0838 59.548C12.4376 59.1942 12.7914 58.8483 13.1452 58.4945C13.3653 58.2744 13.6641 58.0935 13.4597 57.7397L14.3638 58.5731C13.5462 58.5338 13.3575 59.2493 12.87 59.5795L12.9408 59.6817L12.9565 59.6896Z" fill="white"/>
<path d="M44.0202 69.8161C44.3189 69.6274 44.2796 69.3837 44.201 69.1242C44.0752 68.7154 44.0673 68.2751 43.8551 67.8034C43.6507 68.3852 43.4934 68.9041 43.289 69.4073C43.1632 69.7218 43.1239 70.2171 42.7229 70.1856C42.4635 70.162 42.5185 69.6667 42.4477 69.3837C42.3455 68.9513 42.2197 68.5189 42.1411 68.0864C42.0939 67.8348 41.8895 67.8506 41.5986 67.772C42.0939 67.5361 42.4949 67.5125 42.9195 67.4024C42.4163 68.0943 42.9981 68.6604 43.0217 69.2736C43.3047 68.8176 43.4384 68.3144 43.5878 67.8191C43.7843 67.1587 43.9022 67.0644 44.7042 67.0408C44.2403 67.3159 44.4369 67.654 44.5155 67.9764C44.5941 68.3144 44.657 68.6604 44.7514 68.9984C44.8142 69.2265 44.8221 69.5252 45.2152 69.5252C44.8142 69.6903 44.4369 69.8004 44.0123 69.8004L44.0202 69.8161Z" fill="white"/>
<path d="M11.3296 54.933C11.6126 55.0824 12.0136 55.5698 12.1944 55.9708C11.8091 55.7192 11.589 55.9551 11.3453 56.1516C11.0151 56.4268 10.6849 56.702 10.3389 56.9614C10.1738 57.0872 10.1502 57.1973 10.2839 57.3624C10.9443 58.1565 10.6927 58.1172 11.4396 57.5432C11.7069 57.3388 11.9664 57.1265 12.2258 56.9142C12.4067 56.7649 12.6347 56.6391 12.4145 56.3089C12.7605 56.4897 12.9098 56.7649 13.0985 57.0086C13.1536 57.0793 13.1378 57.1422 13.0278 57.1816C12.3202 57.4253 11.8563 58.0071 11.2902 58.4474C11.2195 58.5024 11.1723 58.5653 11.2431 58.6439C11.5025 58.9112 11.2745 58.9977 11.078 59.0999C10.9286 59.1785 10.7792 59.2572 10.622 59.3358C10.4883 59.1628 10.6455 59.0763 10.7399 59.0056C11.0544 58.7933 10.9443 58.5732 10.7713 58.3609C10.3625 57.842 9.94582 57.3309 9.53699 56.812C9.47409 56.7334 9.37188 56.6705 9.40333 56.4975C9.70995 56.7177 9.91437 56.5369 10.1345 56.356C10.4333 56.1044 10.7399 55.8607 11.0544 55.6327C11.2902 55.4597 11.5104 55.3025 11.3138 54.933H11.3296Z" fill="white"/>
<path d="M44.8926 66.97L46.1584 66.4589C45.9697 66.8285 46.0405 67.4732 46.237 67.599C46.3314 67.6618 47.2198 67.3395 47.2748 67.2216C47.3534 67.0643 46.9996 66.4825 46.6851 66.2781C47.0547 66.1523 47.3534 65.9007 47.778 65.885C47.4321 66.341 48.1318 68.1493 48.7686 68.2515C48.3283 68.4952 47.951 68.6289 47.4871 68.7704C47.7151 68.4323 47.7072 67.8427 47.4556 67.6147C47.1726 67.3631 46.921 67.709 46.6537 67.7641C46.5515 67.7798 46.2842 67.8191 46.3864 68.0235C46.5515 68.338 46.4965 68.8412 47.149 68.8726C46.7166 69.1557 46.3235 69.2421 45.9461 69.3601C46.2449 68.8883 45.553 67.1115 44.9004 66.97H44.8926Z" fill="white"/>
<path d="M62.26 58.2273L61.5838 59.0685C61.576 58.6754 61.0649 58.0386 60.8291 58.0622C60.7033 58.0779 60.1215 58.8169 60.1529 58.927C60.2158 59.1707 60.8919 59.4931 61.3165 59.3751L60.5303 60.3815C60.6089 59.9963 60.3416 59.839 60.1215 59.6582C59.7834 59.3909 59.4453 59.1236 59.1151 58.8484C58.9343 58.699 58.7692 58.5653 58.5176 58.7698C58.6748 58.3766 58.9579 58.1172 59.2566 57.7555C59.2566 58.0307 59.2016 58.243 59.4296 58.3688C59.6026 58.4631 59.6969 58.6833 59.917 58.699C60.035 58.7069 60.6089 57.9206 60.5775 57.8263C60.5067 57.5826 59.9092 57.3153 59.6104 57.4096C59.5947 57.1973 59.7912 57.1266 59.8777 56.985C59.9642 56.8514 60.0664 56.7256 60.1529 56.6077C60.7583 57.2602 61.3951 57.8499 62.2678 58.2273H62.26Z" fill="white"/>
<path d="M9.46596 51.6702C9.24582 51.3085 9.00209 51.4422 8.75836 51.5523C8.38098 51.7252 8.0036 51.9061 7.62621 52.0712C7.39035 52.1734 7.18593 52.2363 7.26455 52.6136C7.31959 52.8731 6.9029 52.7866 6.73779 52.9124C6.67489 52.9596 6.5491 53.0068 6.47834 52.9124C6.39972 52.7945 6.51765 52.7394 6.59627 52.708C6.98152 52.5586 6.95793 52.2992 6.81641 51.9925C6.66703 51.6781 6.52551 51.3557 6.38399 51.0334C6.22675 50.6874 6.04592 50.3808 5.57419 50.5223C5.5113 50.5459 5.40123 50.5616 5.36978 50.4516C5.33833 50.3415 5.4484 50.3258 5.51916 50.3022C5.81006 50.2 6.07737 50.0427 6.42331 50.2393C6.67489 50.3808 6.97366 50.2236 7.24883 50.1528C7.49256 50.0899 7.72842 49.9798 7.97215 49.9012C8.23946 49.8147 8.51464 49.7361 8.44388 49.3273H8.54608L9.5603 51.5444L9.47382 51.6623L9.46596 51.6702ZM7.05228 51.6702C7.05228 51.6702 7.10731 51.6702 7.1309 51.6545C7.68125 51.4107 8.2316 51.1592 8.78195 50.9076C8.89988 50.8525 8.93133 50.766 8.87629 50.6403C8.82126 50.5302 8.76622 50.428 8.72691 50.31C8.63257 50.0113 8.47533 49.9484 8.19229 50.082C7.88566 50.2236 7.55545 50.2943 7.24883 50.428C7.0051 50.5302 6.59627 50.3808 6.52551 50.6638C6.47834 50.8918 6.70634 51.1749 6.81641 51.4343C6.84 51.4815 6.86359 51.5287 6.88717 51.5758C6.91862 51.6387 6.97366 51.6702 7.05228 51.6702Z" fill="white"/>
<path d="M62.2529 53.7065L63.3851 51.5916H63.4873C63.3694 51.9611 63.5974 52.0633 63.8489 52.1812C64.2971 52.3935 64.7295 52.6372 65.1776 52.8652C65.2641 52.9124 65.3585 52.9989 65.4685 52.8888C65.5472 52.8102 65.5943 52.6136 65.7201 52.6687C65.9245 52.7551 66.1054 52.9045 66.2941 53.0382C66.3412 53.0696 66.357 53.1247 66.3255 53.1797C66.2783 53.2505 66.2154 53.2426 66.1526 53.2033C65.7201 52.9124 65.5236 53.1797 65.3506 53.5256C65.1934 53.848 65.0125 54.1625 64.8474 54.4927C64.7059 54.7757 64.5958 55.0666 64.9732 55.2789C65.0361 55.3182 65.1698 55.389 65.099 55.499C65.0047 55.6248 64.9103 55.5069 64.8238 55.4597C64.5801 55.3025 64.36 55.1688 64.2892 54.8229C64.2263 54.5084 63.8804 54.3433 63.6209 54.1546C63.4794 54.0524 63.3222 53.9738 63.1728 53.8794C62.9055 53.7065 62.6539 53.4313 62.2608 53.6986L62.2529 53.7065ZM63.22 52.4878C63.0156 52.5743 63.0156 52.7945 62.9055 52.936C62.7168 53.1954 62.7404 53.3763 63.0549 53.5414C63.3536 53.6907 63.6052 53.9345 63.904 54.0839C64.1556 54.2018 64.2342 54.6814 64.533 54.5241C64.7531 54.4062 64.8317 54.0288 64.9732 53.7772C65.099 53.5649 65.0361 53.4313 64.8317 53.3291C64.3364 53.0775 63.8489 52.818 63.3615 52.5665C63.3143 52.5429 63.2671 52.5114 63.22 52.4878Z" fill="white"/>
<path d="M32.8008 70.5786C33.3983 70.2327 33.5398 68.3615 33.0445 67.9841C33.5084 67.9134 33.9015 68.0234 34.3811 68.0628C34.1688 68.22 33.9251 68.2514 33.9487 68.503C33.9722 68.7153 33.815 69.0219 33.9801 69.1084C34.1688 69.2185 34.326 68.9197 34.4833 68.7939C34.6956 68.6288 34.8842 68.4323 35.0651 68.2357C35.2774 67.9999 35.5132 68.165 35.7412 68.1571C35.7569 68.1571 35.7963 68.2121 35.7963 68.2436C35.7963 68.3143 35.7334 68.3222 35.6783 68.3301C35.2459 68.4087 34.9865 68.7703 34.6405 68.9983C34.4518 69.1241 34.5383 69.2342 34.6405 69.3679C34.9707 69.8396 35.2931 70.3113 35.7019 70.728C35.1673 70.8774 34.9943 70.8145 34.6798 70.4135C34.444 70.1069 34.271 69.7531 33.9251 69.5094C33.9722 69.8553 33.6184 70.2327 34.0744 70.5393C34.1609 70.6022 34.0902 70.6966 33.988 70.6887C33.6342 70.6651 33.2804 70.6258 32.8086 70.5865L32.8008 70.5786Z" fill="white"/>
<path d="M63.149 55.4677C63.0153 55.617 62.8974 55.4519 62.7873 55.4991C62.6065 55.5856 62.5043 55.7586 62.4335 55.9237C62.3627 56.0809 62.5436 56.1517 62.6458 56.2067C62.8502 56.3168 62.9917 56.6548 63.2905 56.4661C63.5735 56.2853 63.66 55.8293 63.5263 55.507C63.5263 55.4912 63.5421 55.4598 63.5499 55.4362C64.0767 55.7035 64.1081 55.79 63.8015 56.2067C63.5263 56.5841 63.2354 56.9536 62.9288 57.3546C62.7952 56.8357 62.3156 56.6784 61.9461 56.4268C61.608 56.191 61.3407 55.6957 60.7746 55.9551C60.7667 55.6721 61.0183 55.5463 61.1284 55.3497C61.2778 55.0903 61.4586 54.8544 61.6316 54.6185C61.9539 54.194 61.9854 54.2019 62.3313 54.705C62.119 54.6972 61.9225 54.6028 61.7574 54.823C61.4193 55.2711 61.5372 55.6485 62.0797 55.8293C62.2212 55.8765 62.2527 55.7664 62.292 55.7035C62.3863 55.5541 62.6065 55.4519 62.4807 55.2239C62.4492 55.1689 62.3785 55.1374 62.4335 55.0274C62.7165 55.0981 62.9131 55.3026 63.1332 55.4677H63.149Z" fill="white"/>
<path d="M68.8408 43.2735C68.2432 42.8961 66.5686 42.7546 66.262 43.1084C66.1834 42.6996 66.3249 42.3615 66.3327 42.0156C66.3327 41.8583 66.3878 41.7011 66.4192 41.536C66.4821 41.1638 66.6996 41.0538 67.0718 41.2058C66.9303 41.3394 66.7023 41.3001 66.6394 41.5596C66.5057 42.1414 66.7573 42.448 67.347 42.3379C67.4806 42.3143 67.5199 42.22 67.5199 42.1021C67.5199 41.9448 67.6772 41.764 67.457 41.6303C67.402 41.5989 67.3234 41.5989 67.2919 41.4809C67.5828 41.4259 67.8501 41.4416 68.1096 41.5596C68.1017 41.6775 68.0231 41.6696 67.9602 41.6932C67.7008 41.7954 67.7165 42.0313 67.7322 42.2436C67.7479 42.4873 67.9681 42.448 68.1096 42.4323C68.314 42.4087 68.5892 42.6996 68.7307 42.3301C68.8879 41.9291 68.8172 41.6303 68.4948 41.3866C68.9273 41.2215 69.1317 41.363 69.0688 41.7954C68.998 42.2829 68.9115 42.7782 68.825 43.2735H68.8408Z" fill="white"/>
<path d="M7.63415 48.7141C7.88574 48.4389 7.90146 47.8885 7.64987 47.7313C7.42187 47.5898 7.19387 47.7942 6.97373 47.8414C6.8558 47.865 6.76145 47.9514 6.83221 48.0772C6.91869 48.2502 6.86366 48.5411 7.19387 48.5254C7.24104 48.5254 7.28035 48.5647 7.35897 48.5961C7.15456 48.8163 6.88725 48.8241 6.65924 48.9185C6.60421 48.9421 6.54917 48.9185 6.52559 48.8635C6.49414 48.8006 6.54131 48.7612 6.58848 48.7377C6.90297 48.549 6.66711 48.321 6.59635 48.1401C6.51773 47.92 6.28972 48.0615 6.17965 48.1244C5.99882 48.2345 5.63717 48.1401 5.66861 48.5175C5.70006 48.9264 5.93593 49.1701 6.3369 49.2487C5.9831 49.5868 5.74724 49.5475 5.58999 49.1072C5.42489 48.6512 5.27551 48.1952 5.10254 47.7077C5.61358 47.8099 6.03027 47.5819 6.43124 47.409C6.80862 47.2517 7.38256 47.3303 7.49263 46.7092C7.69705 46.7878 7.67346 46.9923 7.73636 47.1416C7.87788 47.4876 7.99581 47.8492 8.11374 48.203C8.27884 48.6905 8.23167 48.7455 7.63415 48.6983V48.7141Z" fill="white"/>
<path d="M31.338 68.9984C31.8648 68.967 32.0378 68.8412 32.0692 68.4638C32.0928 68.1886 31.9513 68.0471 31.684 67.9921C31.3852 67.9292 31.4324 68.1651 31.4009 68.3144C31.2908 68.8019 31.1965 69.2893 31.0864 69.7768C31.0393 69.9734 30.9842 70.1542 31.2515 70.2249C31.3066 70.2407 31.3459 70.2878 31.3144 70.3507C31.283 70.4058 31.2358 70.4136 31.1729 70.3979C30.8191 70.2878 30.426 70.3114 30.0801 70.107C30.6068 69.7768 30.9842 68.0628 30.5911 67.5439C31.2437 67.6933 31.8648 67.7012 32.4151 67.9921C32.7375 68.1651 32.7375 68.6289 32.4623 68.9513C32.1714 69.2893 31.6997 69.3365 31.338 69.0142V68.9984Z" fill="white"/>
<path d="M38.359 70.0677C38.5791 70.5787 38.4926 70.7517 37.9973 70.7674C37.5177 70.7753 37.0303 70.7674 36.5349 70.7674C36.7551 70.39 36.6371 69.934 36.6136 69.4938C36.59 69.0771 36.7472 68.5817 36.2598 68.2594C36.2755 68.1415 36.3934 68.1808 36.4799 68.1729C36.8966 68.1336 37.3133 68.1021 37.73 68.055C38.2803 67.9921 38.3354 68.055 38.1939 68.684C38.0052 68.1493 37.6121 68.3695 37.2818 68.3537C37.1639 68.3537 37.1167 68.4324 37.1246 68.5424C37.1246 68.6211 37.1325 68.7075 37.156 68.7862C37.2032 68.9591 37.046 69.2343 37.3683 69.2657C37.6199 69.2893 37.8951 69.3129 37.9659 68.8805C38.1624 69.2107 38.0523 69.4859 38.0995 69.7532C37.8479 69.7925 37.958 69.5252 37.7772 69.4859C37.3683 69.3915 37.1718 69.5409 37.2268 69.9655C37.2976 70.5237 37.557 70.6573 38.0995 70.4765C38.3196 70.4058 38.1467 70.1227 38.359 70.0755V70.0677Z" fill="white"/>
<path d="M27.5957 69.4937C27.179 69.5172 26.9117 69.4072 26.5186 69.2735C27.1868 69.0612 27.3519 68.5187 27.69 68.1414C27.9337 67.8583 28.1382 67.536 28.3583 67.2294C28.4291 67.1272 28.4998 67.0328 28.6492 67.0643C28.7986 67.0957 28.8222 67.2058 28.8457 67.3316C28.948 68.0077 29.058 68.6839 29.1602 69.3679C29.176 69.4858 29.1838 69.6037 29.2467 69.7138C29.3018 69.8003 29.5062 69.8081 29.4197 69.9418C29.3332 70.0912 29.176 69.9575 29.0502 69.9418C28.8772 69.9103 28.7121 69.8553 28.5391 69.816C28.4369 69.7924 28.2875 69.816 28.2561 69.7059C28.2089 69.5251 28.3976 69.6116 28.4684 69.5487C28.602 69.4308 28.5313 69.0377 28.3583 68.959C28.2089 68.8961 28.0438 68.8804 27.8944 68.8332C27.6822 68.7625 27.5328 68.7625 27.3834 68.9826C27.2261 69.2185 27.407 69.305 27.5957 69.4937ZM28.3033 67.7011L27.7136 68.5109C27.8473 68.5581 27.9259 68.5816 27.9966 68.6052C28.4369 68.731 28.4684 68.6996 28.3976 68.2672C28.374 68.1099 28.3426 67.9527 28.3033 67.709V67.7011Z" fill="white"/>
<path d="M19.5455 66.1523L18.4605 65.4761C18.7828 65.4211 19.0187 65.3661 18.9794 65.0437C18.9401 64.6506 18.5548 64.6427 18.3347 64.454C18.1696 64.3125 18.0438 64.4855 17.918 64.5798C17.8237 64.6506 17.7686 64.7449 17.863 64.8472C17.918 64.9101 17.9809 64.9729 17.8944 65.0437C17.8315 65.0909 17.7686 65.0358 17.7136 64.9965C17.6192 64.9415 17.5328 64.8786 17.4463 64.8236C17.3441 64.7528 17.1475 64.7371 17.1947 64.5641C17.234 64.4069 17.3834 64.572 17.4777 64.5169C17.635 64.4226 17.8079 64.3283 17.9573 64.2261C18.4526 63.8801 18.9401 63.5263 19.4354 63.1804C19.5376 63.1096 19.632 62.9996 19.7892 63.1175C19.9386 63.2276 19.8835 63.3455 19.86 63.4791C19.7499 64.116 19.6398 64.7528 19.5297 65.3896C19.4904 65.6334 19.4904 65.8614 19.6162 66.0894L19.5376 66.168L19.5455 66.1523ZM19.2546 63.6128C18.9479 63.8644 18.5942 63.943 18.5391 64.2261C18.5155 64.3597 18.8536 64.4855 19.0816 64.6113L19.2546 63.6128Z" fill="white"/>
<path d="M57.8493 59.5087C57.7156 59.6267 57.4719 59.7289 57.5427 59.9333C57.6292 60.1849 57.8414 60.3814 58.0537 60.5387C58.1795 60.6251 58.5412 60.232 58.5254 60.0198C58.5254 59.9569 58.4861 59.894 58.5569 59.8153C58.7849 59.9647 58.9579 60.1691 59.1072 60.3814C59.0365 60.4836 58.9736 60.4522 58.9107 60.4207C58.6434 60.2871 58.5097 60.5151 58.3682 60.6566C58.1874 60.8296 58.4232 60.9475 58.5097 61.0497C58.9264 61.5607 59.0994 61.5293 59.5082 61.0104C59.6733 60.7981 59.3824 60.633 59.5239 60.4522C60.0192 60.8138 60.0271 60.8925 59.5947 61.2698C59.2566 61.5686 58.9185 61.8752 58.5647 62.1818C58.3525 61.5372 57.1496 60.3421 56.6621 60.3736C57.0002 59.9962 57.3383 59.7053 57.6763 59.4222C57.7392 59.4222 57.8021 59.438 57.8414 59.5009L57.8493 59.5087Z" fill="white"/>
<path d="M3.59277 38.3046C3.59277 37.9587 3.59277 37.6128 3.59277 37.2668C3.59277 37.1961 3.59277 37.1174 3.67139 37.1017C3.75002 37.0781 3.78933 37.1489 3.80505 37.2118C3.8365 37.3848 3.96229 37.4083 4.10381 37.4162C4.61485 37.4477 5.12589 37.4948 5.63693 37.5184C5.77059 37.5184 5.975 37.5892 5.99073 37.369C5.99859 37.1803 6.15583 36.9288 5.84135 36.8187C5.76272 36.7951 5.66838 36.7794 5.69197 36.6693C5.71555 36.5671 5.82562 36.6064 5.89638 36.5907C6.21873 36.5514 6.36811 36.6457 6.31307 37.0074C6.22659 37.6049 6.21087 38.2181 6.203 38.8235C6.203 38.9257 6.203 39.0751 6.06149 39.0673C5.88852 39.0673 5.70769 39.0437 5.55831 38.965C5.47969 38.9257 5.58976 38.8235 5.66838 38.8157C6.03004 38.7842 5.93569 38.4855 5.95142 38.2889C5.95928 38.0452 5.72341 38.1159 5.5819 38.1081C5.14948 38.0766 4.72492 38.053 4.2925 38.0295C4.02519 38.0137 3.75002 37.9744 3.59277 38.2968V38.3046Z" fill="white"/>
<path d="M39.0595 68.684C38.8 68.0393 38.8236 67.9999 39.4054 67.9528C39.9007 67.9135 40.396 67.8742 40.8913 67.8113C41.4181 67.7405 41.5046 67.8584 41.3002 68.4088C41.1036 68.3931 41.2216 68.1493 41.0486 68.0864C40.7105 67.9685 40.4589 68.1493 40.4904 68.5031C40.5297 68.9355 40.5533 69.3601 40.5926 69.7925C40.6319 70.2249 40.6398 70.2249 40.97 70.3979C40.7656 70.5237 40.113 70.6102 39.6884 70.5473C40.1602 70.3271 40.0265 69.9498 40.0029 69.6196C39.9793 69.2579 39.9322 68.8962 39.885 68.5346C39.8693 68.3931 39.94 68.1729 39.6727 68.1886C39.4526 68.1965 39.1931 68.1651 39.1617 68.4953C39.1617 68.5424 39.1145 68.5817 39.0673 68.684H39.0595Z" fill="white"/>
<path d="M69.1 35.1519C69.218 35.4978 69.2337 35.8359 69.1787 36.1897C68.6755 35.9932 68.1723 36.1268 67.677 36.1268C67.5827 36.1268 67.4883 36.1347 67.394 36.1661C67.2131 36.2212 66.8986 36.0482 66.8672 36.3705C66.8436 36.6457 66.8515 36.9759 67.3389 36.9681C66.7414 37.2747 66.6235 37.2118 66.6156 36.6693C66.6156 36.1032 66.5684 35.5372 66.4898 34.9789C66.4741 34.8531 66.4348 34.7195 66.6077 34.688C66.765 34.6645 66.938 34.6251 67.0795 34.7274C67.1738 34.7981 67.1031 34.8689 67.0166 34.8925C66.6392 34.9711 66.765 35.2698 66.7886 35.4743C66.8279 35.7416 67.0716 35.6158 67.221 35.6079C67.7478 35.5765 68.2667 35.5057 68.7856 35.4743C69.0136 35.4585 69.0371 35.317 69.1 35.1519Z" fill="white"/>
<path d="M50.5619 67.5832L49.4848 68.0864C49.6813 67.7876 49.5398 67.5439 49.4298 67.3002C49.2489 66.9071 49.076 66.5139 48.8951 66.1287C48.7379 65.7906 48.7379 65.7906 48.3369 65.7513C48.4863 65.5626 48.7064 65.5312 48.8794 65.4447C49.131 65.311 49.3904 65.2088 49.6499 65.083C50.0168 64.9101 50.2265 65.0306 50.2789 65.4447C50.0902 65.5076 50.0823 65.2246 49.8858 65.2481C49.4455 65.2953 49.2646 65.539 49.4298 65.94C49.5949 66.3331 49.7914 66.7184 49.9644 67.1115C50.0744 67.3631 50.1767 67.6147 50.5698 67.4574V67.5675L50.5619 67.5832Z" fill="white"/>
<path d="M6.43891 34.6329C6.51753 35.1754 6.45464 35.5685 6.36815 36.0009C6.10084 35.3798 5.55049 35.6314 5.1338 35.5842C4.70924 35.5371 4.20606 35.2855 3.78151 35.8358C3.71075 35.3562 3.82082 34.9553 3.89944 34.5386C4.01737 34.9395 4.33972 34.9317 4.63062 34.9553C4.97655 34.9867 5.33035 34.9946 5.67628 35.026C5.96718 35.0575 6.25808 35.1125 6.43891 34.6408V34.6329Z" fill="white"/>
<path d="M22.03 66.2467C21.9042 66.3568 21.8649 66.5848 21.6212 66.4747C21.401 66.3725 21.1809 66.2703 20.9686 66.1524C20.8979 66.113 20.7013 66.113 20.7956 65.9558C20.8585 65.8536 20.945 65.6806 21.0944 65.7357C21.3932 65.8457 21.6841 65.9951 21.9671 66.1366C21.9907 66.1524 21.9986 66.1995 22.0221 66.2388L22.03 66.2467Z" fill="white"/>
<path d="M52.731 65.539C52.7389 65.6648 52.676 65.7199 52.5895 65.767C52.4008 65.8692 52.2279 65.995 52.0392 66.0972C51.9606 66.1444 51.8819 66.2938 51.7797 66.1366C51.709 66.0265 51.6303 65.8692 51.764 65.767C51.9999 65.5941 52.2436 65.429 52.5109 65.3032C52.7153 65.2088 52.6917 65.429 52.731 65.5233V65.539Z" fill="white"/>
<path d="M4.9217 40.5846C4.92956 40.7576 4.92956 40.8362 4.93743 40.9227C4.93743 41.0327 4.95315 41.1507 4.78805 41.1428C4.6308 41.1428 4.48928 41.1035 4.48142 40.9069C4.4657 40.6789 4.45784 40.4509 4.44211 40.2229C4.44211 40.1207 4.37921 39.9792 4.53646 39.9714C4.67011 39.9714 4.85094 39.9635 4.88239 40.1679C4.90598 40.3409 4.9217 40.5138 4.92956 40.5925L4.9217 40.5846Z" fill="white"/>
<path d="M57.8497 59.5087C57.8182 59.4458 57.7553 59.438 57.6846 59.4301C57.7317 59.2807 57.8497 59.1942 57.9676 59.1078C58.0462 59.0527 58.117 58.9191 58.2349 59.0056C58.3607 59.092 58.4393 59.2178 58.4786 59.3593C58.5022 59.4616 58.4315 59.5166 58.345 59.4616C58.1642 59.3515 58.0148 59.493 57.8497 59.5009V59.5087Z" fill="white"/>
<path d="M11.0146 54.6579L11.1247 54.7365L11.1011 54.7601L11.0225 54.65L11.0146 54.6579Z" fill="white"/>
<path d="M29.1445 59.2573C29.2939 57.3703 29.4433 55.4756 29.5927 53.5886C29.5927 53.5336 29.6241 53.4864 29.632 53.4314C29.9622 53.2427 30.3003 53.0619 30.6226 52.8653C31.4088 52.3857 32.1872 51.8826 32.9813 51.4344C33.4766 51.1592 33.9876 50.8683 34.4908 50.601C35.0804 50.2787 35.6622 49.9328 36.2362 49.5947C37.1482 49.0601 38.0523 48.5176 38.9722 47.9987C40.1279 47.3461 41.268 46.6621 42.4237 46.0095C42.6124 45.8995 42.6831 45.9702 42.7382 46.1353C42.7618 46.8272 42.8325 47.5269 42.8718 48.2188C42.9033 48.95 43.0684 49.6733 43.092 50.4045C43.092 50.5539 43.1234 50.7032 43.0527 50.8369C42.4551 51.1435 41.8576 51.4659 41.3309 51.8904C40.9535 52.1892 40.5525 52.4408 40.1279 52.6609C39.6719 52.8968 39.3181 53.2584 38.8936 53.5336C38.1388 54.0211 37.3919 54.5242 36.6607 55.0431C35.9374 55.5542 35.1905 56.0259 34.4436 56.4898C33.8854 56.8357 33.398 57.2917 32.7768 57.5669C32.3523 57.7556 32.0142 58.1487 31.6054 58.416C30.8821 58.8799 30.1823 59.383 29.4747 59.8705C29.2939 59.9963 29.1681 59.957 29.1681 59.7054C29.1681 59.556 29.1603 59.4066 29.1524 59.2651L29.1445 59.2573Z" fill="#0A0A0B"/>
<path d="M54.4214 63.3612C54.3821 63.3455 54.3034 63.3298 54.3427 63.2747C54.3742 63.2276 54.4292 63.2747 54.4607 63.3141C54.4449 63.3298 54.4371 63.3455 54.4214 63.3612Z" fill="white"/>
<path d="M55.9547 61.8989L55.9624 61.9295L55.9395 61.9219L55.9547 61.8989Z" fill="white"/>
<path d="M42.7468 46.1353C42.6918 45.9701 42.621 45.8994 42.4323 46.0095C41.2766 46.6699 40.1444 47.3539 38.9809 47.9986C38.061 48.5175 37.149 49.0521 36.2448 49.5946C35.6709 49.9327 35.0891 50.2786 34.4994 50.601C33.9963 50.8761 33.4852 51.1592 32.9899 51.4343C32.1958 51.8825 31.4096 52.3857 30.6313 52.8652C30.3089 53.0618 29.9708 53.2426 29.6406 53.4313C29.7507 51.3872 29.9472 49.3509 30.1281 47.3146C30.1831 46.662 30.1988 46.0016 30.301 45.349C30.3954 45.3412 30.5055 45.3569 30.5762 45.3097C31.2681 44.8301 32.0229 44.4685 32.7383 44.0439C34.0985 43.242 35.435 42.3929 36.8188 41.6302C37.7308 41.1271 38.5877 40.5374 39.5155 40.0578C40.3882 39.6097 41.2137 39.0672 42.0707 38.5955C42.1414 39.2716 42.2279 39.9556 42.2908 40.6318C42.4481 42.4243 42.5031 44.2248 42.7783 46.0016C42.7783 46.0409 42.7625 46.0802 42.7625 46.1195L42.7468 46.1353Z" fill="white"/>
<path d="M42.0548 38.6033C41.1978 39.0829 40.3644 39.6254 39.4996 40.0657C38.5719 40.5453 37.7149 41.135 36.8029 41.6381C35.4191 42.3929 34.0904 43.2499 32.7224 44.0518C31.9991 44.4764 31.2443 44.838 30.5603 45.3176C30.4896 45.3648 30.3795 45.3412 30.2852 45.3569C30.4188 43.5958 30.5603 41.8347 30.694 40.0736C30.8591 39.932 30.6783 39.6569 30.8434 39.5547C31.4173 39.193 31.9362 38.737 32.5101 38.4147C33.6187 37.8014 34.6172 37.0231 35.6786 36.3469C36.4019 35.883 37.1095 35.3641 37.825 34.8688C38.8077 34.1927 39.8062 33.5323 40.7968 32.8718C41.0327 32.7146 41.245 32.4866 41.5673 32.463C41.6381 33.1392 41.7246 33.8232 41.7796 34.4993C41.874 35.6393 41.9526 36.7793 42.0391 37.9193C42.0469 38.0687 42.0076 38.2181 42.0784 38.3596C42.102 38.4461 42.1098 38.5326 42.0548 38.6112V38.6033Z" fill="#0A0A0B"/>
<path d="M32.3838 25.0805C32.4231 24.711 32.5961 24.3886 32.714 24.0427C32.7926 23.8147 32.7454 23.6889 32.5489 23.5474C30.8271 22.2737 29.0974 21.0315 27.2891 19.8757C27.1397 19.7814 26.9589 19.7106 26.8174 19.4748C26.9982 19.4748 27.1397 19.4748 27.2812 19.4748C29.4433 19.4748 31.5976 19.4748 33.7597 19.4905C34.0663 19.4905 34.1999 19.404 34.2943 19.1053C34.9547 17.0296 35.6308 14.9619 36.307 12.8863C36.3542 12.7526 36.362 12.5954 36.5193 12.4696C36.8259 13.4131 37.1089 14.3565 37.4234 15.2764C37.8951 16.6601 38.2882 18.0753 38.815 19.4512C38.9487 19.5455 39.0981 19.4984 39.2396 19.5062C40.1359 19.5062 41.0321 19.5141 41.9284 19.5219C41.0243 20.1273 40.0415 20.5991 39.1216 21.1651C37.7693 21.9985 36.3699 22.7611 34.994 23.571C34.1213 24.082 33.2879 24.6481 32.3838 25.0883V25.0805Z" fill="white"/>
<path d="M31.1502 34.4757C31.2052 33.8861 31.276 33.2964 31.3153 32.7068C31.331 32.4316 31.4568 32.2272 31.6455 32.0385C32.361 31.3388 33.0764 30.6547 33.8312 29.9943C34.012 29.8371 34.1771 29.6641 34.4051 29.444C34.1928 29.4361 34.0906 29.4833 33.9727 29.5698C32.5103 30.5761 31.3703 31.9048 30.2775 33.2807C29.7507 33.949 29.2869 34.6566 28.8387 35.3799C28.7994 35.4507 28.7601 35.545 28.6657 35.5135C28.54 35.4664 28.6107 35.372 28.6422 35.2777C29.1139 33.8861 29.507 32.4709 30.1438 31.1422C30.364 30.6783 30.6156 30.2302 30.8514 29.782C30.9143 29.7742 30.9929 29.782 31.048 29.7506C31.9993 29.1924 32.9506 28.6342 33.9098 28.0838C35.0105 27.4549 36.0719 26.7708 37.204 26.2048C37.55 26.0318 37.8409 25.7488 38.1868 25.6073C38.4463 25.4972 38.69 25.4028 38.918 25.2377C39.3504 24.9311 39.8064 24.6717 40.2781 24.4358C40.5848 24.6009 40.5454 24.9468 40.6398 25.2063C41.0015 26.2677 41.3238 27.3369 41.6619 28.4062C41.2452 28.8229 40.7106 29.0351 40.1995 29.2946C40.1288 29.2867 40.0659 29.1767 39.9872 29.2474C39.9008 29.3182 40.0108 29.3889 40.0187 29.4597C39.2875 29.7978 38.6271 30.2616 37.9352 30.6626C37.0075 31.1972 36.0955 31.7476 35.1756 32.2901C34.24 32.8404 33.2966 33.3672 32.3688 33.9254C31.9993 34.1455 31.6534 34.4993 31.1581 34.4757H31.1502Z" fill="white"/>
<path d="M40.2773 24.4358C39.8056 24.6717 39.3496 24.9311 38.9171 25.2378C38.6891 25.395 38.4376 25.4972 38.186 25.6073C37.84 25.7488 37.5491 26.0318 37.2032 26.2048C36.071 26.7787 35.0097 27.4627 33.909 28.0838C32.9498 28.6342 31.9985 29.1924 31.0471 29.7506C30.9921 29.7821 30.9135 29.7742 30.8506 29.7821C31.3066 28.1939 31.8334 26.6372 32.3916 25.0805C33.3036 24.6402 34.137 24.0742 35.0018 23.5631C36.3777 22.7612 37.7693 21.9907 39.1294 21.1573C40.0572 20.5912 41.0321 20.1195 41.9362 19.522C43.3199 19.522 44.6958 19.522 46.1425 19.522C45.372 20.0409 44.6329 20.5205 43.9096 21.0158C42.7224 21.8413 41.4959 22.6197 40.3795 23.5395C40.238 23.6575 40.1358 23.7754 40.2223 23.9877C40.2773 24.1213 40.2616 24.2786 40.2773 24.4279V24.4358Z" fill="#0A0A0B"/>
<path d="M31.1494 34.4758C31.6447 34.5072 31.9906 34.1534 32.3601 33.9254C33.2879 33.3672 34.2313 32.8326 35.1669 32.2901C36.0868 31.7476 36.9988 31.1972 37.9265 30.6626C38.6184 30.2617 39.2788 29.7978 40.01 29.4597C40.5682 29.7585 40.9456 30.2617 41.3387 30.7255C41.6375 31.0793 41.433 31.6375 41.551 32.0935C41.5824 32.2115 41.5667 32.3373 41.5667 32.4552C41.2522 32.4709 41.0399 32.6989 40.7962 32.864C39.8056 33.5323 38.8071 34.1849 37.8243 34.861C37.1089 35.3563 36.4091 35.8752 35.678 36.3391C34.6166 37.0152 33.6181 37.7936 32.5095 38.4068C31.9277 38.7292 31.4167 39.1852 30.8427 39.5468C30.6776 39.6491 30.8585 39.9242 30.6934 40.0657C30.7877 38.1946 31.0078 36.3391 31.1494 34.4758Z" fill="white"/>
<path d="M46.6304 22.3444C46.1901 22.3444 45.8599 22.0692 45.797 21.6683C45.7341 21.283 45.9464 20.9292 46.3709 20.8113C47.4874 20.4968 48.6117 20.2138 49.7281 19.9071C50.2234 19.7735 50.7109 19.6398 51.1983 19.4904C51.7408 19.3253 52.2282 19.5219 52.3462 19.9858C52.4798 20.5125 52.2047 20.8742 51.6229 21.0236C50.1291 21.4167 48.6352 21.8412 47.1414 22.2501C46.9685 22.2972 46.8034 22.3444 46.6225 22.3365L46.6304 22.3444Z" fill="white"/>
<path d="M26.1575 22.3366C25.5835 22.1793 24.8838 21.9985 24.1841 21.8098C23.2249 21.5504 22.2657 21.2909 21.3065 21.0315C20.7247 20.8742 20.4181 20.4497 20.5596 19.9858C20.6854 19.5534 21.2436 19.3411 21.7704 19.4905C23.2563 19.9072 24.7501 20.316 26.2361 20.7248C26.354 20.7563 26.472 20.7877 26.582 20.827C26.9987 20.9607 27.1874 21.2201 27.1324 21.5975C27.0538 22.1086 26.7786 22.3523 26.1653 22.3444L26.1575 22.3366Z" fill="white"/>
<path d="M21.4325 28.186C20.945 28.186 20.5834 27.9187 20.5283 27.5492C20.4654 27.1403 20.7092 26.7708 21.1573 26.645C22.4546 26.2834 23.7518 25.9453 25.0569 25.5915C25.3793 25.505 25.7016 25.4107 26.024 25.3085C26.5272 25.1591 27.0067 25.4185 27.109 25.906C27.1954 26.307 27.0382 26.6608 26.6451 26.7787C24.9626 27.2583 23.2801 27.7143 21.5897 28.1703C21.5268 28.186 21.4561 28.186 21.4325 28.186Z" fill="white"/>
<path d="M51.5049 28.1782C51.0331 28.1232 50.5064 27.9345 49.9796 27.8008C48.8317 27.5099 47.6996 27.1797 46.5517 26.8731C45.9699 26.7158 45.679 26.3227 45.8205 25.8274C45.9463 25.3793 46.4259 25.167 46.9684 25.3164C48.5173 25.7409 50.074 26.1655 51.6228 26.59C52.2125 26.7551 52.4562 27.0854 52.3461 27.6043C52.2675 27.9659 51.9845 28.1782 51.5049 28.1782Z" fill="white"/>
<path d="M40.1993 29.2945C40.7103 29.0351 41.2449 28.815 41.6616 28.4061C41.9289 29.1923 42.1963 29.9864 42.4557 30.7726C41.6223 30.3559 40.9226 29.8056 40.1914 29.2945H40.1993Z" fill="white"/>
<path d="M41.9367 19.514C41.0404 19.514 40.1441 19.514 39.2478 19.4983C39.1063 19.4983 38.949 19.5455 38.8232 19.4433C39.806 19.4433 40.7888 19.4275 41.7794 19.4197C41.8502 19.4197 41.9131 19.4275 41.9445 19.5062L41.9367 19.514Z" fill="white"/>
<path d="M42.0784 38.3518C42.0076 38.2103 42.0469 38.0609 42.0391 37.9115C42.1649 38.0452 42.1177 38.2024 42.0784 38.3518Z" fill="white"/>
</g>
<defs>
<clipPath id="clip0_649_6502">
<rect width="73" height="73" fill="white" transform="translate(0 0.699951)"/>
</clipPath>
</defs>
</svg>
