<svg width="67" height="68" viewBox="0 0 67 68" fill="none" xmlns="http://www.w3.org/2000/svg">
<g clip-path="url(#clip0_649_6477)">
<path d="M33.4691 55.1075C28.1157 55.0205 23.4094 53.2492 19.436 49.6283C15.871 46.3802 13.6986 42.3435 12.91 37.5965C12.1746 33.1753 12.7739 28.8982 14.8188 24.9085C17.9559 18.7896 22.9259 14.9815 29.6921 13.6707C35.1847 12.6065 40.2877 13.738 44.994 16.7293C45.8561 17.2775 45.8655 17.2931 45.2796 18.1013C42.6346 21.7511 39.9818 25.3955 37.3305 29.0407C36.1884 30.6108 35.0446 32.1793 33.9025 33.7493C33.8438 33.83 33.7304 33.9192 33.7859 34.0187C33.854 34.1416 34.0003 34.0821 34.1074 34.0649C36.9574 33.6123 39.8058 33.1503 42.6557 32.7008C46.0705 32.162 49.4876 31.6327 52.9032 31.0994C53.2114 31.0516 53.5196 31.0023 53.8271 30.9483C54.0508 30.9091 54.1666 30.9843 54.1932 31.2231C54.3403 32.5559 54.4514 33.8848 54.3716 35.234C54.2706 36.9473 54.0375 38.6349 53.4946 40.2582C50.7925 48.3394 45.2287 53.1803 36.8924 54.8326C35.7706 55.055 34.6238 55.1411 33.4691 55.1067V55.1075ZM13.9004 34.1816C13.9106 35.2481 13.9998 36.2841 14.1711 37.3146C14.9706 42.1242 17.2088 46.1413 20.9521 49.2446C25.4872 53.0034 30.7247 54.4332 36.5561 53.5695C40.3675 53.0049 43.7376 51.4208 46.5712 48.8202C51.2713 44.5063 53.4304 39.1243 53.0612 32.7384C53.044 32.4439 52.9219 32.3805 52.6685 32.4228C52.1686 32.505 51.6671 32.5825 51.1672 32.6624C48.1131 33.1495 45.059 33.6405 42.004 34.1228C38.4226 34.6882 34.8397 35.245 31.2575 35.8064C31.1448 35.8236 31.004 35.8988 30.9359 35.7821C30.8702 35.6694 30.9946 35.5684 31.0611 35.476C31.7722 34.4948 32.4857 33.5159 33.1976 32.5363C36.7203 27.6891 40.2399 22.8396 43.7744 18.001C44.0099 17.6784 43.9207 17.5602 43.6297 17.3902C40.1069 15.3323 36.3284 14.3676 32.2393 14.6362C29.7531 14.7999 27.3624 15.3535 25.1469 16.4748C17.898 20.1435 14.2579 26.1316 13.9004 34.1823V34.1816Z" fill="white"/>
<path d="M37.7667 31.7892C37.6157 31.8112 37.5399 31.8417 37.5062 31.7673C37.4679 31.6827 37.5375 31.6201 37.5837 31.5598C37.9115 31.1385 38.2416 30.718 38.5717 30.2983C43.07 24.5874 47.5706 18.878 52.0626 13.1624C52.2645 12.9048 52.3951 12.8899 52.6478 13.0998C57.0217 16.7191 59.8028 21.3048 61.0255 26.8481C61.1053 27.2083 61.0028 27.3375 60.661 27.4025C54.6591 28.5466 48.658 29.6977 42.6569 30.848C41.0994 31.1463 39.5426 31.451 37.985 31.7517C37.8825 31.7712 37.78 31.7861 37.7652 31.7885L37.7667 31.7892ZM40.4907 29.9553C41.6916 29.7251 42.7727 29.5183 43.8531 29.3116C48.9209 28.3406 53.9887 27.3704 59.0565 26.3986C59.5845 26.2976 59.5861 26.2921 59.4374 25.7659C58.2515 21.5647 56.0774 17.9697 52.8739 14.9979C52.5899 14.7348 52.4561 14.7411 52.2167 15.0457C48.6478 19.5961 45.0672 24.1363 41.4889 28.6797C41.1784 29.0736 40.8701 29.4698 40.4899 29.9553H40.4907Z" fill="white"/>
<path d="M30.5723 63.6022C30.5215 64.48 30.2891 65.487 29.5702 66.3108C29.0014 66.9623 28.2567 67.2184 27.4008 67.1549C26.7202 67.1048 26.0639 66.9615 25.4623 66.617C24.6025 66.1252 24.2114 65.3562 24.159 64.3977C24.1144 63.5755 24.2974 62.7909 24.6401 62.047C25.2065 60.8152 26.2821 60.2467 27.6269 60.4464C28.0408 60.5075 28.4444 60.5999 28.8333 60.7565C29.9653 61.213 30.5747 62.1433 30.5723 63.6022ZM26.0318 64.1284C26.0365 64.6992 26.0318 65.162 26.5074 65.4384C27.2272 65.8558 27.9352 65.6632 28.3161 64.9208C28.64 64.2912 28.755 63.6131 28.6752 62.9099C28.6197 62.4268 28.3161 62.1339 27.8616 62.0172C27.4008 61.8982 26.9541 61.9005 26.6209 62.3297C26.1851 62.8919 26.0654 63.5513 26.0318 64.1284Z" fill="white"/>
<path d="M38.6514 1.0022C39.44 1.02882 40.3068 1.2285 41.0234 1.84165C41.6884 2.41015 41.8988 3.19087 41.8894 4.02092C41.88 4.77971 41.7173 5.52049 41.3754 6.21038C40.8122 7.34817 39.7318 7.90728 38.4731 7.70995C37.8942 7.61911 37.3223 7.52123 36.8068 7.20252C35.9869 6.69588 35.5676 5.95823 35.4956 5.01698C35.4338 4.20964 35.5918 3.43049 35.9165 2.69362C36.4125 1.56914 37.273 0.981838 38.6514 1.00298V1.0022ZM37.3669 4.64659C37.37 4.97 37.3724 5.17594 37.424 5.38111C37.5406 5.84312 37.866 6.08195 38.3025 6.15791C38.7649 6.23778 39.2303 6.22369 39.5104 5.75463C39.9375 5.03969 40.1073 4.25976 39.9767 3.43519C39.893 2.90348 39.5667 2.6114 39.0481 2.52448C38.4778 2.42895 38.0968 2.58399 37.8167 3.04992C37.5014 3.57536 37.3802 4.15561 37.3661 4.64737L37.3669 4.64659Z" fill="white"/>
<path d="M33.6203 4.25749C33.6414 5.33185 33.3598 6.28485 32.4093 6.89485C31.6606 7.37566 30.8071 7.49625 29.9317 7.40541C28.6432 7.27073 27.8492 6.53778 27.5034 5.30836C27.2938 4.5621 27.2194 3.80566 27.379 3.0312C27.6239 1.84251 28.3436 1.12757 29.5054 0.85036C30.4692 0.620922 31.4298 0.603694 32.2958 1.1628C33.2659 1.78926 33.5076 2.80411 33.6179 3.86673C33.6312 3.99594 33.6195 4.12671 33.6195 4.25749H33.6203ZM31.7553 4.30995C31.7521 3.78295 31.6943 3.26769 31.4478 2.79393C31.2116 2.33897 30.8235 2.15417 30.319 2.20115C29.8191 2.24814 29.4467 2.48462 29.2996 2.97326C29.0704 3.73518 29.1361 4.49632 29.4389 5.22379C29.6563 5.7461 30.1015 5.98258 30.6225 5.91837C31.2483 5.84085 31.5753 5.56129 31.6974 4.96694C31.7412 4.75238 31.7373 4.52843 31.7553 4.30838V4.30995Z" fill="white"/>
<path d="M19.4603 64.4706C18.5473 64.3743 17.5483 63.899 16.8114 62.9601C16.2528 62.2483 16.2215 61.419 16.4609 60.5795C16.6894 59.7792 17.0852 59.0667 17.6704 58.466C18.4715 57.6446 19.4188 57.4496 20.4968 57.7918C21.1274 57.9923 21.6985 58.311 22.1671 58.7691C22.8078 59.3955 23.1191 60.1747 22.9478 61.0752C22.7217 62.2624 22.1913 63.2889 21.1939 64.0196C20.7151 64.3704 20.3232 64.4737 19.4611 64.4706H19.4603ZM18.1374 61.6837C18.0983 62.1958 18.3924 62.4902 18.7914 62.7079C19.1982 62.9303 19.6113 62.9702 19.993 62.6515C20.6729 62.0838 21.0656 61.3477 21.1673 60.4762C21.2197 60.0259 20.9936 59.6821 20.5829 59.459C20.1503 59.224 19.7169 59.134 19.3085 59.4699C18.6131 60.0424 18.2594 60.8066 18.1374 61.6837Z" fill="white"/>
<path d="M32.4366 62.1715C32.4366 62.1191 32.4366 62.0674 32.4366 62.0149C32.4304 61.4631 32.713 61.1825 33.2846 61.1731C34.2305 61.1574 34.2273 61.1574 34.2453 62.1292C34.2531 62.5584 34.2359 62.9875 34.3001 63.4166C34.3353 63.6554 34.4315 63.7643 34.6764 63.7533C35.0918 63.7337 35.5072 63.7549 35.9234 63.6993C36.1862 63.664 36.284 63.5497 36.2707 63.2929C36.2386 62.6954 36.2269 62.0963 36.1878 61.4989C36.1659 61.1629 36.3044 61.0165 36.6337 61.0196C36.9591 61.0228 37.2846 61.0196 37.6092 61.0055C37.8705 60.9938 37.9855 61.0972 37.9957 61.365C38.0411 62.5615 38.099 63.7572 38.1506 64.953C38.1803 65.6554 38.1952 66.3578 38.2382 67.0594C38.2593 67.4063 38.1185 67.5285 37.786 67.5136C37.4747 67.4995 37.161 67.5058 36.8496 67.5246C36.5484 67.5426 36.4209 67.4228 36.4272 67.1197C36.4373 66.6115 36.3888 66.1056 36.3654 65.599C36.3489 65.2474 36.2144 65.1401 35.889 65.1699C35.4876 65.2059 35.0847 65.2278 34.6826 65.2458C34.4268 65.2576 34.4002 65.4212 34.4002 65.6209C34.4002 66.1291 34.426 66.635 34.4691 67.1416C34.509 67.6193 34.4565 67.6585 33.9895 67.6702C33.6641 67.678 33.3378 67.671 33.014 67.6968C32.7761 67.7156 32.6831 67.6303 32.6729 67.3969C32.6267 66.3437 32.5602 65.292 32.525 64.2388C32.5023 63.5505 32.5203 62.8606 32.5203 62.1715C32.4922 62.1715 32.4648 62.1715 32.4366 62.1715Z" fill="white"/>
<path d="M26.3932 7.83916C26.4175 7.99264 26.3298 8.04824 26.2274 8.08583C25.8245 8.23461 25.4192 8.37791 25.0179 8.52983C24.7801 8.61988 24.7261 8.46092 24.6651 8.29177C24.4546 7.70291 24.2286 7.11952 24.0322 6.52674C23.9368 6.23857 23.7991 6.1587 23.5135 6.27459C23.1404 6.42651 22.7586 6.5612 22.3745 6.68257C22.0999 6.76949 22.0389 6.91201 22.1414 7.17903C22.3706 7.77417 22.5693 8.38183 22.8016 8.97617C22.8978 9.22206 22.8321 9.33247 22.5959 9.40843C22.2368 9.52432 21.8824 9.65588 21.5304 9.79056C21.3129 9.87357 21.1909 9.81014 21.1134 9.59323C20.4547 7.75381 19.7913 5.91673 19.1279 4.07966C19.0638 3.90268 19.0911 3.77269 19.2789 3.70378C19.67 3.56127 20.0628 3.42266 20.4531 3.27701C20.6784 3.19244 20.7543 3.32321 20.8177 3.50175C20.9968 4.00448 21.1987 4.50016 21.359 5.00916C21.4592 5.3263 21.6008 5.43358 21.9254 5.29732C22.297 5.14071 22.6788 5.00602 23.0637 4.887C23.3352 4.80321 23.3657 4.66069 23.2718 4.41872C23.0746 3.90816 22.908 3.38664 22.7046 2.87921C22.5896 2.59261 22.6553 2.45009 22.9518 2.36396C23.2882 2.26607 23.616 2.13608 23.9446 2.01079C24.1542 1.93092 24.2864 1.97321 24.367 2.19795C25.0273 4.03659 25.693 5.87288 26.3564 7.70995C26.3744 7.7585 26.3846 7.81019 26.3932 7.83994V7.83916Z" fill="white"/>
<path d="M6.50907 32.6146C6.50907 32.6538 6.50907 32.6929 6.50907 32.7321C6.50516 33.6538 6.59434 33.5199 5.74397 33.7305C5.43965 33.8057 5.30901 33.9537 5.32544 34.2732C5.34734 34.7015 5.34343 35.1322 5.32935 35.5613C5.32074 35.8323 5.43731 35.9505 5.69312 36.0202C6.57948 36.2614 6.57713 36.2692 6.57791 37.2011C6.57791 38.2096 6.58026 38.2034 5.62819 37.9019C3.9298 37.3639 2.23219 36.8236 0.525975 36.3099C0.132474 36.1917 -0.0239874 36.0069 0.00417573 35.5934C0.037815 35.1009 0.015128 34.6044 0.00574034 34.1095C0.0018288 33.8816 0.0917942 33.7524 0.311623 33.678C2.25957 33.0234 4.20517 32.3633 6.14999 31.6992C6.40424 31.6123 6.51924 31.6703 6.5075 31.9506C6.49812 32.1714 6.50594 32.393 6.50594 32.6146H6.50907ZM1.3693 34.9153C1.42798 34.9607 1.43736 34.9732 1.44832 34.9756C1.95212 35.0954 2.45671 35.2097 2.95974 35.3334C3.88677 35.5621 3.9517 35.5026 3.8414 34.5496C3.81793 34.3476 3.74752 34.2724 3.54099 34.3288C2.83066 34.5245 2.11875 34.7133 1.3693 34.9145V34.9153Z" fill="white"/>
<path d="M59.9126 44.522C59.606 44.522 59.2547 44.5141 58.9035 44.5243C58.6547 44.5314 58.5679 44.4374 58.6437 44.1946C58.7681 43.7968 58.8933 43.399 59.0075 42.9981C59.0724 42.7695 59.2172 42.7045 59.4417 42.6982C60.3625 42.6716 60.3625 42.6661 60.6324 41.8008C60.6441 41.7632 60.6543 41.7256 60.666 41.6888C60.9429 40.775 60.9469 40.7687 60.1473 40.2456C59.9666 40.1274 59.8923 40.017 59.9627 39.8016C60.0957 39.3929 60.2138 38.9794 60.3312 38.5659C60.3992 38.3263 60.4947 38.2316 60.7388 38.4023C62.4364 39.5871 64.1379 40.7656 65.841 41.9417C66.0225 42.067 66.053 42.2096 65.9888 42.4108C65.8199 42.9449 65.6595 43.482 65.5061 44.02C65.4404 44.2502 65.3215 44.3606 65.0657 44.3669C63.3626 44.4108 61.6595 44.4671 59.9111 44.5212L59.9126 44.522ZM64.3569 42.8501C64.3413 42.8023 64.3413 42.7851 64.3335 42.7804C63.8899 42.515 63.444 42.2534 63.002 41.984C62.1978 41.4938 62.0922 41.5471 61.9506 42.4993C61.9232 42.6841 61.9803 42.7781 62.1626 42.782C62.8854 42.7976 63.6051 42.912 64.3569 42.8501Z" fill="white"/>
<path d="M60.582 48.9017C60.805 49.3966 60.988 49.8061 61.1742 50.2133C61.3753 50.6511 61.5716 51.0911 61.7868 51.5226C61.89 51.7301 61.8963 51.9024 61.7664 52.1036C61.5411 52.4537 61.3416 52.8201 61.132 53.1804C61.0005 53.4059 60.8981 53.4372 60.7776 53.1616C60.4122 52.3268 60.0211 51.503 59.6667 50.6628C59.529 50.337 59.3358 50.2165 58.9845 50.2258C57.9182 50.254 56.852 50.1969 55.7865 50.1577C55.4649 50.146 55.425 50.0489 55.587 49.7905C55.7943 49.4592 56 49.1264 56.1768 48.7787C56.3317 48.4733 56.5523 48.3997 56.8778 48.4334C57.4981 48.4984 58.1216 48.5313 58.7444 48.5657C58.9008 48.5744 59.1074 48.6268 59.1527 48.3817C59.1918 48.1734 59.1394 47.9996 58.9392 47.8829C58.5003 47.6276 58.0739 47.3504 57.628 47.1092C57.3511 46.9589 57.3276 46.8023 57.4966 46.554C57.6796 46.2855 57.8533 46.0075 57.998 45.7169C58.1428 45.4264 58.293 45.399 58.5699 45.5674C59.8365 46.3395 61.1155 47.0928 62.3899 47.8524C62.7592 48.0724 63.1237 48.3003 63.5008 48.5047C63.7214 48.6245 63.7715 48.7498 63.6338 48.9682C63.432 49.287 63.2403 49.6135 63.0604 49.9447C62.9368 50.1726 62.7952 50.1867 62.5871 50.0591C62.0316 49.72 61.4707 49.3903 60.9106 49.0591C60.8363 49.0152 60.7549 48.9831 60.5828 48.9009L60.582 48.9017Z" fill="white"/>
<path d="M3.34188 28.0587C2.65892 27.3046 2.05889 26.6218 1.43461 25.9617C1.21087 25.7252 1.14046 25.4989 1.23356 25.188C1.33838 24.8395 1.40645 24.4801 1.4925 24.1254C1.51597 24.0275 1.50971 23.8952 1.63019 23.8685C1.74753 23.8427 1.8062 23.9641 1.8727 24.0385C2.46021 24.7002 3.05242 25.3571 3.62507 26.0314C3.85898 26.307 4.08898 26.3697 4.4418 26.2585C5.397 25.9578 6.3655 25.697 7.33008 25.4268C7.81824 25.2898 7.81277 25.3407 7.77756 25.8262C7.69855 26.9295 7.16502 27.5121 6.05101 27.5787C5.75764 27.5967 5.46741 27.7063 5.1803 27.7901C5.03166 27.8332 4.80323 27.8081 4.8087 28.0517C4.81418 28.2976 4.94326 28.4573 5.20064 28.5137C5.65829 28.6139 6.1089 28.7455 6.5689 28.8332C6.92485 28.9005 7.02107 29.0705 6.91233 29.4087C6.82158 29.693 6.74961 29.9866 6.69954 30.2811C6.64478 30.6045 6.4938 30.6726 6.184 30.5951C4.73204 30.2325 3.27616 29.8888 1.82107 29.5387C1.42913 29.4448 1.0372 29.3477 0.642912 29.2623C0.389445 29.2075 0.290874 29.0853 0.366758 28.8191C0.462199 28.4808 0.544342 28.1378 0.607709 27.7925C0.661688 27.4988 0.807979 27.4487 1.07866 27.5176C1.79525 27.7009 2.51732 27.863 3.34266 28.0579L3.34188 28.0587Z" fill="white"/>
<path d="M48.9332 61.2592C48.5053 61.2835 48.0766 61.3344 47.6494 61.3273C46.7795 61.314 46.1623 60.8732 45.876 60.105C45.5904 59.3384 45.7782 58.459 46.3813 57.9163C47.0518 57.3133 47.8317 56.9148 48.7251 56.7417C49.0279 56.683 49.2227 56.755 49.3533 57.0416C49.4613 57.2781 49.5919 57.5052 49.7312 57.7244C49.9033 57.9954 49.8571 58.1058 49.5231 58.1348C48.9622 58.1825 48.4185 58.3149 47.9225 58.5968C47.8106 58.6602 47.6925 58.7283 47.6072 58.8207C47.3248 59.1277 47.4492 59.5098 47.8591 59.5756C48.0351 59.6038 48.2229 59.5835 48.402 59.5623C48.8691 59.5067 49.34 59.4957 49.8047 59.5373C50.6441 59.6124 51.1292 60.1426 51.403 60.8943C51.683 61.6633 51.3623 62.2803 50.8319 62.7948C50.1364 63.4682 49.2704 63.8081 48.3199 63.9522C48.1055 63.9843 47.9952 63.9201 47.9655 63.7094C47.9616 63.6836 47.9538 63.6585 47.9483 63.6335C47.8038 62.9475 48.0641 62.5213 48.729 62.3547C49.0083 62.285 49.2829 62.2005 49.5145 62.0227C49.6717 61.9021 49.8266 61.7643 49.7539 61.5341C49.6827 61.3101 49.4902 61.2655 49.2853 61.26C49.1679 61.2569 49.0513 61.26 48.934 61.2592H48.9332Z" fill="white"/>
<path d="M14.4699 14.074C14.477 14.6919 14.3205 15.1077 14.0741 15.4812C13.636 16.1437 13.061 16.6628 12.3671 17.0559C12.0628 17.2282 11.8187 17.236 11.5809 16.9471C11.4244 16.7568 11.2359 16.5916 11.052 16.4263C10.8471 16.2423 10.8001 16.1217 11.1185 16.0019C11.584 15.8265 11.9994 15.5548 12.3812 15.233C12.5126 15.1225 12.6307 15.0035 12.7191 14.8571C12.8419 14.6543 12.8944 14.4374 12.7371 14.2377C12.5955 14.0584 12.3953 14.0811 12.1989 14.15C11.6826 14.3301 11.1725 14.5305 10.6476 14.6832C9.78078 14.9346 9.0149 14.6253 8.51266 13.8743C8.08239 13.2322 8.15749 12.5885 8.49779 11.9511C8.97109 11.0631 9.72211 10.4797 10.6171 10.0584C10.7782 9.98249 10.8893 9.99502 10.9628 10.1665C10.9785 10.2025 10.9981 10.2362 11.016 10.2714C11.3368 10.8953 11.2038 11.3855 10.6171 11.742C10.3792 11.8853 10.1696 12.0576 10.0022 12.2769C9.877 12.4405 9.80659 12.6269 9.93333 12.8188C10.0546 13.0036 10.2463 12.9949 10.4262 12.9347C10.9566 12.7561 11.48 12.5572 12.0111 12.3834C12.7715 12.1351 13.4256 12.3278 13.9607 12.9127C14.2994 13.2823 14.4535 13.7334 14.4723 14.074H14.4699Z" fill="white"/>
<path d="M4.23195 18.1819C4.57695 18.3142 4.93994 18.4615 5.25208 18.6995C5.38429 18.8005 5.28181 18.9415 5.22861 19.0558C5.04242 19.4575 4.87109 19.8678 4.65518 20.2523C4.48776 20.5499 4.56287 20.7034 4.86014 20.8028C4.92116 20.8232 4.98062 20.8537 5.03538 20.889C5.26147 21.0338 5.40776 20.9892 5.5165 20.7331C5.68 20.3502 5.87401 19.9806 6.04456 19.6008C6.14469 19.3769 6.2683 19.3299 6.50299 19.4325C7.47618 19.8584 7.47931 19.8514 7.06156 20.8161C6.99975 20.9594 6.9489 21.1121 6.86285 21.2398C6.64615 21.5593 6.73299 21.7308 7.07799 21.8803C7.80631 22.1959 7.64594 22.3275 8.03944 21.5319C8.06839 21.4739 8.09186 21.4128 8.12002 21.3541C8.77638 19.9822 8.43764 20.3087 9.70185 20.8177C9.89508 20.896 9.91229 21.0111 9.82623 21.1865C9.34433 22.1685 8.86556 23.1512 8.39305 24.1379C8.29369 24.3454 8.18104 24.3948 7.96512 24.289C6.2237 23.4363 4.47994 22.5906 2.73305 21.7488C2.50148 21.6368 2.42638 21.5193 2.5539 21.2664C3.02015 20.3353 3.46607 19.3941 3.9245 18.4583C3.98396 18.3369 4.02151 18.1764 4.23351 18.1819H4.23195Z" fill="white"/>
<path d="M59.3721 55.4693C59.3213 55.5374 59.2603 55.6384 59.1812 55.7214C58.474 56.4669 57.7567 57.203 57.0573 57.9563C56.857 58.1716 56.7068 58.1889 56.5261 57.9563C56.4705 57.885 56.3986 57.8263 56.3305 57.766C55.931 57.4131 55.9235 57.0414 56.3078 56.6509C56.5363 56.4191 56.7537 56.1756 56.9923 55.9556C57.1715 55.7895 57.1472 55.6744 56.9837 55.5092C56.5222 55.0417 56.5065 55.0339 56.0497 55.5116C55.8431 55.7277 55.6335 55.9422 55.4442 56.1732C55.2564 56.4011 55.1039 56.4301 54.8715 56.2108C54.0955 55.4794 54.0884 55.4873 54.8121 54.7097C54.8207 54.7003 54.83 54.6909 54.8394 54.6815C55.4629 54.0229 55.459 54.0276 54.7753 53.4435C54.6071 53.3002 54.5015 53.308 54.3568 53.4709C54.0454 53.8209 53.7043 54.1435 53.3992 54.4983C53.1888 54.7434 53.0268 54.7175 52.8359 54.492C52.7358 54.373 52.6169 54.2696 52.5035 54.1615C52.0865 53.7645 52.0888 53.7677 52.4714 53.3612C53.1301 52.6596 53.7911 51.9596 54.4381 51.2478C54.6384 51.0277 54.7776 51.0066 55.0068 51.2258C56.239 52.4028 57.486 53.5633 58.7291 54.7285C58.8902 54.8796 59.0584 55.0229 59.2219 55.1717C59.2986 55.2414 59.3784 55.3119 59.3729 55.4685L59.3721 55.4693Z" fill="white"/>
<path d="M7.60201 41.8306C7.55663 42.6465 7.25779 43.3709 6.54354 43.8767C5.68535 44.4844 4.71607 44.8031 3.67638 44.7217C2.06874 44.5948 1.05174 43.5173 0.867897 41.8682C0.821741 41.4539 0.784972 41.042 0.856944 40.6231C0.89606 40.3929 0.982114 40.3036 1.21602 40.3404C1.48592 40.3827 1.75816 40.4164 2.03041 40.4305C2.31126 40.4453 2.39105 40.5941 2.35272 40.8439C2.30734 41.1407 2.28387 41.4336 2.33707 41.7366C2.47632 42.5205 2.94336 42.9512 3.72723 42.9269C4.27641 42.9104 4.81308 42.7906 5.30358 42.522C5.93099 42.1783 6.15395 41.634 5.96776 40.9387C5.85042 40.5025 5.62746 40.1219 5.37008 39.7594C5.23005 39.5628 5.2629 39.4571 5.49681 39.4039C5.6744 39.3631 5.84964 39.3122 6.02644 39.2676C6.71017 39.0938 6.71722 39.0938 7.04344 39.7351C7.37201 40.3819 7.57228 41.0647 7.60201 41.8306Z" fill="white"/>
<path d="M41.8247 66.574C40.9602 66.5724 40.8835 66.4988 40.9962 65.8332C41.0392 65.5803 40.9227 65.2608 41.1276 65.0877C41.3154 64.9287 41.6009 65.0846 41.845 65.0799C43.103 65.054 43.6349 64.3908 43.3955 63.1449C43.3157 62.7299 43.1781 62.3415 42.9582 61.9828C42.6093 61.4135 42.1008 61.224 41.4539 61.3948C41.0275 61.5075 40.6661 61.7385 40.3281 62.0016C40.0293 62.2342 39.9002 62.1379 39.8329 61.8129C39.8118 61.7111 39.7781 61.6125 39.7492 61.5122C39.5192 60.7205 39.5216 60.726 40.2733 60.3321C40.7498 60.0823 41.2442 59.8983 41.7769 59.809C42.7212 59.6509 43.5598 59.8686 44.1779 60.6046C44.9961 61.5803 45.3975 62.7181 45.2027 64.0094C45.0415 65.0799 44.4165 65.7948 43.4331 66.2145C42.862 66.4589 42.2635 66.5575 41.8239 66.574H41.8247Z" fill="white"/>
<path d="M60.3513 35.8425C60.3294 34.7399 60.6251 33.7815 61.6265 33.1683C62.1413 32.8527 62.7249 32.7361 63.3077 32.7243C64.3114 32.704 65.2775 32.8645 66.0622 33.5904C66.8719 34.3398 67.0878 35.2834 66.9697 36.3311C66.9141 36.8237 66.7811 37.3013 66.5746 37.7563C66.4815 37.9615 66.3579 38.0398 66.1482 37.9223C66.1255 37.9098 66.0997 37.9027 66.0763 37.8918C65.7821 37.754 65.4058 37.685 65.2157 37.4595C64.9771 37.176 65.344 36.8746 65.4269 36.5778C65.7156 35.5434 65.362 34.9052 64.3145 34.6522C63.8522 34.5402 63.3812 34.5402 62.9181 34.6099C62.0967 34.7344 61.6656 35.3625 61.7877 36.2332C61.8322 36.5543 61.9042 36.8746 61.9965 37.1847C62.0865 37.4869 61.977 37.5699 61.6977 37.5292C61.6077 37.5159 61.5178 37.5002 61.427 37.4924C60.489 37.4078 60.4562 37.3789 60.3537 36.4282C60.3333 36.2356 60.3506 36.0383 60.3506 35.8433L60.3513 35.8425Z" fill="white"/>
<path d="M16.8357 12.4523C15.5715 12.3959 14.7767 11.6958 14.1626 10.7569C13.5313 9.7922 13.198 8.75777 13.6885 7.61605C14.1164 6.62078 14.9504 6.08594 15.9079 5.71163C16.8091 5.35925 16.8131 5.371 17.0196 6.29424C17.0423 6.39604 17.0517 6.50175 17.0837 6.59963C17.1659 6.851 17.0548 6.95436 16.8193 7.00683C16.4117 7.0961 16.0112 7.21043 15.6693 7.4704C15.2789 7.76797 15.1217 8.16107 15.2101 8.63874C15.3454 9.37404 15.7311 9.96917 16.3006 10.439C16.7943 10.8462 17.3145 10.8619 17.8512 10.5087C18.2369 10.255 18.5388 9.91201 18.8017 9.53692C18.9613 9.30826 19.0919 9.30826 19.2273 9.5518C19.2648 9.61992 19.3125 9.68257 19.3579 9.74678C19.9274 10.5549 19.9337 10.5612 19.2085 11.2636C18.5287 11.9221 17.7526 12.3959 16.8357 12.4523Z" fill="white"/>
<path d="M46.797 3.62789C46.7579 3.71637 46.707 3.83618 46.6523 3.95364C46.0992 5.14704 45.5414 6.33808 44.9938 7.53383C44.756 8.05456 44.7661 8.0577 45.2981 8.29888C45.7487 8.50326 46.1915 8.72487 46.6484 8.91281C46.93 9.0287 46.9863 9.1673 46.8549 9.44764C46.2932 10.641 46.5396 10.4484 45.4788 9.96995C44.6128 9.5792 43.7554 9.17044 42.8862 8.78595C42.6109 8.66457 42.5545 8.53928 42.6891 8.25346C43.4824 6.56909 44.2561 4.87531 45.0376 3.18467C45.2598 2.70387 45.2613 2.70622 45.7534 2.93879C46.0241 3.06643 46.2987 3.18702 46.5678 3.31701C46.682 3.37261 46.8142 3.42272 46.7954 3.62789H46.797Z" fill="white"/>
<path d="M14.1646 53.0996C14.2452 53.1544 14.3383 53.2038 14.4142 53.2719C15.2841 54.0557 16.1462 54.8474 17.0216 55.6242C17.2368 55.8153 17.243 55.939 17.0435 56.1591C15.759 57.5748 14.4869 59.0032 13.2173 60.433C13.0365 60.6358 12.8981 60.6969 12.6837 60.4675C12.4443 60.2122 12.1713 59.9875 11.9045 59.7596C11.7137 59.5959 11.6706 59.4691 11.8686 59.253C12.8105 58.2287 13.7273 57.1802 14.67 56.1567C14.9172 55.8881 14.9876 55.7088 14.6591 55.4465C14.2225 55.098 13.8345 54.69 13.4089 54.3275C13.2094 54.1575 13.2063 54.0268 13.38 53.8474C13.5607 53.6603 13.7242 53.4575 13.8979 53.2641C13.9659 53.1881 14.034 53.1059 14.1646 53.1004V53.0996Z" fill="white"/>
<path d="M9.55512 50.4326C9.54729 51.2008 8.62417 52.0175 7.75737 52.0222C7.01418 52.0269 6.31558 51.2532 6.33435 50.4467C6.35235 49.6691 7.27156 48.8805 8.15244 48.886C8.88781 48.8907 9.56294 49.6346 9.55512 50.4326Z" fill="white"/>
</g>
<defs>
<clipPath id="clip0_649_6477">
<rect width="67" height="67" fill="white" transform="translate(0 0.699951)"/>
</clipPath>
</defs>
</svg>
